%TF.GenerationSoftware,KiCad,Pcbnew,8.0.4-8.0.4-0~ubuntu22.04.1*%
%TF.CreationDate,2024-09-03T10:52:41+09:00*%
%TF.ProjectId,control_board,636f6e74-726f-46c5-9f62-6f6172642e6b,rev?*%
%TF.SameCoordinates,Original*%
%TF.FileFunction,Legend,Top*%
%TF.FilePolarity,Positive*%
%FSLAX46Y46*%
G04 Gerber Fmt 4.6, Leading zero omitted, Abs format (unit mm)*
G04 Created by KiCad (PCBNEW 8.0.4-8.0.4-0~ubuntu22.04.1) date 2024-09-03 10:52:41*
%MOMM*%
%LPD*%
G01*
G04 APERTURE LIST*
%ADD10C,0.100000*%
%ADD11C,0.300000*%
%ADD12C,0.150000*%
%ADD13C,0.120000*%
G04 APERTURE END LIST*
D10*
X152500000Y-100000000D02*
G75*
G02*
X147500000Y-100000000I-2500000J0D01*
G01*
X147500000Y-100000000D02*
G75*
G02*
X152500000Y-100000000I2500000J0D01*
G01*
D11*
X169840225Y-81300828D02*
X168983082Y-81300828D01*
X169411653Y-81300828D02*
X169411653Y-79800828D01*
X169411653Y-79800828D02*
X169268796Y-80015114D01*
X169268796Y-80015114D02*
X169125939Y-80157971D01*
X169125939Y-80157971D02*
X168983082Y-80229400D01*
X171268796Y-81300828D02*
X170411653Y-81300828D01*
X170840224Y-81300828D02*
X170840224Y-79800828D01*
X170840224Y-79800828D02*
X170697367Y-80015114D01*
X170697367Y-80015114D02*
X170554510Y-80157971D01*
X170554510Y-80157971D02*
X170411653Y-80229400D01*
X159283082Y-132729400D02*
X159497368Y-132800828D01*
X159497368Y-132800828D02*
X159854510Y-132800828D01*
X159854510Y-132800828D02*
X159997368Y-132729400D01*
X159997368Y-132729400D02*
X160068796Y-132657971D01*
X160068796Y-132657971D02*
X160140225Y-132515114D01*
X160140225Y-132515114D02*
X160140225Y-132372257D01*
X160140225Y-132372257D02*
X160068796Y-132229400D01*
X160068796Y-132229400D02*
X159997368Y-132157971D01*
X159997368Y-132157971D02*
X159854510Y-132086542D01*
X159854510Y-132086542D02*
X159568796Y-132015114D01*
X159568796Y-132015114D02*
X159425939Y-131943685D01*
X159425939Y-131943685D02*
X159354510Y-131872257D01*
X159354510Y-131872257D02*
X159283082Y-131729400D01*
X159283082Y-131729400D02*
X159283082Y-131586542D01*
X159283082Y-131586542D02*
X159354510Y-131443685D01*
X159354510Y-131443685D02*
X159425939Y-131372257D01*
X159425939Y-131372257D02*
X159568796Y-131300828D01*
X159568796Y-131300828D02*
X159925939Y-131300828D01*
X159925939Y-131300828D02*
X160140225Y-131372257D01*
X160640224Y-131300828D02*
X160997367Y-132800828D01*
X160997367Y-132800828D02*
X161283081Y-131729400D01*
X161283081Y-131729400D02*
X161568796Y-132800828D01*
X161568796Y-132800828D02*
X161925939Y-131300828D01*
X168911653Y-69300828D02*
X169911653Y-69300828D01*
X169911653Y-69300828D02*
X169268796Y-70800828D01*
X132300828Y-97695489D02*
X130800828Y-97695489D01*
X130943685Y-97052631D02*
X130872257Y-96981203D01*
X130872257Y-96981203D02*
X130800828Y-96838346D01*
X130800828Y-96838346D02*
X130800828Y-96481203D01*
X130800828Y-96481203D02*
X130872257Y-96338346D01*
X130872257Y-96338346D02*
X130943685Y-96266917D01*
X130943685Y-96266917D02*
X131086542Y-96195488D01*
X131086542Y-96195488D02*
X131229400Y-96195488D01*
X131229400Y-96195488D02*
X131443685Y-96266917D01*
X131443685Y-96266917D02*
X132300828Y-97124060D01*
X132300828Y-97124060D02*
X132300828Y-96195488D01*
X132157971Y-94695489D02*
X132229400Y-94766917D01*
X132229400Y-94766917D02*
X132300828Y-94981203D01*
X132300828Y-94981203D02*
X132300828Y-95124060D01*
X132300828Y-95124060D02*
X132229400Y-95338346D01*
X132229400Y-95338346D02*
X132086542Y-95481203D01*
X132086542Y-95481203D02*
X131943685Y-95552632D01*
X131943685Y-95552632D02*
X131657971Y-95624060D01*
X131657971Y-95624060D02*
X131443685Y-95624060D01*
X131443685Y-95624060D02*
X131157971Y-95552632D01*
X131157971Y-95552632D02*
X131015114Y-95481203D01*
X131015114Y-95481203D02*
X130872257Y-95338346D01*
X130872257Y-95338346D02*
X130800828Y-95124060D01*
X130800828Y-95124060D02*
X130800828Y-94981203D01*
X130800828Y-94981203D02*
X130872257Y-94766917D01*
X130872257Y-94766917D02*
X130943685Y-94695489D01*
X118983082Y-105229400D02*
X119197368Y-105300828D01*
X119197368Y-105300828D02*
X119554510Y-105300828D01*
X119554510Y-105300828D02*
X119697368Y-105229400D01*
X119697368Y-105229400D02*
X119768796Y-105157971D01*
X119768796Y-105157971D02*
X119840225Y-105015114D01*
X119840225Y-105015114D02*
X119840225Y-104872257D01*
X119840225Y-104872257D02*
X119768796Y-104729400D01*
X119768796Y-104729400D02*
X119697368Y-104657971D01*
X119697368Y-104657971D02*
X119554510Y-104586542D01*
X119554510Y-104586542D02*
X119268796Y-104515114D01*
X119268796Y-104515114D02*
X119125939Y-104443685D01*
X119125939Y-104443685D02*
X119054510Y-104372257D01*
X119054510Y-104372257D02*
X118983082Y-104229400D01*
X118983082Y-104229400D02*
X118983082Y-104086542D01*
X118983082Y-104086542D02*
X119054510Y-103943685D01*
X119054510Y-103943685D02*
X119125939Y-103872257D01*
X119125939Y-103872257D02*
X119268796Y-103800828D01*
X119268796Y-103800828D02*
X119625939Y-103800828D01*
X119625939Y-103800828D02*
X119840225Y-103872257D01*
X121054510Y-105229400D02*
X120911653Y-105300828D01*
X120911653Y-105300828D02*
X120625939Y-105300828D01*
X120625939Y-105300828D02*
X120483081Y-105229400D01*
X120483081Y-105229400D02*
X120411653Y-105086542D01*
X120411653Y-105086542D02*
X120411653Y-104515114D01*
X120411653Y-104515114D02*
X120483081Y-104372257D01*
X120483081Y-104372257D02*
X120625939Y-104300828D01*
X120625939Y-104300828D02*
X120911653Y-104300828D01*
X120911653Y-104300828D02*
X121054510Y-104372257D01*
X121054510Y-104372257D02*
X121125939Y-104515114D01*
X121125939Y-104515114D02*
X121125939Y-104657971D01*
X121125939Y-104657971D02*
X120411653Y-104800828D01*
X121768795Y-104300828D02*
X121768795Y-105300828D01*
X121768795Y-104443685D02*
X121840224Y-104372257D01*
X121840224Y-104372257D02*
X121983081Y-104300828D01*
X121983081Y-104300828D02*
X122197367Y-104300828D01*
X122197367Y-104300828D02*
X122340224Y-104372257D01*
X122340224Y-104372257D02*
X122411653Y-104515114D01*
X122411653Y-104515114D02*
X122411653Y-105300828D01*
X123054510Y-105229400D02*
X123197367Y-105300828D01*
X123197367Y-105300828D02*
X123483081Y-105300828D01*
X123483081Y-105300828D02*
X123625938Y-105229400D01*
X123625938Y-105229400D02*
X123697367Y-105086542D01*
X123697367Y-105086542D02*
X123697367Y-105015114D01*
X123697367Y-105015114D02*
X123625938Y-104872257D01*
X123625938Y-104872257D02*
X123483081Y-104800828D01*
X123483081Y-104800828D02*
X123268796Y-104800828D01*
X123268796Y-104800828D02*
X123125938Y-104729400D01*
X123125938Y-104729400D02*
X123054510Y-104586542D01*
X123054510Y-104586542D02*
X123054510Y-104515114D01*
X123054510Y-104515114D02*
X123125938Y-104372257D01*
X123125938Y-104372257D02*
X123268796Y-104300828D01*
X123268796Y-104300828D02*
X123483081Y-104300828D01*
X123483081Y-104300828D02*
X123625938Y-104372257D01*
X124554510Y-105300828D02*
X124411653Y-105229400D01*
X124411653Y-105229400D02*
X124340224Y-105157971D01*
X124340224Y-105157971D02*
X124268796Y-105015114D01*
X124268796Y-105015114D02*
X124268796Y-104586542D01*
X124268796Y-104586542D02*
X124340224Y-104443685D01*
X124340224Y-104443685D02*
X124411653Y-104372257D01*
X124411653Y-104372257D02*
X124554510Y-104300828D01*
X124554510Y-104300828D02*
X124768796Y-104300828D01*
X124768796Y-104300828D02*
X124911653Y-104372257D01*
X124911653Y-104372257D02*
X124983082Y-104443685D01*
X124983082Y-104443685D02*
X125054510Y-104586542D01*
X125054510Y-104586542D02*
X125054510Y-105015114D01*
X125054510Y-105015114D02*
X124983082Y-105157971D01*
X124983082Y-105157971D02*
X124911653Y-105229400D01*
X124911653Y-105229400D02*
X124768796Y-105300828D01*
X124768796Y-105300828D02*
X124554510Y-105300828D01*
X125697367Y-105300828D02*
X125697367Y-104300828D01*
X125697367Y-104586542D02*
X125768796Y-104443685D01*
X125768796Y-104443685D02*
X125840225Y-104372257D01*
X125840225Y-104372257D02*
X125983082Y-104300828D01*
X125983082Y-104300828D02*
X126125939Y-104300828D01*
X128411653Y-104300828D02*
X128411653Y-105300828D01*
X128054510Y-103729400D02*
X127697367Y-104800828D01*
X127697367Y-104800828D02*
X128625938Y-104800828D01*
X129197366Y-104729400D02*
X130340224Y-104729400D01*
X131697367Y-103800828D02*
X131411652Y-103800828D01*
X131411652Y-103800828D02*
X131268795Y-103872257D01*
X131268795Y-103872257D02*
X131197367Y-103943685D01*
X131197367Y-103943685D02*
X131054509Y-104157971D01*
X131054509Y-104157971D02*
X130983081Y-104443685D01*
X130983081Y-104443685D02*
X130983081Y-105015114D01*
X130983081Y-105015114D02*
X131054509Y-105157971D01*
X131054509Y-105157971D02*
X131125938Y-105229400D01*
X131125938Y-105229400D02*
X131268795Y-105300828D01*
X131268795Y-105300828D02*
X131554509Y-105300828D01*
X131554509Y-105300828D02*
X131697367Y-105229400D01*
X131697367Y-105229400D02*
X131768795Y-105157971D01*
X131768795Y-105157971D02*
X131840224Y-105015114D01*
X131840224Y-105015114D02*
X131840224Y-104657971D01*
X131840224Y-104657971D02*
X131768795Y-104515114D01*
X131768795Y-104515114D02*
X131697367Y-104443685D01*
X131697367Y-104443685D02*
X131554509Y-104372257D01*
X131554509Y-104372257D02*
X131268795Y-104372257D01*
X131268795Y-104372257D02*
X131125938Y-104443685D01*
X131125938Y-104443685D02*
X131054509Y-104515114D01*
X131054509Y-104515114D02*
X130983081Y-104657971D01*
X169054510Y-86300828D02*
X169054510Y-84800828D01*
X169054510Y-84800828D02*
X169625939Y-84800828D01*
X169625939Y-84800828D02*
X169768796Y-84872257D01*
X169768796Y-84872257D02*
X169840225Y-84943685D01*
X169840225Y-84943685D02*
X169911653Y-85086542D01*
X169911653Y-85086542D02*
X169911653Y-85300828D01*
X169911653Y-85300828D02*
X169840225Y-85443685D01*
X169840225Y-85443685D02*
X169768796Y-85515114D01*
X169768796Y-85515114D02*
X169625939Y-85586542D01*
X169625939Y-85586542D02*
X169054510Y-85586542D01*
X170411653Y-84800828D02*
X170768796Y-86300828D01*
X170768796Y-86300828D02*
X171054510Y-85229400D01*
X171054510Y-85229400D02*
X171340225Y-86300828D01*
X171340225Y-86300828D02*
X171697368Y-84800828D01*
X172268796Y-86300828D02*
X172268796Y-84800828D01*
X172268796Y-84800828D02*
X172768796Y-85872257D01*
X172768796Y-85872257D02*
X173268796Y-84800828D01*
X173268796Y-84800828D02*
X173268796Y-86300828D01*
X174268797Y-84800828D02*
X174411654Y-84800828D01*
X174411654Y-84800828D02*
X174554511Y-84872257D01*
X174554511Y-84872257D02*
X174625940Y-84943685D01*
X174625940Y-84943685D02*
X174697368Y-85086542D01*
X174697368Y-85086542D02*
X174768797Y-85372257D01*
X174768797Y-85372257D02*
X174768797Y-85729400D01*
X174768797Y-85729400D02*
X174697368Y-86015114D01*
X174697368Y-86015114D02*
X174625940Y-86157971D01*
X174625940Y-86157971D02*
X174554511Y-86229400D01*
X174554511Y-86229400D02*
X174411654Y-86300828D01*
X174411654Y-86300828D02*
X174268797Y-86300828D01*
X174268797Y-86300828D02*
X174125940Y-86229400D01*
X174125940Y-86229400D02*
X174054511Y-86157971D01*
X174054511Y-86157971D02*
X173983082Y-86015114D01*
X173983082Y-86015114D02*
X173911654Y-85729400D01*
X173911654Y-85729400D02*
X173911654Y-85372257D01*
X173911654Y-85372257D02*
X173983082Y-85086542D01*
X173983082Y-85086542D02*
X174054511Y-84943685D01*
X174054511Y-84943685D02*
X174125940Y-84872257D01*
X174125940Y-84872257D02*
X174268797Y-84800828D01*
X167983082Y-105229400D02*
X168197368Y-105300828D01*
X168197368Y-105300828D02*
X168554510Y-105300828D01*
X168554510Y-105300828D02*
X168697368Y-105229400D01*
X168697368Y-105229400D02*
X168768796Y-105157971D01*
X168768796Y-105157971D02*
X168840225Y-105015114D01*
X168840225Y-105015114D02*
X168840225Y-104872257D01*
X168840225Y-104872257D02*
X168768796Y-104729400D01*
X168768796Y-104729400D02*
X168697368Y-104657971D01*
X168697368Y-104657971D02*
X168554510Y-104586542D01*
X168554510Y-104586542D02*
X168268796Y-104515114D01*
X168268796Y-104515114D02*
X168125939Y-104443685D01*
X168125939Y-104443685D02*
X168054510Y-104372257D01*
X168054510Y-104372257D02*
X167983082Y-104229400D01*
X167983082Y-104229400D02*
X167983082Y-104086542D01*
X167983082Y-104086542D02*
X168054510Y-103943685D01*
X168054510Y-103943685D02*
X168125939Y-103872257D01*
X168125939Y-103872257D02*
X168268796Y-103800828D01*
X168268796Y-103800828D02*
X168625939Y-103800828D01*
X168625939Y-103800828D02*
X168840225Y-103872257D01*
X170054510Y-105229400D02*
X169911653Y-105300828D01*
X169911653Y-105300828D02*
X169625939Y-105300828D01*
X169625939Y-105300828D02*
X169483081Y-105229400D01*
X169483081Y-105229400D02*
X169411653Y-105086542D01*
X169411653Y-105086542D02*
X169411653Y-104515114D01*
X169411653Y-104515114D02*
X169483081Y-104372257D01*
X169483081Y-104372257D02*
X169625939Y-104300828D01*
X169625939Y-104300828D02*
X169911653Y-104300828D01*
X169911653Y-104300828D02*
X170054510Y-104372257D01*
X170054510Y-104372257D02*
X170125939Y-104515114D01*
X170125939Y-104515114D02*
X170125939Y-104657971D01*
X170125939Y-104657971D02*
X169411653Y-104800828D01*
X170768795Y-104300828D02*
X170768795Y-105300828D01*
X170768795Y-104443685D02*
X170840224Y-104372257D01*
X170840224Y-104372257D02*
X170983081Y-104300828D01*
X170983081Y-104300828D02*
X171197367Y-104300828D01*
X171197367Y-104300828D02*
X171340224Y-104372257D01*
X171340224Y-104372257D02*
X171411653Y-104515114D01*
X171411653Y-104515114D02*
X171411653Y-105300828D01*
X172054510Y-105229400D02*
X172197367Y-105300828D01*
X172197367Y-105300828D02*
X172483081Y-105300828D01*
X172483081Y-105300828D02*
X172625938Y-105229400D01*
X172625938Y-105229400D02*
X172697367Y-105086542D01*
X172697367Y-105086542D02*
X172697367Y-105015114D01*
X172697367Y-105015114D02*
X172625938Y-104872257D01*
X172625938Y-104872257D02*
X172483081Y-104800828D01*
X172483081Y-104800828D02*
X172268796Y-104800828D01*
X172268796Y-104800828D02*
X172125938Y-104729400D01*
X172125938Y-104729400D02*
X172054510Y-104586542D01*
X172054510Y-104586542D02*
X172054510Y-104515114D01*
X172054510Y-104515114D02*
X172125938Y-104372257D01*
X172125938Y-104372257D02*
X172268796Y-104300828D01*
X172268796Y-104300828D02*
X172483081Y-104300828D01*
X172483081Y-104300828D02*
X172625938Y-104372257D01*
X173554510Y-105300828D02*
X173411653Y-105229400D01*
X173411653Y-105229400D02*
X173340224Y-105157971D01*
X173340224Y-105157971D02*
X173268796Y-105015114D01*
X173268796Y-105015114D02*
X173268796Y-104586542D01*
X173268796Y-104586542D02*
X173340224Y-104443685D01*
X173340224Y-104443685D02*
X173411653Y-104372257D01*
X173411653Y-104372257D02*
X173554510Y-104300828D01*
X173554510Y-104300828D02*
X173768796Y-104300828D01*
X173768796Y-104300828D02*
X173911653Y-104372257D01*
X173911653Y-104372257D02*
X173983082Y-104443685D01*
X173983082Y-104443685D02*
X174054510Y-104586542D01*
X174054510Y-104586542D02*
X174054510Y-105015114D01*
X174054510Y-105015114D02*
X173983082Y-105157971D01*
X173983082Y-105157971D02*
X173911653Y-105229400D01*
X173911653Y-105229400D02*
X173768796Y-105300828D01*
X173768796Y-105300828D02*
X173554510Y-105300828D01*
X174697367Y-105300828D02*
X174697367Y-104300828D01*
X174697367Y-104586542D02*
X174768796Y-104443685D01*
X174768796Y-104443685D02*
X174840225Y-104372257D01*
X174840225Y-104372257D02*
X174983082Y-104300828D01*
X174983082Y-104300828D02*
X175125939Y-104300828D01*
X177554510Y-105300828D02*
X176697367Y-105300828D01*
X177125938Y-105300828D02*
X177125938Y-103800828D01*
X177125938Y-103800828D02*
X176983081Y-104015114D01*
X176983081Y-104015114D02*
X176840224Y-104157971D01*
X176840224Y-104157971D02*
X176697367Y-104229400D01*
X178197366Y-104729400D02*
X179340224Y-104729400D01*
X179911652Y-103800828D02*
X180840224Y-103800828D01*
X180840224Y-103800828D02*
X180340224Y-104372257D01*
X180340224Y-104372257D02*
X180554509Y-104372257D01*
X180554509Y-104372257D02*
X180697367Y-104443685D01*
X180697367Y-104443685D02*
X180768795Y-104515114D01*
X180768795Y-104515114D02*
X180840224Y-104657971D01*
X180840224Y-104657971D02*
X180840224Y-105015114D01*
X180840224Y-105015114D02*
X180768795Y-105157971D01*
X180768795Y-105157971D02*
X180697367Y-105229400D01*
X180697367Y-105229400D02*
X180554509Y-105300828D01*
X180554509Y-105300828D02*
X180125938Y-105300828D01*
X180125938Y-105300828D02*
X179983081Y-105229400D01*
X179983081Y-105229400D02*
X179911652Y-105157971D01*
X176340225Y-85300828D02*
X176840225Y-86800828D01*
X176840225Y-86800828D02*
X177340225Y-85300828D01*
X178054510Y-86800828D02*
X177911653Y-86729400D01*
X177911653Y-86729400D02*
X177840224Y-86657971D01*
X177840224Y-86657971D02*
X177768796Y-86515114D01*
X177768796Y-86515114D02*
X177768796Y-86086542D01*
X177768796Y-86086542D02*
X177840224Y-85943685D01*
X177840224Y-85943685D02*
X177911653Y-85872257D01*
X177911653Y-85872257D02*
X178054510Y-85800828D01*
X178054510Y-85800828D02*
X178268796Y-85800828D01*
X178268796Y-85800828D02*
X178411653Y-85872257D01*
X178411653Y-85872257D02*
X178483082Y-85943685D01*
X178483082Y-85943685D02*
X178554510Y-86086542D01*
X178554510Y-86086542D02*
X178554510Y-86515114D01*
X178554510Y-86515114D02*
X178483082Y-86657971D01*
X178483082Y-86657971D02*
X178411653Y-86729400D01*
X178411653Y-86729400D02*
X178268796Y-86800828D01*
X178268796Y-86800828D02*
X178054510Y-86800828D01*
X179840225Y-85800828D02*
X179840225Y-86800828D01*
X179197367Y-85800828D02*
X179197367Y-86586542D01*
X179197367Y-86586542D02*
X179268796Y-86729400D01*
X179268796Y-86729400D02*
X179411653Y-86800828D01*
X179411653Y-86800828D02*
X179625939Y-86800828D01*
X179625939Y-86800828D02*
X179768796Y-86729400D01*
X179768796Y-86729400D02*
X179840225Y-86657971D01*
X180340225Y-85800828D02*
X180911653Y-85800828D01*
X180554510Y-85300828D02*
X180554510Y-86586542D01*
X180554510Y-86586542D02*
X180625939Y-86729400D01*
X180625939Y-86729400D02*
X180768796Y-86800828D01*
X180768796Y-86800828D02*
X180911653Y-86800828D01*
X135754510Y-119300828D02*
X135754510Y-120515114D01*
X135754510Y-120515114D02*
X135825939Y-120657971D01*
X135825939Y-120657971D02*
X135897368Y-120729400D01*
X135897368Y-120729400D02*
X136040225Y-120800828D01*
X136040225Y-120800828D02*
X136325939Y-120800828D01*
X136325939Y-120800828D02*
X136468796Y-120729400D01*
X136468796Y-120729400D02*
X136540225Y-120657971D01*
X136540225Y-120657971D02*
X136611653Y-120515114D01*
X136611653Y-120515114D02*
X136611653Y-119300828D01*
X137254511Y-120372257D02*
X137968797Y-120372257D01*
X137111654Y-120800828D02*
X137611654Y-119300828D01*
X137611654Y-119300828D02*
X138111654Y-120800828D01*
X139468796Y-120800828D02*
X138968796Y-120086542D01*
X138611653Y-120800828D02*
X138611653Y-119300828D01*
X138611653Y-119300828D02*
X139183082Y-119300828D01*
X139183082Y-119300828D02*
X139325939Y-119372257D01*
X139325939Y-119372257D02*
X139397368Y-119443685D01*
X139397368Y-119443685D02*
X139468796Y-119586542D01*
X139468796Y-119586542D02*
X139468796Y-119800828D01*
X139468796Y-119800828D02*
X139397368Y-119943685D01*
X139397368Y-119943685D02*
X139325939Y-120015114D01*
X139325939Y-120015114D02*
X139183082Y-120086542D01*
X139183082Y-120086542D02*
X138611653Y-120086542D01*
X139897368Y-119300828D02*
X140754511Y-119300828D01*
X140325939Y-120800828D02*
X140325939Y-119300828D01*
X169054510Y-89050828D02*
X169054510Y-87550828D01*
X169054510Y-87550828D02*
X169625939Y-87550828D01*
X169625939Y-87550828D02*
X169768796Y-87622257D01*
X169768796Y-87622257D02*
X169840225Y-87693685D01*
X169840225Y-87693685D02*
X169911653Y-87836542D01*
X169911653Y-87836542D02*
X169911653Y-88050828D01*
X169911653Y-88050828D02*
X169840225Y-88193685D01*
X169840225Y-88193685D02*
X169768796Y-88265114D01*
X169768796Y-88265114D02*
X169625939Y-88336542D01*
X169625939Y-88336542D02*
X169054510Y-88336542D01*
X170411653Y-87550828D02*
X170768796Y-89050828D01*
X170768796Y-89050828D02*
X171054510Y-87979400D01*
X171054510Y-87979400D02*
X171340225Y-89050828D01*
X171340225Y-89050828D02*
X171697368Y-87550828D01*
X172268796Y-89050828D02*
X172268796Y-87550828D01*
X172268796Y-87550828D02*
X172768796Y-88622257D01*
X172768796Y-88622257D02*
X173268796Y-87550828D01*
X173268796Y-87550828D02*
X173268796Y-89050828D01*
X174768797Y-89050828D02*
X173911654Y-89050828D01*
X174340225Y-89050828D02*
X174340225Y-87550828D01*
X174340225Y-87550828D02*
X174197368Y-87765114D01*
X174197368Y-87765114D02*
X174054511Y-87907971D01*
X174054511Y-87907971D02*
X173911654Y-87979400D01*
X169050828Y-97695489D02*
X167550828Y-97695489D01*
X167693685Y-97052631D02*
X167622257Y-96981203D01*
X167622257Y-96981203D02*
X167550828Y-96838346D01*
X167550828Y-96838346D02*
X167550828Y-96481203D01*
X167550828Y-96481203D02*
X167622257Y-96338346D01*
X167622257Y-96338346D02*
X167693685Y-96266917D01*
X167693685Y-96266917D02*
X167836542Y-96195488D01*
X167836542Y-96195488D02*
X167979400Y-96195488D01*
X167979400Y-96195488D02*
X168193685Y-96266917D01*
X168193685Y-96266917D02*
X169050828Y-97124060D01*
X169050828Y-97124060D02*
X169050828Y-96195488D01*
X168907971Y-94695489D02*
X168979400Y-94766917D01*
X168979400Y-94766917D02*
X169050828Y-94981203D01*
X169050828Y-94981203D02*
X169050828Y-95124060D01*
X169050828Y-95124060D02*
X168979400Y-95338346D01*
X168979400Y-95338346D02*
X168836542Y-95481203D01*
X168836542Y-95481203D02*
X168693685Y-95552632D01*
X168693685Y-95552632D02*
X168407971Y-95624060D01*
X168407971Y-95624060D02*
X168193685Y-95624060D01*
X168193685Y-95624060D02*
X167907971Y-95552632D01*
X167907971Y-95552632D02*
X167765114Y-95481203D01*
X167765114Y-95481203D02*
X167622257Y-95338346D01*
X167622257Y-95338346D02*
X167550828Y-95124060D01*
X167550828Y-95124060D02*
X167550828Y-94981203D01*
X167550828Y-94981203D02*
X167622257Y-94766917D01*
X167622257Y-94766917D02*
X167693685Y-94695489D01*
X142340225Y-68050828D02*
X142840225Y-69550828D01*
X142840225Y-69550828D02*
X143340225Y-68050828D01*
X143840224Y-69550828D02*
X143840224Y-68550828D01*
X143840224Y-68050828D02*
X143768796Y-68122257D01*
X143768796Y-68122257D02*
X143840224Y-68193685D01*
X143840224Y-68193685D02*
X143911653Y-68122257D01*
X143911653Y-68122257D02*
X143840224Y-68050828D01*
X143840224Y-68050828D02*
X143840224Y-68193685D01*
X144554510Y-68550828D02*
X144554510Y-69550828D01*
X144554510Y-68693685D02*
X144625939Y-68622257D01*
X144625939Y-68622257D02*
X144768796Y-68550828D01*
X144768796Y-68550828D02*
X144983082Y-68550828D01*
X144983082Y-68550828D02*
X145125939Y-68622257D01*
X145125939Y-68622257D02*
X145197368Y-68765114D01*
X145197368Y-68765114D02*
X145197368Y-69550828D01*
X142840225Y-74300828D02*
X143125939Y-74300828D01*
X143125939Y-74300828D02*
X143268796Y-74372257D01*
X143268796Y-74372257D02*
X143411653Y-74515114D01*
X143411653Y-74515114D02*
X143483082Y-74800828D01*
X143483082Y-74800828D02*
X143483082Y-75300828D01*
X143483082Y-75300828D02*
X143411653Y-75586542D01*
X143411653Y-75586542D02*
X143268796Y-75729400D01*
X143268796Y-75729400D02*
X143125939Y-75800828D01*
X143125939Y-75800828D02*
X142840225Y-75800828D01*
X142840225Y-75800828D02*
X142697368Y-75729400D01*
X142697368Y-75729400D02*
X142554510Y-75586542D01*
X142554510Y-75586542D02*
X142483082Y-75300828D01*
X142483082Y-75300828D02*
X142483082Y-74800828D01*
X142483082Y-74800828D02*
X142554510Y-74515114D01*
X142554510Y-74515114D02*
X142697368Y-74372257D01*
X142697368Y-74372257D02*
X142840225Y-74300828D01*
X144125939Y-75800828D02*
X144125939Y-74300828D01*
X144125939Y-74300828D02*
X144983082Y-75800828D01*
X144983082Y-75800828D02*
X144983082Y-74300828D01*
X119840225Y-85050828D02*
X120340225Y-86550828D01*
X120340225Y-86550828D02*
X120840225Y-85050828D01*
X121554510Y-86550828D02*
X121411653Y-86479400D01*
X121411653Y-86479400D02*
X121340224Y-86407971D01*
X121340224Y-86407971D02*
X121268796Y-86265114D01*
X121268796Y-86265114D02*
X121268796Y-85836542D01*
X121268796Y-85836542D02*
X121340224Y-85693685D01*
X121340224Y-85693685D02*
X121411653Y-85622257D01*
X121411653Y-85622257D02*
X121554510Y-85550828D01*
X121554510Y-85550828D02*
X121768796Y-85550828D01*
X121768796Y-85550828D02*
X121911653Y-85622257D01*
X121911653Y-85622257D02*
X121983082Y-85693685D01*
X121983082Y-85693685D02*
X122054510Y-85836542D01*
X122054510Y-85836542D02*
X122054510Y-86265114D01*
X122054510Y-86265114D02*
X121983082Y-86407971D01*
X121983082Y-86407971D02*
X121911653Y-86479400D01*
X121911653Y-86479400D02*
X121768796Y-86550828D01*
X121768796Y-86550828D02*
X121554510Y-86550828D01*
X123340225Y-85550828D02*
X123340225Y-86550828D01*
X122697367Y-85550828D02*
X122697367Y-86336542D01*
X122697367Y-86336542D02*
X122768796Y-86479400D01*
X122768796Y-86479400D02*
X122911653Y-86550828D01*
X122911653Y-86550828D02*
X123125939Y-86550828D01*
X123125939Y-86550828D02*
X123268796Y-86479400D01*
X123268796Y-86479400D02*
X123340225Y-86407971D01*
X123840225Y-85550828D02*
X124411653Y-85550828D01*
X124054510Y-85050828D02*
X124054510Y-86336542D01*
X124054510Y-86336542D02*
X124125939Y-86479400D01*
X124125939Y-86479400D02*
X124268796Y-86550828D01*
X124268796Y-86550828D02*
X124411653Y-86550828D01*
X169268796Y-72693685D02*
X169125939Y-72622257D01*
X169125939Y-72622257D02*
X169054510Y-72550828D01*
X169054510Y-72550828D02*
X168983082Y-72407971D01*
X168983082Y-72407971D02*
X168983082Y-72336542D01*
X168983082Y-72336542D02*
X169054510Y-72193685D01*
X169054510Y-72193685D02*
X169125939Y-72122257D01*
X169125939Y-72122257D02*
X169268796Y-72050828D01*
X169268796Y-72050828D02*
X169554510Y-72050828D01*
X169554510Y-72050828D02*
X169697368Y-72122257D01*
X169697368Y-72122257D02*
X169768796Y-72193685D01*
X169768796Y-72193685D02*
X169840225Y-72336542D01*
X169840225Y-72336542D02*
X169840225Y-72407971D01*
X169840225Y-72407971D02*
X169768796Y-72550828D01*
X169768796Y-72550828D02*
X169697368Y-72622257D01*
X169697368Y-72622257D02*
X169554510Y-72693685D01*
X169554510Y-72693685D02*
X169268796Y-72693685D01*
X169268796Y-72693685D02*
X169125939Y-72765114D01*
X169125939Y-72765114D02*
X169054510Y-72836542D01*
X169054510Y-72836542D02*
X168983082Y-72979400D01*
X168983082Y-72979400D02*
X168983082Y-73265114D01*
X168983082Y-73265114D02*
X169054510Y-73407971D01*
X169054510Y-73407971D02*
X169125939Y-73479400D01*
X169125939Y-73479400D02*
X169268796Y-73550828D01*
X169268796Y-73550828D02*
X169554510Y-73550828D01*
X169554510Y-73550828D02*
X169697368Y-73479400D01*
X169697368Y-73479400D02*
X169768796Y-73407971D01*
X169768796Y-73407971D02*
X169840225Y-73265114D01*
X169840225Y-73265114D02*
X169840225Y-72979400D01*
X169840225Y-72979400D02*
X169768796Y-72836542D01*
X169768796Y-72836542D02*
X169697368Y-72765114D01*
X169697368Y-72765114D02*
X169554510Y-72693685D01*
X169840225Y-78550828D02*
X168983082Y-78550828D01*
X169411653Y-78550828D02*
X169411653Y-77050828D01*
X169411653Y-77050828D02*
X169268796Y-77265114D01*
X169268796Y-77265114D02*
X169125939Y-77407971D01*
X169125939Y-77407971D02*
X168983082Y-77479400D01*
X170768796Y-77050828D02*
X170911653Y-77050828D01*
X170911653Y-77050828D02*
X171054510Y-77122257D01*
X171054510Y-77122257D02*
X171125939Y-77193685D01*
X171125939Y-77193685D02*
X171197367Y-77336542D01*
X171197367Y-77336542D02*
X171268796Y-77622257D01*
X171268796Y-77622257D02*
X171268796Y-77979400D01*
X171268796Y-77979400D02*
X171197367Y-78265114D01*
X171197367Y-78265114D02*
X171125939Y-78407971D01*
X171125939Y-78407971D02*
X171054510Y-78479400D01*
X171054510Y-78479400D02*
X170911653Y-78550828D01*
X170911653Y-78550828D02*
X170768796Y-78550828D01*
X170768796Y-78550828D02*
X170625939Y-78479400D01*
X170625939Y-78479400D02*
X170554510Y-78407971D01*
X170554510Y-78407971D02*
X170483081Y-78265114D01*
X170483081Y-78265114D02*
X170411653Y-77979400D01*
X170411653Y-77979400D02*
X170411653Y-77622257D01*
X170411653Y-77622257D02*
X170483081Y-77336542D01*
X170483081Y-77336542D02*
X170554510Y-77193685D01*
X170554510Y-77193685D02*
X170625939Y-77122257D01*
X170625939Y-77122257D02*
X170768796Y-77050828D01*
X135011653Y-123100828D02*
X135940225Y-123100828D01*
X135940225Y-123100828D02*
X135440225Y-123672257D01*
X135440225Y-123672257D02*
X135654510Y-123672257D01*
X135654510Y-123672257D02*
X135797368Y-123743685D01*
X135797368Y-123743685D02*
X135868796Y-123815114D01*
X135868796Y-123815114D02*
X135940225Y-123957971D01*
X135940225Y-123957971D02*
X135940225Y-124315114D01*
X135940225Y-124315114D02*
X135868796Y-124457971D01*
X135868796Y-124457971D02*
X135797368Y-124529400D01*
X135797368Y-124529400D02*
X135654510Y-124600828D01*
X135654510Y-124600828D02*
X135225939Y-124600828D01*
X135225939Y-124600828D02*
X135083082Y-124529400D01*
X135083082Y-124529400D02*
X135011653Y-124457971D01*
X136583081Y-124457971D02*
X136654510Y-124529400D01*
X136654510Y-124529400D02*
X136583081Y-124600828D01*
X136583081Y-124600828D02*
X136511653Y-124529400D01*
X136511653Y-124529400D02*
X136583081Y-124457971D01*
X136583081Y-124457971D02*
X136583081Y-124600828D01*
X137154510Y-123100828D02*
X138083082Y-123100828D01*
X138083082Y-123100828D02*
X137583082Y-123672257D01*
X137583082Y-123672257D02*
X137797367Y-123672257D01*
X137797367Y-123672257D02*
X137940225Y-123743685D01*
X137940225Y-123743685D02*
X138011653Y-123815114D01*
X138011653Y-123815114D02*
X138083082Y-123957971D01*
X138083082Y-123957971D02*
X138083082Y-124315114D01*
X138083082Y-124315114D02*
X138011653Y-124457971D01*
X138011653Y-124457971D02*
X137940225Y-124529400D01*
X137940225Y-124529400D02*
X137797367Y-124600828D01*
X137797367Y-124600828D02*
X137368796Y-124600828D01*
X137368796Y-124600828D02*
X137225939Y-124529400D01*
X137225939Y-124529400D02*
X137154510Y-124457971D01*
X138511653Y-123100828D02*
X139011653Y-124600828D01*
X139011653Y-124600828D02*
X139511653Y-123100828D01*
X169125939Y-76050828D02*
X169411653Y-76050828D01*
X169411653Y-76050828D02*
X169554510Y-75979400D01*
X169554510Y-75979400D02*
X169625939Y-75907971D01*
X169625939Y-75907971D02*
X169768796Y-75693685D01*
X169768796Y-75693685D02*
X169840225Y-75407971D01*
X169840225Y-75407971D02*
X169840225Y-74836542D01*
X169840225Y-74836542D02*
X169768796Y-74693685D01*
X169768796Y-74693685D02*
X169697368Y-74622257D01*
X169697368Y-74622257D02*
X169554510Y-74550828D01*
X169554510Y-74550828D02*
X169268796Y-74550828D01*
X169268796Y-74550828D02*
X169125939Y-74622257D01*
X169125939Y-74622257D02*
X169054510Y-74693685D01*
X169054510Y-74693685D02*
X168983082Y-74836542D01*
X168983082Y-74836542D02*
X168983082Y-75193685D01*
X168983082Y-75193685D02*
X169054510Y-75336542D01*
X169054510Y-75336542D02*
X169125939Y-75407971D01*
X169125939Y-75407971D02*
X169268796Y-75479400D01*
X169268796Y-75479400D02*
X169554510Y-75479400D01*
X169554510Y-75479400D02*
X169697368Y-75407971D01*
X169697368Y-75407971D02*
X169768796Y-75336542D01*
X169768796Y-75336542D02*
X169840225Y-75193685D01*
X133840225Y-74300828D02*
X134125939Y-74300828D01*
X134125939Y-74300828D02*
X134268796Y-74372257D01*
X134268796Y-74372257D02*
X134411653Y-74515114D01*
X134411653Y-74515114D02*
X134483082Y-74800828D01*
X134483082Y-74800828D02*
X134483082Y-75300828D01*
X134483082Y-75300828D02*
X134411653Y-75586542D01*
X134411653Y-75586542D02*
X134268796Y-75729400D01*
X134268796Y-75729400D02*
X134125939Y-75800828D01*
X134125939Y-75800828D02*
X133840225Y-75800828D01*
X133840225Y-75800828D02*
X133697368Y-75729400D01*
X133697368Y-75729400D02*
X133554510Y-75586542D01*
X133554510Y-75586542D02*
X133483082Y-75300828D01*
X133483082Y-75300828D02*
X133483082Y-74800828D01*
X133483082Y-74800828D02*
X133554510Y-74515114D01*
X133554510Y-74515114D02*
X133697368Y-74372257D01*
X133697368Y-74372257D02*
X133840225Y-74300828D01*
X135625939Y-75015114D02*
X135125939Y-75015114D01*
X135125939Y-75800828D02*
X135125939Y-74300828D01*
X135125939Y-74300828D02*
X135840225Y-74300828D01*
X136911653Y-75015114D02*
X136411653Y-75015114D01*
X136411653Y-75800828D02*
X136411653Y-74300828D01*
X136411653Y-74300828D02*
X137125939Y-74300828D01*
X143050828Y-120695489D02*
X141550828Y-120695489D01*
X141693685Y-120052631D02*
X141622257Y-119981203D01*
X141622257Y-119981203D02*
X141550828Y-119838346D01*
X141550828Y-119838346D02*
X141550828Y-119481203D01*
X141550828Y-119481203D02*
X141622257Y-119338346D01*
X141622257Y-119338346D02*
X141693685Y-119266917D01*
X141693685Y-119266917D02*
X141836542Y-119195488D01*
X141836542Y-119195488D02*
X141979400Y-119195488D01*
X141979400Y-119195488D02*
X142193685Y-119266917D01*
X142193685Y-119266917D02*
X143050828Y-120124060D01*
X143050828Y-120124060D02*
X143050828Y-119195488D01*
X142907971Y-117695489D02*
X142979400Y-117766917D01*
X142979400Y-117766917D02*
X143050828Y-117981203D01*
X143050828Y-117981203D02*
X143050828Y-118124060D01*
X143050828Y-118124060D02*
X142979400Y-118338346D01*
X142979400Y-118338346D02*
X142836542Y-118481203D01*
X142836542Y-118481203D02*
X142693685Y-118552632D01*
X142693685Y-118552632D02*
X142407971Y-118624060D01*
X142407971Y-118624060D02*
X142193685Y-118624060D01*
X142193685Y-118624060D02*
X141907971Y-118552632D01*
X141907971Y-118552632D02*
X141765114Y-118481203D01*
X141765114Y-118481203D02*
X141622257Y-118338346D01*
X141622257Y-118338346D02*
X141550828Y-118124060D01*
X141550828Y-118124060D02*
X141550828Y-117981203D01*
X141550828Y-117981203D02*
X141622257Y-117766917D01*
X141622257Y-117766917D02*
X141693685Y-117695489D01*
X140254510Y-133350828D02*
X140254510Y-131850828D01*
X140254510Y-131850828D02*
X140754510Y-132922257D01*
X140754510Y-132922257D02*
X141254510Y-131850828D01*
X141254510Y-131850828D02*
X141254510Y-133350828D01*
D12*
X156333333Y-91859580D02*
X156285714Y-91907200D01*
X156285714Y-91907200D02*
X156142857Y-91954819D01*
X156142857Y-91954819D02*
X156047619Y-91954819D01*
X156047619Y-91954819D02*
X155904762Y-91907200D01*
X155904762Y-91907200D02*
X155809524Y-91811961D01*
X155809524Y-91811961D02*
X155761905Y-91716723D01*
X155761905Y-91716723D02*
X155714286Y-91526247D01*
X155714286Y-91526247D02*
X155714286Y-91383390D01*
X155714286Y-91383390D02*
X155761905Y-91192914D01*
X155761905Y-91192914D02*
X155809524Y-91097676D01*
X155809524Y-91097676D02*
X155904762Y-91002438D01*
X155904762Y-91002438D02*
X156047619Y-90954819D01*
X156047619Y-90954819D02*
X156142857Y-90954819D01*
X156142857Y-90954819D02*
X156285714Y-91002438D01*
X156285714Y-91002438D02*
X156333333Y-91050057D01*
X157190476Y-91288152D02*
X157190476Y-91954819D01*
X156952381Y-90907200D02*
X156714286Y-91621485D01*
X156714286Y-91621485D02*
X157333333Y-91621485D01*
D10*
X157612180Y-87666666D02*
X157659800Y-87714285D01*
X157659800Y-87714285D02*
X157707419Y-87857142D01*
X157707419Y-87857142D02*
X157707419Y-87952380D01*
X157707419Y-87952380D02*
X157659800Y-88095237D01*
X157659800Y-88095237D02*
X157564561Y-88190475D01*
X157564561Y-88190475D02*
X157469323Y-88238094D01*
X157469323Y-88238094D02*
X157278847Y-88285713D01*
X157278847Y-88285713D02*
X157135990Y-88285713D01*
X157135990Y-88285713D02*
X156945514Y-88238094D01*
X156945514Y-88238094D02*
X156850276Y-88190475D01*
X156850276Y-88190475D02*
X156755038Y-88095237D01*
X156755038Y-88095237D02*
X156707419Y-87952380D01*
X156707419Y-87952380D02*
X156707419Y-87857142D01*
X156707419Y-87857142D02*
X156755038Y-87714285D01*
X156755038Y-87714285D02*
X156802657Y-87666666D01*
X156802657Y-87285713D02*
X156755038Y-87238094D01*
X156755038Y-87238094D02*
X156707419Y-87142856D01*
X156707419Y-87142856D02*
X156707419Y-86904761D01*
X156707419Y-86904761D02*
X156755038Y-86809523D01*
X156755038Y-86809523D02*
X156802657Y-86761904D01*
X156802657Y-86761904D02*
X156897895Y-86714285D01*
X156897895Y-86714285D02*
X156993133Y-86714285D01*
X156993133Y-86714285D02*
X157135990Y-86761904D01*
X157135990Y-86761904D02*
X157707419Y-87333332D01*
X157707419Y-87333332D02*
X157707419Y-86714285D01*
D12*
X144454819Y-88666666D02*
X143978628Y-88999999D01*
X144454819Y-89238094D02*
X143454819Y-89238094D01*
X143454819Y-89238094D02*
X143454819Y-88857142D01*
X143454819Y-88857142D02*
X143502438Y-88761904D01*
X143502438Y-88761904D02*
X143550057Y-88714285D01*
X143550057Y-88714285D02*
X143645295Y-88666666D01*
X143645295Y-88666666D02*
X143788152Y-88666666D01*
X143788152Y-88666666D02*
X143883390Y-88714285D01*
X143883390Y-88714285D02*
X143931009Y-88761904D01*
X143931009Y-88761904D02*
X143978628Y-88857142D01*
X143978628Y-88857142D02*
X143978628Y-89238094D01*
X144454819Y-88190475D02*
X144454819Y-87999999D01*
X144454819Y-87999999D02*
X144407200Y-87904761D01*
X144407200Y-87904761D02*
X144359580Y-87857142D01*
X144359580Y-87857142D02*
X144216723Y-87761904D01*
X144216723Y-87761904D02*
X144026247Y-87714285D01*
X144026247Y-87714285D02*
X143645295Y-87714285D01*
X143645295Y-87714285D02*
X143550057Y-87761904D01*
X143550057Y-87761904D02*
X143502438Y-87809523D01*
X143502438Y-87809523D02*
X143454819Y-87904761D01*
X143454819Y-87904761D02*
X143454819Y-88095237D01*
X143454819Y-88095237D02*
X143502438Y-88190475D01*
X143502438Y-88190475D02*
X143550057Y-88238094D01*
X143550057Y-88238094D02*
X143645295Y-88285713D01*
X143645295Y-88285713D02*
X143883390Y-88285713D01*
X143883390Y-88285713D02*
X143978628Y-88238094D01*
X143978628Y-88238094D02*
X144026247Y-88190475D01*
X144026247Y-88190475D02*
X144073866Y-88095237D01*
X144073866Y-88095237D02*
X144073866Y-87904761D01*
X144073866Y-87904761D02*
X144026247Y-87809523D01*
X144026247Y-87809523D02*
X143978628Y-87761904D01*
X143978628Y-87761904D02*
X143883390Y-87714285D01*
X149107142Y-113704819D02*
X148773809Y-113228628D01*
X148535714Y-113704819D02*
X148535714Y-112704819D01*
X148535714Y-112704819D02*
X148916666Y-112704819D01*
X148916666Y-112704819D02*
X149011904Y-112752438D01*
X149011904Y-112752438D02*
X149059523Y-112800057D01*
X149059523Y-112800057D02*
X149107142Y-112895295D01*
X149107142Y-112895295D02*
X149107142Y-113038152D01*
X149107142Y-113038152D02*
X149059523Y-113133390D01*
X149059523Y-113133390D02*
X149011904Y-113181009D01*
X149011904Y-113181009D02*
X148916666Y-113228628D01*
X148916666Y-113228628D02*
X148535714Y-113228628D01*
X150059523Y-113704819D02*
X149488095Y-113704819D01*
X149773809Y-113704819D02*
X149773809Y-112704819D01*
X149773809Y-112704819D02*
X149678571Y-112847676D01*
X149678571Y-112847676D02*
X149583333Y-112942914D01*
X149583333Y-112942914D02*
X149488095Y-112990533D01*
X150535714Y-113704819D02*
X150726190Y-113704819D01*
X150726190Y-113704819D02*
X150821428Y-113657200D01*
X150821428Y-113657200D02*
X150869047Y-113609580D01*
X150869047Y-113609580D02*
X150964285Y-113466723D01*
X150964285Y-113466723D02*
X151011904Y-113276247D01*
X151011904Y-113276247D02*
X151011904Y-112895295D01*
X151011904Y-112895295D02*
X150964285Y-112800057D01*
X150964285Y-112800057D02*
X150916666Y-112752438D01*
X150916666Y-112752438D02*
X150821428Y-112704819D01*
X150821428Y-112704819D02*
X150630952Y-112704819D01*
X150630952Y-112704819D02*
X150535714Y-112752438D01*
X150535714Y-112752438D02*
X150488095Y-112800057D01*
X150488095Y-112800057D02*
X150440476Y-112895295D01*
X150440476Y-112895295D02*
X150440476Y-113133390D01*
X150440476Y-113133390D02*
X150488095Y-113228628D01*
X150488095Y-113228628D02*
X150535714Y-113276247D01*
X150535714Y-113276247D02*
X150630952Y-113323866D01*
X150630952Y-113323866D02*
X150821428Y-113323866D01*
X150821428Y-113323866D02*
X150916666Y-113276247D01*
X150916666Y-113276247D02*
X150964285Y-113228628D01*
X150964285Y-113228628D02*
X151011904Y-113133390D01*
X134554819Y-100942857D02*
X134078628Y-101276190D01*
X134554819Y-101514285D02*
X133554819Y-101514285D01*
X133554819Y-101514285D02*
X133554819Y-101133333D01*
X133554819Y-101133333D02*
X133602438Y-101038095D01*
X133602438Y-101038095D02*
X133650057Y-100990476D01*
X133650057Y-100990476D02*
X133745295Y-100942857D01*
X133745295Y-100942857D02*
X133888152Y-100942857D01*
X133888152Y-100942857D02*
X133983390Y-100990476D01*
X133983390Y-100990476D02*
X134031009Y-101038095D01*
X134031009Y-101038095D02*
X134078628Y-101133333D01*
X134078628Y-101133333D02*
X134078628Y-101514285D01*
X133650057Y-100561904D02*
X133602438Y-100514285D01*
X133602438Y-100514285D02*
X133554819Y-100419047D01*
X133554819Y-100419047D02*
X133554819Y-100180952D01*
X133554819Y-100180952D02*
X133602438Y-100085714D01*
X133602438Y-100085714D02*
X133650057Y-100038095D01*
X133650057Y-100038095D02*
X133745295Y-99990476D01*
X133745295Y-99990476D02*
X133840533Y-99990476D01*
X133840533Y-99990476D02*
X133983390Y-100038095D01*
X133983390Y-100038095D02*
X134554819Y-100609523D01*
X134554819Y-100609523D02*
X134554819Y-99990476D01*
X133650057Y-99609523D02*
X133602438Y-99561904D01*
X133602438Y-99561904D02*
X133554819Y-99466666D01*
X133554819Y-99466666D02*
X133554819Y-99228571D01*
X133554819Y-99228571D02*
X133602438Y-99133333D01*
X133602438Y-99133333D02*
X133650057Y-99085714D01*
X133650057Y-99085714D02*
X133745295Y-99038095D01*
X133745295Y-99038095D02*
X133840533Y-99038095D01*
X133840533Y-99038095D02*
X133983390Y-99085714D01*
X133983390Y-99085714D02*
X134554819Y-99657142D01*
X134554819Y-99657142D02*
X134554819Y-99038095D01*
X167454819Y-110083333D02*
X168169104Y-110083333D01*
X168169104Y-110083333D02*
X168311961Y-110130952D01*
X168311961Y-110130952D02*
X168407200Y-110226190D01*
X168407200Y-110226190D02*
X168454819Y-110369047D01*
X168454819Y-110369047D02*
X168454819Y-110464285D01*
X167550057Y-109654761D02*
X167502438Y-109607142D01*
X167502438Y-109607142D02*
X167454819Y-109511904D01*
X167454819Y-109511904D02*
X167454819Y-109273809D01*
X167454819Y-109273809D02*
X167502438Y-109178571D01*
X167502438Y-109178571D02*
X167550057Y-109130952D01*
X167550057Y-109130952D02*
X167645295Y-109083333D01*
X167645295Y-109083333D02*
X167740533Y-109083333D01*
X167740533Y-109083333D02*
X167883390Y-109130952D01*
X167883390Y-109130952D02*
X168454819Y-109702380D01*
X168454819Y-109702380D02*
X168454819Y-109083333D01*
X156583333Y-90529819D02*
X156250000Y-90053628D01*
X156011905Y-90529819D02*
X156011905Y-89529819D01*
X156011905Y-89529819D02*
X156392857Y-89529819D01*
X156392857Y-89529819D02*
X156488095Y-89577438D01*
X156488095Y-89577438D02*
X156535714Y-89625057D01*
X156535714Y-89625057D02*
X156583333Y-89720295D01*
X156583333Y-89720295D02*
X156583333Y-89863152D01*
X156583333Y-89863152D02*
X156535714Y-89958390D01*
X156535714Y-89958390D02*
X156488095Y-90006009D01*
X156488095Y-90006009D02*
X156392857Y-90053628D01*
X156392857Y-90053628D02*
X156011905Y-90053628D01*
X157488095Y-89529819D02*
X157011905Y-89529819D01*
X157011905Y-89529819D02*
X156964286Y-90006009D01*
X156964286Y-90006009D02*
X157011905Y-89958390D01*
X157011905Y-89958390D02*
X157107143Y-89910771D01*
X157107143Y-89910771D02*
X157345238Y-89910771D01*
X157345238Y-89910771D02*
X157440476Y-89958390D01*
X157440476Y-89958390D02*
X157488095Y-90006009D01*
X157488095Y-90006009D02*
X157535714Y-90101247D01*
X157535714Y-90101247D02*
X157535714Y-90339342D01*
X157535714Y-90339342D02*
X157488095Y-90434580D01*
X157488095Y-90434580D02*
X157440476Y-90482200D01*
X157440476Y-90482200D02*
X157345238Y-90529819D01*
X157345238Y-90529819D02*
X157107143Y-90529819D01*
X157107143Y-90529819D02*
X157011905Y-90482200D01*
X157011905Y-90482200D02*
X156964286Y-90434580D01*
X155583333Y-83704819D02*
X155250000Y-83228628D01*
X155011905Y-83704819D02*
X155011905Y-82704819D01*
X155011905Y-82704819D02*
X155392857Y-82704819D01*
X155392857Y-82704819D02*
X155488095Y-82752438D01*
X155488095Y-82752438D02*
X155535714Y-82800057D01*
X155535714Y-82800057D02*
X155583333Y-82895295D01*
X155583333Y-82895295D02*
X155583333Y-83038152D01*
X155583333Y-83038152D02*
X155535714Y-83133390D01*
X155535714Y-83133390D02*
X155488095Y-83181009D01*
X155488095Y-83181009D02*
X155392857Y-83228628D01*
X155392857Y-83228628D02*
X155011905Y-83228628D01*
X156440476Y-82704819D02*
X156250000Y-82704819D01*
X156250000Y-82704819D02*
X156154762Y-82752438D01*
X156154762Y-82752438D02*
X156107143Y-82800057D01*
X156107143Y-82800057D02*
X156011905Y-82942914D01*
X156011905Y-82942914D02*
X155964286Y-83133390D01*
X155964286Y-83133390D02*
X155964286Y-83514342D01*
X155964286Y-83514342D02*
X156011905Y-83609580D01*
X156011905Y-83609580D02*
X156059524Y-83657200D01*
X156059524Y-83657200D02*
X156154762Y-83704819D01*
X156154762Y-83704819D02*
X156345238Y-83704819D01*
X156345238Y-83704819D02*
X156440476Y-83657200D01*
X156440476Y-83657200D02*
X156488095Y-83609580D01*
X156488095Y-83609580D02*
X156535714Y-83514342D01*
X156535714Y-83514342D02*
X156535714Y-83276247D01*
X156535714Y-83276247D02*
X156488095Y-83181009D01*
X156488095Y-83181009D02*
X156440476Y-83133390D01*
X156440476Y-83133390D02*
X156345238Y-83085771D01*
X156345238Y-83085771D02*
X156154762Y-83085771D01*
X156154762Y-83085771D02*
X156059524Y-83133390D01*
X156059524Y-83133390D02*
X156011905Y-83181009D01*
X156011905Y-83181009D02*
X155964286Y-83276247D01*
X132359580Y-92416666D02*
X132407200Y-92464285D01*
X132407200Y-92464285D02*
X132454819Y-92607142D01*
X132454819Y-92607142D02*
X132454819Y-92702380D01*
X132454819Y-92702380D02*
X132407200Y-92845237D01*
X132407200Y-92845237D02*
X132311961Y-92940475D01*
X132311961Y-92940475D02*
X132216723Y-92988094D01*
X132216723Y-92988094D02*
X132026247Y-93035713D01*
X132026247Y-93035713D02*
X131883390Y-93035713D01*
X131883390Y-93035713D02*
X131692914Y-92988094D01*
X131692914Y-92988094D02*
X131597676Y-92940475D01*
X131597676Y-92940475D02*
X131502438Y-92845237D01*
X131502438Y-92845237D02*
X131454819Y-92702380D01*
X131454819Y-92702380D02*
X131454819Y-92607142D01*
X131454819Y-92607142D02*
X131502438Y-92464285D01*
X131502438Y-92464285D02*
X131550057Y-92416666D01*
X131883390Y-91845237D02*
X131835771Y-91940475D01*
X131835771Y-91940475D02*
X131788152Y-91988094D01*
X131788152Y-91988094D02*
X131692914Y-92035713D01*
X131692914Y-92035713D02*
X131645295Y-92035713D01*
X131645295Y-92035713D02*
X131550057Y-91988094D01*
X131550057Y-91988094D02*
X131502438Y-91940475D01*
X131502438Y-91940475D02*
X131454819Y-91845237D01*
X131454819Y-91845237D02*
X131454819Y-91654761D01*
X131454819Y-91654761D02*
X131502438Y-91559523D01*
X131502438Y-91559523D02*
X131550057Y-91511904D01*
X131550057Y-91511904D02*
X131645295Y-91464285D01*
X131645295Y-91464285D02*
X131692914Y-91464285D01*
X131692914Y-91464285D02*
X131788152Y-91511904D01*
X131788152Y-91511904D02*
X131835771Y-91559523D01*
X131835771Y-91559523D02*
X131883390Y-91654761D01*
X131883390Y-91654761D02*
X131883390Y-91845237D01*
X131883390Y-91845237D02*
X131931009Y-91940475D01*
X131931009Y-91940475D02*
X131978628Y-91988094D01*
X131978628Y-91988094D02*
X132073866Y-92035713D01*
X132073866Y-92035713D02*
X132264342Y-92035713D01*
X132264342Y-92035713D02*
X132359580Y-91988094D01*
X132359580Y-91988094D02*
X132407200Y-91940475D01*
X132407200Y-91940475D02*
X132454819Y-91845237D01*
X132454819Y-91845237D02*
X132454819Y-91654761D01*
X132454819Y-91654761D02*
X132407200Y-91559523D01*
X132407200Y-91559523D02*
X132359580Y-91511904D01*
X132359580Y-91511904D02*
X132264342Y-91464285D01*
X132264342Y-91464285D02*
X132073866Y-91464285D01*
X132073866Y-91464285D02*
X131978628Y-91511904D01*
X131978628Y-91511904D02*
X131931009Y-91559523D01*
X131931009Y-91559523D02*
X131883390Y-91654761D01*
X156954819Y-114809523D02*
X157669104Y-114809523D01*
X157669104Y-114809523D02*
X157811961Y-114857142D01*
X157811961Y-114857142D02*
X157907200Y-114952380D01*
X157907200Y-114952380D02*
X157954819Y-115095237D01*
X157954819Y-115095237D02*
X157954819Y-115190475D01*
X157954819Y-113809523D02*
X157954819Y-114380951D01*
X157954819Y-114095237D02*
X156954819Y-114095237D01*
X156954819Y-114095237D02*
X157097676Y-114190475D01*
X157097676Y-114190475D02*
X157192914Y-114285713D01*
X157192914Y-114285713D02*
X157240533Y-114380951D01*
X156954819Y-113190475D02*
X156954819Y-113095237D01*
X156954819Y-113095237D02*
X157002438Y-112999999D01*
X157002438Y-112999999D02*
X157050057Y-112952380D01*
X157050057Y-112952380D02*
X157145295Y-112904761D01*
X157145295Y-112904761D02*
X157335771Y-112857142D01*
X157335771Y-112857142D02*
X157573866Y-112857142D01*
X157573866Y-112857142D02*
X157764342Y-112904761D01*
X157764342Y-112904761D02*
X157859580Y-112952380D01*
X157859580Y-112952380D02*
X157907200Y-112999999D01*
X157907200Y-112999999D02*
X157954819Y-113095237D01*
X157954819Y-113095237D02*
X157954819Y-113190475D01*
X157954819Y-113190475D02*
X157907200Y-113285713D01*
X157907200Y-113285713D02*
X157859580Y-113333332D01*
X157859580Y-113333332D02*
X157764342Y-113380951D01*
X157764342Y-113380951D02*
X157573866Y-113428570D01*
X157573866Y-113428570D02*
X157335771Y-113428570D01*
X157335771Y-113428570D02*
X157145295Y-113380951D01*
X157145295Y-113380951D02*
X157050057Y-113333332D01*
X157050057Y-113333332D02*
X157002438Y-113285713D01*
X157002438Y-113285713D02*
X156954819Y-113190475D01*
X167504819Y-118583333D02*
X168219104Y-118583333D01*
X168219104Y-118583333D02*
X168361961Y-118630952D01*
X168361961Y-118630952D02*
X168457200Y-118726190D01*
X168457200Y-118726190D02*
X168504819Y-118869047D01*
X168504819Y-118869047D02*
X168504819Y-118964285D01*
X167504819Y-118202380D02*
X167504819Y-117583333D01*
X167504819Y-117583333D02*
X167885771Y-117916666D01*
X167885771Y-117916666D02*
X167885771Y-117773809D01*
X167885771Y-117773809D02*
X167933390Y-117678571D01*
X167933390Y-117678571D02*
X167981009Y-117630952D01*
X167981009Y-117630952D02*
X168076247Y-117583333D01*
X168076247Y-117583333D02*
X168314342Y-117583333D01*
X168314342Y-117583333D02*
X168409580Y-117630952D01*
X168409580Y-117630952D02*
X168457200Y-117678571D01*
X168457200Y-117678571D02*
X168504819Y-117773809D01*
X168504819Y-117773809D02*
X168504819Y-118059523D01*
X168504819Y-118059523D02*
X168457200Y-118154761D01*
X168457200Y-118154761D02*
X168409580Y-118202380D01*
D10*
X149083333Y-97632419D02*
X148607143Y-97632419D01*
X148607143Y-97632419D02*
X148607143Y-96632419D01*
X149940476Y-97632419D02*
X149369048Y-97632419D01*
X149654762Y-97632419D02*
X149654762Y-96632419D01*
X149654762Y-96632419D02*
X149559524Y-96775276D01*
X149559524Y-96775276D02*
X149464286Y-96870514D01*
X149464286Y-96870514D02*
X149369048Y-96918133D01*
D12*
X129190476Y-67704819D02*
X129190476Y-68419104D01*
X129190476Y-68419104D02*
X129142857Y-68561961D01*
X129142857Y-68561961D02*
X129047619Y-68657200D01*
X129047619Y-68657200D02*
X128904762Y-68704819D01*
X128904762Y-68704819D02*
X128809524Y-68704819D01*
X130190476Y-68704819D02*
X129619048Y-68704819D01*
X129904762Y-68704819D02*
X129904762Y-67704819D01*
X129904762Y-67704819D02*
X129809524Y-67847676D01*
X129809524Y-67847676D02*
X129714286Y-67942914D01*
X129714286Y-67942914D02*
X129619048Y-67990533D01*
X131095238Y-67704819D02*
X130619048Y-67704819D01*
X130619048Y-67704819D02*
X130571429Y-68181009D01*
X130571429Y-68181009D02*
X130619048Y-68133390D01*
X130619048Y-68133390D02*
X130714286Y-68085771D01*
X130714286Y-68085771D02*
X130952381Y-68085771D01*
X130952381Y-68085771D02*
X131047619Y-68133390D01*
X131047619Y-68133390D02*
X131095238Y-68181009D01*
X131095238Y-68181009D02*
X131142857Y-68276247D01*
X131142857Y-68276247D02*
X131142857Y-68514342D01*
X131142857Y-68514342D02*
X131095238Y-68609580D01*
X131095238Y-68609580D02*
X131047619Y-68657200D01*
X131047619Y-68657200D02*
X130952381Y-68704819D01*
X130952381Y-68704819D02*
X130714286Y-68704819D01*
X130714286Y-68704819D02*
X130619048Y-68657200D01*
X130619048Y-68657200D02*
X130571429Y-68609580D01*
X153833333Y-93359580D02*
X153785714Y-93407200D01*
X153785714Y-93407200D02*
X153642857Y-93454819D01*
X153642857Y-93454819D02*
X153547619Y-93454819D01*
X153547619Y-93454819D02*
X153404762Y-93407200D01*
X153404762Y-93407200D02*
X153309524Y-93311961D01*
X153309524Y-93311961D02*
X153261905Y-93216723D01*
X153261905Y-93216723D02*
X153214286Y-93026247D01*
X153214286Y-93026247D02*
X153214286Y-92883390D01*
X153214286Y-92883390D02*
X153261905Y-92692914D01*
X153261905Y-92692914D02*
X153309524Y-92597676D01*
X153309524Y-92597676D02*
X153404762Y-92502438D01*
X153404762Y-92502438D02*
X153547619Y-92454819D01*
X153547619Y-92454819D02*
X153642857Y-92454819D01*
X153642857Y-92454819D02*
X153785714Y-92502438D01*
X153785714Y-92502438D02*
X153833333Y-92550057D01*
X154166667Y-92454819D02*
X154833333Y-92454819D01*
X154833333Y-92454819D02*
X154404762Y-93454819D01*
X166190476Y-67454819D02*
X166190476Y-68169104D01*
X166190476Y-68169104D02*
X166142857Y-68311961D01*
X166142857Y-68311961D02*
X166047619Y-68407200D01*
X166047619Y-68407200D02*
X165904762Y-68454819D01*
X165904762Y-68454819D02*
X165809524Y-68454819D01*
X167190476Y-68454819D02*
X166619048Y-68454819D01*
X166904762Y-68454819D02*
X166904762Y-67454819D01*
X166904762Y-67454819D02*
X166809524Y-67597676D01*
X166809524Y-67597676D02*
X166714286Y-67692914D01*
X166714286Y-67692914D02*
X166619048Y-67740533D01*
X167761905Y-67883390D02*
X167666667Y-67835771D01*
X167666667Y-67835771D02*
X167619048Y-67788152D01*
X167619048Y-67788152D02*
X167571429Y-67692914D01*
X167571429Y-67692914D02*
X167571429Y-67645295D01*
X167571429Y-67645295D02*
X167619048Y-67550057D01*
X167619048Y-67550057D02*
X167666667Y-67502438D01*
X167666667Y-67502438D02*
X167761905Y-67454819D01*
X167761905Y-67454819D02*
X167952381Y-67454819D01*
X167952381Y-67454819D02*
X168047619Y-67502438D01*
X168047619Y-67502438D02*
X168095238Y-67550057D01*
X168095238Y-67550057D02*
X168142857Y-67645295D01*
X168142857Y-67645295D02*
X168142857Y-67692914D01*
X168142857Y-67692914D02*
X168095238Y-67788152D01*
X168095238Y-67788152D02*
X168047619Y-67835771D01*
X168047619Y-67835771D02*
X167952381Y-67883390D01*
X167952381Y-67883390D02*
X167761905Y-67883390D01*
X167761905Y-67883390D02*
X167666667Y-67931009D01*
X167666667Y-67931009D02*
X167619048Y-67978628D01*
X167619048Y-67978628D02*
X167571429Y-68073866D01*
X167571429Y-68073866D02*
X167571429Y-68264342D01*
X167571429Y-68264342D02*
X167619048Y-68359580D01*
X167619048Y-68359580D02*
X167666667Y-68407200D01*
X167666667Y-68407200D02*
X167761905Y-68454819D01*
X167761905Y-68454819D02*
X167952381Y-68454819D01*
X167952381Y-68454819D02*
X168047619Y-68407200D01*
X168047619Y-68407200D02*
X168095238Y-68359580D01*
X168095238Y-68359580D02*
X168142857Y-68264342D01*
X168142857Y-68264342D02*
X168142857Y-68073866D01*
X168142857Y-68073866D02*
X168095238Y-67978628D01*
X168095238Y-67978628D02*
X168047619Y-67931009D01*
X168047619Y-67931009D02*
X167952381Y-67883390D01*
X131854819Y-111661904D02*
X132664342Y-111661904D01*
X132664342Y-111661904D02*
X132759580Y-111614285D01*
X132759580Y-111614285D02*
X132807200Y-111566666D01*
X132807200Y-111566666D02*
X132854819Y-111471428D01*
X132854819Y-111471428D02*
X132854819Y-111280952D01*
X132854819Y-111280952D02*
X132807200Y-111185714D01*
X132807200Y-111185714D02*
X132759580Y-111138095D01*
X132759580Y-111138095D02*
X132664342Y-111090476D01*
X132664342Y-111090476D02*
X131854819Y-111090476D01*
X131854819Y-110709523D02*
X131854819Y-110090476D01*
X131854819Y-110090476D02*
X132235771Y-110423809D01*
X132235771Y-110423809D02*
X132235771Y-110280952D01*
X132235771Y-110280952D02*
X132283390Y-110185714D01*
X132283390Y-110185714D02*
X132331009Y-110138095D01*
X132331009Y-110138095D02*
X132426247Y-110090476D01*
X132426247Y-110090476D02*
X132664342Y-110090476D01*
X132664342Y-110090476D02*
X132759580Y-110138095D01*
X132759580Y-110138095D02*
X132807200Y-110185714D01*
X132807200Y-110185714D02*
X132854819Y-110280952D01*
X132854819Y-110280952D02*
X132854819Y-110566666D01*
X132854819Y-110566666D02*
X132807200Y-110661904D01*
X132807200Y-110661904D02*
X132759580Y-110709523D01*
X157654819Y-76242857D02*
X157178628Y-76576190D01*
X157654819Y-76814285D02*
X156654819Y-76814285D01*
X156654819Y-76814285D02*
X156654819Y-76433333D01*
X156654819Y-76433333D02*
X156702438Y-76338095D01*
X156702438Y-76338095D02*
X156750057Y-76290476D01*
X156750057Y-76290476D02*
X156845295Y-76242857D01*
X156845295Y-76242857D02*
X156988152Y-76242857D01*
X156988152Y-76242857D02*
X157083390Y-76290476D01*
X157083390Y-76290476D02*
X157131009Y-76338095D01*
X157131009Y-76338095D02*
X157178628Y-76433333D01*
X157178628Y-76433333D02*
X157178628Y-76814285D01*
X156750057Y-75861904D02*
X156702438Y-75814285D01*
X156702438Y-75814285D02*
X156654819Y-75719047D01*
X156654819Y-75719047D02*
X156654819Y-75480952D01*
X156654819Y-75480952D02*
X156702438Y-75385714D01*
X156702438Y-75385714D02*
X156750057Y-75338095D01*
X156750057Y-75338095D02*
X156845295Y-75290476D01*
X156845295Y-75290476D02*
X156940533Y-75290476D01*
X156940533Y-75290476D02*
X157083390Y-75338095D01*
X157083390Y-75338095D02*
X157654819Y-75909523D01*
X157654819Y-75909523D02*
X157654819Y-75290476D01*
X156988152Y-74433333D02*
X157654819Y-74433333D01*
X156607200Y-74671428D02*
X157321485Y-74909523D01*
X157321485Y-74909523D02*
X157321485Y-74290476D01*
X149833333Y-85454819D02*
X149500000Y-84978628D01*
X149261905Y-85454819D02*
X149261905Y-84454819D01*
X149261905Y-84454819D02*
X149642857Y-84454819D01*
X149642857Y-84454819D02*
X149738095Y-84502438D01*
X149738095Y-84502438D02*
X149785714Y-84550057D01*
X149785714Y-84550057D02*
X149833333Y-84645295D01*
X149833333Y-84645295D02*
X149833333Y-84788152D01*
X149833333Y-84788152D02*
X149785714Y-84883390D01*
X149785714Y-84883390D02*
X149738095Y-84931009D01*
X149738095Y-84931009D02*
X149642857Y-84978628D01*
X149642857Y-84978628D02*
X149261905Y-84978628D01*
X150690476Y-84788152D02*
X150690476Y-85454819D01*
X150452381Y-84407200D02*
X150214286Y-85121485D01*
X150214286Y-85121485D02*
X150833333Y-85121485D01*
X145333333Y-88954819D02*
X145000000Y-88478628D01*
X144761905Y-88954819D02*
X144761905Y-87954819D01*
X144761905Y-87954819D02*
X145142857Y-87954819D01*
X145142857Y-87954819D02*
X145238095Y-88002438D01*
X145238095Y-88002438D02*
X145285714Y-88050057D01*
X145285714Y-88050057D02*
X145333333Y-88145295D01*
X145333333Y-88145295D02*
X145333333Y-88288152D01*
X145333333Y-88288152D02*
X145285714Y-88383390D01*
X145285714Y-88383390D02*
X145238095Y-88431009D01*
X145238095Y-88431009D02*
X145142857Y-88478628D01*
X145142857Y-88478628D02*
X144761905Y-88478628D01*
X145714286Y-88050057D02*
X145761905Y-88002438D01*
X145761905Y-88002438D02*
X145857143Y-87954819D01*
X145857143Y-87954819D02*
X146095238Y-87954819D01*
X146095238Y-87954819D02*
X146190476Y-88002438D01*
X146190476Y-88002438D02*
X146238095Y-88050057D01*
X146238095Y-88050057D02*
X146285714Y-88145295D01*
X146285714Y-88145295D02*
X146285714Y-88240533D01*
X146285714Y-88240533D02*
X146238095Y-88383390D01*
X146238095Y-88383390D02*
X145666667Y-88954819D01*
X145666667Y-88954819D02*
X146285714Y-88954819D01*
X131357142Y-106254819D02*
X131023809Y-105778628D01*
X130785714Y-106254819D02*
X130785714Y-105254819D01*
X130785714Y-105254819D02*
X131166666Y-105254819D01*
X131166666Y-105254819D02*
X131261904Y-105302438D01*
X131261904Y-105302438D02*
X131309523Y-105350057D01*
X131309523Y-105350057D02*
X131357142Y-105445295D01*
X131357142Y-105445295D02*
X131357142Y-105588152D01*
X131357142Y-105588152D02*
X131309523Y-105683390D01*
X131309523Y-105683390D02*
X131261904Y-105731009D01*
X131261904Y-105731009D02*
X131166666Y-105778628D01*
X131166666Y-105778628D02*
X130785714Y-105778628D01*
X132309523Y-106254819D02*
X131738095Y-106254819D01*
X132023809Y-106254819D02*
X132023809Y-105254819D01*
X132023809Y-105254819D02*
X131928571Y-105397676D01*
X131928571Y-105397676D02*
X131833333Y-105492914D01*
X131833333Y-105492914D02*
X131738095Y-105540533D01*
X133166666Y-105254819D02*
X132976190Y-105254819D01*
X132976190Y-105254819D02*
X132880952Y-105302438D01*
X132880952Y-105302438D02*
X132833333Y-105350057D01*
X132833333Y-105350057D02*
X132738095Y-105492914D01*
X132738095Y-105492914D02*
X132690476Y-105683390D01*
X132690476Y-105683390D02*
X132690476Y-106064342D01*
X132690476Y-106064342D02*
X132738095Y-106159580D01*
X132738095Y-106159580D02*
X132785714Y-106207200D01*
X132785714Y-106207200D02*
X132880952Y-106254819D01*
X132880952Y-106254819D02*
X133071428Y-106254819D01*
X133071428Y-106254819D02*
X133166666Y-106207200D01*
X133166666Y-106207200D02*
X133214285Y-106159580D01*
X133214285Y-106159580D02*
X133261904Y-106064342D01*
X133261904Y-106064342D02*
X133261904Y-105826247D01*
X133261904Y-105826247D02*
X133214285Y-105731009D01*
X133214285Y-105731009D02*
X133166666Y-105683390D01*
X133166666Y-105683390D02*
X133071428Y-105635771D01*
X133071428Y-105635771D02*
X132880952Y-105635771D01*
X132880952Y-105635771D02*
X132785714Y-105683390D01*
X132785714Y-105683390D02*
X132738095Y-105731009D01*
X132738095Y-105731009D02*
X132690476Y-105826247D01*
X131357142Y-123104819D02*
X131023809Y-122628628D01*
X130785714Y-123104819D02*
X130785714Y-122104819D01*
X130785714Y-122104819D02*
X131166666Y-122104819D01*
X131166666Y-122104819D02*
X131261904Y-122152438D01*
X131261904Y-122152438D02*
X131309523Y-122200057D01*
X131309523Y-122200057D02*
X131357142Y-122295295D01*
X131357142Y-122295295D02*
X131357142Y-122438152D01*
X131357142Y-122438152D02*
X131309523Y-122533390D01*
X131309523Y-122533390D02*
X131261904Y-122581009D01*
X131261904Y-122581009D02*
X131166666Y-122628628D01*
X131166666Y-122628628D02*
X130785714Y-122628628D01*
X132309523Y-123104819D02*
X131738095Y-123104819D01*
X132023809Y-123104819D02*
X132023809Y-122104819D01*
X132023809Y-122104819D02*
X131928571Y-122247676D01*
X131928571Y-122247676D02*
X131833333Y-122342914D01*
X131833333Y-122342914D02*
X131738095Y-122390533D01*
X132880952Y-122533390D02*
X132785714Y-122485771D01*
X132785714Y-122485771D02*
X132738095Y-122438152D01*
X132738095Y-122438152D02*
X132690476Y-122342914D01*
X132690476Y-122342914D02*
X132690476Y-122295295D01*
X132690476Y-122295295D02*
X132738095Y-122200057D01*
X132738095Y-122200057D02*
X132785714Y-122152438D01*
X132785714Y-122152438D02*
X132880952Y-122104819D01*
X132880952Y-122104819D02*
X133071428Y-122104819D01*
X133071428Y-122104819D02*
X133166666Y-122152438D01*
X133166666Y-122152438D02*
X133214285Y-122200057D01*
X133214285Y-122200057D02*
X133261904Y-122295295D01*
X133261904Y-122295295D02*
X133261904Y-122342914D01*
X133261904Y-122342914D02*
X133214285Y-122438152D01*
X133214285Y-122438152D02*
X133166666Y-122485771D01*
X133166666Y-122485771D02*
X133071428Y-122533390D01*
X133071428Y-122533390D02*
X132880952Y-122533390D01*
X132880952Y-122533390D02*
X132785714Y-122581009D01*
X132785714Y-122581009D02*
X132738095Y-122628628D01*
X132738095Y-122628628D02*
X132690476Y-122723866D01*
X132690476Y-122723866D02*
X132690476Y-122914342D01*
X132690476Y-122914342D02*
X132738095Y-123009580D01*
X132738095Y-123009580D02*
X132785714Y-123057200D01*
X132785714Y-123057200D02*
X132880952Y-123104819D01*
X132880952Y-123104819D02*
X133071428Y-123104819D01*
X133071428Y-123104819D02*
X133166666Y-123057200D01*
X133166666Y-123057200D02*
X133214285Y-123009580D01*
X133214285Y-123009580D02*
X133261904Y-122914342D01*
X133261904Y-122914342D02*
X133261904Y-122723866D01*
X133261904Y-122723866D02*
X133214285Y-122628628D01*
X133214285Y-122628628D02*
X133166666Y-122581009D01*
X133166666Y-122581009D02*
X133071428Y-122533390D01*
X167704819Y-127083333D02*
X168419104Y-127083333D01*
X168419104Y-127083333D02*
X168561961Y-127130952D01*
X168561961Y-127130952D02*
X168657200Y-127226190D01*
X168657200Y-127226190D02*
X168704819Y-127369047D01*
X168704819Y-127369047D02*
X168704819Y-127464285D01*
X168038152Y-126178571D02*
X168704819Y-126178571D01*
X167657200Y-126416666D02*
X168371485Y-126654761D01*
X168371485Y-126654761D02*
X168371485Y-126035714D01*
X131254819Y-119733333D02*
X131969104Y-119733333D01*
X131969104Y-119733333D02*
X132111961Y-119780952D01*
X132111961Y-119780952D02*
X132207200Y-119876190D01*
X132207200Y-119876190D02*
X132254819Y-120019047D01*
X132254819Y-120019047D02*
X132254819Y-120114285D01*
X131254819Y-118828571D02*
X131254819Y-119019047D01*
X131254819Y-119019047D02*
X131302438Y-119114285D01*
X131302438Y-119114285D02*
X131350057Y-119161904D01*
X131350057Y-119161904D02*
X131492914Y-119257142D01*
X131492914Y-119257142D02*
X131683390Y-119304761D01*
X131683390Y-119304761D02*
X132064342Y-119304761D01*
X132064342Y-119304761D02*
X132159580Y-119257142D01*
X132159580Y-119257142D02*
X132207200Y-119209523D01*
X132207200Y-119209523D02*
X132254819Y-119114285D01*
X132254819Y-119114285D02*
X132254819Y-118923809D01*
X132254819Y-118923809D02*
X132207200Y-118828571D01*
X132207200Y-118828571D02*
X132159580Y-118780952D01*
X132159580Y-118780952D02*
X132064342Y-118733333D01*
X132064342Y-118733333D02*
X131826247Y-118733333D01*
X131826247Y-118733333D02*
X131731009Y-118780952D01*
X131731009Y-118780952D02*
X131683390Y-118828571D01*
X131683390Y-118828571D02*
X131635771Y-118923809D01*
X131635771Y-118923809D02*
X131635771Y-119114285D01*
X131635771Y-119114285D02*
X131683390Y-119209523D01*
X131683390Y-119209523D02*
X131731009Y-119257142D01*
X131731009Y-119257142D02*
X131826247Y-119304761D01*
X143859580Y-91166666D02*
X143907200Y-91214285D01*
X143907200Y-91214285D02*
X143954819Y-91357142D01*
X143954819Y-91357142D02*
X143954819Y-91452380D01*
X143954819Y-91452380D02*
X143907200Y-91595237D01*
X143907200Y-91595237D02*
X143811961Y-91690475D01*
X143811961Y-91690475D02*
X143716723Y-91738094D01*
X143716723Y-91738094D02*
X143526247Y-91785713D01*
X143526247Y-91785713D02*
X143383390Y-91785713D01*
X143383390Y-91785713D02*
X143192914Y-91738094D01*
X143192914Y-91738094D02*
X143097676Y-91690475D01*
X143097676Y-91690475D02*
X143002438Y-91595237D01*
X143002438Y-91595237D02*
X142954819Y-91452380D01*
X142954819Y-91452380D02*
X142954819Y-91357142D01*
X142954819Y-91357142D02*
X143002438Y-91214285D01*
X143002438Y-91214285D02*
X143050057Y-91166666D01*
X143954819Y-90214285D02*
X143954819Y-90785713D01*
X143954819Y-90499999D02*
X142954819Y-90499999D01*
X142954819Y-90499999D02*
X143097676Y-90595237D01*
X143097676Y-90595237D02*
X143192914Y-90690475D01*
X143192914Y-90690475D02*
X143240533Y-90785713D01*
X156190476Y-102454819D02*
X156190476Y-103169104D01*
X156190476Y-103169104D02*
X156142857Y-103311961D01*
X156142857Y-103311961D02*
X156047619Y-103407200D01*
X156047619Y-103407200D02*
X155904762Y-103454819D01*
X155904762Y-103454819D02*
X155809524Y-103454819D01*
X156619048Y-102550057D02*
X156666667Y-102502438D01*
X156666667Y-102502438D02*
X156761905Y-102454819D01*
X156761905Y-102454819D02*
X157000000Y-102454819D01*
X157000000Y-102454819D02*
X157095238Y-102502438D01*
X157095238Y-102502438D02*
X157142857Y-102550057D01*
X157142857Y-102550057D02*
X157190476Y-102645295D01*
X157190476Y-102645295D02*
X157190476Y-102740533D01*
X157190476Y-102740533D02*
X157142857Y-102883390D01*
X157142857Y-102883390D02*
X156571429Y-103454819D01*
X156571429Y-103454819D02*
X157190476Y-103454819D01*
X157809524Y-102454819D02*
X157904762Y-102454819D01*
X157904762Y-102454819D02*
X158000000Y-102502438D01*
X158000000Y-102502438D02*
X158047619Y-102550057D01*
X158047619Y-102550057D02*
X158095238Y-102645295D01*
X158095238Y-102645295D02*
X158142857Y-102835771D01*
X158142857Y-102835771D02*
X158142857Y-103073866D01*
X158142857Y-103073866D02*
X158095238Y-103264342D01*
X158095238Y-103264342D02*
X158047619Y-103359580D01*
X158047619Y-103359580D02*
X158000000Y-103407200D01*
X158000000Y-103407200D02*
X157904762Y-103454819D01*
X157904762Y-103454819D02*
X157809524Y-103454819D01*
X157809524Y-103454819D02*
X157714286Y-103407200D01*
X157714286Y-103407200D02*
X157666667Y-103359580D01*
X157666667Y-103359580D02*
X157619048Y-103264342D01*
X157619048Y-103264342D02*
X157571429Y-103073866D01*
X157571429Y-103073866D02*
X157571429Y-102835771D01*
X157571429Y-102835771D02*
X157619048Y-102645295D01*
X157619048Y-102645295D02*
X157666667Y-102550057D01*
X157666667Y-102550057D02*
X157714286Y-102502438D01*
X157714286Y-102502438D02*
X157809524Y-102454819D01*
X179166666Y-88204819D02*
X179166666Y-88919104D01*
X179166666Y-88919104D02*
X179119047Y-89061961D01*
X179119047Y-89061961D02*
X179023809Y-89157200D01*
X179023809Y-89157200D02*
X178880952Y-89204819D01*
X178880952Y-89204819D02*
X178785714Y-89204819D01*
X179785714Y-88633390D02*
X179690476Y-88585771D01*
X179690476Y-88585771D02*
X179642857Y-88538152D01*
X179642857Y-88538152D02*
X179595238Y-88442914D01*
X179595238Y-88442914D02*
X179595238Y-88395295D01*
X179595238Y-88395295D02*
X179642857Y-88300057D01*
X179642857Y-88300057D02*
X179690476Y-88252438D01*
X179690476Y-88252438D02*
X179785714Y-88204819D01*
X179785714Y-88204819D02*
X179976190Y-88204819D01*
X179976190Y-88204819D02*
X180071428Y-88252438D01*
X180071428Y-88252438D02*
X180119047Y-88300057D01*
X180119047Y-88300057D02*
X180166666Y-88395295D01*
X180166666Y-88395295D02*
X180166666Y-88442914D01*
X180166666Y-88442914D02*
X180119047Y-88538152D01*
X180119047Y-88538152D02*
X180071428Y-88585771D01*
X180071428Y-88585771D02*
X179976190Y-88633390D01*
X179976190Y-88633390D02*
X179785714Y-88633390D01*
X179785714Y-88633390D02*
X179690476Y-88681009D01*
X179690476Y-88681009D02*
X179642857Y-88728628D01*
X179642857Y-88728628D02*
X179595238Y-88823866D01*
X179595238Y-88823866D02*
X179595238Y-89014342D01*
X179595238Y-89014342D02*
X179642857Y-89109580D01*
X179642857Y-89109580D02*
X179690476Y-89157200D01*
X179690476Y-89157200D02*
X179785714Y-89204819D01*
X179785714Y-89204819D02*
X179976190Y-89204819D01*
X179976190Y-89204819D02*
X180071428Y-89157200D01*
X180071428Y-89157200D02*
X180119047Y-89109580D01*
X180119047Y-89109580D02*
X180166666Y-89014342D01*
X180166666Y-89014342D02*
X180166666Y-88823866D01*
X180166666Y-88823866D02*
X180119047Y-88728628D01*
X180119047Y-88728628D02*
X180071428Y-88681009D01*
X180071428Y-88681009D02*
X179976190Y-88633390D01*
X170190476Y-67454819D02*
X170190476Y-68169104D01*
X170190476Y-68169104D02*
X170142857Y-68311961D01*
X170142857Y-68311961D02*
X170047619Y-68407200D01*
X170047619Y-68407200D02*
X169904762Y-68454819D01*
X169904762Y-68454819D02*
X169809524Y-68454819D01*
X171190476Y-68454819D02*
X170619048Y-68454819D01*
X170904762Y-68454819D02*
X170904762Y-67454819D01*
X170904762Y-67454819D02*
X170809524Y-67597676D01*
X170809524Y-67597676D02*
X170714286Y-67692914D01*
X170714286Y-67692914D02*
X170619048Y-67740533D01*
X172047619Y-67788152D02*
X172047619Y-68454819D01*
X171809524Y-67407200D02*
X171571429Y-68121485D01*
X171571429Y-68121485D02*
X172190476Y-68121485D01*
X133254819Y-101166666D02*
X132778628Y-101499999D01*
X133254819Y-101738094D02*
X132254819Y-101738094D01*
X132254819Y-101738094D02*
X132254819Y-101357142D01*
X132254819Y-101357142D02*
X132302438Y-101261904D01*
X132302438Y-101261904D02*
X132350057Y-101214285D01*
X132350057Y-101214285D02*
X132445295Y-101166666D01*
X132445295Y-101166666D02*
X132588152Y-101166666D01*
X132588152Y-101166666D02*
X132683390Y-101214285D01*
X132683390Y-101214285D02*
X132731009Y-101261904D01*
X132731009Y-101261904D02*
X132778628Y-101357142D01*
X132778628Y-101357142D02*
X132778628Y-101738094D01*
X132683390Y-100595237D02*
X132635771Y-100690475D01*
X132635771Y-100690475D02*
X132588152Y-100738094D01*
X132588152Y-100738094D02*
X132492914Y-100785713D01*
X132492914Y-100785713D02*
X132445295Y-100785713D01*
X132445295Y-100785713D02*
X132350057Y-100738094D01*
X132350057Y-100738094D02*
X132302438Y-100690475D01*
X132302438Y-100690475D02*
X132254819Y-100595237D01*
X132254819Y-100595237D02*
X132254819Y-100404761D01*
X132254819Y-100404761D02*
X132302438Y-100309523D01*
X132302438Y-100309523D02*
X132350057Y-100261904D01*
X132350057Y-100261904D02*
X132445295Y-100214285D01*
X132445295Y-100214285D02*
X132492914Y-100214285D01*
X132492914Y-100214285D02*
X132588152Y-100261904D01*
X132588152Y-100261904D02*
X132635771Y-100309523D01*
X132635771Y-100309523D02*
X132683390Y-100404761D01*
X132683390Y-100404761D02*
X132683390Y-100595237D01*
X132683390Y-100595237D02*
X132731009Y-100690475D01*
X132731009Y-100690475D02*
X132778628Y-100738094D01*
X132778628Y-100738094D02*
X132873866Y-100785713D01*
X132873866Y-100785713D02*
X133064342Y-100785713D01*
X133064342Y-100785713D02*
X133159580Y-100738094D01*
X133159580Y-100738094D02*
X133207200Y-100690475D01*
X133207200Y-100690475D02*
X133254819Y-100595237D01*
X133254819Y-100595237D02*
X133254819Y-100404761D01*
X133254819Y-100404761D02*
X133207200Y-100309523D01*
X133207200Y-100309523D02*
X133159580Y-100261904D01*
X133159580Y-100261904D02*
X133064342Y-100214285D01*
X133064342Y-100214285D02*
X132873866Y-100214285D01*
X132873866Y-100214285D02*
X132778628Y-100261904D01*
X132778628Y-100261904D02*
X132731009Y-100309523D01*
X132731009Y-100309523D02*
X132683390Y-100404761D01*
D10*
X134409800Y-80333332D02*
X134457419Y-80190475D01*
X134457419Y-80190475D02*
X134457419Y-79952380D01*
X134457419Y-79952380D02*
X134409800Y-79857142D01*
X134409800Y-79857142D02*
X134362180Y-79809523D01*
X134362180Y-79809523D02*
X134266942Y-79761904D01*
X134266942Y-79761904D02*
X134171704Y-79761904D01*
X134171704Y-79761904D02*
X134076466Y-79809523D01*
X134076466Y-79809523D02*
X134028847Y-79857142D01*
X134028847Y-79857142D02*
X133981228Y-79952380D01*
X133981228Y-79952380D02*
X133933609Y-80142856D01*
X133933609Y-80142856D02*
X133885990Y-80238094D01*
X133885990Y-80238094D02*
X133838371Y-80285713D01*
X133838371Y-80285713D02*
X133743133Y-80333332D01*
X133743133Y-80333332D02*
X133647895Y-80333332D01*
X133647895Y-80333332D02*
X133552657Y-80285713D01*
X133552657Y-80285713D02*
X133505038Y-80238094D01*
X133505038Y-80238094D02*
X133457419Y-80142856D01*
X133457419Y-80142856D02*
X133457419Y-79904761D01*
X133457419Y-79904761D02*
X133505038Y-79761904D01*
X133457419Y-79428570D02*
X134457419Y-79190475D01*
X134457419Y-79190475D02*
X133743133Y-78999999D01*
X133743133Y-78999999D02*
X134457419Y-78809523D01*
X134457419Y-78809523D02*
X133457419Y-78571428D01*
X134457419Y-77666666D02*
X134457419Y-78238094D01*
X134457419Y-77952380D02*
X133457419Y-77952380D01*
X133457419Y-77952380D02*
X133600276Y-78047618D01*
X133600276Y-78047618D02*
X133695514Y-78142856D01*
X133695514Y-78142856D02*
X133743133Y-78238094D01*
D12*
X167107142Y-124204819D02*
X166773809Y-123728628D01*
X166535714Y-124204819D02*
X166535714Y-123204819D01*
X166535714Y-123204819D02*
X166916666Y-123204819D01*
X166916666Y-123204819D02*
X167011904Y-123252438D01*
X167011904Y-123252438D02*
X167059523Y-123300057D01*
X167059523Y-123300057D02*
X167107142Y-123395295D01*
X167107142Y-123395295D02*
X167107142Y-123538152D01*
X167107142Y-123538152D02*
X167059523Y-123633390D01*
X167059523Y-123633390D02*
X167011904Y-123681009D01*
X167011904Y-123681009D02*
X166916666Y-123728628D01*
X166916666Y-123728628D02*
X166535714Y-123728628D01*
X168059523Y-124204819D02*
X167488095Y-124204819D01*
X167773809Y-124204819D02*
X167773809Y-123204819D01*
X167773809Y-123204819D02*
X167678571Y-123347676D01*
X167678571Y-123347676D02*
X167583333Y-123442914D01*
X167583333Y-123442914D02*
X167488095Y-123490533D01*
X168916666Y-123538152D02*
X168916666Y-124204819D01*
X168678571Y-123157200D02*
X168440476Y-123871485D01*
X168440476Y-123871485D02*
X169059523Y-123871485D01*
X134957142Y-84454819D02*
X134623809Y-83978628D01*
X134385714Y-84454819D02*
X134385714Y-83454819D01*
X134385714Y-83454819D02*
X134766666Y-83454819D01*
X134766666Y-83454819D02*
X134861904Y-83502438D01*
X134861904Y-83502438D02*
X134909523Y-83550057D01*
X134909523Y-83550057D02*
X134957142Y-83645295D01*
X134957142Y-83645295D02*
X134957142Y-83788152D01*
X134957142Y-83788152D02*
X134909523Y-83883390D01*
X134909523Y-83883390D02*
X134861904Y-83931009D01*
X134861904Y-83931009D02*
X134766666Y-83978628D01*
X134766666Y-83978628D02*
X134385714Y-83978628D01*
X135909523Y-84454819D02*
X135338095Y-84454819D01*
X135623809Y-84454819D02*
X135623809Y-83454819D01*
X135623809Y-83454819D02*
X135528571Y-83597676D01*
X135528571Y-83597676D02*
X135433333Y-83692914D01*
X135433333Y-83692914D02*
X135338095Y-83740533D01*
X136861904Y-84454819D02*
X136290476Y-84454819D01*
X136576190Y-84454819D02*
X136576190Y-83454819D01*
X136576190Y-83454819D02*
X136480952Y-83597676D01*
X136480952Y-83597676D02*
X136385714Y-83692914D01*
X136385714Y-83692914D02*
X136290476Y-83740533D01*
X132990476Y-119054819D02*
X132990476Y-119769104D01*
X132990476Y-119769104D02*
X132942857Y-119911961D01*
X132942857Y-119911961D02*
X132847619Y-120007200D01*
X132847619Y-120007200D02*
X132704762Y-120054819D01*
X132704762Y-120054819D02*
X132609524Y-120054819D01*
X133990476Y-120054819D02*
X133419048Y-120054819D01*
X133704762Y-120054819D02*
X133704762Y-119054819D01*
X133704762Y-119054819D02*
X133609524Y-119197676D01*
X133609524Y-119197676D02*
X133514286Y-119292914D01*
X133514286Y-119292914D02*
X133419048Y-119340533D01*
X134847619Y-119054819D02*
X134657143Y-119054819D01*
X134657143Y-119054819D02*
X134561905Y-119102438D01*
X134561905Y-119102438D02*
X134514286Y-119150057D01*
X134514286Y-119150057D02*
X134419048Y-119292914D01*
X134419048Y-119292914D02*
X134371429Y-119483390D01*
X134371429Y-119483390D02*
X134371429Y-119864342D01*
X134371429Y-119864342D02*
X134419048Y-119959580D01*
X134419048Y-119959580D02*
X134466667Y-120007200D01*
X134466667Y-120007200D02*
X134561905Y-120054819D01*
X134561905Y-120054819D02*
X134752381Y-120054819D01*
X134752381Y-120054819D02*
X134847619Y-120007200D01*
X134847619Y-120007200D02*
X134895238Y-119959580D01*
X134895238Y-119959580D02*
X134942857Y-119864342D01*
X134942857Y-119864342D02*
X134942857Y-119626247D01*
X134942857Y-119626247D02*
X134895238Y-119531009D01*
X134895238Y-119531009D02*
X134847619Y-119483390D01*
X134847619Y-119483390D02*
X134752381Y-119435771D01*
X134752381Y-119435771D02*
X134561905Y-119435771D01*
X134561905Y-119435771D02*
X134466667Y-119483390D01*
X134466667Y-119483390D02*
X134419048Y-119531009D01*
X134419048Y-119531009D02*
X134371429Y-119626247D01*
X142857142Y-94359580D02*
X142809523Y-94407200D01*
X142809523Y-94407200D02*
X142666666Y-94454819D01*
X142666666Y-94454819D02*
X142571428Y-94454819D01*
X142571428Y-94454819D02*
X142428571Y-94407200D01*
X142428571Y-94407200D02*
X142333333Y-94311961D01*
X142333333Y-94311961D02*
X142285714Y-94216723D01*
X142285714Y-94216723D02*
X142238095Y-94026247D01*
X142238095Y-94026247D02*
X142238095Y-93883390D01*
X142238095Y-93883390D02*
X142285714Y-93692914D01*
X142285714Y-93692914D02*
X142333333Y-93597676D01*
X142333333Y-93597676D02*
X142428571Y-93502438D01*
X142428571Y-93502438D02*
X142571428Y-93454819D01*
X142571428Y-93454819D02*
X142666666Y-93454819D01*
X142666666Y-93454819D02*
X142809523Y-93502438D01*
X142809523Y-93502438D02*
X142857142Y-93550057D01*
X143809523Y-94454819D02*
X143238095Y-94454819D01*
X143523809Y-94454819D02*
X143523809Y-93454819D01*
X143523809Y-93454819D02*
X143428571Y-93597676D01*
X143428571Y-93597676D02*
X143333333Y-93692914D01*
X143333333Y-93692914D02*
X143238095Y-93740533D01*
X144428571Y-93454819D02*
X144523809Y-93454819D01*
X144523809Y-93454819D02*
X144619047Y-93502438D01*
X144619047Y-93502438D02*
X144666666Y-93550057D01*
X144666666Y-93550057D02*
X144714285Y-93645295D01*
X144714285Y-93645295D02*
X144761904Y-93835771D01*
X144761904Y-93835771D02*
X144761904Y-94073866D01*
X144761904Y-94073866D02*
X144714285Y-94264342D01*
X144714285Y-94264342D02*
X144666666Y-94359580D01*
X144666666Y-94359580D02*
X144619047Y-94407200D01*
X144619047Y-94407200D02*
X144523809Y-94454819D01*
X144523809Y-94454819D02*
X144428571Y-94454819D01*
X144428571Y-94454819D02*
X144333333Y-94407200D01*
X144333333Y-94407200D02*
X144285714Y-94359580D01*
X144285714Y-94359580D02*
X144238095Y-94264342D01*
X144238095Y-94264342D02*
X144190476Y-94073866D01*
X144190476Y-94073866D02*
X144190476Y-93835771D01*
X144190476Y-93835771D02*
X144238095Y-93645295D01*
X144238095Y-93645295D02*
X144285714Y-93550057D01*
X144285714Y-93550057D02*
X144333333Y-93502438D01*
X144333333Y-93502438D02*
X144428571Y-93454819D01*
X166857142Y-132454819D02*
X166523809Y-131978628D01*
X166285714Y-132454819D02*
X166285714Y-131454819D01*
X166285714Y-131454819D02*
X166666666Y-131454819D01*
X166666666Y-131454819D02*
X166761904Y-131502438D01*
X166761904Y-131502438D02*
X166809523Y-131550057D01*
X166809523Y-131550057D02*
X166857142Y-131645295D01*
X166857142Y-131645295D02*
X166857142Y-131788152D01*
X166857142Y-131788152D02*
X166809523Y-131883390D01*
X166809523Y-131883390D02*
X166761904Y-131931009D01*
X166761904Y-131931009D02*
X166666666Y-131978628D01*
X166666666Y-131978628D02*
X166285714Y-131978628D01*
X167809523Y-132454819D02*
X167238095Y-132454819D01*
X167523809Y-132454819D02*
X167523809Y-131454819D01*
X167523809Y-131454819D02*
X167428571Y-131597676D01*
X167428571Y-131597676D02*
X167333333Y-131692914D01*
X167333333Y-131692914D02*
X167238095Y-131740533D01*
X168714285Y-131454819D02*
X168238095Y-131454819D01*
X168238095Y-131454819D02*
X168190476Y-131931009D01*
X168190476Y-131931009D02*
X168238095Y-131883390D01*
X168238095Y-131883390D02*
X168333333Y-131835771D01*
X168333333Y-131835771D02*
X168571428Y-131835771D01*
X168571428Y-131835771D02*
X168666666Y-131883390D01*
X168666666Y-131883390D02*
X168714285Y-131931009D01*
X168714285Y-131931009D02*
X168761904Y-132026247D01*
X168761904Y-132026247D02*
X168761904Y-132264342D01*
X168761904Y-132264342D02*
X168714285Y-132359580D01*
X168714285Y-132359580D02*
X168666666Y-132407200D01*
X168666666Y-132407200D02*
X168571428Y-132454819D01*
X168571428Y-132454819D02*
X168333333Y-132454819D01*
X168333333Y-132454819D02*
X168238095Y-132407200D01*
X168238095Y-132407200D02*
X168190476Y-132359580D01*
X133390476Y-132054819D02*
X133390476Y-132769104D01*
X133390476Y-132769104D02*
X133342857Y-132911961D01*
X133342857Y-132911961D02*
X133247619Y-133007200D01*
X133247619Y-133007200D02*
X133104762Y-133054819D01*
X133104762Y-133054819D02*
X133009524Y-133054819D01*
X134390476Y-133054819D02*
X133819048Y-133054819D01*
X134104762Y-133054819D02*
X134104762Y-132054819D01*
X134104762Y-132054819D02*
X134009524Y-132197676D01*
X134009524Y-132197676D02*
X133914286Y-132292914D01*
X133914286Y-132292914D02*
X133819048Y-132340533D01*
X134866667Y-133054819D02*
X135057143Y-133054819D01*
X135057143Y-133054819D02*
X135152381Y-133007200D01*
X135152381Y-133007200D02*
X135200000Y-132959580D01*
X135200000Y-132959580D02*
X135295238Y-132816723D01*
X135295238Y-132816723D02*
X135342857Y-132626247D01*
X135342857Y-132626247D02*
X135342857Y-132245295D01*
X135342857Y-132245295D02*
X135295238Y-132150057D01*
X135295238Y-132150057D02*
X135247619Y-132102438D01*
X135247619Y-132102438D02*
X135152381Y-132054819D01*
X135152381Y-132054819D02*
X134961905Y-132054819D01*
X134961905Y-132054819D02*
X134866667Y-132102438D01*
X134866667Y-132102438D02*
X134819048Y-132150057D01*
X134819048Y-132150057D02*
X134771429Y-132245295D01*
X134771429Y-132245295D02*
X134771429Y-132483390D01*
X134771429Y-132483390D02*
X134819048Y-132578628D01*
X134819048Y-132578628D02*
X134866667Y-132626247D01*
X134866667Y-132626247D02*
X134961905Y-132673866D01*
X134961905Y-132673866D02*
X135152381Y-132673866D01*
X135152381Y-132673866D02*
X135247619Y-132626247D01*
X135247619Y-132626247D02*
X135295238Y-132578628D01*
X135295238Y-132578628D02*
X135342857Y-132483390D01*
X131738095Y-84954819D02*
X131738095Y-85764342D01*
X131738095Y-85764342D02*
X131785714Y-85859580D01*
X131785714Y-85859580D02*
X131833333Y-85907200D01*
X131833333Y-85907200D02*
X131928571Y-85954819D01*
X131928571Y-85954819D02*
X132119047Y-85954819D01*
X132119047Y-85954819D02*
X132214285Y-85907200D01*
X132214285Y-85907200D02*
X132261904Y-85859580D01*
X132261904Y-85859580D02*
X132309523Y-85764342D01*
X132309523Y-85764342D02*
X132309523Y-84954819D01*
X133214285Y-85288152D02*
X133214285Y-85954819D01*
X132976190Y-84907200D02*
X132738095Y-85621485D01*
X132738095Y-85621485D02*
X133357142Y-85621485D01*
X131354819Y-128533333D02*
X132069104Y-128533333D01*
X132069104Y-128533333D02*
X132211961Y-128580952D01*
X132211961Y-128580952D02*
X132307200Y-128676190D01*
X132307200Y-128676190D02*
X132354819Y-128819047D01*
X132354819Y-128819047D02*
X132354819Y-128914285D01*
X131354819Y-128152380D02*
X131354819Y-127485714D01*
X131354819Y-127485714D02*
X132354819Y-127914285D01*
X155954819Y-76230357D02*
X155478628Y-76563690D01*
X155954819Y-76801785D02*
X154954819Y-76801785D01*
X154954819Y-76801785D02*
X154954819Y-76420833D01*
X154954819Y-76420833D02*
X155002438Y-76325595D01*
X155002438Y-76325595D02*
X155050057Y-76277976D01*
X155050057Y-76277976D02*
X155145295Y-76230357D01*
X155145295Y-76230357D02*
X155288152Y-76230357D01*
X155288152Y-76230357D02*
X155383390Y-76277976D01*
X155383390Y-76277976D02*
X155431009Y-76325595D01*
X155431009Y-76325595D02*
X155478628Y-76420833D01*
X155478628Y-76420833D02*
X155478628Y-76801785D01*
X155050057Y-75849404D02*
X155002438Y-75801785D01*
X155002438Y-75801785D02*
X154954819Y-75706547D01*
X154954819Y-75706547D02*
X154954819Y-75468452D01*
X154954819Y-75468452D02*
X155002438Y-75373214D01*
X155002438Y-75373214D02*
X155050057Y-75325595D01*
X155050057Y-75325595D02*
X155145295Y-75277976D01*
X155145295Y-75277976D02*
X155240533Y-75277976D01*
X155240533Y-75277976D02*
X155383390Y-75325595D01*
X155383390Y-75325595D02*
X155954819Y-75897023D01*
X155954819Y-75897023D02*
X155954819Y-75277976D01*
X154954819Y-74944642D02*
X154954819Y-74325595D01*
X154954819Y-74325595D02*
X155335771Y-74658928D01*
X155335771Y-74658928D02*
X155335771Y-74516071D01*
X155335771Y-74516071D02*
X155383390Y-74420833D01*
X155383390Y-74420833D02*
X155431009Y-74373214D01*
X155431009Y-74373214D02*
X155526247Y-74325595D01*
X155526247Y-74325595D02*
X155764342Y-74325595D01*
X155764342Y-74325595D02*
X155859580Y-74373214D01*
X155859580Y-74373214D02*
X155907200Y-74420833D01*
X155907200Y-74420833D02*
X155954819Y-74516071D01*
X155954819Y-74516071D02*
X155954819Y-74801785D01*
X155954819Y-74801785D02*
X155907200Y-74897023D01*
X155907200Y-74897023D02*
X155859580Y-74944642D01*
X140654819Y-123809523D02*
X141369104Y-123809523D01*
X141369104Y-123809523D02*
X141511961Y-123857142D01*
X141511961Y-123857142D02*
X141607200Y-123952380D01*
X141607200Y-123952380D02*
X141654819Y-124095237D01*
X141654819Y-124095237D02*
X141654819Y-124190475D01*
X141654819Y-122809523D02*
X141654819Y-123380951D01*
X141654819Y-123095237D02*
X140654819Y-123095237D01*
X140654819Y-123095237D02*
X140797676Y-123190475D01*
X140797676Y-123190475D02*
X140892914Y-123285713D01*
X140892914Y-123285713D02*
X140940533Y-123380951D01*
X141654819Y-121857142D02*
X141654819Y-122428570D01*
X141654819Y-122142856D02*
X140654819Y-122142856D01*
X140654819Y-122142856D02*
X140797676Y-122238094D01*
X140797676Y-122238094D02*
X140892914Y-122333332D01*
X140892914Y-122333332D02*
X140940533Y-122428570D01*
X154454819Y-69075594D02*
X153454819Y-69075594D01*
X153454819Y-69075594D02*
X153454819Y-68837499D01*
X153454819Y-68837499D02*
X153502438Y-68694642D01*
X153502438Y-68694642D02*
X153597676Y-68599404D01*
X153597676Y-68599404D02*
X153692914Y-68551785D01*
X153692914Y-68551785D02*
X153883390Y-68504166D01*
X153883390Y-68504166D02*
X154026247Y-68504166D01*
X154026247Y-68504166D02*
X154216723Y-68551785D01*
X154216723Y-68551785D02*
X154311961Y-68599404D01*
X154311961Y-68599404D02*
X154407200Y-68694642D01*
X154407200Y-68694642D02*
X154454819Y-68837499D01*
X154454819Y-68837499D02*
X154454819Y-69075594D01*
X154454819Y-67551785D02*
X154454819Y-68123213D01*
X154454819Y-67837499D02*
X153454819Y-67837499D01*
X153454819Y-67837499D02*
X153597676Y-67932737D01*
X153597676Y-67932737D02*
X153692914Y-68027975D01*
X153692914Y-68027975D02*
X153740533Y-68123213D01*
X159190476Y-126454819D02*
X159190476Y-127169104D01*
X159190476Y-127169104D02*
X159142857Y-127311961D01*
X159142857Y-127311961D02*
X159047619Y-127407200D01*
X159047619Y-127407200D02*
X158904762Y-127454819D01*
X158904762Y-127454819D02*
X158809524Y-127454819D01*
X160190476Y-127454819D02*
X159619048Y-127454819D01*
X159904762Y-127454819D02*
X159904762Y-126454819D01*
X159904762Y-126454819D02*
X159809524Y-126597676D01*
X159809524Y-126597676D02*
X159714286Y-126692914D01*
X159714286Y-126692914D02*
X159619048Y-126740533D01*
X160571429Y-126550057D02*
X160619048Y-126502438D01*
X160619048Y-126502438D02*
X160714286Y-126454819D01*
X160714286Y-126454819D02*
X160952381Y-126454819D01*
X160952381Y-126454819D02*
X161047619Y-126502438D01*
X161047619Y-126502438D02*
X161095238Y-126550057D01*
X161095238Y-126550057D02*
X161142857Y-126645295D01*
X161142857Y-126645295D02*
X161142857Y-126740533D01*
X161142857Y-126740533D02*
X161095238Y-126883390D01*
X161095238Y-126883390D02*
X160523810Y-127454819D01*
X160523810Y-127454819D02*
X161142857Y-127454819D01*
X142609580Y-115642857D02*
X142657200Y-115690476D01*
X142657200Y-115690476D02*
X142704819Y-115833333D01*
X142704819Y-115833333D02*
X142704819Y-115928571D01*
X142704819Y-115928571D02*
X142657200Y-116071428D01*
X142657200Y-116071428D02*
X142561961Y-116166666D01*
X142561961Y-116166666D02*
X142466723Y-116214285D01*
X142466723Y-116214285D02*
X142276247Y-116261904D01*
X142276247Y-116261904D02*
X142133390Y-116261904D01*
X142133390Y-116261904D02*
X141942914Y-116214285D01*
X141942914Y-116214285D02*
X141847676Y-116166666D01*
X141847676Y-116166666D02*
X141752438Y-116071428D01*
X141752438Y-116071428D02*
X141704819Y-115928571D01*
X141704819Y-115928571D02*
X141704819Y-115833333D01*
X141704819Y-115833333D02*
X141752438Y-115690476D01*
X141752438Y-115690476D02*
X141800057Y-115642857D01*
X142704819Y-114690476D02*
X142704819Y-115261904D01*
X142704819Y-114976190D02*
X141704819Y-114976190D01*
X141704819Y-114976190D02*
X141847676Y-115071428D01*
X141847676Y-115071428D02*
X141942914Y-115166666D01*
X141942914Y-115166666D02*
X141990533Y-115261904D01*
X142038152Y-113833333D02*
X142704819Y-113833333D01*
X141657200Y-114071428D02*
X142371485Y-114309523D01*
X142371485Y-114309523D02*
X142371485Y-113690476D01*
X138561905Y-104054819D02*
X138561905Y-103054819D01*
X138561905Y-103054819D02*
X138800000Y-103054819D01*
X138800000Y-103054819D02*
X138942857Y-103102438D01*
X138942857Y-103102438D02*
X139038095Y-103197676D01*
X139038095Y-103197676D02*
X139085714Y-103292914D01*
X139085714Y-103292914D02*
X139133333Y-103483390D01*
X139133333Y-103483390D02*
X139133333Y-103626247D01*
X139133333Y-103626247D02*
X139085714Y-103816723D01*
X139085714Y-103816723D02*
X139038095Y-103911961D01*
X139038095Y-103911961D02*
X138942857Y-104007200D01*
X138942857Y-104007200D02*
X138800000Y-104054819D01*
X138800000Y-104054819D02*
X138561905Y-104054819D01*
X139514286Y-103150057D02*
X139561905Y-103102438D01*
X139561905Y-103102438D02*
X139657143Y-103054819D01*
X139657143Y-103054819D02*
X139895238Y-103054819D01*
X139895238Y-103054819D02*
X139990476Y-103102438D01*
X139990476Y-103102438D02*
X140038095Y-103150057D01*
X140038095Y-103150057D02*
X140085714Y-103245295D01*
X140085714Y-103245295D02*
X140085714Y-103340533D01*
X140085714Y-103340533D02*
X140038095Y-103483390D01*
X140038095Y-103483390D02*
X139466667Y-104054819D01*
X139466667Y-104054819D02*
X140085714Y-104054819D01*
X155833333Y-93359580D02*
X155785714Y-93407200D01*
X155785714Y-93407200D02*
X155642857Y-93454819D01*
X155642857Y-93454819D02*
X155547619Y-93454819D01*
X155547619Y-93454819D02*
X155404762Y-93407200D01*
X155404762Y-93407200D02*
X155309524Y-93311961D01*
X155309524Y-93311961D02*
X155261905Y-93216723D01*
X155261905Y-93216723D02*
X155214286Y-93026247D01*
X155214286Y-93026247D02*
X155214286Y-92883390D01*
X155214286Y-92883390D02*
X155261905Y-92692914D01*
X155261905Y-92692914D02*
X155309524Y-92597676D01*
X155309524Y-92597676D02*
X155404762Y-92502438D01*
X155404762Y-92502438D02*
X155547619Y-92454819D01*
X155547619Y-92454819D02*
X155642857Y-92454819D01*
X155642857Y-92454819D02*
X155785714Y-92502438D01*
X155785714Y-92502438D02*
X155833333Y-92550057D01*
X156690476Y-92454819D02*
X156500000Y-92454819D01*
X156500000Y-92454819D02*
X156404762Y-92502438D01*
X156404762Y-92502438D02*
X156357143Y-92550057D01*
X156357143Y-92550057D02*
X156261905Y-92692914D01*
X156261905Y-92692914D02*
X156214286Y-92883390D01*
X156214286Y-92883390D02*
X156214286Y-93264342D01*
X156214286Y-93264342D02*
X156261905Y-93359580D01*
X156261905Y-93359580D02*
X156309524Y-93407200D01*
X156309524Y-93407200D02*
X156404762Y-93454819D01*
X156404762Y-93454819D02*
X156595238Y-93454819D01*
X156595238Y-93454819D02*
X156690476Y-93407200D01*
X156690476Y-93407200D02*
X156738095Y-93359580D01*
X156738095Y-93359580D02*
X156785714Y-93264342D01*
X156785714Y-93264342D02*
X156785714Y-93026247D01*
X156785714Y-93026247D02*
X156738095Y-92931009D01*
X156738095Y-92931009D02*
X156690476Y-92883390D01*
X156690476Y-92883390D02*
X156595238Y-92835771D01*
X156595238Y-92835771D02*
X156404762Y-92835771D01*
X156404762Y-92835771D02*
X156309524Y-92883390D01*
X156309524Y-92883390D02*
X156261905Y-92931009D01*
X156261905Y-92931009D02*
X156214286Y-93026247D01*
X167107142Y-115454819D02*
X166773809Y-114978628D01*
X166535714Y-115454819D02*
X166535714Y-114454819D01*
X166535714Y-114454819D02*
X166916666Y-114454819D01*
X166916666Y-114454819D02*
X167011904Y-114502438D01*
X167011904Y-114502438D02*
X167059523Y-114550057D01*
X167059523Y-114550057D02*
X167107142Y-114645295D01*
X167107142Y-114645295D02*
X167107142Y-114788152D01*
X167107142Y-114788152D02*
X167059523Y-114883390D01*
X167059523Y-114883390D02*
X167011904Y-114931009D01*
X167011904Y-114931009D02*
X166916666Y-114978628D01*
X166916666Y-114978628D02*
X166535714Y-114978628D01*
X168059523Y-115454819D02*
X167488095Y-115454819D01*
X167773809Y-115454819D02*
X167773809Y-114454819D01*
X167773809Y-114454819D02*
X167678571Y-114597676D01*
X167678571Y-114597676D02*
X167583333Y-114692914D01*
X167583333Y-114692914D02*
X167488095Y-114740533D01*
X168392857Y-114454819D02*
X169011904Y-114454819D01*
X169011904Y-114454819D02*
X168678571Y-114835771D01*
X168678571Y-114835771D02*
X168821428Y-114835771D01*
X168821428Y-114835771D02*
X168916666Y-114883390D01*
X168916666Y-114883390D02*
X168964285Y-114931009D01*
X168964285Y-114931009D02*
X169011904Y-115026247D01*
X169011904Y-115026247D02*
X169011904Y-115264342D01*
X169011904Y-115264342D02*
X168964285Y-115359580D01*
X168964285Y-115359580D02*
X168916666Y-115407200D01*
X168916666Y-115407200D02*
X168821428Y-115454819D01*
X168821428Y-115454819D02*
X168535714Y-115454819D01*
X168535714Y-115454819D02*
X168440476Y-115407200D01*
X168440476Y-115407200D02*
X168392857Y-115359580D01*
X156859580Y-99217857D02*
X156907200Y-99265476D01*
X156907200Y-99265476D02*
X156954819Y-99408333D01*
X156954819Y-99408333D02*
X156954819Y-99503571D01*
X156954819Y-99503571D02*
X156907200Y-99646428D01*
X156907200Y-99646428D02*
X156811961Y-99741666D01*
X156811961Y-99741666D02*
X156716723Y-99789285D01*
X156716723Y-99789285D02*
X156526247Y-99836904D01*
X156526247Y-99836904D02*
X156383390Y-99836904D01*
X156383390Y-99836904D02*
X156192914Y-99789285D01*
X156192914Y-99789285D02*
X156097676Y-99741666D01*
X156097676Y-99741666D02*
X156002438Y-99646428D01*
X156002438Y-99646428D02*
X155954819Y-99503571D01*
X155954819Y-99503571D02*
X155954819Y-99408333D01*
X155954819Y-99408333D02*
X156002438Y-99265476D01*
X156002438Y-99265476D02*
X156050057Y-99217857D01*
X156954819Y-98265476D02*
X156954819Y-98836904D01*
X156954819Y-98551190D02*
X155954819Y-98551190D01*
X155954819Y-98551190D02*
X156097676Y-98646428D01*
X156097676Y-98646428D02*
X156192914Y-98741666D01*
X156192914Y-98741666D02*
X156240533Y-98836904D01*
X156050057Y-97884523D02*
X156002438Y-97836904D01*
X156002438Y-97836904D02*
X155954819Y-97741666D01*
X155954819Y-97741666D02*
X155954819Y-97503571D01*
X155954819Y-97503571D02*
X156002438Y-97408333D01*
X156002438Y-97408333D02*
X156050057Y-97360714D01*
X156050057Y-97360714D02*
X156145295Y-97313095D01*
X156145295Y-97313095D02*
X156240533Y-97313095D01*
X156240533Y-97313095D02*
X156383390Y-97360714D01*
X156383390Y-97360714D02*
X156954819Y-97932142D01*
X156954819Y-97932142D02*
X156954819Y-97313095D01*
X166190476Y-89804819D02*
X166190476Y-90519104D01*
X166190476Y-90519104D02*
X166142857Y-90661961D01*
X166142857Y-90661961D02*
X166047619Y-90757200D01*
X166047619Y-90757200D02*
X165904762Y-90804819D01*
X165904762Y-90804819D02*
X165809524Y-90804819D01*
X167190476Y-90804819D02*
X166619048Y-90804819D01*
X166904762Y-90804819D02*
X166904762Y-89804819D01*
X166904762Y-89804819D02*
X166809524Y-89947676D01*
X166809524Y-89947676D02*
X166714286Y-90042914D01*
X166714286Y-90042914D02*
X166619048Y-90090533D01*
X167523810Y-89804819D02*
X168190476Y-89804819D01*
X168190476Y-89804819D02*
X167761905Y-90804819D01*
X138588095Y-91954819D02*
X138588095Y-92764342D01*
X138588095Y-92764342D02*
X138635714Y-92859580D01*
X138635714Y-92859580D02*
X138683333Y-92907200D01*
X138683333Y-92907200D02*
X138778571Y-92954819D01*
X138778571Y-92954819D02*
X138969047Y-92954819D01*
X138969047Y-92954819D02*
X139064285Y-92907200D01*
X139064285Y-92907200D02*
X139111904Y-92859580D01*
X139111904Y-92859580D02*
X139159523Y-92764342D01*
X139159523Y-92764342D02*
X139159523Y-91954819D01*
X140159523Y-92954819D02*
X139588095Y-92954819D01*
X139873809Y-92954819D02*
X139873809Y-91954819D01*
X139873809Y-91954819D02*
X139778571Y-92097676D01*
X139778571Y-92097676D02*
X139683333Y-92192914D01*
X139683333Y-92192914D02*
X139588095Y-92240533D01*
X147954819Y-113488094D02*
X146954819Y-113488094D01*
X146954819Y-113488094D02*
X146954819Y-113249999D01*
X146954819Y-113249999D02*
X147002438Y-113107142D01*
X147002438Y-113107142D02*
X147097676Y-113011904D01*
X147097676Y-113011904D02*
X147192914Y-112964285D01*
X147192914Y-112964285D02*
X147383390Y-112916666D01*
X147383390Y-112916666D02*
X147526247Y-112916666D01*
X147526247Y-112916666D02*
X147716723Y-112964285D01*
X147716723Y-112964285D02*
X147811961Y-113011904D01*
X147811961Y-113011904D02*
X147907200Y-113107142D01*
X147907200Y-113107142D02*
X147954819Y-113249999D01*
X147954819Y-113249999D02*
X147954819Y-113488094D01*
X146954819Y-112583332D02*
X146954819Y-111964285D01*
X146954819Y-111964285D02*
X147335771Y-112297618D01*
X147335771Y-112297618D02*
X147335771Y-112154761D01*
X147335771Y-112154761D02*
X147383390Y-112059523D01*
X147383390Y-112059523D02*
X147431009Y-112011904D01*
X147431009Y-112011904D02*
X147526247Y-111964285D01*
X147526247Y-111964285D02*
X147764342Y-111964285D01*
X147764342Y-111964285D02*
X147859580Y-112011904D01*
X147859580Y-112011904D02*
X147907200Y-112059523D01*
X147907200Y-112059523D02*
X147954819Y-112154761D01*
X147954819Y-112154761D02*
X147954819Y-112440475D01*
X147954819Y-112440475D02*
X147907200Y-112535713D01*
X147907200Y-112535713D02*
X147859580Y-112583332D01*
X133254819Y-103566666D02*
X132778628Y-103899999D01*
X133254819Y-104138094D02*
X132254819Y-104138094D01*
X132254819Y-104138094D02*
X132254819Y-103757142D01*
X132254819Y-103757142D02*
X132302438Y-103661904D01*
X132302438Y-103661904D02*
X132350057Y-103614285D01*
X132350057Y-103614285D02*
X132445295Y-103566666D01*
X132445295Y-103566666D02*
X132588152Y-103566666D01*
X132588152Y-103566666D02*
X132683390Y-103614285D01*
X132683390Y-103614285D02*
X132731009Y-103661904D01*
X132731009Y-103661904D02*
X132778628Y-103757142D01*
X132778628Y-103757142D02*
X132778628Y-104138094D01*
X132254819Y-103233332D02*
X132254819Y-102566666D01*
X132254819Y-102566666D02*
X133254819Y-102995237D01*
X144954819Y-96166666D02*
X144478628Y-96499999D01*
X144954819Y-96738094D02*
X143954819Y-96738094D01*
X143954819Y-96738094D02*
X143954819Y-96357142D01*
X143954819Y-96357142D02*
X144002438Y-96261904D01*
X144002438Y-96261904D02*
X144050057Y-96214285D01*
X144050057Y-96214285D02*
X144145295Y-96166666D01*
X144145295Y-96166666D02*
X144288152Y-96166666D01*
X144288152Y-96166666D02*
X144383390Y-96214285D01*
X144383390Y-96214285D02*
X144431009Y-96261904D01*
X144431009Y-96261904D02*
X144478628Y-96357142D01*
X144478628Y-96357142D02*
X144478628Y-96738094D01*
X143954819Y-95833332D02*
X143954819Y-95214285D01*
X143954819Y-95214285D02*
X144335771Y-95547618D01*
X144335771Y-95547618D02*
X144335771Y-95404761D01*
X144335771Y-95404761D02*
X144383390Y-95309523D01*
X144383390Y-95309523D02*
X144431009Y-95261904D01*
X144431009Y-95261904D02*
X144526247Y-95214285D01*
X144526247Y-95214285D02*
X144764342Y-95214285D01*
X144764342Y-95214285D02*
X144859580Y-95261904D01*
X144859580Y-95261904D02*
X144907200Y-95309523D01*
X144907200Y-95309523D02*
X144954819Y-95404761D01*
X144954819Y-95404761D02*
X144954819Y-95690475D01*
X144954819Y-95690475D02*
X144907200Y-95785713D01*
X144907200Y-95785713D02*
X144859580Y-95833332D01*
X131457142Y-114654819D02*
X131123809Y-114178628D01*
X130885714Y-114654819D02*
X130885714Y-113654819D01*
X130885714Y-113654819D02*
X131266666Y-113654819D01*
X131266666Y-113654819D02*
X131361904Y-113702438D01*
X131361904Y-113702438D02*
X131409523Y-113750057D01*
X131409523Y-113750057D02*
X131457142Y-113845295D01*
X131457142Y-113845295D02*
X131457142Y-113988152D01*
X131457142Y-113988152D02*
X131409523Y-114083390D01*
X131409523Y-114083390D02*
X131361904Y-114131009D01*
X131361904Y-114131009D02*
X131266666Y-114178628D01*
X131266666Y-114178628D02*
X130885714Y-114178628D01*
X132409523Y-114654819D02*
X131838095Y-114654819D01*
X132123809Y-114654819D02*
X132123809Y-113654819D01*
X132123809Y-113654819D02*
X132028571Y-113797676D01*
X132028571Y-113797676D02*
X131933333Y-113892914D01*
X131933333Y-113892914D02*
X131838095Y-113940533D01*
X132742857Y-113654819D02*
X133409523Y-113654819D01*
X133409523Y-113654819D02*
X132980952Y-114654819D01*
X144454819Y-85642857D02*
X143978628Y-85976190D01*
X144454819Y-86214285D02*
X143454819Y-86214285D01*
X143454819Y-86214285D02*
X143454819Y-85833333D01*
X143454819Y-85833333D02*
X143502438Y-85738095D01*
X143502438Y-85738095D02*
X143550057Y-85690476D01*
X143550057Y-85690476D02*
X143645295Y-85642857D01*
X143645295Y-85642857D02*
X143788152Y-85642857D01*
X143788152Y-85642857D02*
X143883390Y-85690476D01*
X143883390Y-85690476D02*
X143931009Y-85738095D01*
X143931009Y-85738095D02*
X143978628Y-85833333D01*
X143978628Y-85833333D02*
X143978628Y-86214285D01*
X144454819Y-84690476D02*
X144454819Y-85261904D01*
X144454819Y-84976190D02*
X143454819Y-84976190D01*
X143454819Y-84976190D02*
X143597676Y-85071428D01*
X143597676Y-85071428D02*
X143692914Y-85166666D01*
X143692914Y-85166666D02*
X143740533Y-85261904D01*
X143550057Y-84309523D02*
X143502438Y-84261904D01*
X143502438Y-84261904D02*
X143454819Y-84166666D01*
X143454819Y-84166666D02*
X143454819Y-83928571D01*
X143454819Y-83928571D02*
X143502438Y-83833333D01*
X143502438Y-83833333D02*
X143550057Y-83785714D01*
X143550057Y-83785714D02*
X143645295Y-83738095D01*
X143645295Y-83738095D02*
X143740533Y-83738095D01*
X143740533Y-83738095D02*
X143883390Y-83785714D01*
X143883390Y-83785714D02*
X144454819Y-84357142D01*
X144454819Y-84357142D02*
X144454819Y-83738095D01*
X156704761Y-108150057D02*
X156609523Y-108102438D01*
X156609523Y-108102438D02*
X156514285Y-108007200D01*
X156514285Y-108007200D02*
X156371428Y-107864342D01*
X156371428Y-107864342D02*
X156276190Y-107816723D01*
X156276190Y-107816723D02*
X156180952Y-107816723D01*
X156228571Y-108054819D02*
X156133333Y-108007200D01*
X156133333Y-108007200D02*
X156038095Y-107911961D01*
X156038095Y-107911961D02*
X155990476Y-107721485D01*
X155990476Y-107721485D02*
X155990476Y-107388152D01*
X155990476Y-107388152D02*
X156038095Y-107197676D01*
X156038095Y-107197676D02*
X156133333Y-107102438D01*
X156133333Y-107102438D02*
X156228571Y-107054819D01*
X156228571Y-107054819D02*
X156419047Y-107054819D01*
X156419047Y-107054819D02*
X156514285Y-107102438D01*
X156514285Y-107102438D02*
X156609523Y-107197676D01*
X156609523Y-107197676D02*
X156657142Y-107388152D01*
X156657142Y-107388152D02*
X156657142Y-107721485D01*
X156657142Y-107721485D02*
X156609523Y-107911961D01*
X156609523Y-107911961D02*
X156514285Y-108007200D01*
X156514285Y-108007200D02*
X156419047Y-108054819D01*
X156419047Y-108054819D02*
X156228571Y-108054819D01*
X157609523Y-108054819D02*
X157038095Y-108054819D01*
X157323809Y-108054819D02*
X157323809Y-107054819D01*
X157323809Y-107054819D02*
X157228571Y-107197676D01*
X157228571Y-107197676D02*
X157133333Y-107292914D01*
X157133333Y-107292914D02*
X157038095Y-107340533D01*
X153390476Y-79454819D02*
X153390476Y-80169104D01*
X153390476Y-80169104D02*
X153342857Y-80311961D01*
X153342857Y-80311961D02*
X153247619Y-80407200D01*
X153247619Y-80407200D02*
X153104762Y-80454819D01*
X153104762Y-80454819D02*
X153009524Y-80454819D01*
X154390476Y-80454819D02*
X153819048Y-80454819D01*
X154104762Y-80454819D02*
X154104762Y-79454819D01*
X154104762Y-79454819D02*
X154009524Y-79597676D01*
X154009524Y-79597676D02*
X153914286Y-79692914D01*
X153914286Y-79692914D02*
X153819048Y-79740533D01*
X154723810Y-79454819D02*
X155342857Y-79454819D01*
X155342857Y-79454819D02*
X155009524Y-79835771D01*
X155009524Y-79835771D02*
X155152381Y-79835771D01*
X155152381Y-79835771D02*
X155247619Y-79883390D01*
X155247619Y-79883390D02*
X155295238Y-79931009D01*
X155295238Y-79931009D02*
X155342857Y-80026247D01*
X155342857Y-80026247D02*
X155342857Y-80264342D01*
X155342857Y-80264342D02*
X155295238Y-80359580D01*
X155295238Y-80359580D02*
X155247619Y-80407200D01*
X155247619Y-80407200D02*
X155152381Y-80454819D01*
X155152381Y-80454819D02*
X154866667Y-80454819D01*
X154866667Y-80454819D02*
X154771429Y-80407200D01*
X154771429Y-80407200D02*
X154723810Y-80359580D01*
X146109580Y-114042857D02*
X146157200Y-114090476D01*
X146157200Y-114090476D02*
X146204819Y-114233333D01*
X146204819Y-114233333D02*
X146204819Y-114328571D01*
X146204819Y-114328571D02*
X146157200Y-114471428D01*
X146157200Y-114471428D02*
X146061961Y-114566666D01*
X146061961Y-114566666D02*
X145966723Y-114614285D01*
X145966723Y-114614285D02*
X145776247Y-114661904D01*
X145776247Y-114661904D02*
X145633390Y-114661904D01*
X145633390Y-114661904D02*
X145442914Y-114614285D01*
X145442914Y-114614285D02*
X145347676Y-114566666D01*
X145347676Y-114566666D02*
X145252438Y-114471428D01*
X145252438Y-114471428D02*
X145204819Y-114328571D01*
X145204819Y-114328571D02*
X145204819Y-114233333D01*
X145204819Y-114233333D02*
X145252438Y-114090476D01*
X145252438Y-114090476D02*
X145300057Y-114042857D01*
X146204819Y-113090476D02*
X146204819Y-113661904D01*
X146204819Y-113376190D02*
X145204819Y-113376190D01*
X145204819Y-113376190D02*
X145347676Y-113471428D01*
X145347676Y-113471428D02*
X145442914Y-113566666D01*
X145442914Y-113566666D02*
X145490533Y-113661904D01*
X145204819Y-112757142D02*
X145204819Y-112138095D01*
X145204819Y-112138095D02*
X145585771Y-112471428D01*
X145585771Y-112471428D02*
X145585771Y-112328571D01*
X145585771Y-112328571D02*
X145633390Y-112233333D01*
X145633390Y-112233333D02*
X145681009Y-112185714D01*
X145681009Y-112185714D02*
X145776247Y-112138095D01*
X145776247Y-112138095D02*
X146014342Y-112138095D01*
X146014342Y-112138095D02*
X146109580Y-112185714D01*
X146109580Y-112185714D02*
X146157200Y-112233333D01*
X146157200Y-112233333D02*
X146204819Y-112328571D01*
X146204819Y-112328571D02*
X146204819Y-112614285D01*
X146204819Y-112614285D02*
X146157200Y-112709523D01*
X146157200Y-112709523D02*
X146109580Y-112757142D01*
X133783333Y-92359580D02*
X133735714Y-92407200D01*
X133735714Y-92407200D02*
X133592857Y-92454819D01*
X133592857Y-92454819D02*
X133497619Y-92454819D01*
X133497619Y-92454819D02*
X133354762Y-92407200D01*
X133354762Y-92407200D02*
X133259524Y-92311961D01*
X133259524Y-92311961D02*
X133211905Y-92216723D01*
X133211905Y-92216723D02*
X133164286Y-92026247D01*
X133164286Y-92026247D02*
X133164286Y-91883390D01*
X133164286Y-91883390D02*
X133211905Y-91692914D01*
X133211905Y-91692914D02*
X133259524Y-91597676D01*
X133259524Y-91597676D02*
X133354762Y-91502438D01*
X133354762Y-91502438D02*
X133497619Y-91454819D01*
X133497619Y-91454819D02*
X133592857Y-91454819D01*
X133592857Y-91454819D02*
X133735714Y-91502438D01*
X133735714Y-91502438D02*
X133783333Y-91550057D01*
X134259524Y-92454819D02*
X134450000Y-92454819D01*
X134450000Y-92454819D02*
X134545238Y-92407200D01*
X134545238Y-92407200D02*
X134592857Y-92359580D01*
X134592857Y-92359580D02*
X134688095Y-92216723D01*
X134688095Y-92216723D02*
X134735714Y-92026247D01*
X134735714Y-92026247D02*
X134735714Y-91645295D01*
X134735714Y-91645295D02*
X134688095Y-91550057D01*
X134688095Y-91550057D02*
X134640476Y-91502438D01*
X134640476Y-91502438D02*
X134545238Y-91454819D01*
X134545238Y-91454819D02*
X134354762Y-91454819D01*
X134354762Y-91454819D02*
X134259524Y-91502438D01*
X134259524Y-91502438D02*
X134211905Y-91550057D01*
X134211905Y-91550057D02*
X134164286Y-91645295D01*
X134164286Y-91645295D02*
X134164286Y-91883390D01*
X134164286Y-91883390D02*
X134211905Y-91978628D01*
X134211905Y-91978628D02*
X134259524Y-92026247D01*
X134259524Y-92026247D02*
X134354762Y-92073866D01*
X134354762Y-92073866D02*
X134545238Y-92073866D01*
X134545238Y-92073866D02*
X134640476Y-92026247D01*
X134640476Y-92026247D02*
X134688095Y-91978628D01*
X134688095Y-91978628D02*
X134735714Y-91883390D01*
X146833333Y-85954819D02*
X146500000Y-85478628D01*
X146261905Y-85954819D02*
X146261905Y-84954819D01*
X146261905Y-84954819D02*
X146642857Y-84954819D01*
X146642857Y-84954819D02*
X146738095Y-85002438D01*
X146738095Y-85002438D02*
X146785714Y-85050057D01*
X146785714Y-85050057D02*
X146833333Y-85145295D01*
X146833333Y-85145295D02*
X146833333Y-85288152D01*
X146833333Y-85288152D02*
X146785714Y-85383390D01*
X146785714Y-85383390D02*
X146738095Y-85431009D01*
X146738095Y-85431009D02*
X146642857Y-85478628D01*
X146642857Y-85478628D02*
X146261905Y-85478628D01*
X147785714Y-85954819D02*
X147214286Y-85954819D01*
X147500000Y-85954819D02*
X147500000Y-84954819D01*
X147500000Y-84954819D02*
X147404762Y-85097676D01*
X147404762Y-85097676D02*
X147309524Y-85192914D01*
X147309524Y-85192914D02*
X147214286Y-85240533D01*
X151833333Y-93359580D02*
X151785714Y-93407200D01*
X151785714Y-93407200D02*
X151642857Y-93454819D01*
X151642857Y-93454819D02*
X151547619Y-93454819D01*
X151547619Y-93454819D02*
X151404762Y-93407200D01*
X151404762Y-93407200D02*
X151309524Y-93311961D01*
X151309524Y-93311961D02*
X151261905Y-93216723D01*
X151261905Y-93216723D02*
X151214286Y-93026247D01*
X151214286Y-93026247D02*
X151214286Y-92883390D01*
X151214286Y-92883390D02*
X151261905Y-92692914D01*
X151261905Y-92692914D02*
X151309524Y-92597676D01*
X151309524Y-92597676D02*
X151404762Y-92502438D01*
X151404762Y-92502438D02*
X151547619Y-92454819D01*
X151547619Y-92454819D02*
X151642857Y-92454819D01*
X151642857Y-92454819D02*
X151785714Y-92502438D01*
X151785714Y-92502438D02*
X151833333Y-92550057D01*
X152738095Y-92454819D02*
X152261905Y-92454819D01*
X152261905Y-92454819D02*
X152214286Y-92931009D01*
X152214286Y-92931009D02*
X152261905Y-92883390D01*
X152261905Y-92883390D02*
X152357143Y-92835771D01*
X152357143Y-92835771D02*
X152595238Y-92835771D01*
X152595238Y-92835771D02*
X152690476Y-92883390D01*
X152690476Y-92883390D02*
X152738095Y-92931009D01*
X152738095Y-92931009D02*
X152785714Y-93026247D01*
X152785714Y-93026247D02*
X152785714Y-93264342D01*
X152785714Y-93264342D02*
X152738095Y-93359580D01*
X152738095Y-93359580D02*
X152690476Y-93407200D01*
X152690476Y-93407200D02*
X152595238Y-93454819D01*
X152595238Y-93454819D02*
X152357143Y-93454819D01*
X152357143Y-93454819D02*
X152261905Y-93407200D01*
X152261905Y-93407200D02*
X152214286Y-93359580D01*
X119416666Y-88454819D02*
X119416666Y-89169104D01*
X119416666Y-89169104D02*
X119369047Y-89311961D01*
X119369047Y-89311961D02*
X119273809Y-89407200D01*
X119273809Y-89407200D02*
X119130952Y-89454819D01*
X119130952Y-89454819D02*
X119035714Y-89454819D01*
X119940476Y-89454819D02*
X120130952Y-89454819D01*
X120130952Y-89454819D02*
X120226190Y-89407200D01*
X120226190Y-89407200D02*
X120273809Y-89359580D01*
X120273809Y-89359580D02*
X120369047Y-89216723D01*
X120369047Y-89216723D02*
X120416666Y-89026247D01*
X120416666Y-89026247D02*
X120416666Y-88645295D01*
X120416666Y-88645295D02*
X120369047Y-88550057D01*
X120369047Y-88550057D02*
X120321428Y-88502438D01*
X120321428Y-88502438D02*
X120226190Y-88454819D01*
X120226190Y-88454819D02*
X120035714Y-88454819D01*
X120035714Y-88454819D02*
X119940476Y-88502438D01*
X119940476Y-88502438D02*
X119892857Y-88550057D01*
X119892857Y-88550057D02*
X119845238Y-88645295D01*
X119845238Y-88645295D02*
X119845238Y-88883390D01*
X119845238Y-88883390D02*
X119892857Y-88978628D01*
X119892857Y-88978628D02*
X119940476Y-89026247D01*
X119940476Y-89026247D02*
X120035714Y-89073866D01*
X120035714Y-89073866D02*
X120226190Y-89073866D01*
X120226190Y-89073866D02*
X120321428Y-89026247D01*
X120321428Y-89026247D02*
X120369047Y-88978628D01*
X120369047Y-88978628D02*
X120416666Y-88883390D01*
X159204819Y-69075594D02*
X158204819Y-69075594D01*
X158204819Y-69075594D02*
X158204819Y-68837499D01*
X158204819Y-68837499D02*
X158252438Y-68694642D01*
X158252438Y-68694642D02*
X158347676Y-68599404D01*
X158347676Y-68599404D02*
X158442914Y-68551785D01*
X158442914Y-68551785D02*
X158633390Y-68504166D01*
X158633390Y-68504166D02*
X158776247Y-68504166D01*
X158776247Y-68504166D02*
X158966723Y-68551785D01*
X158966723Y-68551785D02*
X159061961Y-68599404D01*
X159061961Y-68599404D02*
X159157200Y-68694642D01*
X159157200Y-68694642D02*
X159204819Y-68837499D01*
X159204819Y-68837499D02*
X159204819Y-69075594D01*
X158538152Y-67647023D02*
X159204819Y-67647023D01*
X158157200Y-67885118D02*
X158871485Y-68123213D01*
X158871485Y-68123213D02*
X158871485Y-67504166D01*
X134957142Y-82954819D02*
X134623809Y-82478628D01*
X134385714Y-82954819D02*
X134385714Y-81954819D01*
X134385714Y-81954819D02*
X134766666Y-81954819D01*
X134766666Y-81954819D02*
X134861904Y-82002438D01*
X134861904Y-82002438D02*
X134909523Y-82050057D01*
X134909523Y-82050057D02*
X134957142Y-82145295D01*
X134957142Y-82145295D02*
X134957142Y-82288152D01*
X134957142Y-82288152D02*
X134909523Y-82383390D01*
X134909523Y-82383390D02*
X134861904Y-82431009D01*
X134861904Y-82431009D02*
X134766666Y-82478628D01*
X134766666Y-82478628D02*
X134385714Y-82478628D01*
X135909523Y-82954819D02*
X135338095Y-82954819D01*
X135623809Y-82954819D02*
X135623809Y-81954819D01*
X135623809Y-81954819D02*
X135528571Y-82097676D01*
X135528571Y-82097676D02*
X135433333Y-82192914D01*
X135433333Y-82192914D02*
X135338095Y-82240533D01*
X136528571Y-81954819D02*
X136623809Y-81954819D01*
X136623809Y-81954819D02*
X136719047Y-82002438D01*
X136719047Y-82002438D02*
X136766666Y-82050057D01*
X136766666Y-82050057D02*
X136814285Y-82145295D01*
X136814285Y-82145295D02*
X136861904Y-82335771D01*
X136861904Y-82335771D02*
X136861904Y-82573866D01*
X136861904Y-82573866D02*
X136814285Y-82764342D01*
X136814285Y-82764342D02*
X136766666Y-82859580D01*
X136766666Y-82859580D02*
X136719047Y-82907200D01*
X136719047Y-82907200D02*
X136623809Y-82954819D01*
X136623809Y-82954819D02*
X136528571Y-82954819D01*
X136528571Y-82954819D02*
X136433333Y-82907200D01*
X136433333Y-82907200D02*
X136385714Y-82859580D01*
X136385714Y-82859580D02*
X136338095Y-82764342D01*
X136338095Y-82764342D02*
X136290476Y-82573866D01*
X136290476Y-82573866D02*
X136290476Y-82335771D01*
X136290476Y-82335771D02*
X136338095Y-82145295D01*
X136338095Y-82145295D02*
X136385714Y-82050057D01*
X136385714Y-82050057D02*
X136433333Y-82002438D01*
X136433333Y-82002438D02*
X136528571Y-81954819D01*
X131254819Y-113133333D02*
X131969104Y-113133333D01*
X131969104Y-113133333D02*
X132111961Y-113180952D01*
X132111961Y-113180952D02*
X132207200Y-113276190D01*
X132207200Y-113276190D02*
X132254819Y-113419047D01*
X132254819Y-113419047D02*
X132254819Y-113514285D01*
X131254819Y-112180952D02*
X131254819Y-112657142D01*
X131254819Y-112657142D02*
X131731009Y-112704761D01*
X131731009Y-112704761D02*
X131683390Y-112657142D01*
X131683390Y-112657142D02*
X131635771Y-112561904D01*
X131635771Y-112561904D02*
X131635771Y-112323809D01*
X131635771Y-112323809D02*
X131683390Y-112228571D01*
X131683390Y-112228571D02*
X131731009Y-112180952D01*
X131731009Y-112180952D02*
X131826247Y-112133333D01*
X131826247Y-112133333D02*
X132064342Y-112133333D01*
X132064342Y-112133333D02*
X132159580Y-112180952D01*
X132159580Y-112180952D02*
X132207200Y-112228571D01*
X132207200Y-112228571D02*
X132254819Y-112323809D01*
X132254819Y-112323809D02*
X132254819Y-112561904D01*
X132254819Y-112561904D02*
X132207200Y-112657142D01*
X132207200Y-112657142D02*
X132159580Y-112704761D01*
X158054819Y-117530357D02*
X157578628Y-117863690D01*
X158054819Y-118101785D02*
X157054819Y-118101785D01*
X157054819Y-118101785D02*
X157054819Y-117720833D01*
X157054819Y-117720833D02*
X157102438Y-117625595D01*
X157102438Y-117625595D02*
X157150057Y-117577976D01*
X157150057Y-117577976D02*
X157245295Y-117530357D01*
X157245295Y-117530357D02*
X157388152Y-117530357D01*
X157388152Y-117530357D02*
X157483390Y-117577976D01*
X157483390Y-117577976D02*
X157531009Y-117625595D01*
X157531009Y-117625595D02*
X157578628Y-117720833D01*
X157578628Y-117720833D02*
X157578628Y-118101785D01*
X157150057Y-117149404D02*
X157102438Y-117101785D01*
X157102438Y-117101785D02*
X157054819Y-117006547D01*
X157054819Y-117006547D02*
X157054819Y-116768452D01*
X157054819Y-116768452D02*
X157102438Y-116673214D01*
X157102438Y-116673214D02*
X157150057Y-116625595D01*
X157150057Y-116625595D02*
X157245295Y-116577976D01*
X157245295Y-116577976D02*
X157340533Y-116577976D01*
X157340533Y-116577976D02*
X157483390Y-116625595D01*
X157483390Y-116625595D02*
X158054819Y-117197023D01*
X158054819Y-117197023D02*
X158054819Y-116577976D01*
X157054819Y-115958928D02*
X157054819Y-115863690D01*
X157054819Y-115863690D02*
X157102438Y-115768452D01*
X157102438Y-115768452D02*
X157150057Y-115720833D01*
X157150057Y-115720833D02*
X157245295Y-115673214D01*
X157245295Y-115673214D02*
X157435771Y-115625595D01*
X157435771Y-115625595D02*
X157673866Y-115625595D01*
X157673866Y-115625595D02*
X157864342Y-115673214D01*
X157864342Y-115673214D02*
X157959580Y-115720833D01*
X157959580Y-115720833D02*
X158007200Y-115768452D01*
X158007200Y-115768452D02*
X158054819Y-115863690D01*
X158054819Y-115863690D02*
X158054819Y-115958928D01*
X158054819Y-115958928D02*
X158007200Y-116054166D01*
X158007200Y-116054166D02*
X157959580Y-116101785D01*
X157959580Y-116101785D02*
X157864342Y-116149404D01*
X157864342Y-116149404D02*
X157673866Y-116197023D01*
X157673866Y-116197023D02*
X157435771Y-116197023D01*
X157435771Y-116197023D02*
X157245295Y-116149404D01*
X157245295Y-116149404D02*
X157150057Y-116101785D01*
X157150057Y-116101785D02*
X157102438Y-116054166D01*
X157102438Y-116054166D02*
X157054819Y-115958928D01*
X148820180Y-89538095D02*
X148010657Y-89538095D01*
X148010657Y-89538095D02*
X147915419Y-89585714D01*
X147915419Y-89585714D02*
X147867800Y-89633333D01*
X147867800Y-89633333D02*
X147820180Y-89728571D01*
X147820180Y-89728571D02*
X147820180Y-89919047D01*
X147820180Y-89919047D02*
X147867800Y-90014285D01*
X147867800Y-90014285D02*
X147915419Y-90061904D01*
X147915419Y-90061904D02*
X148010657Y-90109523D01*
X148010657Y-90109523D02*
X148820180Y-90109523D01*
X148724942Y-90538095D02*
X148772561Y-90585714D01*
X148772561Y-90585714D02*
X148820180Y-90680952D01*
X148820180Y-90680952D02*
X148820180Y-90919047D01*
X148820180Y-90919047D02*
X148772561Y-91014285D01*
X148772561Y-91014285D02*
X148724942Y-91061904D01*
X148724942Y-91061904D02*
X148629704Y-91109523D01*
X148629704Y-91109523D02*
X148534466Y-91109523D01*
X148534466Y-91109523D02*
X148391609Y-91061904D01*
X148391609Y-91061904D02*
X147820180Y-90490476D01*
X147820180Y-90490476D02*
X147820180Y-91109523D01*
X146708333Y-93659580D02*
X146660714Y-93707200D01*
X146660714Y-93707200D02*
X146517857Y-93754819D01*
X146517857Y-93754819D02*
X146422619Y-93754819D01*
X146422619Y-93754819D02*
X146279762Y-93707200D01*
X146279762Y-93707200D02*
X146184524Y-93611961D01*
X146184524Y-93611961D02*
X146136905Y-93516723D01*
X146136905Y-93516723D02*
X146089286Y-93326247D01*
X146089286Y-93326247D02*
X146089286Y-93183390D01*
X146089286Y-93183390D02*
X146136905Y-92992914D01*
X146136905Y-92992914D02*
X146184524Y-92897676D01*
X146184524Y-92897676D02*
X146279762Y-92802438D01*
X146279762Y-92802438D02*
X146422619Y-92754819D01*
X146422619Y-92754819D02*
X146517857Y-92754819D01*
X146517857Y-92754819D02*
X146660714Y-92802438D01*
X146660714Y-92802438D02*
X146708333Y-92850057D01*
X147041667Y-92754819D02*
X147660714Y-92754819D01*
X147660714Y-92754819D02*
X147327381Y-93135771D01*
X147327381Y-93135771D02*
X147470238Y-93135771D01*
X147470238Y-93135771D02*
X147565476Y-93183390D01*
X147565476Y-93183390D02*
X147613095Y-93231009D01*
X147613095Y-93231009D02*
X147660714Y-93326247D01*
X147660714Y-93326247D02*
X147660714Y-93564342D01*
X147660714Y-93564342D02*
X147613095Y-93659580D01*
X147613095Y-93659580D02*
X147565476Y-93707200D01*
X147565476Y-93707200D02*
X147470238Y-93754819D01*
X147470238Y-93754819D02*
X147184524Y-93754819D01*
X147184524Y-93754819D02*
X147089286Y-93707200D01*
X147089286Y-93707200D02*
X147041667Y-93659580D01*
X134554819Y-103642857D02*
X134078628Y-103976190D01*
X134554819Y-104214285D02*
X133554819Y-104214285D01*
X133554819Y-104214285D02*
X133554819Y-103833333D01*
X133554819Y-103833333D02*
X133602438Y-103738095D01*
X133602438Y-103738095D02*
X133650057Y-103690476D01*
X133650057Y-103690476D02*
X133745295Y-103642857D01*
X133745295Y-103642857D02*
X133888152Y-103642857D01*
X133888152Y-103642857D02*
X133983390Y-103690476D01*
X133983390Y-103690476D02*
X134031009Y-103738095D01*
X134031009Y-103738095D02*
X134078628Y-103833333D01*
X134078628Y-103833333D02*
X134078628Y-104214285D01*
X133650057Y-103261904D02*
X133602438Y-103214285D01*
X133602438Y-103214285D02*
X133554819Y-103119047D01*
X133554819Y-103119047D02*
X133554819Y-102880952D01*
X133554819Y-102880952D02*
X133602438Y-102785714D01*
X133602438Y-102785714D02*
X133650057Y-102738095D01*
X133650057Y-102738095D02*
X133745295Y-102690476D01*
X133745295Y-102690476D02*
X133840533Y-102690476D01*
X133840533Y-102690476D02*
X133983390Y-102738095D01*
X133983390Y-102738095D02*
X134554819Y-103309523D01*
X134554819Y-103309523D02*
X134554819Y-102690476D01*
X134554819Y-101738095D02*
X134554819Y-102309523D01*
X134554819Y-102023809D02*
X133554819Y-102023809D01*
X133554819Y-102023809D02*
X133697676Y-102119047D01*
X133697676Y-102119047D02*
X133792914Y-102214285D01*
X133792914Y-102214285D02*
X133840533Y-102309523D01*
D13*
%TO.C,C4*%
X153484420Y-90990000D02*
X153765580Y-90990000D01*
X153484420Y-92010000D02*
X153765580Y-92010000D01*
D10*
%TO.C,C2*%
X153350000Y-85975000D02*
X155350000Y-85975000D01*
X155350000Y-88975000D02*
X153350000Y-88975000D01*
D13*
%TO.C,R9*%
X143022500Y-88332776D02*
X143022500Y-88842224D01*
X141977500Y-88332776D02*
X141977500Y-88842224D01*
%TO.C,R19*%
X150572500Y-110332776D02*
X150572500Y-110842224D01*
X149527500Y-110332776D02*
X149527500Y-110842224D01*
%TO.C,R22*%
X142977500Y-102754724D02*
X142977500Y-102245276D01*
X144022500Y-102754724D02*
X144022500Y-102245276D01*
%TO.C,J2*%
X169140000Y-114060000D02*
X169140000Y-112640000D01*
X180860000Y-114060000D02*
X169140000Y-114060000D01*
X169140000Y-112640000D02*
X173640000Y-112640000D01*
X173640000Y-112640000D02*
X173640000Y-110250000D01*
X169450000Y-111800000D02*
X169450000Y-111200000D01*
X174750000Y-111750000D02*
X180250000Y-111750000D01*
X180250000Y-111750000D02*
X180250000Y-111250000D01*
X170050000Y-111500000D02*
X169450000Y-111800000D01*
X174750000Y-111250000D02*
X174750000Y-111750000D01*
X180250000Y-111250000D02*
X174750000Y-111250000D01*
X169450000Y-111200000D02*
X170050000Y-111500000D01*
X180860000Y-110250000D02*
X180860000Y-114060000D01*
X180860000Y-110250000D02*
X180860000Y-106440000D01*
X174750000Y-109250000D02*
X180250000Y-109250000D01*
X180250000Y-109250000D02*
X180250000Y-108750000D01*
X174750000Y-108750000D02*
X174750000Y-109250000D01*
X180250000Y-108750000D02*
X174750000Y-108750000D01*
X169140000Y-107860000D02*
X173640000Y-107860000D01*
X173640000Y-107860000D02*
X173640000Y-110250000D01*
X169140000Y-106440000D02*
X169140000Y-107860000D01*
X180860000Y-106440000D02*
X169140000Y-106440000D01*
%TO.C,R5*%
X153832776Y-89477500D02*
X154342224Y-89477500D01*
X153832776Y-90522500D02*
X154342224Y-90522500D01*
%TO.C,R6*%
X155832776Y-84227500D02*
X156342224Y-84227500D01*
X155832776Y-85272500D02*
X156342224Y-85272500D01*
%TO.C,C8*%
X132840000Y-96236252D02*
X132840000Y-94813748D01*
X134660000Y-96236252D02*
X134660000Y-94813748D01*
%TO.C,J10*%
X143450000Y-114350000D02*
X143450000Y-115600000D01*
X143740000Y-114640000D02*
X143740000Y-120610000D01*
X143740000Y-120610000D02*
X156360000Y-120610000D01*
X143750000Y-114650000D02*
X143750000Y-115400000D01*
X143750000Y-115400000D02*
X145550000Y-115400000D01*
X143750000Y-116900000D02*
X144500000Y-116900000D01*
X144500000Y-116900000D02*
X144500000Y-119850000D01*
X144500000Y-119850000D02*
X150050000Y-119850000D01*
X144700000Y-114350000D02*
X143450000Y-114350000D01*
X145550000Y-114650000D02*
X143750000Y-114650000D01*
X145550000Y-115400000D02*
X145550000Y-114650000D01*
X147050000Y-114650000D02*
X147050000Y-115400000D01*
X147050000Y-115400000D02*
X153050000Y-115400000D01*
X153050000Y-114650000D02*
X147050000Y-114650000D01*
X153050000Y-115400000D02*
X153050000Y-114650000D01*
X154550000Y-114650000D02*
X154550000Y-115400000D01*
X154550000Y-115400000D02*
X156350000Y-115400000D01*
X155600000Y-116900000D02*
X155600000Y-119850000D01*
X155600000Y-119850000D02*
X150050000Y-119850000D01*
X156350000Y-114650000D02*
X154550000Y-114650000D01*
X156350000Y-115400000D02*
X156350000Y-114650000D01*
X156350000Y-116900000D02*
X155600000Y-116900000D01*
X156360000Y-114640000D02*
X143740000Y-114640000D01*
X156360000Y-120610000D02*
X156360000Y-114640000D01*
%TO.C,J3*%
X169140000Y-122560000D02*
X169140000Y-121140000D01*
X180860000Y-122560000D02*
X169140000Y-122560000D01*
X169140000Y-121140000D02*
X173640000Y-121140000D01*
X173640000Y-121140000D02*
X173640000Y-118750000D01*
X169450000Y-120300000D02*
X169450000Y-119700000D01*
X174750000Y-120250000D02*
X180250000Y-120250000D01*
X180250000Y-120250000D02*
X180250000Y-119750000D01*
X170050000Y-120000000D02*
X169450000Y-120300000D01*
X174750000Y-119750000D02*
X174750000Y-120250000D01*
X180250000Y-119750000D02*
X174750000Y-119750000D01*
X169450000Y-119700000D02*
X170050000Y-120000000D01*
X180860000Y-118750000D02*
X180860000Y-122560000D01*
X180860000Y-118750000D02*
X180860000Y-114940000D01*
X174750000Y-117750000D02*
X180250000Y-117750000D01*
X180250000Y-117750000D02*
X180250000Y-117250000D01*
X174750000Y-117250000D02*
X174750000Y-117750000D01*
X180250000Y-117250000D02*
X174750000Y-117250000D01*
X169140000Y-116360000D02*
X173640000Y-116360000D01*
X173640000Y-116360000D02*
X173640000Y-118750000D01*
X169140000Y-114940000D02*
X169140000Y-116360000D01*
X180860000Y-114940000D02*
X169140000Y-114940000D01*
D10*
%TO.C,L1*%
X148750000Y-93975000D02*
X149750000Y-93975000D01*
X149750000Y-96375000D02*
X148750000Y-96375000D01*
D13*
%TO.C,J15*%
X128040000Y-78885000D02*
X119960000Y-78885000D01*
X128040000Y-75465000D02*
X128040000Y-78885000D01*
X127590000Y-84385000D02*
X127590000Y-82775000D01*
X126990000Y-75465000D02*
X128040000Y-75465000D01*
X126990000Y-69265000D02*
X126990000Y-75465000D01*
X126800000Y-69265000D02*
X126800000Y-67765000D01*
X126800000Y-67765000D02*
X125160000Y-67765000D01*
X125980000Y-84385000D02*
X127590000Y-84385000D01*
X125160000Y-67765000D02*
X125160000Y-69265000D01*
X122840000Y-69265000D02*
X122840000Y-67765000D01*
X122840000Y-67765000D02*
X121200000Y-67765000D01*
X121200000Y-67765000D02*
X121200000Y-69265000D01*
X121010000Y-75465000D02*
X121010000Y-69265000D01*
X121010000Y-69265000D02*
X126990000Y-69265000D01*
X119960000Y-78885000D02*
X119960000Y-75465000D01*
X119960000Y-75465000D02*
X121010000Y-75465000D01*
%TO.C,C7*%
X153485000Y-95363748D02*
X153485000Y-95886252D01*
X152015000Y-95363748D02*
X152015000Y-95886252D01*
%TO.C,J18*%
X165670000Y-68910000D02*
X167000000Y-68910000D01*
X165670000Y-70240000D02*
X165670000Y-68910000D01*
X165670000Y-71510000D02*
X165670000Y-81730000D01*
X165670000Y-71510000D02*
X168330000Y-71510000D01*
X165670000Y-81730000D02*
X168330000Y-81730000D01*
X168330000Y-71510000D02*
X168330000Y-81730000D01*
%TO.C,U3*%
X140970000Y-111470000D02*
X140970000Y-111200000D01*
X140970000Y-104570000D02*
X140970000Y-104840000D01*
X134550000Y-111470000D02*
X140970000Y-111470000D01*
X134550000Y-104570000D02*
X140970000Y-104570000D01*
X142630000Y-111490000D02*
X142150000Y-111490000D01*
X142390000Y-111160000D01*
X142630000Y-111490000D01*
G36*
X142630000Y-111490000D02*
G01*
X142150000Y-111490000D01*
X142390000Y-111160000D01*
X142630000Y-111490000D01*
G37*
%TO.C,R24*%
X156727500Y-72754724D02*
X156727500Y-72245276D01*
X157772500Y-72754724D02*
X157772500Y-72245276D01*
%TO.C,R4*%
X150402500Y-87092224D02*
X150402500Y-86582776D01*
X151447500Y-87092224D02*
X151447500Y-86582776D01*
%TO.C,R2*%
X146547224Y-87552500D02*
X146037776Y-87552500D01*
X146547224Y-86507500D02*
X146037776Y-86507500D01*
%TO.C,R16*%
X132522500Y-107832776D02*
X132522500Y-108342224D01*
X131477500Y-107832776D02*
X131477500Y-108342224D01*
%TO.C,R18*%
X132522500Y-124845276D02*
X132522500Y-125354724D01*
X131477500Y-124845276D02*
X131477500Y-125354724D01*
%TO.C,J4*%
X169140000Y-131060000D02*
X169140000Y-129640000D01*
X180860000Y-131060000D02*
X169140000Y-131060000D01*
X169140000Y-129640000D02*
X173640000Y-129640000D01*
X173640000Y-129640000D02*
X173640000Y-127250000D01*
X169450000Y-128800000D02*
X169450000Y-128200000D01*
X174750000Y-128750000D02*
X180250000Y-128750000D01*
X180250000Y-128750000D02*
X180250000Y-128250000D01*
X170050000Y-128500000D02*
X169450000Y-128800000D01*
X174750000Y-128250000D02*
X174750000Y-128750000D01*
X180250000Y-128250000D02*
X174750000Y-128250000D01*
X169450000Y-128200000D02*
X170050000Y-128500000D01*
X180860000Y-127250000D02*
X180860000Y-131060000D01*
X180860000Y-127250000D02*
X180860000Y-123440000D01*
X174750000Y-126250000D02*
X180250000Y-126250000D01*
X180250000Y-126250000D02*
X180250000Y-125750000D01*
X174750000Y-125750000D02*
X174750000Y-126250000D01*
X180250000Y-125750000D02*
X174750000Y-125750000D01*
X169140000Y-124860000D02*
X173640000Y-124860000D01*
X173640000Y-124860000D02*
X173640000Y-127250000D01*
X169140000Y-123440000D02*
X169140000Y-124860000D01*
X180860000Y-123440000D02*
X169140000Y-123440000D01*
%TO.C,J6*%
X130860000Y-114940000D02*
X130860000Y-116360000D01*
X119140000Y-114940000D02*
X130860000Y-114940000D01*
X130860000Y-116360000D02*
X126360000Y-116360000D01*
X126360000Y-116360000D02*
X126360000Y-118750000D01*
X130550000Y-117200000D02*
X130550000Y-117800000D01*
X125250000Y-117250000D02*
X119750000Y-117250000D01*
X119750000Y-117250000D02*
X119750000Y-117750000D01*
X129950000Y-117500000D02*
X130550000Y-117200000D01*
X125250000Y-117750000D02*
X125250000Y-117250000D01*
X119750000Y-117750000D02*
X125250000Y-117750000D01*
X130550000Y-117800000D02*
X129950000Y-117500000D01*
X119140000Y-118750000D02*
X119140000Y-114940000D01*
X119140000Y-118750000D02*
X119140000Y-122560000D01*
X125250000Y-119750000D02*
X119750000Y-119750000D01*
X119750000Y-119750000D02*
X119750000Y-120250000D01*
X125250000Y-120250000D02*
X125250000Y-119750000D01*
X119750000Y-120250000D02*
X125250000Y-120250000D01*
X130860000Y-121140000D02*
X126360000Y-121140000D01*
X126360000Y-121140000D02*
X126360000Y-118750000D01*
X130860000Y-122560000D02*
X130860000Y-121140000D01*
X119140000Y-122560000D02*
X130860000Y-122560000D01*
%TO.C,C1*%
X145860000Y-90838748D02*
X145860000Y-91361252D01*
X144390000Y-90838748D02*
X144390000Y-91361252D01*
%TO.C,J20*%
X144870000Y-97820000D02*
X144870000Y-108220000D01*
X144870000Y-108220000D02*
X155150000Y-108220000D01*
X147360000Y-97880000D02*
X147360000Y-108160000D01*
X147360000Y-108160000D02*
X152660000Y-108160000D01*
X149010000Y-97880000D02*
X147360000Y-97880000D01*
X152660000Y-97880000D02*
X151010000Y-97880000D01*
X152660000Y-108160000D02*
X152660000Y-97880000D01*
X155150000Y-97820000D02*
X144870000Y-97820000D01*
X155150000Y-108220000D02*
X155150000Y-97820000D01*
X151010000Y-97880000D02*
G75*
G02*
X149010000Y-97880000I-1000000J0D01*
G01*
%TO.C,J8*%
X169140000Y-102560000D02*
X169140000Y-101140000D01*
X180860000Y-102560000D02*
X169140000Y-102560000D01*
X169140000Y-101140000D02*
X173640000Y-101140000D01*
X173640000Y-101140000D02*
X173640000Y-96250000D01*
X169450000Y-100300000D02*
X169450000Y-99700000D01*
X174750000Y-100250000D02*
X180250000Y-100250000D01*
X180250000Y-100250000D02*
X180250000Y-99750000D01*
X170050000Y-100000000D02*
X169450000Y-100300000D01*
X174750000Y-99750000D02*
X174750000Y-100250000D01*
X180250000Y-99750000D02*
X174750000Y-99750000D01*
X169450000Y-99700000D02*
X170050000Y-100000000D01*
X174750000Y-97750000D02*
X180250000Y-97750000D01*
X180250000Y-97750000D02*
X180250000Y-97250000D01*
X174750000Y-97250000D02*
X174750000Y-97750000D01*
X180250000Y-97250000D02*
X174750000Y-97250000D01*
X180860000Y-96250000D02*
X180860000Y-102560000D01*
X180860000Y-96250000D02*
X180860000Y-89940000D01*
X174750000Y-95250000D02*
X180250000Y-95250000D01*
X180250000Y-95250000D02*
X180250000Y-94750000D01*
X174750000Y-94750000D02*
X174750000Y-95250000D01*
X180250000Y-94750000D02*
X174750000Y-94750000D01*
X174750000Y-92750000D02*
X180250000Y-92750000D01*
X180250000Y-92750000D02*
X180250000Y-92250000D01*
X174750000Y-92250000D02*
X174750000Y-92750000D01*
X180250000Y-92250000D02*
X174750000Y-92250000D01*
X169140000Y-91360000D02*
X173640000Y-91360000D01*
X173640000Y-91360000D02*
X173640000Y-96250000D01*
X169140000Y-89940000D02*
X169140000Y-91360000D01*
X180860000Y-89940000D02*
X169140000Y-89940000D01*
%TO.C,J14*%
X180040000Y-78885000D02*
X171960000Y-78885000D01*
X180040000Y-75465000D02*
X180040000Y-78885000D01*
X179590000Y-84385000D02*
X179590000Y-82775000D01*
X178990000Y-75465000D02*
X180040000Y-75465000D01*
X178990000Y-69265000D02*
X178990000Y-75465000D01*
X178800000Y-69265000D02*
X178800000Y-67765000D01*
X178800000Y-67765000D02*
X177160000Y-67765000D01*
X177980000Y-84385000D02*
X179590000Y-84385000D01*
X177160000Y-67765000D02*
X177160000Y-69265000D01*
X174840000Y-69265000D02*
X174840000Y-67765000D01*
X174840000Y-67765000D02*
X173200000Y-67765000D01*
X173200000Y-67765000D02*
X173200000Y-69265000D01*
X173010000Y-75465000D02*
X173010000Y-69265000D01*
X173010000Y-69265000D02*
X178990000Y-69265000D01*
X171960000Y-78885000D02*
X171960000Y-75465000D01*
X171960000Y-75465000D02*
X173010000Y-75465000D01*
%TO.C,R8*%
X134977500Y-102842224D02*
X134977500Y-102332776D01*
X136022500Y-102842224D02*
X136022500Y-102332776D01*
%TO.C,SW1*%
D10*
X135500000Y-81500000D02*
X143500000Y-81500000D01*
X143500000Y-76500000D01*
X135500000Y-76500000D01*
X135500000Y-81500000D01*
D13*
%TO.C,R14*%
X167477500Y-121167224D02*
X167477500Y-120657776D01*
X168522500Y-121167224D02*
X168522500Y-120657776D01*
%TO.C,R11*%
X138432776Y-83477500D02*
X138942224Y-83477500D01*
X138432776Y-84522500D02*
X138942224Y-84522500D01*
%TO.C,J16*%
X132950000Y-112150000D02*
X132950000Y-113400000D01*
X133240000Y-112440000D02*
X133240000Y-118410000D01*
X133240000Y-118410000D02*
X140860000Y-118410000D01*
X133250000Y-112450000D02*
X133250000Y-113200000D01*
X133250000Y-113200000D02*
X135050000Y-113200000D01*
X133250000Y-114700000D02*
X134000000Y-114700000D01*
X134000000Y-114700000D02*
X134000000Y-117650000D01*
X134000000Y-117650000D02*
X137050000Y-117650000D01*
X134200000Y-112150000D02*
X132950000Y-112150000D01*
X135050000Y-112450000D02*
X133250000Y-112450000D01*
X135050000Y-113200000D02*
X135050000Y-112450000D01*
X136550000Y-112450000D02*
X136550000Y-113200000D01*
X136550000Y-113200000D02*
X137550000Y-113200000D01*
X137550000Y-112450000D02*
X136550000Y-112450000D01*
X137550000Y-113200000D02*
X137550000Y-112450000D01*
X139050000Y-112450000D02*
X139050000Y-113200000D01*
X139050000Y-113200000D02*
X140850000Y-113200000D01*
X140100000Y-114700000D02*
X140100000Y-117650000D01*
X140100000Y-117650000D02*
X137050000Y-117650000D01*
X140850000Y-112450000D02*
X139050000Y-112450000D01*
X140850000Y-113200000D02*
X140850000Y-112450000D01*
X140850000Y-114700000D02*
X140100000Y-114700000D01*
X140860000Y-112440000D02*
X133240000Y-112440000D01*
X140860000Y-118410000D02*
X140860000Y-112440000D01*
%TO.C,C10*%
X141238748Y-91265000D02*
X141761252Y-91265000D01*
X141238748Y-92735000D02*
X141761252Y-92735000D01*
%TO.C,R15*%
X167477500Y-129667224D02*
X167477500Y-129157776D01*
X168522500Y-129667224D02*
X168522500Y-129157776D01*
%TO.C,J19*%
X141200000Y-131550000D02*
X141200000Y-130300000D01*
X140910000Y-131260000D02*
X140910000Y-125290000D01*
X140910000Y-125290000D02*
X133290000Y-125290000D01*
X140900000Y-131250000D02*
X140900000Y-130500000D01*
X140900000Y-130500000D02*
X139100000Y-130500000D01*
X140900000Y-129000000D02*
X140150000Y-129000000D01*
X140150000Y-129000000D02*
X140150000Y-126050000D01*
X140150000Y-126050000D02*
X137100000Y-126050000D01*
X139950000Y-131550000D02*
X141200000Y-131550000D01*
X139100000Y-131250000D02*
X140900000Y-131250000D01*
X139100000Y-130500000D02*
X139100000Y-131250000D01*
X137600000Y-131250000D02*
X137600000Y-130500000D01*
X137600000Y-130500000D02*
X136600000Y-130500000D01*
X136600000Y-131250000D02*
X137600000Y-131250000D01*
X136600000Y-130500000D02*
X136600000Y-131250000D01*
X135100000Y-131250000D02*
X135100000Y-130500000D01*
X135100000Y-130500000D02*
X133300000Y-130500000D01*
X134050000Y-129000000D02*
X134050000Y-126050000D01*
X134050000Y-126050000D02*
X137100000Y-126050000D01*
X133300000Y-131250000D02*
X135100000Y-131250000D01*
X133300000Y-130500000D02*
X133300000Y-131250000D01*
X133300000Y-129000000D02*
X134050000Y-129000000D01*
X133290000Y-131260000D02*
X140910000Y-131260000D01*
X133290000Y-125290000D02*
X133290000Y-131260000D01*
%TO.C,U4*%
X137695000Y-85275000D02*
X135815000Y-85275000D01*
X137695000Y-85275000D02*
X139575000Y-85275000D01*
X137695000Y-90455000D02*
X135815000Y-90455000D01*
X137695000Y-90455000D02*
X139575000Y-90455000D01*
X134992500Y-85375000D02*
X134752500Y-85045000D01*
X135232500Y-85045000D01*
X134992500Y-85375000D01*
G36*
X134992500Y-85375000D02*
G01*
X134752500Y-85045000D01*
X135232500Y-85045000D01*
X134992500Y-85375000D01*
G37*
%TO.C,J7*%
X130860000Y-123440000D02*
X130860000Y-124860000D01*
X119140000Y-123440000D02*
X130860000Y-123440000D01*
X130860000Y-124860000D02*
X126360000Y-124860000D01*
X126360000Y-124860000D02*
X126360000Y-127250000D01*
X130550000Y-125700000D02*
X130550000Y-126300000D01*
X125250000Y-125750000D02*
X119750000Y-125750000D01*
X119750000Y-125750000D02*
X119750000Y-126250000D01*
X129950000Y-126000000D02*
X130550000Y-125700000D01*
X125250000Y-126250000D02*
X125250000Y-125750000D01*
X119750000Y-126250000D02*
X125250000Y-126250000D01*
X130550000Y-126300000D02*
X129950000Y-126000000D01*
X119140000Y-127250000D02*
X119140000Y-123440000D01*
X119140000Y-127250000D02*
X119140000Y-131060000D01*
X125250000Y-128250000D02*
X119750000Y-128250000D01*
X119750000Y-128250000D02*
X119750000Y-128750000D01*
X125250000Y-128750000D02*
X125250000Y-128250000D01*
X119750000Y-128750000D02*
X125250000Y-128750000D01*
X130860000Y-129640000D02*
X126360000Y-129640000D01*
X126360000Y-129640000D02*
X126360000Y-127250000D01*
X130860000Y-131060000D02*
X130860000Y-129640000D01*
X119140000Y-131060000D02*
X130860000Y-131060000D01*
%TO.C,R23*%
X154977500Y-72754724D02*
X154977500Y-72245276D01*
X156022500Y-72754724D02*
X156022500Y-72245276D01*
%TO.C,J11*%
X142190000Y-122090000D02*
X143610000Y-122090000D01*
X142190000Y-133810000D02*
X142190000Y-122090000D01*
X143610000Y-122090000D02*
X143610000Y-126590000D01*
X143610000Y-126590000D02*
X146000000Y-126590000D01*
X144450000Y-122400000D02*
X145050000Y-122400000D01*
X144500000Y-127700000D02*
X144500000Y-133200000D01*
X144500000Y-133200000D02*
X145000000Y-133200000D01*
X144750000Y-123000000D02*
X144450000Y-122400000D01*
X145000000Y-127700000D02*
X144500000Y-127700000D01*
X145000000Y-133200000D02*
X145000000Y-127700000D01*
X145050000Y-122400000D02*
X144750000Y-123000000D01*
X146000000Y-133810000D02*
X142190000Y-133810000D01*
X146000000Y-133810000D02*
X149810000Y-133810000D01*
X147000000Y-127700000D02*
X147000000Y-133200000D01*
X147000000Y-133200000D02*
X147500000Y-133200000D01*
X147500000Y-127700000D02*
X147000000Y-127700000D01*
X147500000Y-133200000D02*
X147500000Y-127700000D01*
X148390000Y-122090000D02*
X148390000Y-126590000D01*
X148390000Y-126590000D02*
X146000000Y-126590000D01*
X149810000Y-122090000D02*
X148390000Y-122090000D01*
X149810000Y-133810000D02*
X149810000Y-122090000D01*
%TO.C,D1*%
X156235000Y-67640000D02*
X154765000Y-67640000D01*
X154765000Y-67640000D02*
X154765000Y-69925000D01*
X156235000Y-69925000D02*
X156235000Y-67640000D01*
%TO.C,J12*%
X150690000Y-122090000D02*
X152110000Y-122090000D01*
X150690000Y-133810000D02*
X150690000Y-122090000D01*
X152110000Y-122090000D02*
X152110000Y-126590000D01*
X152110000Y-126590000D02*
X154500000Y-126590000D01*
X152950000Y-122400000D02*
X153550000Y-122400000D01*
X153000000Y-127700000D02*
X153000000Y-133200000D01*
X153000000Y-133200000D02*
X153500000Y-133200000D01*
X153250000Y-123000000D02*
X152950000Y-122400000D01*
X153500000Y-127700000D02*
X153000000Y-127700000D01*
X153500000Y-133200000D02*
X153500000Y-127700000D01*
X153550000Y-122400000D02*
X153250000Y-123000000D01*
X154500000Y-133810000D02*
X150690000Y-133810000D01*
X154500000Y-133810000D02*
X158310000Y-133810000D01*
X155500000Y-127700000D02*
X155500000Y-133200000D01*
X155500000Y-133200000D02*
X156000000Y-133200000D01*
X156000000Y-127700000D02*
X155500000Y-127700000D01*
X156000000Y-133200000D02*
X156000000Y-127700000D01*
X156890000Y-122090000D02*
X156890000Y-126590000D01*
X156890000Y-126590000D02*
X154500000Y-126590000D01*
X158310000Y-122090000D02*
X156890000Y-122090000D01*
X158310000Y-133810000D02*
X158310000Y-122090000D01*
%TO.C,C14*%
X143184420Y-112190000D02*
X143465580Y-112190000D01*
X143184420Y-113210000D02*
X143465580Y-113210000D01*
%TO.C,D2*%
X137840000Y-100900000D02*
X137840000Y-102600000D01*
X137840000Y-100900000D02*
X140500000Y-100900000D01*
X137840000Y-102600000D02*
X140500000Y-102600000D01*
%TO.C,C6*%
X155485000Y-95363748D02*
X155485000Y-95886252D01*
X154015000Y-95363748D02*
X154015000Y-95886252D01*
%TO.C,R13*%
X167477500Y-112754724D02*
X167477500Y-112245276D01*
X168522500Y-112754724D02*
X168522500Y-112245276D01*
%TO.C,C12*%
X157010000Y-95434420D02*
X157010000Y-95715580D01*
X155990000Y-95434420D02*
X155990000Y-95715580D01*
%TO.C,J17*%
X165670000Y-83660000D02*
X167000000Y-83660000D01*
X165670000Y-84990000D02*
X165670000Y-83660000D01*
X165670000Y-86260000D02*
X165670000Y-88860000D01*
X165670000Y-86260000D02*
X168330000Y-86260000D01*
X165670000Y-88860000D02*
X168330000Y-88860000D01*
X168330000Y-86260000D02*
X168330000Y-88860000D01*
%TO.C,U1*%
X137500000Y-93590000D02*
X141260000Y-93590000D01*
X137500000Y-100410000D02*
X141260000Y-100410000D01*
X141260000Y-93590000D02*
X141260000Y-94850000D01*
X141260000Y-100410000D02*
X141260000Y-99150000D01*
X136220000Y-93690000D02*
X135980000Y-93360000D01*
X136460000Y-93360000D01*
X136220000Y-93690000D01*
G36*
X136220000Y-93690000D02*
G01*
X135980000Y-93360000D01*
X136460000Y-93360000D01*
X136220000Y-93690000D01*
G37*
%TO.C,D3*%
X148450000Y-108490000D02*
X146750000Y-108490000D01*
X148450000Y-108490000D02*
X148450000Y-111150000D01*
X146750000Y-108490000D02*
X146750000Y-111150000D01*
%TO.C,R7*%
X136577500Y-102754724D02*
X136577500Y-102245276D01*
X137622500Y-102754724D02*
X137622500Y-102245276D01*
%TO.C,R3*%
X145227500Y-96017224D02*
X145227500Y-95507776D01*
X146272500Y-96017224D02*
X146272500Y-95507776D01*
%TO.C,R17*%
X132522500Y-116257776D02*
X132522500Y-116767224D01*
X131477500Y-116257776D02*
X131477500Y-116767224D01*
%TO.C,R12*%
X143122500Y-84745276D02*
X143122500Y-85254724D01*
X142077500Y-84745276D02*
X142077500Y-85254724D01*
%TO.C,Q1*%
X153440000Y-108640000D02*
X156160000Y-108640000D01*
X153580000Y-108640000D02*
X156160000Y-108640000D01*
X156160000Y-109620000D02*
X156160000Y-108640000D01*
X156160000Y-112380000D02*
X156160000Y-113360000D01*
X156160000Y-113360000D02*
X153440000Y-113360000D01*
X153030000Y-108790000D02*
X152790000Y-108460000D01*
X153270000Y-108460000D01*
X153030000Y-108790000D01*
G36*
X153030000Y-108790000D02*
G01*
X152790000Y-108460000D01*
X153270000Y-108460000D01*
X153030000Y-108790000D01*
G37*
%TO.C,J13*%
X154040000Y-78885000D02*
X145960000Y-78885000D01*
X154040000Y-75465000D02*
X154040000Y-78885000D01*
X153590000Y-84385000D02*
X153590000Y-82775000D01*
X152990000Y-75465000D02*
X154040000Y-75465000D01*
X152990000Y-69265000D02*
X152990000Y-75465000D01*
X152800000Y-69265000D02*
X152800000Y-67765000D01*
X152800000Y-67765000D02*
X151160000Y-67765000D01*
X151980000Y-84385000D02*
X153590000Y-84385000D01*
X151160000Y-67765000D02*
X151160000Y-69265000D01*
X148840000Y-69265000D02*
X148840000Y-67765000D01*
X148840000Y-67765000D02*
X147200000Y-67765000D01*
X147200000Y-67765000D02*
X147200000Y-69265000D01*
X147010000Y-75465000D02*
X147010000Y-69265000D01*
X147010000Y-69265000D02*
X152990000Y-69265000D01*
X145960000Y-78885000D02*
X145960000Y-75465000D01*
X145960000Y-75465000D02*
X147010000Y-75465000D01*
%TO.C,C13*%
X145985000Y-109938748D02*
X145985000Y-110461252D01*
X144515000Y-109938748D02*
X144515000Y-110461252D01*
%TO.C,C9*%
X137211252Y-92735000D02*
X136688748Y-92735000D01*
X137211252Y-91265000D02*
X136688748Y-91265000D01*
%TO.C,R1*%
X148172500Y-87054724D02*
X148172500Y-86545276D01*
X149217500Y-87054724D02*
X149217500Y-86545276D01*
%TO.C,C5*%
X149609420Y-92390000D02*
X149890580Y-92390000D01*
X149609420Y-93410000D02*
X149890580Y-93410000D01*
%TO.C,J9*%
X130860000Y-89940000D02*
X130860000Y-91360000D01*
X119140000Y-89940000D02*
X130860000Y-89940000D01*
X130860000Y-91360000D02*
X126360000Y-91360000D01*
X126360000Y-91360000D02*
X126360000Y-96250000D01*
X130550000Y-92200000D02*
X130550000Y-92800000D01*
X125250000Y-92250000D02*
X119750000Y-92250000D01*
X119750000Y-92250000D02*
X119750000Y-92750000D01*
X129950000Y-92500000D02*
X130550000Y-92200000D01*
X125250000Y-92750000D02*
X125250000Y-92250000D01*
X119750000Y-92750000D02*
X125250000Y-92750000D01*
X130550000Y-92800000D02*
X129950000Y-92500000D01*
X125250000Y-94750000D02*
X119750000Y-94750000D01*
X119750000Y-94750000D02*
X119750000Y-95250000D01*
X125250000Y-95250000D02*
X125250000Y-94750000D01*
X119750000Y-95250000D02*
X125250000Y-95250000D01*
X119140000Y-96250000D02*
X119140000Y-89940000D01*
X119140000Y-96250000D02*
X119140000Y-102560000D01*
X125250000Y-97250000D02*
X119750000Y-97250000D01*
X119750000Y-97250000D02*
X119750000Y-97750000D01*
X125250000Y-97750000D02*
X125250000Y-97250000D01*
X119750000Y-97750000D02*
X125250000Y-97750000D01*
X125250000Y-99750000D02*
X119750000Y-99750000D01*
X119750000Y-99750000D02*
X119750000Y-100250000D01*
X125250000Y-100250000D02*
X125250000Y-99750000D01*
X119750000Y-100250000D02*
X125250000Y-100250000D01*
X130860000Y-101140000D02*
X126360000Y-101140000D01*
X126360000Y-101140000D02*
X126360000Y-96250000D01*
X130860000Y-102560000D02*
X130860000Y-101140000D01*
X119140000Y-102560000D02*
X130860000Y-102560000D01*
%TO.C,D4*%
X157935000Y-67615000D02*
X156465000Y-67615000D01*
X156465000Y-67615000D02*
X156465000Y-69900000D01*
X157935000Y-69900000D02*
X157935000Y-67615000D01*
%TO.C,R10*%
X138432776Y-81977500D02*
X138942224Y-81977500D01*
X138432776Y-83022500D02*
X138942224Y-83022500D01*
%TO.C,J5*%
X130860000Y-106440000D02*
X130860000Y-107860000D01*
X119140000Y-106440000D02*
X130860000Y-106440000D01*
X130860000Y-107860000D02*
X126360000Y-107860000D01*
X126360000Y-107860000D02*
X126360000Y-110250000D01*
X130550000Y-108700000D02*
X130550000Y-109300000D01*
X125250000Y-108750000D02*
X119750000Y-108750000D01*
X119750000Y-108750000D02*
X119750000Y-109250000D01*
X129950000Y-109000000D02*
X130550000Y-108700000D01*
X125250000Y-109250000D02*
X125250000Y-108750000D01*
X119750000Y-109250000D02*
X125250000Y-109250000D01*
X130550000Y-109300000D02*
X129950000Y-109000000D01*
X119140000Y-110250000D02*
X119140000Y-106440000D01*
X119140000Y-110250000D02*
X119140000Y-114060000D01*
X125250000Y-111250000D02*
X119750000Y-111250000D01*
X119750000Y-111250000D02*
X119750000Y-111750000D01*
X125250000Y-111750000D02*
X125250000Y-111250000D01*
X119750000Y-111750000D02*
X125250000Y-111750000D01*
X130860000Y-112640000D02*
X126360000Y-112640000D01*
X126360000Y-112640000D02*
X126360000Y-110250000D01*
X130860000Y-114060000D02*
X130860000Y-112640000D01*
X119140000Y-114060000D02*
X130860000Y-114060000D01*
%TO.C,R20*%
X157077500Y-120142224D02*
X157077500Y-119632776D01*
X158122500Y-120142224D02*
X158122500Y-119632776D01*
%TO.C,U2*%
X151065000Y-89190000D02*
X150015000Y-89190000D01*
X151065000Y-91510000D02*
X149765000Y-91510000D01*
X149655000Y-89190000D02*
X149375000Y-89190000D01*
X149655000Y-88910000D01*
X149655000Y-89190000D01*
G36*
X149655000Y-89190000D02*
G01*
X149375000Y-89190000D01*
X149655000Y-88910000D01*
X149655000Y-89190000D01*
G37*
%TO.C,C3*%
X147385000Y-90759420D02*
X147385000Y-91040580D01*
X146365000Y-90759420D02*
X146365000Y-91040580D01*
%TO.C,R21*%
X141477500Y-102754724D02*
X141477500Y-102245276D01*
X142522500Y-102754724D02*
X142522500Y-102245276D01*
%TD*%
M02*
