%TF.GenerationSoftware,KiCad,Pcbnew,8.0.4-8.0.4-0~ubuntu22.04.1*%
%TF.CreationDate,2024-09-03T10:52:35+09:00*%
%TF.ProjectId,control_board,636f6e74-726f-46c5-9f62-6f6172642e6b,rev?*%
%TF.SameCoordinates,Original*%
%TF.FileFunction,Paste,Top*%
%TF.FilePolarity,Positive*%
%FSLAX46Y46*%
G04 Gerber Fmt 4.6, Leading zero omitted, Abs format (unit mm)*
G04 Created by KiCad (PCBNEW 8.0.4-8.0.4-0~ubuntu22.04.1) date 2024-09-03 10:52:35*
%MOMM*%
%LPD*%
G01*
G04 APERTURE LIST*
G04 Aperture macros list*
%AMRoundRect*
0 Rectangle with rounded corners*
0 $1 Rounding radius*
0 $2 $3 $4 $5 $6 $7 $8 $9 X,Y pos of 4 corners*
0 Add a 4 corners polygon primitive as box body*
4,1,4,$2,$3,$4,$5,$6,$7,$8,$9,$2,$3,0*
0 Add four circle primitives for the rounded corners*
1,1,$1+$1,$2,$3*
1,1,$1+$1,$4,$5*
1,1,$1+$1,$6,$7*
1,1,$1+$1,$8,$9*
0 Add four rect primitives between the rounded corners*
20,1,$1+$1,$2,$3,$4,$5,0*
20,1,$1+$1,$4,$5,$6,$7,0*
20,1,$1+$1,$6,$7,$8,$9,0*
20,1,$1+$1,$8,$9,$2,$3,0*%
%AMFreePoly0*
4,1,9,5.362500,-0.866500,1.237500,-0.866500,1.237500,-0.450000,-1.237500,-0.450000,-1.237500,0.450000,1.237500,0.450000,1.237500,0.866500,5.362500,0.866500,5.362500,-0.866500,5.362500,-0.866500,$1*%
G04 Aperture macros list end*
%ADD10RoundRect,0.225000X-0.225000X-0.250000X0.225000X-0.250000X0.225000X0.250000X-0.225000X0.250000X0*%
%ADD11RoundRect,0.250000X-0.400000X-1.150000X0.400000X-1.150000X0.400000X1.150000X-0.400000X1.150000X0*%
%ADD12RoundRect,0.237500X-0.237500X0.250000X-0.237500X-0.250000X0.237500X-0.250000X0.237500X0.250000X0*%
%ADD13RoundRect,0.237500X0.237500X-0.250000X0.237500X0.250000X-0.237500X0.250000X-0.237500X-0.250000X0*%
%ADD14RoundRect,0.237500X-0.250000X-0.237500X0.250000X-0.237500X0.250000X0.237500X-0.250000X0.237500X0*%
%ADD15RoundRect,0.250000X0.650000X-0.325000X0.650000X0.325000X-0.650000X0.325000X-0.650000X-0.325000X0*%
%ADD16RoundRect,0.300000X-0.300000X-0.700000X0.300000X-0.700000X0.300000X0.700000X-0.300000X0.700000X0*%
%ADD17RoundRect,0.250000X-0.475000X0.250000X-0.475000X-0.250000X0.475000X-0.250000X0.475000X0.250000X0*%
%ADD18RoundRect,0.250000X0.850000X0.350000X-0.850000X0.350000X-0.850000X-0.350000X0.850000X-0.350000X0*%
%ADD19RoundRect,0.250000X1.275000X1.125000X-1.275000X1.125000X-1.275000X-1.125000X1.275000X-1.125000X0*%
%ADD20RoundRect,0.237500X0.250000X0.237500X-0.250000X0.237500X-0.250000X-0.237500X0.250000X-0.237500X0*%
%ADD21RoundRect,0.250000X-0.250000X-0.475000X0.250000X-0.475000X0.250000X0.475000X-0.250000X0.475000X0*%
%ADD22RoundRect,0.162500X-0.825000X-0.162500X0.825000X-0.162500X0.825000X0.162500X-0.825000X0.162500X0*%
%ADD23RoundRect,0.218750X-0.256250X0.218750X-0.256250X-0.218750X0.256250X-0.218750X0.256250X0.218750X0*%
%ADD24RoundRect,0.112500X-0.187500X-0.112500X0.187500X-0.112500X0.187500X0.112500X-0.187500X0.112500X0*%
%ADD25RoundRect,0.225000X-0.250000X0.225000X-0.250000X-0.225000X0.250000X-0.225000X0.250000X0.225000X0*%
%ADD26RoundRect,0.375000X-0.625000X-0.375000X0.625000X-0.375000X0.625000X0.375000X-0.625000X0.375000X0*%
%ADD27RoundRect,0.500000X-0.500000X-1.400000X0.500000X-1.400000X0.500000X1.400000X-0.500000X1.400000X0*%
%ADD28RoundRect,0.112500X-0.112500X0.187500X-0.112500X-0.187500X0.112500X-0.187500X0.112500X0.187500X0*%
%ADD29RoundRect,0.225000X-0.925000X-0.225000X0.925000X-0.225000X0.925000X0.225000X-0.925000X0.225000X0*%
%ADD30FreePoly0,0.000000*%
%ADD31RoundRect,0.250000X0.250000X0.475000X-0.250000X0.475000X-0.250000X-0.475000X0.250000X-0.475000X0*%
%ADD32RoundRect,0.050000X-0.285000X-0.100000X0.285000X-0.100000X0.285000X0.100000X-0.285000X0.100000X0*%
G04 APERTURE END LIST*
D10*
%TO.C,C4*%
X152850000Y-91500000D03*
X154400000Y-91500000D03*
%TD*%
D11*
%TO.C,C2*%
X152950000Y-87475000D03*
X155750000Y-87475000D03*
%TD*%
D12*
%TO.C,R9*%
X142500000Y-87675000D03*
X142500000Y-89500000D03*
%TD*%
%TO.C,R19*%
X150050000Y-109675000D03*
X150050000Y-111500000D03*
%TD*%
D13*
%TO.C,R22*%
X143500000Y-103412500D03*
X143500000Y-101587500D03*
%TD*%
D14*
%TO.C,R5*%
X153175000Y-90000000D03*
X155000000Y-90000000D03*
%TD*%
%TO.C,R6*%
X155175000Y-84750000D03*
X157000000Y-84750000D03*
%TD*%
D15*
%TO.C,C8*%
X133750000Y-97000000D03*
X133750000Y-94050000D03*
%TD*%
D16*
%TO.C,L1*%
X147650000Y-95175000D03*
X150850000Y-95175000D03*
%TD*%
D17*
%TO.C,C7*%
X152750000Y-94675000D03*
X152750000Y-96575000D03*
%TD*%
D18*
%TO.C,U3*%
X142700000Y-110300000D03*
D19*
X138075000Y-109545000D03*
X138075000Y-106495000D03*
X134725000Y-109545000D03*
X134725000Y-106495000D03*
D18*
X142700000Y-105740000D03*
%TD*%
D13*
%TO.C,R24*%
X157250000Y-73412500D03*
X157250000Y-71587500D03*
%TD*%
%TO.C,R4*%
X150925000Y-87750000D03*
X150925000Y-85925000D03*
%TD*%
D20*
%TO.C,R2*%
X147205000Y-87030000D03*
X145380000Y-87030000D03*
%TD*%
D12*
%TO.C,R16*%
X132000000Y-107175000D03*
X132000000Y-109000000D03*
%TD*%
%TO.C,R18*%
X132000000Y-124187500D03*
X132000000Y-126012500D03*
%TD*%
D17*
%TO.C,C1*%
X145125000Y-90150000D03*
X145125000Y-92050000D03*
%TD*%
D13*
%TO.C,R8*%
X135500000Y-103500000D03*
X135500000Y-101675000D03*
%TD*%
%TO.C,R14*%
X168000000Y-121825000D03*
X168000000Y-120000000D03*
%TD*%
D14*
%TO.C,R11*%
X137775000Y-84000000D03*
X139600000Y-84000000D03*
%TD*%
D21*
%TO.C,C10*%
X140550000Y-92000000D03*
X142450000Y-92000000D03*
%TD*%
D13*
%TO.C,R15*%
X168000000Y-130325000D03*
X168000000Y-128500000D03*
%TD*%
D22*
%TO.C,U4*%
X135157500Y-85960000D03*
X135157500Y-87230000D03*
X135157500Y-88500000D03*
X135157500Y-89770000D03*
X140232500Y-89770000D03*
X140232500Y-88500000D03*
X140232500Y-87230000D03*
X140232500Y-85960000D03*
%TD*%
D13*
%TO.C,R23*%
X155500000Y-73412500D03*
X155500000Y-71587500D03*
%TD*%
D23*
%TO.C,D1*%
X155500000Y-68337500D03*
X155500000Y-69912500D03*
%TD*%
D10*
%TO.C,C14*%
X142550000Y-112700000D03*
X144100000Y-112700000D03*
%TD*%
D24*
%TO.C,D2*%
X138400000Y-101750000D03*
X140500000Y-101750000D03*
%TD*%
D17*
%TO.C,C6*%
X154750000Y-94675000D03*
X154750000Y-96575000D03*
%TD*%
D13*
%TO.C,R13*%
X168000000Y-113412500D03*
X168000000Y-111587500D03*
%TD*%
D25*
%TO.C,C12*%
X156500000Y-94800000D03*
X156500000Y-96350000D03*
%TD*%
D26*
%TO.C,U1*%
X136200000Y-94700000D03*
X136200000Y-97000000D03*
D27*
X142500000Y-97000000D03*
D26*
X136200000Y-99300000D03*
%TD*%
D28*
%TO.C,D3*%
X147600000Y-109050000D03*
X147600000Y-111150000D03*
%TD*%
D13*
%TO.C,R7*%
X137100000Y-103412500D03*
X137100000Y-101587500D03*
%TD*%
%TO.C,R3*%
X145750000Y-96675000D03*
X145750000Y-94850000D03*
%TD*%
D12*
%TO.C,R17*%
X132000000Y-115600000D03*
X132000000Y-117425000D03*
%TD*%
%TO.C,R12*%
X142600000Y-84087500D03*
X142600000Y-85912500D03*
%TD*%
D29*
%TO.C,Q1*%
X152350000Y-109500000D03*
D30*
X152437500Y-111000000D03*
D29*
X152350000Y-112500000D03*
%TD*%
D17*
%TO.C,C13*%
X145250000Y-109250000D03*
X145250000Y-111150000D03*
%TD*%
D31*
%TO.C,C9*%
X137900000Y-92000000D03*
X136000000Y-92000000D03*
%TD*%
D13*
%TO.C,R1*%
X148695000Y-87712500D03*
X148695000Y-85887500D03*
%TD*%
D10*
%TO.C,C5*%
X148975000Y-92900000D03*
X150525000Y-92900000D03*
%TD*%
D23*
%TO.C,D4*%
X157200000Y-68312500D03*
X157200000Y-69887500D03*
%TD*%
D14*
%TO.C,R10*%
X137775000Y-82500000D03*
X139600000Y-82500000D03*
%TD*%
D13*
%TO.C,R20*%
X157600000Y-120800000D03*
X157600000Y-118975000D03*
%TD*%
D32*
%TO.C,U2*%
X149675000Y-89600000D03*
X149675000Y-90100000D03*
X149675000Y-90600000D03*
X149675000Y-91100000D03*
X151155000Y-91100000D03*
X151155000Y-90600000D03*
X151155000Y-90100000D03*
X151155000Y-89600000D03*
%TD*%
D25*
%TO.C,C3*%
X146875000Y-90125000D03*
X146875000Y-91675000D03*
%TD*%
D13*
%TO.C,R21*%
X142000000Y-103412500D03*
X142000000Y-101587500D03*
%TD*%
M02*
