M48
; DRILL file {KiCad 8.0.4-8.0.4-0~ubuntu22.04.1} date 2024-09-03T10:53:02+0900
; FORMAT={-:-/ absolute / inch / decimal}
; #@! TF.CreationDate,2024-09-03T10:53:02+09:00
; #@! TF.GenerationSoftware,Kicad,Pcbnew,8.0.4-8.0.4-0~ubuntu22.04.1
; #@! TF.FileFunction,Plated,1,2,PTH
FMAT,2
INCH
; #@! TA.AperFunction,Plated,PTH,ViaDrill
T1C0.0118
; #@! TA.AperFunction,Plated,PTH,ComponentDrill
T2C0.0300
; #@! TA.AperFunction,Plated,PTH,ComponentDrill
T3C0.0315
; #@! TA.AperFunction,Plated,PTH,ComponentDrill
T4C0.0374
; #@! TA.AperFunction,Plated,PTH,ComponentDrill
T5C0.0394
; #@! TA.AperFunction,Plated,PTH,ComponentDrill
T6C0.0669
%
G90
G05
T1
X4.8228Y-2.8543
X4.8228Y-2.9528
X4.8228Y-3.4449
X4.8228Y-3.6417
X4.8228Y-3.8386
X4.8228Y-3.937
X4.8228Y-4.3307
X4.8228Y-4.7244
X4.8228Y-5.0197
X4.8228Y-5.2165
X4.9213Y-2.8543
X4.9213Y-2.9528
X4.9213Y-3.4449
X5.0197Y-5.2165
X5.1063Y-4.0118
X5.1102Y-4.1575
X5.1102Y-4.8858
X5.1181Y-2.7559
X5.1181Y-2.9528
X5.1181Y-3.248
X5.1181Y-3.4449
X5.1181Y-4.5512
X5.1378Y-3.878
X5.2047Y-4.6575
X5.2126Y-4.3346
X5.2165Y-2.7559
X5.2165Y-3.3465
X5.2165Y-3.5433
X5.2283Y-4.9291
X5.2963Y-3.9793
X5.311Y-3.9488
X5.311Y-4.8031
X5.315Y-4.4291
X5.3858Y-3.5827
X5.3947Y-3.3661
X5.3947Y-3.4076
X5.4075Y-3.5394
X5.4134Y-4.626
X5.4173Y-4.4646
X5.4252Y-3.9016
X5.4547Y-3.4882
X5.4567Y-3.3661
X5.4724Y-4.0797
X5.4803Y-4.4488
X5.5157Y-4.811
X5.5234Y-4.3585
X5.5512Y-4.378
X5.5628Y-4.0813
X5.5748Y-3.3268
X5.6102Y-2.7559
X5.6102Y-3.4921
X5.613Y-3.4129
X5.6181Y-4.2756
X5.6398Y-4.4035
X5.6567Y-3.9576
X5.6575Y-3.6614
X5.6929Y-3.9941
X5.6998Y-4.4104
X5.7087Y-5.1181
X5.7087Y-5.1181
X5.7874Y-3.4961
X5.7874Y-3.811
X5.7933Y-3.8556
X5.7953Y-4.2598
X5.8071Y-3.0512
X5.8071Y-3.3465
X5.8071Y-4.7244
X5.8091Y-4.5114
X5.8248Y-4.1022
X5.8271Y-4.0708
X5.8448Y-4.1518
X5.8593Y-3.5925
X5.86Y-3.5187
X5.8829Y-4.4961
X5.8907Y-3.5932
X5.9055Y-2.8543
X5.9055Y-3.0512
X5.9055Y-4.0157
X5.9094Y-4.4665
X5.9641Y-3.8184
X5.9685Y-4.4665
X5.9724Y-3.1535
X5.9866Y-3.8404
X6.0039Y-4.1339
X6.0039Y-4.2323
X6.0039Y-5.1181
X6.0512Y-3.7912
X6.0563Y-3.3032
X6.0709Y-4.4331
X6.1024Y-4.2913
X6.1024Y-4.5276
X6.1024Y-5.1181
X6.122Y-3.6024
X6.1417Y-4.0551
X6.1811Y-4.4488
X6.1811Y-4.5669
X6.1961Y-4.3161
X6.21Y-4.2159
X6.2271Y-4.7535
X6.2352Y-4.0984
X6.3288Y-4.2382
X6.3369Y-3.5315
X6.4281Y-4.0361
X6.4481Y-3.5524
X6.4744Y-3.4567
X6.4764Y-3.5039
X6.4764Y-3.6024
X6.4796Y-3.1579
X6.4843Y-3.0925
X6.4961Y-4.8228
X6.4961Y-4.9213
X6.5108Y-4.0157
X6.5157Y-4.1772
X6.5285Y-3.9134
X6.5285Y-3.9502
X6.5285Y-3.9817
X6.5354Y-4.7441
X6.5531Y-3.601
X6.563Y-4.9291
X6.563Y-4.9902
X6.5744Y-3.6242
X6.5967Y-3.6465
X6.6189Y-3.6688
X6.626Y-4.5157
X6.6299Y-4.8583
X6.6388Y-4.1142
X6.6388Y-4.0541
X6.6412Y-3.691
X6.6635Y-3.7133
X6.6811Y-4.5157
X6.685Y-4.8583
X6.7323Y-4.0157
X6.7323Y-4.1732
X6.7402Y-3.2598
X6.8504Y-4.0197
X6.8898Y-2.8543
X6.8898Y-2.9528
X6.8898Y-3.1496
X6.9882Y-2.8543
X6.9882Y-2.9528
X6.9882Y-3.4449
X6.9882Y-3.5433
X6.9882Y-3.7402
X6.9882Y-4.0354
X6.9882Y-4.3307
X6.9882Y-4.5276
X6.9882Y-4.8228
X6.9882Y-5.0197
X6.9882Y-5.1181
T2
X5.3937Y-3.1102
X5.4921Y-3.1102
X5.5906Y-3.1102
T3
X5.7559Y-3.9059
X5.7559Y-4.0059
X5.7559Y-4.1059
X5.7559Y-4.2059
X6.0559Y-3.9059
X6.0559Y-4.0059
X6.0559Y-4.1059
X6.0559Y-4.2059
T4
X5.0571Y-3.6417
X5.0571Y-3.7402
X5.0571Y-3.8386
X5.0571Y-3.937
X5.7598Y-4.6102
X5.8583Y-4.6102
X5.9567Y-4.6102
X6.0551Y-4.6102
X6.7539Y-3.6417
X6.7539Y-3.7402
X6.7539Y-3.8386
X6.7539Y-3.937
T5
X5.0571Y-4.2913
X5.0571Y-4.3898
X5.0571Y-4.626
X5.0571Y-4.7244
X5.0571Y-4.9606
X5.0571Y-5.0591
X5.3465Y-4.5236
X5.3484Y-5.0709
X5.4449Y-4.5236
X5.4469Y-5.0709
X5.6988Y-4.9016
X5.7972Y-4.9016
X6.0335Y-4.9016
X6.1319Y-4.9016
X6.3078Y-2.987
X6.3078Y-3.087
X6.3078Y-3.187
X6.3078Y-3.287
X6.3078Y-3.387
X6.3078Y-3.487
X6.3078Y-3.587
X6.3078Y-3.687
X6.3078Y-3.787
X6.3078Y-3.887
X6.3078Y-3.987
X6.3078Y-4.087
X6.3078Y-4.187
X6.3078Y-4.287
X6.3078Y-4.387
X6.3078Y-4.487
X6.3078Y-4.587
X6.3078Y-4.687
X6.3078Y-4.787
X6.3078Y-4.887
X6.4078Y-2.987
X6.4078Y-3.087
X6.4078Y-3.187
X6.4078Y-3.287
X6.4078Y-3.387
X6.4078Y-3.487
X6.4078Y-3.587
X6.4078Y-3.687
X6.4078Y-3.787
X6.4078Y-3.887
X6.4078Y-3.987
X6.4078Y-4.087
X6.4078Y-4.187
X6.4078Y-4.287
X6.4078Y-4.387
X6.4078Y-4.487
X6.4078Y-4.587
X6.4078Y-4.687
X6.4078Y-4.787
X6.4078Y-4.887
X6.5748Y-2.7654
X6.5748Y-2.8654
X6.5748Y-2.9654
X6.5748Y-3.0654
X6.5748Y-3.1654
X6.5748Y-3.3461
X6.5748Y-3.4461
X6.7539Y-4.2913
X6.7539Y-4.3898
X6.7539Y-4.626
X6.7539Y-4.7244
X6.7539Y-4.9606
X6.7539Y-5.0591
T6
X4.8039Y-3.2589
X4.9598Y-3.2589
X5.8276Y-3.2589
X5.9835Y-3.2589
X6.8512Y-3.2589
X7.0071Y-3.2589
M30
