%TF.GenerationSoftware,KiCad,Pcbnew,8.0.4-8.0.4-0~ubuntu22.04.1*%
%TF.CreationDate,2024-09-03T10:52:32+09:00*%
%TF.ProjectId,control_board,636f6e74-726f-46c5-9f62-6f6172642e6b,rev?*%
%TF.SameCoordinates,Original*%
%TF.FileFunction,Copper,L2,Bot*%
%TF.FilePolarity,Positive*%
%FSLAX46Y46*%
G04 Gerber Fmt 4.6, Leading zero omitted, Abs format (unit mm)*
G04 Created by KiCad (PCBNEW 8.0.4-8.0.4-0~ubuntu22.04.1) date 2024-09-03 10:52:32*
%MOMM*%
%LPD*%
G01*
G04 APERTURE LIST*
G04 Aperture macros list*
%AMRoundRect*
0 Rectangle with rounded corners*
0 $1 Rounding radius*
0 $2 $3 $4 $5 $6 $7 $8 $9 X,Y pos of 4 corners*
0 Add a 4 corners polygon primitive as box body*
4,1,4,$2,$3,$4,$5,$6,$7,$8,$9,$2,$3,0*
0 Add four circle primitives for the rounded corners*
1,1,$1+$1,$2,$3*
1,1,$1+$1,$4,$5*
1,1,$1+$1,$6,$7*
1,1,$1+$1,$8,$9*
0 Add four rect primitives between the rounded corners*
20,1,$1+$1,$2,$3,$4,$5,0*
20,1,$1+$1,$4,$5,$6,$7,0*
20,1,$1+$1,$6,$7,$8,$9,0*
20,1,$1+$1,$8,$9,$2,$3,0*%
G04 Aperture macros list end*
%TA.AperFunction,ComponentPad*%
%ADD10RoundRect,0.250000X0.750000X-0.600000X0.750000X0.600000X-0.750000X0.600000X-0.750000X-0.600000X0*%
%TD*%
%TA.AperFunction,ComponentPad*%
%ADD11O,2.000000X1.700000*%
%TD*%
%TA.AperFunction,ComponentPad*%
%ADD12RoundRect,0.250000X-0.600000X-0.725000X0.600000X-0.725000X0.600000X0.725000X-0.600000X0.725000X0*%
%TD*%
%TA.AperFunction,ComponentPad*%
%ADD13O,1.700000X1.950000*%
%TD*%
%TA.AperFunction,ComponentPad*%
%ADD14RoundRect,0.250001X1.099999X1.099999X-1.099999X1.099999X-1.099999X-1.099999X1.099999X-1.099999X0*%
%TD*%
%TA.AperFunction,ComponentPad*%
%ADD15C,2.700000*%
%TD*%
%TA.AperFunction,ComponentPad*%
%ADD16R,1.700000X1.700000*%
%TD*%
%TA.AperFunction,ComponentPad*%
%ADD17O,1.700000X1.700000*%
%TD*%
%TA.AperFunction,ComponentPad*%
%ADD18RoundRect,0.250000X-0.750000X0.600000X-0.750000X-0.600000X0.750000X-0.600000X0.750000X0.600000X0*%
%TD*%
%TA.AperFunction,ComponentPad*%
%ADD19R,1.600000X1.600000*%
%TD*%
%TA.AperFunction,ComponentPad*%
%ADD20O,1.600000X1.600000*%
%TD*%
%TA.AperFunction,ComponentPad*%
%ADD21RoundRect,0.250000X0.725000X-0.600000X0.725000X0.600000X-0.725000X0.600000X-0.725000X-0.600000X0*%
%TD*%
%TA.AperFunction,ComponentPad*%
%ADD22O,1.950000X1.700000*%
%TD*%
%TA.AperFunction,ComponentPad*%
%ADD23R,1.524000X1.524000*%
%TD*%
%TA.AperFunction,ComponentPad*%
%ADD24C,1.524000*%
%TD*%
%TA.AperFunction,ComponentPad*%
%ADD25RoundRect,0.250000X-0.600000X-0.750000X0.600000X-0.750000X0.600000X0.750000X-0.600000X0.750000X0*%
%TD*%
%TA.AperFunction,ComponentPad*%
%ADD26O,1.700000X2.000000*%
%TD*%
%TA.AperFunction,ComponentPad*%
%ADD27RoundRect,0.250000X0.600000X0.750000X-0.600000X0.750000X-0.600000X-0.750000X0.600000X-0.750000X0*%
%TD*%
%TA.AperFunction,ComponentPad*%
%ADD28RoundRect,0.250000X-0.725000X0.600000X-0.725000X-0.600000X0.725000X-0.600000X0.725000X0.600000X0*%
%TD*%
%TA.AperFunction,SMDPad,CuDef*%
%ADD29RoundRect,0.112500X0.112500X-0.187500X0.112500X0.187500X-0.112500X0.187500X-0.112500X-0.187500X0*%
%TD*%
%TA.AperFunction,ViaPad*%
%ADD30C,0.600000*%
%TD*%
%TA.AperFunction,Conductor*%
%ADD31C,0.500000*%
%TD*%
%TA.AperFunction,Conductor*%
%ADD32C,0.250000*%
%TD*%
G04 APERTURE END LIST*
D10*
%TO.P,J2,1,Pin_1*%
%TO.N,/Press1*%
X171550000Y-111500000D03*
D11*
%TO.P,J2,2,Pin_2*%
%TO.N,+3.3V*%
X171550000Y-109000000D03*
%TD*%
D12*
%TO.P,J10,1,Pin_1*%
%TO.N,/SCL*%
X146300000Y-117100000D03*
D13*
%TO.P,J10,2,Pin_2*%
%TO.N,/SDA*%
X148800000Y-117100000D03*
%TO.P,J10,3,Pin_3*%
%TO.N,GND*%
X151300000Y-117100000D03*
%TO.P,J10,4,Pin_4*%
%TO.N,+3.3V*%
X153800000Y-117100000D03*
%TD*%
D10*
%TO.P,J3,1,Pin_1*%
%TO.N,/Press2*%
X171550000Y-120000000D03*
D11*
%TO.P,J3,2,Pin_2*%
%TO.N,+3.3V*%
X171550000Y-117500000D03*
%TD*%
D14*
%TO.P,J15,1,Pin_1*%
%TO.N,GND*%
X125980000Y-82775000D03*
D15*
%TO.P,J15,2,Pin_2*%
%TO.N,VDD*%
X122020000Y-82775000D03*
%TD*%
D16*
%TO.P,J18,1,Pin_1*%
%TO.N,/7*%
X167000000Y-70240000D03*
D17*
%TO.P,J18,2,Pin_2*%
%TO.N,/8*%
X167000000Y-72780000D03*
%TO.P,J18,3,Pin_3*%
%TO.N,/9*%
X167000000Y-75320000D03*
%TO.P,J18,4,Pin_4*%
%TO.N,/10*%
X167000000Y-77860000D03*
%TO.P,J18,5,Pin_5*%
%TO.N,/11*%
X167000000Y-80400000D03*
%TD*%
D10*
%TO.P,J4,1,Pin_1*%
%TO.N,/Press3*%
X171550000Y-128500000D03*
D11*
%TO.P,J4,2,Pin_2*%
%TO.N,+3.3V*%
X171550000Y-126000000D03*
%TD*%
D18*
%TO.P,J6,1,Pin_1*%
%TO.N,/Press5*%
X128450000Y-117500000D03*
D11*
%TO.P,J6,2,Pin_2*%
%TO.N,+3.3V*%
X128450000Y-120000000D03*
%TD*%
D19*
%TO.P,J20,1,VIN*%
%TO.N,+3.3V*%
X146200000Y-99210000D03*
D20*
%TO.P,J20,2,GND*%
%TO.N,GND*%
X146200000Y-101750000D03*
%TO.P,J20,3,SDA/T*%
%TO.N,/SDA*%
X146200000Y-104290000D03*
%TO.P,J20,4,SCL/R*%
%TO.N,/SCL*%
X146200000Y-106830000D03*
%TO.P,J20,5,RESET*%
%TO.N,/BNO055_reset*%
X153820000Y-106830000D03*
%TO.P,J20,6,INT*%
%TO.N,unconnected-(J20-INT-Pad6)*%
X153820000Y-104290000D03*
%TO.P,J20,7,GND*%
%TO.N,GND*%
X153820000Y-101750000D03*
%TO.P,J20,8,VOUT*%
%TO.N,unconnected-(J20-VOUT-Pad8)*%
X153820000Y-99210000D03*
%TD*%
D21*
%TO.P,J8,1,Pin_1*%
%TO.N,/SCL*%
X171550000Y-100000000D03*
D22*
%TO.P,J8,2,Pin_2*%
%TO.N,/SDA*%
X171550000Y-97500000D03*
%TO.P,J8,3,Pin_3*%
%TO.N,GND*%
X171550000Y-95000000D03*
%TO.P,J8,4,Pin_4*%
%TO.N,+3.3V*%
X171550000Y-92500000D03*
%TD*%
D14*
%TO.P,J14,1,Pin_1*%
%TO.N,GND*%
X177980000Y-82775000D03*
D15*
%TO.P,J14,2,Pin_2*%
%TO.N,VDD*%
X174020000Y-82775000D03*
%TD*%
D23*
%TO.P,SW1,1,A*%
%TO.N,unconnected-(SW1-A-Pad1)*%
X137000000Y-79000000D03*
D24*
%TO.P,SW1,2,B*%
%TO.N,Net-(J13-Pin_2)*%
X139500000Y-79000000D03*
%TO.P,SW1,3,C*%
%TO.N,VDD*%
X142000000Y-79000000D03*
%TD*%
D25*
%TO.P,J16,1,Pin_1*%
%TO.N,/RX*%
X135800000Y-114900000D03*
D26*
%TO.P,J16,2,Pin_2*%
%TO.N,/TX*%
X138300000Y-114900000D03*
%TD*%
D27*
%TO.P,J19,1,Pin_1*%
%TO.N,GND*%
X138350000Y-128800000D03*
D26*
%TO.P,J19,2,Pin_2*%
%TO.N,+3.3V*%
X135850000Y-128800000D03*
%TD*%
D18*
%TO.P,J7,1,Pin_1*%
%TO.N,/Press6*%
X128450000Y-126000000D03*
D11*
%TO.P,J7,2,Pin_2*%
%TO.N,+3.3V*%
X128450000Y-128500000D03*
%TD*%
D25*
%TO.P,J11,1,Pin_1*%
%TO.N,Net-(J11-Pin_1)*%
X144750000Y-124500000D03*
D26*
%TO.P,J11,2,Pin_2*%
%TO.N,GND*%
X147250000Y-124500000D03*
%TD*%
D25*
%TO.P,J12,1,Pin_1*%
%TO.N,/limit_switch*%
X153250000Y-124500000D03*
D26*
%TO.P,J12,2,Pin_2*%
%TO.N,GND*%
X155750000Y-124500000D03*
%TD*%
D16*
%TO.P,J17,1,Pin_1*%
%TO.N,/12*%
X167000000Y-84990000D03*
D17*
%TO.P,J17,2,Pin_2*%
%TO.N,/13*%
X167000000Y-87530000D03*
%TD*%
D14*
%TO.P,J13,1,Pin_1*%
%TO.N,GND*%
X151980000Y-82775000D03*
D15*
%TO.P,J13,2,Pin_2*%
%TO.N,Net-(J13-Pin_2)*%
X148020000Y-82775000D03*
%TD*%
D28*
%TO.P,J9,1,Pin_1*%
%TO.N,/SCL*%
X128450000Y-92500000D03*
D22*
%TO.P,J9,2,Pin_2*%
%TO.N,/SDA*%
X128450000Y-95000000D03*
%TO.P,J9,3,Pin_3*%
%TO.N,GND*%
X128450000Y-97500000D03*
%TO.P,J9,4,Pin_4*%
%TO.N,+3.3V*%
X128450000Y-100000000D03*
%TD*%
D18*
%TO.P,J5,1,Pin_1*%
%TO.N,/Press4*%
X128450000Y-109000000D03*
D11*
%TO.P,J5,2,Pin_2*%
%TO.N,+3.3V*%
X128450000Y-111500000D03*
%TD*%
D16*
%TO.P,J1,1,3V3*%
%TO.N,Net-(D5-A)*%
X160217500Y-75870000D03*
D17*
%TO.P,J1,2,5V*%
%TO.N,+5V*%
X162757500Y-75870000D03*
%TO.P,J1,3,SDA/GPIO2*%
%TO.N,/SDA*%
X160217500Y-78410000D03*
%TO.P,J1,4,5V*%
%TO.N,+5V*%
X162757500Y-78410000D03*
%TO.P,J1,5,SCL/GPIO3*%
%TO.N,/SCL*%
X160217500Y-80950000D03*
%TO.P,J1,6,GND*%
%TO.N,GND*%
X162757500Y-80950000D03*
%TO.P,J1,7,GCLK0/GPIO4*%
%TO.N,unconnected-(J1-GCLK0{slash}GPIO4-Pad7)*%
X160217500Y-83490000D03*
%TO.P,J1,8,GPIO14/TXD*%
%TO.N,/TX*%
X162757500Y-83490000D03*
%TO.P,J1,9,GND*%
%TO.N,GND*%
X160217500Y-86030000D03*
%TO.P,J1,10,GPIO15/RXD*%
%TO.N,/RX*%
X162757500Y-86030000D03*
%TO.P,J1,11,GPIO17*%
%TO.N,/motor_control*%
X160217500Y-88570000D03*
%TO.P,J1,12,GPIO18/PWM0*%
%TO.N,unconnected-(J1-GPIO18{slash}PWM0-Pad12)*%
X162757500Y-88570000D03*
%TO.P,J1,13,GPIO27*%
%TO.N,/Press6*%
X160217500Y-91110000D03*
%TO.P,J1,14,GND*%
%TO.N,GND*%
X162757500Y-91110000D03*
%TO.P,J1,15,GPIO22*%
%TO.N,/Press1*%
X160217500Y-93650000D03*
%TO.P,J1,16,GPIO23*%
%TO.N,/Press2*%
X162757500Y-93650000D03*
%TO.P,J1,17,3V3*%
%TO.N,Net-(D5-A)*%
X160217500Y-96190000D03*
%TO.P,J1,18,GPIO24*%
%TO.N,/Press3*%
X162757500Y-96190000D03*
%TO.P,J1,19,MOSI0/GPIO10*%
%TO.N,/10*%
X160217500Y-98730000D03*
%TO.P,J1,20,GND*%
%TO.N,GND*%
X162757500Y-98730000D03*
%TO.P,J1,21,MISO0/GPIO9*%
%TO.N,/9*%
X160217500Y-101270000D03*
%TO.P,J1,22,GPIO25*%
%TO.N,/Press4*%
X162757500Y-101270000D03*
%TO.P,J1,23,SCLK0/GPIO11*%
%TO.N,/11*%
X160217500Y-103810000D03*
%TO.P,J1,24,~{CE0}/GPIO8*%
%TO.N,/8*%
X162757500Y-103810000D03*
%TO.P,J1,25,GND*%
%TO.N,GND*%
X160217500Y-106350000D03*
%TO.P,J1,26,~{CE1}/GPIO7*%
%TO.N,/7*%
X162757500Y-106350000D03*
%TO.P,J1,27,ID_SD/GPIO0*%
%TO.N,unconnected-(J1-ID_SD{slash}GPIO0-Pad27)*%
X160217500Y-108890000D03*
%TO.P,J1,28,ID_SC/GPIO1*%
%TO.N,unconnected-(J1-ID_SC{slash}GPIO1-Pad28)*%
X162757500Y-108890000D03*
%TO.P,J1,29,GCLK1/GPIO5*%
%TO.N,unconnected-(J1-GCLK1{slash}GPIO5-Pad29)*%
X160217500Y-111430000D03*
%TO.P,J1,30,GND*%
%TO.N,GND*%
X162757500Y-111430000D03*
%TO.P,J1,31,GCLK2/GPIO6*%
%TO.N,unconnected-(J1-GCLK2{slash}GPIO6-Pad31)*%
X160217500Y-113970000D03*
%TO.P,J1,32,PWM0/GPIO12*%
%TO.N,/12*%
X162757500Y-113970000D03*
%TO.P,J1,33,PWM1/GPIO13*%
%TO.N,/13*%
X160217500Y-116510000D03*
%TO.P,J1,34,GND*%
%TO.N,GND*%
X162757500Y-116510000D03*
%TO.P,J1,35,GPIO19/MISO1*%
%TO.N,/BNO055_reset*%
X160217500Y-119050000D03*
%TO.P,J1,36,GPIO16*%
%TO.N,/limit_switch*%
X162757500Y-119050000D03*
%TO.P,J1,37,GPIO26*%
%TO.N,/Press5*%
X160217500Y-121590000D03*
%TO.P,J1,38,GPIO20/MOSI1*%
%TO.N,Net-(J1-GPIO20{slash}MOSI1)*%
X162757500Y-121590000D03*
%TO.P,J1,39,GND*%
%TO.N,GND*%
X160217500Y-124130000D03*
%TO.P,J1,40,GPIO21/SCLK1*%
%TO.N,unconnected-(J1-GPIO21{slash}SCLK1-Pad40)*%
X162757500Y-124130000D03*
%TD*%
D29*
%TO.P,D5,1,K*%
%TO.N,+3.3V*%
X157200000Y-80100000D03*
%TO.P,D5,2,A*%
%TO.N,Net-(D5-A)*%
X157200000Y-78000000D03*
%TD*%
D30*
%TO.N,GND*%
X155500000Y-91500000D03*
%TO.N,+5V*%
X137800000Y-99100000D03*
X147000000Y-96800000D03*
%TO.N,GND*%
X134900000Y-122000000D03*
X129700000Y-101900000D03*
X130000000Y-87500000D03*
X175000000Y-75000000D03*
X153700000Y-96296429D03*
X137025000Y-86552368D03*
X177500000Y-115000000D03*
X144600000Y-101450000D03*
X127500000Y-132500000D03*
X152500000Y-130000000D03*
X177500000Y-127500000D03*
X169700000Y-114700000D03*
X137500000Y-117500000D03*
X148007314Y-103398170D03*
X168300000Y-114700000D03*
X177500000Y-75000000D03*
X130000000Y-75000000D03*
X171000000Y-106000000D03*
X164450000Y-87800000D03*
X147500000Y-85000000D03*
X142500000Y-70000000D03*
X143250000Y-111850000D03*
X122500000Y-75000000D03*
X150000000Y-72500000D03*
X164500000Y-89000000D03*
X150000000Y-77500000D03*
X157000000Y-113000000D03*
X177500000Y-130000000D03*
X155000000Y-115000000D03*
X132500000Y-85000000D03*
X122500000Y-100000000D03*
X177500000Y-72500000D03*
X157000000Y-116000000D03*
X177500000Y-122500000D03*
X150000000Y-102000000D03*
X165000000Y-122500000D03*
X135000000Y-112500000D03*
X122500000Y-92500000D03*
X166000000Y-120500000D03*
X122500000Y-97500000D03*
X164700000Y-78550000D03*
X150100000Y-113450000D03*
X138550000Y-88600000D03*
X122500000Y-132500000D03*
X175000000Y-80000000D03*
X156000000Y-103000000D03*
X129800000Y-124100000D03*
X137350000Y-89900000D03*
X142700000Y-108600000D03*
X147500000Y-120000000D03*
X155000000Y-109000000D03*
X155000000Y-130000000D03*
X171000000Y-102000000D03*
X130000000Y-70000000D03*
X132500000Y-70000000D03*
X152500000Y-107500000D03*
X169800000Y-123400000D03*
X132500000Y-90000000D03*
X125000000Y-87500000D03*
X168400000Y-123400000D03*
X145000000Y-130000000D03*
X175000000Y-72500000D03*
X122500000Y-127500000D03*
X164583058Y-80210000D03*
X122500000Y-87500000D03*
X143700000Y-93000000D03*
X125000000Y-72500000D03*
X152500000Y-105000000D03*
X177500000Y-95000000D03*
X147500000Y-77500000D03*
X122500000Y-110000000D03*
X122500000Y-72500000D03*
X177500000Y-87500000D03*
X145000000Y-130000000D03*
X129800000Y-105600000D03*
X140100000Y-122200000D03*
X177500000Y-90000000D03*
X125000000Y-75000000D03*
X130000000Y-115600000D03*
X164500000Y-91500000D03*
X122500000Y-120000000D03*
X177500000Y-102500000D03*
X149624832Y-91266388D03*
X165000000Y-125000000D03*
X144775000Y-112025000D03*
X130000000Y-82500000D03*
X130500000Y-98500000D03*
X177500000Y-110000000D03*
%TO.N,/SCL*%
X134900000Y-100300000D03*
%TO.N,+3.3V*%
X136800000Y-91000000D03*
X139000000Y-103625000D03*
X141293883Y-103665000D03*
X151700000Y-80100000D03*
%TO.N,/SDA*%
X134525000Y-101075000D03*
X148456942Y-105456942D03*
X147950000Y-104196117D03*
%TO.N,Net-(C10-Pad2)*%
X142500000Y-88700000D03*
X142569159Y-86687500D03*
%TO.N,VDD*%
X147000000Y-88800000D03*
X171200000Y-82800000D03*
X147200000Y-108200000D03*
%TO.N,Net-(R11-Pad2)*%
X141600000Y-84500000D03*
X137025000Y-85500000D03*
X138600000Y-85500000D03*
%TO.N,/Press3*%
X166700000Y-126750000D03*
X166700000Y-125200000D03*
%TO.N,Net-(U2-PG)*%
X148825000Y-91250000D03*
X148845000Y-89375000D03*
%TO.N,/Press4*%
X132400000Y-110100000D03*
X158375000Y-104100000D03*
%TO.N,/Press5*%
X157382119Y-109628500D03*
X132200000Y-118300000D03*
%TO.N,/Press6*%
X132800000Y-125200000D03*
%TO.N,/motor_control*%
X151600000Y-113450000D03*
X168625000Y-104500000D03*
X163781347Y-90230089D03*
X160957500Y-89700000D03*
X168626019Y-102975000D03*
%TO.N,/limit_switch*%
X158167500Y-120739081D03*
%TO.N,/RX*%
X147150000Y-97933029D03*
X140295331Y-110704669D03*
X137600000Y-113400000D03*
X143679411Y-100524205D03*
X151487261Y-96987563D03*
%TO.N,/TX*%
X141000000Y-111200000D03*
X152059688Y-97546429D03*
X139200000Y-113000000D03*
%TO.N,Net-(J1-GPIO20{slash}MOSI1)*%
X157733058Y-107083058D03*
X153830000Y-83900132D03*
%TO.N,Net-(D3-A)*%
X147550000Y-114588781D03*
X149425000Y-114200000D03*
%TO.N,Net-(J11-Pin_1)*%
X154200000Y-112600000D03*
%TO.N,/BNO055_reset*%
X160750553Y-107649693D03*
%TO.N,/7*%
X174000000Y-102100000D03*
X165500000Y-106100000D03*
%TO.N,/9*%
X165825000Y-100334981D03*
X168686539Y-93752655D03*
X163274124Y-102517240D03*
%TO.N,/10*%
X165825000Y-99400000D03*
X168120852Y-93186968D03*
%TO.N,/13*%
X166450000Y-91464860D03*
%TO.N,/12*%
X166989478Y-92055594D03*
%TO.N,/8*%
X169252226Y-94318342D03*
X165825000Y-101134984D03*
%TO.N,/11*%
X165375000Y-102000000D03*
X167555165Y-92621281D03*
%TD*%
D31*
%TO.N,+5V*%
X140100000Y-96800000D02*
X147000000Y-96800000D01*
X137800000Y-99100000D02*
X140100000Y-96800000D01*
%TO.N,GND*%
X153703571Y-96296429D02*
X155000000Y-95000000D01*
X146359144Y-101750000D02*
X148007314Y-103398170D01*
D32*
X149624832Y-91334052D02*
X149990780Y-91700000D01*
D31*
X150100000Y-113450000D02*
X151300000Y-114650000D01*
X129500000Y-97500000D02*
X130500000Y-98500000D01*
X146200000Y-101750000D02*
X146359144Y-101750000D01*
X128450000Y-97500000D02*
X129500000Y-97500000D01*
D32*
X137027368Y-86550000D02*
X138100000Y-86550000D01*
D31*
X153700000Y-96296429D02*
X153703571Y-96296429D01*
D32*
X149990780Y-91700000D02*
X150600000Y-91700000D01*
D31*
X171500000Y-95000000D02*
X170000000Y-96500000D01*
X164583058Y-80210000D02*
X164583058Y-78666942D01*
X145250000Y-101750000D02*
X145000000Y-101500000D01*
D32*
X149624832Y-91266388D02*
X149624832Y-91334052D01*
X137025000Y-86552368D02*
X137027368Y-86550000D01*
D31*
X164583058Y-78666942D02*
X164700000Y-78550000D01*
X151300000Y-114650000D02*
X151300000Y-117100000D01*
D32*
%TO.N,/SCL*%
X137600000Y-103000000D02*
X134900000Y-100300000D01*
X147325000Y-105705000D02*
X147325000Y-103824009D01*
X146500991Y-103000000D02*
X137600000Y-103000000D01*
X147325000Y-103824009D02*
X146500991Y-103000000D01*
X146200000Y-106830000D02*
X147325000Y-105705000D01*
%TO.N,+3.3V*%
X141293883Y-103665000D02*
X139040000Y-103665000D01*
D31*
X145900000Y-80100000D02*
X151700000Y-80100000D01*
X136600000Y-91000000D02*
X136275000Y-90675000D01*
X139464339Y-82000000D02*
X144000000Y-82000000D01*
D32*
X139040000Y-103665000D02*
X139000000Y-103625000D01*
D31*
X136275000Y-85189339D02*
X139464339Y-82000000D01*
X136800000Y-91000000D02*
X136600000Y-91000000D01*
X136275000Y-90675000D02*
X136275000Y-85189339D01*
X157200000Y-80100000D02*
X151700000Y-80100000D01*
X144000000Y-82000000D02*
X145900000Y-80100000D01*
D32*
%TO.N,/SDA*%
X137740000Y-104290000D02*
X134525000Y-101075000D01*
X148456942Y-105456942D02*
X148456942Y-104703059D01*
X148456942Y-104703059D02*
X147950000Y-104196117D01*
X146200000Y-104290000D02*
X137740000Y-104290000D01*
D31*
%TO.N,Net-(C10-Pad2)*%
X142500000Y-88700000D02*
X142500000Y-86756659D01*
X142500000Y-86756659D02*
X142569159Y-86687500D01*
%TO.N,VDD*%
X157500000Y-70000000D02*
X157500000Y-71060661D01*
X150300000Y-104500000D02*
X150300000Y-106700000D01*
X165700000Y-80938478D02*
X165700000Y-70700000D01*
X165700000Y-70700000D02*
X162950000Y-67950000D01*
X171200000Y-82800000D02*
X167561522Y-82800000D01*
X150300000Y-106700000D02*
X148700000Y-106700000D01*
X147900000Y-102100000D02*
X150300000Y-104500000D01*
X157500000Y-71060661D02*
X149560661Y-79000000D01*
X148700000Y-106700000D02*
X147200000Y-108200000D01*
X159550000Y-67950000D02*
X157500000Y-70000000D01*
X149560661Y-79000000D02*
X142000000Y-79000000D01*
X147000000Y-88800000D02*
X147900000Y-89700000D01*
X162950000Y-67950000D02*
X159550000Y-67950000D01*
X167561522Y-82800000D02*
X165700000Y-80938478D01*
X147900000Y-89700000D02*
X147900000Y-102100000D01*
%TO.N,Net-(R11-Pad2)*%
X139600000Y-84500000D02*
X138600000Y-85500000D01*
X137025000Y-85500000D02*
X138600000Y-85500000D01*
X141600000Y-84500000D02*
X139600000Y-84500000D01*
D32*
%TO.N,/Press3*%
X166700000Y-126750000D02*
X166700000Y-125200000D01*
%TO.N,Net-(U2-PG)*%
X148825000Y-91250000D02*
X148825000Y-89395000D01*
X148825000Y-89395000D02*
X148845000Y-89375000D01*
%TO.N,/Press4*%
X132400000Y-113670100D02*
X136879900Y-118150000D01*
X140842158Y-118150000D02*
X140996079Y-117996079D01*
X136879900Y-118150000D02*
X140842158Y-118150000D01*
X158375000Y-107325000D02*
X158375000Y-104100000D01*
X132400000Y-110100000D02*
X132400000Y-113670100D01*
X155000000Y-110700000D02*
X158375000Y-107325000D01*
X148292158Y-110700000D02*
X155000000Y-110700000D01*
X140996079Y-117996079D02*
X148292158Y-110700000D01*
%TO.N,/Press5*%
X141964277Y-117664277D02*
X148478554Y-111150000D01*
X148478554Y-111150000D02*
X155860619Y-111150000D01*
X132500000Y-118600000D02*
X141028554Y-118600000D01*
X132200000Y-118300000D02*
X132500000Y-118600000D01*
X155860619Y-111150000D02*
X157382119Y-109628500D01*
X141028554Y-118600000D02*
X141964277Y-117664277D01*
%TO.N,/Press6*%
X132800000Y-125200000D02*
X135064950Y-125200000D01*
X159000000Y-109700000D02*
X159000000Y-92327500D01*
X159000000Y-92327500D02*
X160217500Y-91110000D01*
X148664950Y-111600000D02*
X157100000Y-111600000D01*
X157100000Y-111600000D02*
X159000000Y-109700000D01*
X135064950Y-125200000D02*
X148664950Y-111600000D01*
%TO.N,/motor_control*%
X168625000Y-104500000D02*
X165200000Y-107925000D01*
X169877226Y-94722774D02*
X168626019Y-95973981D01*
X165200000Y-120809201D02*
X163109201Y-122900000D01*
X151936701Y-113450000D02*
X151600000Y-113450000D01*
X168626019Y-95973981D02*
X168626019Y-102975000D01*
X160217500Y-88960000D02*
X160957500Y-89700000D01*
X154975000Y-118430465D02*
X154975000Y-116488299D01*
X169877226Y-94577226D02*
X169877226Y-94722774D01*
X163109201Y-122900000D02*
X159444535Y-122900000D01*
X163781347Y-90230089D02*
X166099113Y-90230089D01*
X165200000Y-115300000D02*
X165200000Y-120809201D01*
X169877226Y-94008202D02*
X169877226Y-94577226D01*
X159444535Y-122900000D02*
X154975000Y-118430465D01*
X166099113Y-90230089D02*
X169877226Y-94008202D01*
X165200000Y-107925000D02*
X165200000Y-115300000D01*
X154975000Y-116488299D02*
X151936701Y-113450000D01*
X160217500Y-88570000D02*
X160217500Y-88960000D01*
%TO.N,/limit_switch*%
X158681581Y-120225000D02*
X161582500Y-120225000D01*
X158167500Y-120739081D02*
X158681581Y-120225000D01*
X161582500Y-120225000D02*
X162757500Y-119050000D01*
%TO.N,/RX*%
X151553395Y-96921429D02*
X156342175Y-96921429D01*
X158100000Y-95163604D02*
X158100000Y-83945799D01*
X140295331Y-110704669D02*
X137600000Y-113400000D01*
X163971393Y-84816107D02*
X162757500Y-86030000D01*
X158100000Y-83945799D02*
X159730799Y-82315000D01*
X143679411Y-100524205D02*
X143679411Y-99480589D01*
X143679411Y-99480589D02*
X145226971Y-97933029D01*
X163971393Y-83016572D02*
X163971393Y-84816107D01*
X156342175Y-96921429D02*
X158100000Y-95163604D01*
X159730799Y-82315000D02*
X163269821Y-82315000D01*
X163269821Y-82315000D02*
X163971393Y-83016572D01*
X151487261Y-96987563D02*
X151553395Y-96921429D01*
X145226971Y-97933029D02*
X147150000Y-97933029D01*
%TO.N,/TX*%
X152059688Y-97546429D02*
X156353571Y-97546429D01*
X156353571Y-97546429D02*
X158550000Y-95350000D01*
X159920799Y-84665000D02*
X161582500Y-84665000D01*
X158550000Y-86035799D02*
X159920799Y-84665000D01*
X161582500Y-84665000D02*
X162757500Y-83490000D01*
X158550000Y-95350000D02*
X158550000Y-86035799D01*
X141000000Y-111200000D02*
X139200000Y-113000000D01*
%TO.N,Net-(J1-GPIO20{slash}MOSI1)*%
X153354009Y-100335000D02*
X155935000Y-100335000D01*
X157700000Y-102100000D02*
X157700000Y-107050000D01*
X153830000Y-93760940D02*
X150862261Y-96728679D01*
X150862261Y-97843252D02*
X153354009Y-100335000D01*
X155935000Y-100335000D02*
X157700000Y-102100000D01*
X157700000Y-107050000D02*
X157733058Y-107083058D01*
X150862261Y-96728679D02*
X150862261Y-97843252D01*
X153830000Y-83900132D02*
X153830000Y-93760940D01*
D31*
%TO.N,Net-(D3-A)*%
X149425000Y-114200000D02*
X147938781Y-114200000D01*
X147938781Y-114200000D02*
X147550000Y-114588781D01*
%TO.N,Net-(J11-Pin_1)*%
X144750000Y-116328122D02*
X148478122Y-112600000D01*
X148478122Y-112600000D02*
X154200000Y-112600000D01*
X144750000Y-124500000D02*
X144750000Y-116328122D01*
D32*
%TO.N,/BNO055_reset*%
X161392500Y-109478864D02*
X161392500Y-108291640D01*
X160806364Y-110065000D02*
X161392500Y-109478864D01*
X161392500Y-108291640D02*
X160750553Y-107649693D01*
X160217500Y-119050000D02*
X158592500Y-117425000D01*
X158592500Y-117425000D02*
X158592500Y-111393299D01*
X159920799Y-110065000D02*
X160806364Y-110065000D01*
X158592500Y-111393299D02*
X159920799Y-110065000D01*
%TO.N,/7*%
X166100000Y-106100000D02*
X165500000Y-106100000D01*
X168600000Y-103600000D02*
X167000000Y-105200000D01*
X167000000Y-105200000D02*
X166100000Y-106100000D01*
X172100000Y-103600000D02*
X168600000Y-103600000D01*
X174000000Y-102100000D02*
X172500000Y-103600000D01*
X172500000Y-103600000D02*
X172100000Y-103600000D01*
%TO.N,/9*%
X166100000Y-98791116D02*
X166450000Y-99141116D01*
X161464740Y-102517240D02*
X160217500Y-101270000D01*
X166100000Y-96339194D02*
X166100000Y-98791116D01*
X166450000Y-99141116D02*
X166450000Y-99709981D01*
X166450000Y-99709981D02*
X165825000Y-100334981D01*
X163274124Y-102517240D02*
X161464740Y-102517240D01*
X168686539Y-93752655D02*
X166100000Y-96339194D01*
%TO.N,/10*%
X165650000Y-99225000D02*
X165825000Y-99400000D01*
X168120852Y-93186968D02*
X165650000Y-95657820D01*
X165650000Y-95657820D02*
X165650000Y-99225000D01*
%TO.N,/13*%
X164300000Y-93614860D02*
X164300000Y-114089201D01*
X164300000Y-114089201D02*
X163054201Y-115335000D01*
X163054201Y-115335000D02*
X161392500Y-115335000D01*
X161392500Y-115335000D02*
X160217500Y-116510000D01*
X166450000Y-91464860D02*
X164300000Y-93614860D01*
%TO.N,/12*%
X159870247Y-115195552D02*
X160895552Y-115195552D01*
X163244201Y-117685000D02*
X159730799Y-117685000D01*
X159730799Y-117685000D02*
X159042500Y-116996701D01*
X164750000Y-94295072D02*
X164750000Y-116179201D01*
X164750000Y-116179201D02*
X163244201Y-117685000D01*
X162121104Y-113970000D02*
X162757500Y-113970000D01*
X159042500Y-116996701D02*
X159042500Y-116023299D01*
X166989478Y-92055594D02*
X164750000Y-94295072D01*
X159042500Y-116023299D02*
X159870247Y-115195552D01*
X160895552Y-115195552D02*
X162121104Y-113970000D01*
%TO.N,/8*%
X169252226Y-94318342D02*
X166550000Y-97020568D01*
X166900000Y-100143865D02*
X165908881Y-101134984D01*
X166550000Y-97020568D02*
X166550000Y-98450000D01*
X165908881Y-101134984D02*
X165825000Y-101134984D01*
X166550000Y-98450000D02*
X166900000Y-98800000D01*
X166900000Y-98800000D02*
X166900000Y-100143865D01*
%TO.N,/11*%
X167555165Y-92621281D02*
X165200000Y-94976446D01*
X165200000Y-94976446D02*
X165200000Y-101825000D01*
X165200000Y-101825000D02*
X165375000Y-102000000D01*
%TO.N,Net-(D5-A)*%
X161392500Y-77045000D02*
X160217500Y-75870000D01*
X164421393Y-80952192D02*
X163054201Y-79585000D01*
X163054201Y-79585000D02*
X162270799Y-79585000D01*
X161392500Y-78706701D02*
X161392500Y-77045000D01*
X163244201Y-87205000D02*
X164421393Y-86027808D01*
D31*
X157200000Y-78000000D02*
X158087500Y-78000000D01*
D32*
X162270799Y-87205000D02*
X163244201Y-87205000D01*
X161582500Y-94825000D02*
X161582500Y-87893299D01*
X161582500Y-87893299D02*
X162270799Y-87205000D01*
D31*
X158087500Y-78000000D02*
X160217500Y-75870000D01*
D32*
X164421393Y-86027808D02*
X164421393Y-80952192D01*
X160217500Y-96190000D02*
X161582500Y-94825000D01*
X162270799Y-79585000D02*
X161392500Y-78706701D01*
%TD*%
%TA.AperFunction,Conductor*%
%TO.N,GND*%
G36*
X147306938Y-102584122D02*
G01*
X147351236Y-102612604D01*
X147928967Y-103190335D01*
X147962452Y-103251658D01*
X147957468Y-103321350D01*
X147915596Y-103377283D01*
X147855192Y-103401234D01*
X147853100Y-103401469D01*
X147784278Y-103389428D01*
X147751517Y-103365935D01*
X147174709Y-102789128D01*
X147141225Y-102727806D01*
X147146209Y-102658114D01*
X147174747Y-102613729D01*
X147175911Y-102612566D01*
X147237249Y-102579107D01*
X147306938Y-102584122D01*
G37*
%TD.AperFunction*%
%TA.AperFunction,Conductor*%
G36*
X158505809Y-67720185D02*
G01*
X158551564Y-67772989D01*
X158561508Y-67842147D01*
X158532483Y-67905703D01*
X158526451Y-67912181D01*
X156917052Y-69521578D01*
X156917049Y-69521581D01*
X156871502Y-69589747D01*
X156871503Y-69589748D01*
X156834914Y-69644508D01*
X156778343Y-69781082D01*
X156778340Y-69781092D01*
X156749500Y-69926079D01*
X156749500Y-70698431D01*
X156729815Y-70765470D01*
X156713181Y-70786112D01*
X149286112Y-78213181D01*
X149224789Y-78246666D01*
X149198431Y-78249500D01*
X143080274Y-78249500D01*
X143013235Y-78229815D01*
X142978700Y-78196624D01*
X142970828Y-78185382D01*
X142915962Y-78130516D01*
X142814620Y-78029174D01*
X142814616Y-78029171D01*
X142814615Y-78029170D01*
X142633666Y-77902468D01*
X142633662Y-77902466D01*
X142586457Y-77880454D01*
X142433450Y-77809106D01*
X142433447Y-77809105D01*
X142433445Y-77809104D01*
X142220070Y-77751930D01*
X142220062Y-77751929D01*
X142000002Y-77732677D01*
X141999998Y-77732677D01*
X141779937Y-77751929D01*
X141779929Y-77751930D01*
X141566554Y-77809104D01*
X141566548Y-77809107D01*
X141366340Y-77902465D01*
X141366338Y-77902466D01*
X141185377Y-78029175D01*
X141029175Y-78185377D01*
X140902466Y-78366338D01*
X140902465Y-78366340D01*
X140862382Y-78452299D01*
X140816209Y-78504738D01*
X140749016Y-78523890D01*
X140682135Y-78503674D01*
X140637618Y-78452299D01*
X140597534Y-78366340D01*
X140597533Y-78366338D01*
X140567646Y-78323655D01*
X140501940Y-78229815D01*
X140470827Y-78185381D01*
X140415962Y-78130516D01*
X140314620Y-78029174D01*
X140314616Y-78029171D01*
X140314615Y-78029170D01*
X140133666Y-77902468D01*
X140133662Y-77902466D01*
X140086457Y-77880454D01*
X139933450Y-77809106D01*
X139933447Y-77809105D01*
X139933445Y-77809104D01*
X139720070Y-77751930D01*
X139720062Y-77751929D01*
X139500002Y-77732677D01*
X139499998Y-77732677D01*
X139279937Y-77751929D01*
X139279929Y-77751930D01*
X139066554Y-77809104D01*
X139066548Y-77809107D01*
X138866340Y-77902465D01*
X138866338Y-77902466D01*
X138685377Y-78029175D01*
X138529177Y-78185375D01*
X138487093Y-78245478D01*
X138432516Y-78289102D01*
X138363017Y-78296295D01*
X138300663Y-78264773D01*
X138265249Y-78204543D01*
X138262228Y-78187607D01*
X138256091Y-78130516D01*
X138205797Y-77995671D01*
X138205793Y-77995664D01*
X138119547Y-77880455D01*
X138119544Y-77880452D01*
X138004335Y-77794206D01*
X138004328Y-77794202D01*
X137869482Y-77743908D01*
X137869483Y-77743908D01*
X137809883Y-77737501D01*
X137809881Y-77737500D01*
X137809873Y-77737500D01*
X137809864Y-77737500D01*
X136190129Y-77737500D01*
X136190123Y-77737501D01*
X136130516Y-77743908D01*
X135995671Y-77794202D01*
X135995664Y-77794206D01*
X135880455Y-77880452D01*
X135880452Y-77880455D01*
X135794206Y-77995664D01*
X135794202Y-77995671D01*
X135743908Y-78130517D01*
X135737501Y-78190116D01*
X135737500Y-78190135D01*
X135737500Y-79809870D01*
X135737501Y-79809876D01*
X135743908Y-79869483D01*
X135794202Y-80004328D01*
X135794206Y-80004335D01*
X135880452Y-80119544D01*
X135880455Y-80119547D01*
X135995664Y-80205793D01*
X135995671Y-80205797D01*
X136130517Y-80256091D01*
X136130516Y-80256091D01*
X136137444Y-80256835D01*
X136190127Y-80262500D01*
X137809872Y-80262499D01*
X137869483Y-80256091D01*
X138004331Y-80205796D01*
X138119546Y-80119546D01*
X138205796Y-80004331D01*
X138256091Y-79869483D01*
X138262229Y-79812386D01*
X138288966Y-79747839D01*
X138346358Y-79707991D01*
X138416183Y-79705497D01*
X138476272Y-79741149D01*
X138487093Y-79754522D01*
X138529170Y-79814615D01*
X138529175Y-79814621D01*
X138685378Y-79970824D01*
X138685384Y-79970829D01*
X138866333Y-80097531D01*
X138866335Y-80097532D01*
X138866338Y-80097534D01*
X139066550Y-80190894D01*
X139279932Y-80248070D01*
X139437123Y-80261822D01*
X139499998Y-80267323D01*
X139500000Y-80267323D01*
X139500002Y-80267323D01*
X139555151Y-80262498D01*
X139720068Y-80248070D01*
X139933450Y-80190894D01*
X140133662Y-80097534D01*
X140314620Y-79970826D01*
X140470826Y-79814620D01*
X140597534Y-79633662D01*
X140637618Y-79547700D01*
X140683790Y-79495261D01*
X140750983Y-79476109D01*
X140817864Y-79496324D01*
X140862382Y-79547701D01*
X140902464Y-79633658D01*
X140902468Y-79633666D01*
X141029170Y-79814615D01*
X141029175Y-79814621D01*
X141185378Y-79970824D01*
X141185384Y-79970829D01*
X141366333Y-80097531D01*
X141366335Y-80097532D01*
X141366338Y-80097534D01*
X141566550Y-80190894D01*
X141779932Y-80248070D01*
X141937123Y-80261822D01*
X141999998Y-80267323D01*
X142000000Y-80267323D01*
X142000002Y-80267323D01*
X142055151Y-80262498D01*
X142220068Y-80248070D01*
X142433450Y-80190894D01*
X142633662Y-80097534D01*
X142814620Y-79970826D01*
X142970826Y-79814620D01*
X142974152Y-79809870D01*
X142978700Y-79803376D01*
X143033277Y-79759751D01*
X143080274Y-79750500D01*
X144888770Y-79750500D01*
X144955809Y-79770185D01*
X145001564Y-79822989D01*
X145011508Y-79892147D01*
X144982483Y-79955703D01*
X144976451Y-79962181D01*
X143725451Y-81213181D01*
X143664128Y-81246666D01*
X143637770Y-81249500D01*
X139390419Y-81249500D01*
X139245431Y-81278340D01*
X139245421Y-81278343D01*
X139108850Y-81334912D01*
X139108837Y-81334919D01*
X138985923Y-81417048D01*
X138985919Y-81417051D01*
X135692048Y-84710922D01*
X135690539Y-84713181D01*
X135656649Y-84763903D01*
X135609919Y-84833838D01*
X135609912Y-84833850D01*
X135553343Y-84970421D01*
X135553340Y-84970431D01*
X135524500Y-85115418D01*
X135524500Y-85115421D01*
X135524500Y-90748918D01*
X135524500Y-90748920D01*
X135524499Y-90748920D01*
X135553340Y-90893905D01*
X135553343Y-90893917D01*
X135609914Y-91030492D01*
X135636809Y-91070743D01*
X135636810Y-91070746D01*
X135692046Y-91153414D01*
X135692047Y-91153415D01*
X135692048Y-91153416D01*
X136017048Y-91478415D01*
X136017049Y-91478416D01*
X136112119Y-91573486D01*
X136121585Y-91582952D01*
X136244498Y-91665080D01*
X136244511Y-91665087D01*
X136381082Y-91721656D01*
X136381087Y-91721658D01*
X136506008Y-91746506D01*
X136522740Y-91751074D01*
X136620745Y-91785368D01*
X136620749Y-91785368D01*
X136620751Y-91785369D01*
X136620748Y-91785369D01*
X136799996Y-91805565D01*
X136800000Y-91805565D01*
X136800004Y-91805565D01*
X136979249Y-91785369D01*
X136979252Y-91785368D01*
X136979255Y-91785368D01*
X137149522Y-91725789D01*
X137302262Y-91629816D01*
X137429816Y-91502262D01*
X137525789Y-91349522D01*
X137585368Y-91179255D01*
X137585369Y-91179249D01*
X137605565Y-91000003D01*
X137605565Y-90999996D01*
X137585369Y-90820750D01*
X137585368Y-90820745D01*
X137559822Y-90747738D01*
X137525789Y-90650478D01*
X137429816Y-90497738D01*
X137302262Y-90370184D01*
X137149524Y-90274212D01*
X137149523Y-90274211D01*
X137108544Y-90259872D01*
X137051769Y-90219150D01*
X137026022Y-90154197D01*
X137025500Y-90142831D01*
X137025500Y-88699996D01*
X141694435Y-88699996D01*
X141694435Y-88700003D01*
X141714630Y-88879249D01*
X141714631Y-88879254D01*
X141774211Y-89049523D01*
X141837045Y-89149522D01*
X141870184Y-89202262D01*
X141997738Y-89329816D01*
X142150478Y-89425789D01*
X142195095Y-89441401D01*
X142320745Y-89485368D01*
X142320750Y-89485369D01*
X142499996Y-89505565D01*
X142500000Y-89505565D01*
X142500004Y-89505565D01*
X142679249Y-89485369D01*
X142679252Y-89485368D01*
X142679255Y-89485368D01*
X142849522Y-89425789D01*
X143002262Y-89329816D01*
X143129816Y-89202262D01*
X143225789Y-89049522D01*
X143285368Y-88879255D01*
X143285369Y-88879249D01*
X143305565Y-88700003D01*
X143305565Y-88699996D01*
X143285368Y-88520747D01*
X143285368Y-88520745D01*
X143257458Y-88440982D01*
X143250500Y-88400028D01*
X143250500Y-87143484D01*
X143269507Y-87077511D01*
X143294947Y-87037024D01*
X143294948Y-87037022D01*
X143354527Y-86866755D01*
X143354702Y-86865203D01*
X143374724Y-86687503D01*
X143374724Y-86687496D01*
X143354528Y-86508250D01*
X143354527Y-86508245D01*
X143330698Y-86440145D01*
X143294948Y-86337978D01*
X143286223Y-86324093D01*
X143244354Y-86257458D01*
X143198975Y-86185238D01*
X143071421Y-86057684D01*
X143027362Y-86030000D01*
X142918682Y-85961711D01*
X142748413Y-85902131D01*
X142748408Y-85902130D01*
X142569163Y-85881935D01*
X142569155Y-85881935D01*
X142389909Y-85902130D01*
X142389904Y-85902131D01*
X142219635Y-85961711D01*
X142066896Y-86057684D01*
X141939343Y-86185237D01*
X141843369Y-86337978D01*
X141783789Y-86508249D01*
X141782991Y-86515339D01*
X141778438Y-86537426D01*
X141778343Y-86537737D01*
X141749500Y-86682738D01*
X141749500Y-88400028D01*
X141742542Y-88440982D01*
X141714631Y-88520747D01*
X141694435Y-88699996D01*
X137025500Y-88699996D01*
X137025500Y-86416321D01*
X137045185Y-86349282D01*
X137097989Y-86303527D01*
X137135612Y-86293101D01*
X137204255Y-86285368D01*
X137284017Y-86257457D01*
X137324972Y-86250500D01*
X138300028Y-86250500D01*
X138340983Y-86257458D01*
X138420745Y-86285368D01*
X138420750Y-86285369D01*
X138599996Y-86305565D01*
X138600000Y-86305565D01*
X138600004Y-86305565D01*
X138779249Y-86285369D01*
X138779252Y-86285368D01*
X138779255Y-86285368D01*
X138949522Y-86225789D01*
X139102262Y-86129816D01*
X139229816Y-86002262D01*
X139325789Y-85849522D01*
X139325792Y-85849510D01*
X139328810Y-85843248D01*
X139330650Y-85844134D01*
X139353305Y-85808061D01*
X139874548Y-85286819D01*
X139935871Y-85253334D01*
X139962229Y-85250500D01*
X141300028Y-85250500D01*
X141340983Y-85257458D01*
X141420745Y-85285368D01*
X141420750Y-85285369D01*
X141599996Y-85305565D01*
X141600000Y-85305565D01*
X141600004Y-85305565D01*
X141779249Y-85285369D01*
X141779252Y-85285368D01*
X141779255Y-85285368D01*
X141949522Y-85225789D01*
X142102262Y-85129816D01*
X142229816Y-85002262D01*
X142325789Y-84849522D01*
X142385368Y-84679255D01*
X142391481Y-84624999D01*
X142405565Y-84500003D01*
X142405565Y-84499996D01*
X142385369Y-84320750D01*
X142385368Y-84320745D01*
X142331861Y-84167832D01*
X142325789Y-84150478D01*
X142317164Y-84136752D01*
X142286582Y-84088080D01*
X142229816Y-83997738D01*
X142102262Y-83870184D01*
X141949523Y-83774211D01*
X141779254Y-83714631D01*
X141779249Y-83714630D01*
X141600004Y-83694435D01*
X141599996Y-83694435D01*
X141420750Y-83714630D01*
X141420745Y-83714631D01*
X141340983Y-83742542D01*
X141300028Y-83749500D01*
X139526076Y-83749500D01*
X139497242Y-83755234D01*
X139497243Y-83755235D01*
X139381093Y-83778339D01*
X139381083Y-83778342D01*
X139301081Y-83811479D01*
X139301082Y-83811480D01*
X139301080Y-83811481D01*
X139244505Y-83834916D01*
X139191723Y-83870184D01*
X139121582Y-83917049D01*
X139121579Y-83917052D01*
X138325451Y-84713181D01*
X138264128Y-84746666D01*
X138237770Y-84749500D01*
X138075569Y-84749500D01*
X138008530Y-84729815D01*
X137962775Y-84677011D01*
X137952831Y-84607853D01*
X137981856Y-84544297D01*
X137987888Y-84537819D01*
X139738887Y-82786819D01*
X139800210Y-82753334D01*
X139826568Y-82750500D01*
X144073920Y-82750500D01*
X144171462Y-82731096D01*
X144218913Y-82721658D01*
X144355495Y-82665084D01*
X144404729Y-82632186D01*
X144421853Y-82620745D01*
X144429071Y-82615921D01*
X144478416Y-82582952D01*
X146174549Y-80886819D01*
X146235872Y-80853334D01*
X146262230Y-80850500D01*
X147198087Y-80850500D01*
X147265126Y-80870185D01*
X147310881Y-80922989D01*
X147320825Y-80992147D01*
X147291800Y-81055703D01*
X147252925Y-81084803D01*
X147253198Y-81085303D01*
X147249723Y-81087200D01*
X147249597Y-81087295D01*
X147249309Y-81087426D01*
X147016994Y-81214280D01*
X147016986Y-81214285D01*
X146805092Y-81372906D01*
X146805074Y-81372922D01*
X146617922Y-81560074D01*
X146617906Y-81560092D01*
X146459285Y-81771986D01*
X146459280Y-81771994D01*
X146332428Y-82004305D01*
X146332426Y-82004309D01*
X146239921Y-82252326D01*
X146183658Y-82510965D01*
X146183657Y-82510972D01*
X146164773Y-82774998D01*
X146164773Y-82775001D01*
X146183657Y-83039027D01*
X146183658Y-83039034D01*
X146239921Y-83297673D01*
X146332426Y-83545690D01*
X146332428Y-83545694D01*
X146459280Y-83778005D01*
X146459285Y-83778013D01*
X146617906Y-83989907D01*
X146617922Y-83989925D01*
X146805074Y-84177077D01*
X146805092Y-84177093D01*
X147016986Y-84335714D01*
X147016994Y-84335719D01*
X147249305Y-84462571D01*
X147249309Y-84462573D01*
X147249311Y-84462574D01*
X147497322Y-84555077D01*
X147497325Y-84555077D01*
X147497326Y-84555078D01*
X147692552Y-84597546D01*
X147755974Y-84611343D01*
X147999660Y-84628772D01*
X148019999Y-84630227D01*
X148020000Y-84630227D01*
X148020001Y-84630227D01*
X148038885Y-84628876D01*
X148284026Y-84611343D01*
X148542678Y-84555077D01*
X148790689Y-84462574D01*
X149023011Y-84335716D01*
X149234915Y-84177087D01*
X149422087Y-83989915D01*
X149580716Y-83778011D01*
X149707574Y-83545689D01*
X149800077Y-83297678D01*
X149856343Y-83039026D01*
X149875227Y-82775000D01*
X149856343Y-82510974D01*
X149800077Y-82252322D01*
X149707574Y-82004311D01*
X149702181Y-81994435D01*
X149580719Y-81771994D01*
X149580714Y-81771986D01*
X149422093Y-81560092D01*
X149422077Y-81560074D01*
X149234925Y-81372922D01*
X149234907Y-81372906D01*
X149023013Y-81214285D01*
X149023005Y-81214280D01*
X148790690Y-81087426D01*
X148790403Y-81087295D01*
X148790322Y-81087225D01*
X148786802Y-81085303D01*
X148787220Y-81084537D01*
X148737598Y-81041540D01*
X148717913Y-80974501D01*
X148737597Y-80907462D01*
X148790400Y-80861706D01*
X148841913Y-80850500D01*
X150350847Y-80850500D01*
X150417886Y-80870185D01*
X150463641Y-80922989D01*
X150473585Y-80992147D01*
X150444560Y-81055703D01*
X150415946Y-81080038D01*
X150411655Y-81082684D01*
X150287684Y-81206655D01*
X150195643Y-81355876D01*
X150195641Y-81355881D01*
X150140494Y-81522303D01*
X150140493Y-81522310D01*
X150130000Y-81625014D01*
X150130000Y-82525000D01*
X151163520Y-82525000D01*
X151162665Y-82527064D01*
X151130000Y-82691282D01*
X151130000Y-82858718D01*
X151162665Y-83022936D01*
X151163520Y-83025000D01*
X150130000Y-83025000D01*
X150130000Y-83924985D01*
X150140493Y-84027689D01*
X150140494Y-84027696D01*
X150195641Y-84194118D01*
X150195643Y-84194123D01*
X150287684Y-84343344D01*
X150411655Y-84467315D01*
X150560876Y-84559356D01*
X150560881Y-84559358D01*
X150727303Y-84614505D01*
X150727310Y-84614506D01*
X150830014Y-84624999D01*
X150830027Y-84625000D01*
X151730000Y-84625000D01*
X151730000Y-83591480D01*
X151732064Y-83592335D01*
X151896282Y-83625000D01*
X152063718Y-83625000D01*
X152227936Y-83592335D01*
X152230000Y-83591480D01*
X152230000Y-84625000D01*
X153080500Y-84625000D01*
X153147539Y-84644685D01*
X153193294Y-84697489D01*
X153204500Y-84749000D01*
X153204500Y-93450487D01*
X153184815Y-93517526D01*
X153168181Y-93538168D01*
X151832349Y-94874000D01*
X150463531Y-96242818D01*
X150463528Y-96242821D01*
X150432034Y-96274315D01*
X150376403Y-96329945D01*
X150366378Y-96344949D01*
X150348002Y-96372451D01*
X150331958Y-96396461D01*
X150307948Y-96432393D01*
X150307946Y-96432397D01*
X150292257Y-96470276D01*
X150274608Y-96512886D01*
X150269084Y-96526222D01*
X150260798Y-96546224D01*
X150260796Y-96546232D01*
X150236761Y-96667068D01*
X150236761Y-96667073D01*
X150236761Y-97781645D01*
X150236761Y-97904859D01*
X150236761Y-97904861D01*
X150236760Y-97904861D01*
X150238958Y-97915904D01*
X150238959Y-97915909D01*
X150244778Y-97945162D01*
X150260797Y-98025701D01*
X150260800Y-98025710D01*
X150263525Y-98032289D01*
X150263526Y-98032290D01*
X150307946Y-98139533D01*
X150307948Y-98139537D01*
X150329593Y-98171929D01*
X150329594Y-98171931D01*
X150376402Y-98241984D01*
X150376405Y-98241988D01*
X150467847Y-98333430D01*
X150467869Y-98333450D01*
X152845289Y-100710870D01*
X152878774Y-100772193D01*
X152873790Y-100841885D01*
X152845291Y-100886231D01*
X152820340Y-100911182D01*
X152689865Y-101097517D01*
X152593734Y-101303673D01*
X152593730Y-101303682D01*
X152541127Y-101499999D01*
X152541128Y-101500000D01*
X153504314Y-101500000D01*
X153499920Y-101504394D01*
X153447259Y-101595606D01*
X153420000Y-101697339D01*
X153420000Y-101802661D01*
X153447259Y-101904394D01*
X153499920Y-101995606D01*
X153504314Y-102000000D01*
X152541128Y-102000000D01*
X152593730Y-102196317D01*
X152593734Y-102196326D01*
X152689865Y-102402482D01*
X152820342Y-102588820D01*
X152981179Y-102749657D01*
X153167518Y-102880134D01*
X153167520Y-102880135D01*
X153225865Y-102907342D01*
X153278305Y-102953514D01*
X153297457Y-103020707D01*
X153277242Y-103087589D01*
X153225867Y-103132105D01*
X153203062Y-103142740D01*
X153167264Y-103159433D01*
X152980858Y-103289954D01*
X152819954Y-103450858D01*
X152689432Y-103637265D01*
X152689431Y-103637267D01*
X152593261Y-103843502D01*
X152593258Y-103843511D01*
X152534366Y-104063302D01*
X152534364Y-104063313D01*
X152514532Y-104289998D01*
X152514532Y-104290001D01*
X152534364Y-104516686D01*
X152534366Y-104516697D01*
X152593258Y-104736488D01*
X152593261Y-104736497D01*
X152689431Y-104942732D01*
X152689432Y-104942734D01*
X152819954Y-105129141D01*
X152980858Y-105290045D01*
X153007161Y-105308462D01*
X153167266Y-105420568D01*
X153225275Y-105447618D01*
X153277714Y-105493791D01*
X153296866Y-105560984D01*
X153276650Y-105627865D01*
X153225275Y-105672382D01*
X153167267Y-105699431D01*
X153167265Y-105699432D01*
X152980858Y-105829954D01*
X152819954Y-105990858D01*
X152689432Y-106177265D01*
X152689431Y-106177267D01*
X152593261Y-106383502D01*
X152593258Y-106383511D01*
X152534366Y-106603302D01*
X152534364Y-106603313D01*
X152514532Y-106829998D01*
X152514532Y-106830001D01*
X152534364Y-107056686D01*
X152534366Y-107056697D01*
X152593258Y-107276488D01*
X152593261Y-107276497D01*
X152689431Y-107482732D01*
X152689432Y-107482734D01*
X152819954Y-107669141D01*
X152980858Y-107830045D01*
X152980861Y-107830047D01*
X153167266Y-107960568D01*
X153373504Y-108056739D01*
X153593308Y-108115635D01*
X153755146Y-108129794D01*
X153819998Y-108135468D01*
X153820000Y-108135468D01*
X153820002Y-108135468D01*
X153884854Y-108129794D01*
X154046692Y-108115635D01*
X154266496Y-108056739D01*
X154472734Y-107960568D01*
X154659139Y-107830047D01*
X154820047Y-107669139D01*
X154950568Y-107482734D01*
X155046739Y-107276496D01*
X155105635Y-107056692D01*
X155125468Y-106830000D01*
X155105635Y-106603308D01*
X155046739Y-106383504D01*
X154950568Y-106177266D01*
X154820047Y-105990861D01*
X154820045Y-105990858D01*
X154659141Y-105829954D01*
X154472734Y-105699432D01*
X154472728Y-105699429D01*
X154414725Y-105672382D01*
X154362285Y-105626210D01*
X154343133Y-105559017D01*
X154363348Y-105492135D01*
X154414725Y-105447618D01*
X154472734Y-105420568D01*
X154659139Y-105290047D01*
X154820047Y-105129139D01*
X154950568Y-104942734D01*
X155046739Y-104736496D01*
X155105635Y-104516692D01*
X155125468Y-104290000D01*
X155105635Y-104063308D01*
X155046739Y-103843504D01*
X154950568Y-103637266D01*
X154820047Y-103450861D01*
X154820045Y-103450858D01*
X154659141Y-103289954D01*
X154472734Y-103159432D01*
X154472732Y-103159431D01*
X154436938Y-103142740D01*
X154414132Y-103132105D01*
X154361694Y-103085934D01*
X154342542Y-103018740D01*
X154362758Y-102951859D01*
X154414134Y-102907341D01*
X154472484Y-102880132D01*
X154658820Y-102749657D01*
X154819657Y-102588820D01*
X154950134Y-102402482D01*
X155046265Y-102196326D01*
X155046269Y-102196317D01*
X155098872Y-102000000D01*
X154135686Y-102000000D01*
X154140080Y-101995606D01*
X154192741Y-101904394D01*
X154220000Y-101802661D01*
X154220000Y-101697339D01*
X154192741Y-101595606D01*
X154140080Y-101504394D01*
X154135686Y-101500000D01*
X155098872Y-101500000D01*
X155098872Y-101499999D01*
X155046269Y-101303682D01*
X155046265Y-101303673D01*
X154968501Y-101136905D01*
X154958009Y-101067827D01*
X154986529Y-101004043D01*
X155045006Y-100965804D01*
X155080883Y-100960500D01*
X155624548Y-100960500D01*
X155691587Y-100980185D01*
X155712229Y-100996819D01*
X157038181Y-102322771D01*
X157071666Y-102384094D01*
X157074500Y-102410452D01*
X157074500Y-106590814D01*
X157055494Y-106656785D01*
X157007267Y-106733537D01*
X156947691Y-106903795D01*
X156947688Y-106903808D01*
X156927493Y-107083054D01*
X156927493Y-107083061D01*
X156947688Y-107262307D01*
X156947689Y-107262312D01*
X157007269Y-107432581D01*
X157099579Y-107579490D01*
X157118579Y-107646726D01*
X157098211Y-107713562D01*
X157082266Y-107733143D01*
X154777229Y-110038181D01*
X154715906Y-110071666D01*
X154689548Y-110074500D01*
X148230547Y-110074500D01*
X148170129Y-110086518D01*
X148109706Y-110098537D01*
X148095639Y-110104364D01*
X148095637Y-110104364D01*
X148095636Y-110104365D01*
X147995877Y-110145685D01*
X147995873Y-110145687D01*
X147981861Y-110155051D01*
X147981859Y-110155052D01*
X147893426Y-110214140D01*
X147862407Y-110245160D01*
X147806300Y-110301267D01*
X147806297Y-110301270D01*
X140619387Y-117488181D01*
X140558064Y-117521666D01*
X140531706Y-117524500D01*
X137190353Y-117524500D01*
X137123314Y-117504815D01*
X137102672Y-117488181D01*
X136226671Y-116612180D01*
X136193186Y-116550857D01*
X136198170Y-116481165D01*
X136240042Y-116425232D01*
X136305506Y-116400815D01*
X136314352Y-116400499D01*
X136450002Y-116400499D01*
X136450008Y-116400499D01*
X136552797Y-116389999D01*
X136719334Y-116334814D01*
X136868656Y-116242712D01*
X136992712Y-116118656D01*
X137084814Y-115969334D01*
X137084814Y-115969331D01*
X137088178Y-115963879D01*
X137140126Y-115917154D01*
X137209088Y-115905931D01*
X137273170Y-115933774D01*
X137281398Y-115941294D01*
X137420213Y-116080109D01*
X137592179Y-116205048D01*
X137592181Y-116205049D01*
X137592184Y-116205051D01*
X137781588Y-116301557D01*
X137983757Y-116367246D01*
X138193713Y-116400500D01*
X138193714Y-116400500D01*
X138406286Y-116400500D01*
X138406287Y-116400500D01*
X138616243Y-116367246D01*
X138818412Y-116301557D01*
X139007816Y-116205051D01*
X139038507Y-116182753D01*
X139179786Y-116080109D01*
X139179788Y-116080106D01*
X139179792Y-116080104D01*
X139330104Y-115929792D01*
X139330106Y-115929788D01*
X139330109Y-115929786D01*
X139455048Y-115757820D01*
X139455047Y-115757820D01*
X139455051Y-115757816D01*
X139551557Y-115568412D01*
X139617246Y-115366243D01*
X139650500Y-115156287D01*
X139650500Y-114643713D01*
X139617246Y-114433757D01*
X139551557Y-114231588D01*
X139455051Y-114042184D01*
X139399979Y-113966383D01*
X139388908Y-113951145D01*
X139365428Y-113885339D01*
X139381253Y-113817285D01*
X139431359Y-113768590D01*
X139448272Y-113761218D01*
X139469487Y-113753794D01*
X139549522Y-113725789D01*
X139702262Y-113629816D01*
X139829816Y-113502262D01*
X139925789Y-113349522D01*
X139985368Y-113179255D01*
X139990672Y-113132173D01*
X140017737Y-113067763D01*
X140026201Y-113058387D01*
X141058380Y-112026209D01*
X141119701Y-111992726D01*
X141132158Y-111990674D01*
X141179255Y-111985368D01*
X141349522Y-111925789D01*
X141502262Y-111829816D01*
X141629816Y-111702262D01*
X141725789Y-111549522D01*
X141785368Y-111379255D01*
X141785369Y-111379249D01*
X141805565Y-111200003D01*
X141805565Y-111199996D01*
X141785369Y-111020750D01*
X141785368Y-111020745D01*
X141725788Y-110850476D01*
X141671382Y-110763890D01*
X141629816Y-110697738D01*
X141502262Y-110570184D01*
X141484339Y-110558922D01*
X141349521Y-110474210D01*
X141179249Y-110414630D01*
X141108635Y-110406674D01*
X141044221Y-110379607D01*
X141017525Y-110349426D01*
X141014526Y-110344653D01*
X140925147Y-110202407D01*
X140797593Y-110074853D01*
X140780376Y-110064035D01*
X140644854Y-109978880D01*
X140474585Y-109919300D01*
X140474580Y-109919299D01*
X140295335Y-109899104D01*
X140295327Y-109899104D01*
X140116081Y-109919299D01*
X140116076Y-109919300D01*
X139945807Y-109978880D01*
X139793068Y-110074853D01*
X139665515Y-110202406D01*
X139569541Y-110355147D01*
X139509961Y-110525419D01*
X139504657Y-110572494D01*
X139477589Y-110636907D01*
X139469118Y-110646289D01*
X137541621Y-112573787D01*
X137480298Y-112607272D01*
X137467825Y-112609326D01*
X137420750Y-112614630D01*
X137250478Y-112674210D01*
X137097737Y-112770184D01*
X136970184Y-112897737D01*
X136874211Y-113050476D01*
X136814631Y-113220745D01*
X136814630Y-113220749D01*
X136801766Y-113334924D01*
X136774699Y-113399338D01*
X136717104Y-113438893D01*
X136647267Y-113441030D01*
X136639555Y-113438750D01*
X136552797Y-113410001D01*
X136552795Y-113410000D01*
X136450010Y-113399500D01*
X135149998Y-113399500D01*
X135149981Y-113399501D01*
X135047203Y-113410000D01*
X135047200Y-113410001D01*
X134880668Y-113465185D01*
X134880663Y-113465187D01*
X134731342Y-113557289D01*
X134607289Y-113681342D01*
X134515187Y-113830663D01*
X134515185Y-113830668D01*
X134497069Y-113885339D01*
X134460001Y-113997203D01*
X134460001Y-113997204D01*
X134460000Y-113997204D01*
X134449500Y-114099983D01*
X134449500Y-114535647D01*
X134429815Y-114602686D01*
X134377011Y-114648441D01*
X134307853Y-114658385D01*
X134244297Y-114629360D01*
X134237819Y-114623328D01*
X133061819Y-113447328D01*
X133028334Y-113386005D01*
X133025500Y-113359647D01*
X133025500Y-110644854D01*
X133044507Y-110578881D01*
X133057050Y-110558920D01*
X133110276Y-110474211D01*
X133125788Y-110449524D01*
X133125789Y-110449522D01*
X133185368Y-110279255D01*
X133187326Y-110261880D01*
X133205565Y-110100003D01*
X133205565Y-110099996D01*
X133185369Y-109920750D01*
X133185368Y-109920745D01*
X133126600Y-109752796D01*
X133125789Y-109750478D01*
X133029816Y-109597738D01*
X132902262Y-109470184D01*
X132855673Y-109440910D01*
X132749523Y-109374211D01*
X132579254Y-109314631D01*
X132579249Y-109314630D01*
X132400004Y-109294435D01*
X132399996Y-109294435D01*
X132220750Y-109314630D01*
X132220745Y-109314631D01*
X132050476Y-109374211D01*
X131897737Y-109470184D01*
X131770184Y-109597737D01*
X131674211Y-109750476D01*
X131614631Y-109920745D01*
X131614630Y-109920750D01*
X131594435Y-110099996D01*
X131594435Y-110100003D01*
X131614630Y-110279249D01*
X131614631Y-110279254D01*
X131674211Y-110449524D01*
X131755493Y-110578881D01*
X131774500Y-110644854D01*
X131774500Y-113731710D01*
X131781836Y-113768590D01*
X131786518Y-113792129D01*
X131787989Y-113799522D01*
X131798537Y-113852553D01*
X131806367Y-113871454D01*
X131806368Y-113871458D01*
X131812118Y-113885339D01*
X131845688Y-113966386D01*
X131861212Y-113989619D01*
X131876630Y-114012694D01*
X131876632Y-114012696D01*
X131914140Y-114068831D01*
X131914141Y-114068832D01*
X131914142Y-114068833D01*
X132001267Y-114155958D01*
X132001268Y-114155958D01*
X132008335Y-114163025D01*
X132008334Y-114163025D01*
X132008338Y-114163028D01*
X135608128Y-117762819D01*
X135641613Y-117824142D01*
X135636629Y-117893834D01*
X135594757Y-117949767D01*
X135529293Y-117974184D01*
X135520447Y-117974500D01*
X133009415Y-117974500D01*
X132942376Y-117954815D01*
X132904422Y-117916473D01*
X132829816Y-117797738D01*
X132702262Y-117670184D01*
X132602425Y-117607452D01*
X132549523Y-117574211D01*
X132379254Y-117514631D01*
X132379249Y-117514630D01*
X132200004Y-117494435D01*
X132199996Y-117494435D01*
X132020750Y-117514630D01*
X132020745Y-117514631D01*
X131850476Y-117574211D01*
X131697737Y-117670184D01*
X131570184Y-117797737D01*
X131474211Y-117950476D01*
X131414631Y-118120745D01*
X131414630Y-118120750D01*
X131394435Y-118299996D01*
X131394435Y-118300003D01*
X131414630Y-118479249D01*
X131414631Y-118479254D01*
X131474211Y-118649523D01*
X131480795Y-118660001D01*
X131570184Y-118802262D01*
X131697738Y-118929816D01*
X131850478Y-119025789D01*
X132020745Y-119085368D01*
X132086772Y-119092807D01*
X132141772Y-119112923D01*
X132203714Y-119154312D01*
X132284207Y-119187652D01*
X132317548Y-119201463D01*
X132377971Y-119213481D01*
X132438393Y-119225500D01*
X132438394Y-119225500D01*
X139855498Y-119225500D01*
X139922537Y-119245185D01*
X139968292Y-119297989D01*
X139978236Y-119367147D01*
X139949211Y-119430703D01*
X139943179Y-119437181D01*
X134842179Y-124538181D01*
X134780856Y-124571666D01*
X134754498Y-124574500D01*
X133344855Y-124574500D01*
X133278883Y-124555494D01*
X133149523Y-124474211D01*
X132979254Y-124414631D01*
X132979249Y-124414630D01*
X132800004Y-124394435D01*
X132799996Y-124394435D01*
X132620750Y-124414630D01*
X132620745Y-124414631D01*
X132450476Y-124474211D01*
X132297737Y-124570184D01*
X132170184Y-124697737D01*
X132074211Y-124850476D01*
X132014631Y-125020745D01*
X132014630Y-125020750D01*
X131994435Y-125199996D01*
X131994435Y-125200003D01*
X132014630Y-125379249D01*
X132014631Y-125379254D01*
X132074211Y-125549523D01*
X132158558Y-125683760D01*
X132170184Y-125702262D01*
X132297738Y-125829816D01*
X132450478Y-125925789D01*
X132567558Y-125966757D01*
X132620745Y-125985368D01*
X132620750Y-125985369D01*
X132799996Y-126005565D01*
X132800000Y-126005565D01*
X132800004Y-126005565D01*
X132979249Y-125985369D01*
X132979252Y-125985368D01*
X132979255Y-125985368D01*
X133149522Y-125925789D01*
X133278883Y-125844505D01*
X133344855Y-125825500D01*
X135126558Y-125825500D01*
X135126558Y-125825499D01*
X135190928Y-125812696D01*
X135190929Y-125812696D01*
X135210100Y-125808882D01*
X135247402Y-125801463D01*
X135280742Y-125787652D01*
X135361236Y-125754312D01*
X135430298Y-125708165D01*
X135463683Y-125685858D01*
X135550808Y-125598733D01*
X135555128Y-125594413D01*
X135555138Y-125594402D01*
X143787819Y-117361721D01*
X143849142Y-117328236D01*
X143918834Y-117333220D01*
X143974767Y-117375092D01*
X143999184Y-117440556D01*
X143999500Y-117449402D01*
X143999500Y-122919699D01*
X143979815Y-122986738D01*
X143927011Y-123032493D01*
X143914507Y-123037403D01*
X143881962Y-123048188D01*
X143830668Y-123065185D01*
X143830663Y-123065187D01*
X143681342Y-123157289D01*
X143557289Y-123281342D01*
X143465187Y-123430663D01*
X143465185Y-123430668D01*
X143458060Y-123452171D01*
X143410001Y-123597203D01*
X143410001Y-123597204D01*
X143410000Y-123597204D01*
X143399500Y-123699983D01*
X143399500Y-125300001D01*
X143399501Y-125300018D01*
X143410000Y-125402796D01*
X143410001Y-125402799D01*
X143444031Y-125505493D01*
X143465186Y-125569334D01*
X143557288Y-125718656D01*
X143681344Y-125842712D01*
X143830666Y-125934814D01*
X143997203Y-125989999D01*
X144099991Y-126000500D01*
X145400008Y-126000499D01*
X145502797Y-125989999D01*
X145669334Y-125934814D01*
X145818656Y-125842712D01*
X145942712Y-125718656D01*
X146034814Y-125569334D01*
X146034814Y-125569331D01*
X146038448Y-125563441D01*
X146090395Y-125516716D01*
X146159358Y-125505493D01*
X146223440Y-125533336D01*
X146231668Y-125540856D01*
X146370535Y-125679723D01*
X146370540Y-125679727D01*
X146542442Y-125804620D01*
X146731782Y-125901095D01*
X146933871Y-125966757D01*
X147000000Y-125977231D01*
X147000000Y-124933012D01*
X147057007Y-124965925D01*
X147184174Y-125000000D01*
X147315826Y-125000000D01*
X147442993Y-124965925D01*
X147500000Y-124933012D01*
X147500000Y-125977230D01*
X147566126Y-125966757D01*
X147566129Y-125966757D01*
X147768217Y-125901095D01*
X147957557Y-125804620D01*
X148129459Y-125679727D01*
X148129464Y-125679723D01*
X148279723Y-125529464D01*
X148279727Y-125529459D01*
X148404620Y-125357557D01*
X148501095Y-125168217D01*
X148566757Y-124966130D01*
X148566757Y-124966127D01*
X148600000Y-124756246D01*
X148600000Y-124750000D01*
X147683012Y-124750000D01*
X147715925Y-124692993D01*
X147750000Y-124565826D01*
X147750000Y-124434174D01*
X147715925Y-124307007D01*
X147683012Y-124250000D01*
X148600000Y-124250000D01*
X148600000Y-124243753D01*
X148566757Y-124033872D01*
X148566757Y-124033869D01*
X148501095Y-123831782D01*
X148433939Y-123699983D01*
X151899500Y-123699983D01*
X151899500Y-125300001D01*
X151899501Y-125300018D01*
X151910000Y-125402796D01*
X151910001Y-125402799D01*
X151944031Y-125505493D01*
X151965186Y-125569334D01*
X152057288Y-125718656D01*
X152181344Y-125842712D01*
X152330666Y-125934814D01*
X152497203Y-125989999D01*
X152599991Y-126000500D01*
X153900008Y-126000499D01*
X154002797Y-125989999D01*
X154169334Y-125934814D01*
X154318656Y-125842712D01*
X154442712Y-125718656D01*
X154534814Y-125569334D01*
X154534814Y-125569331D01*
X154538448Y-125563441D01*
X154590395Y-125516716D01*
X154659358Y-125505493D01*
X154723440Y-125533336D01*
X154731668Y-125540856D01*
X154870535Y-125679723D01*
X154870540Y-125679727D01*
X155042442Y-125804620D01*
X155231782Y-125901095D01*
X155433871Y-125966757D01*
X155500000Y-125977231D01*
X155500000Y-124933012D01*
X155557007Y-124965925D01*
X155684174Y-125000000D01*
X155815826Y-125000000D01*
X155942993Y-124965925D01*
X156000000Y-124933012D01*
X156000000Y-125977230D01*
X156066126Y-125966757D01*
X156066129Y-125966757D01*
X156268217Y-125901095D01*
X156457557Y-125804620D01*
X156629459Y-125679727D01*
X156629464Y-125679723D01*
X156779723Y-125529464D01*
X156779727Y-125529459D01*
X156904620Y-125357557D01*
X157001095Y-125168217D01*
X157066757Y-124966130D01*
X157066757Y-124966127D01*
X157100000Y-124756246D01*
X157100000Y-124750000D01*
X156183012Y-124750000D01*
X156215925Y-124692993D01*
X156250000Y-124565826D01*
X156250000Y-124434174D01*
X156215925Y-124307007D01*
X156183012Y-124250000D01*
X157100000Y-124250000D01*
X157100000Y-124243753D01*
X157066757Y-124033872D01*
X157066757Y-124033869D01*
X157001095Y-123831782D01*
X156904620Y-123642442D01*
X156779727Y-123470540D01*
X156779723Y-123470535D01*
X156629464Y-123320276D01*
X156629459Y-123320272D01*
X156457557Y-123195379D01*
X156268215Y-123098903D01*
X156066124Y-123033241D01*
X156000000Y-123022768D01*
X156000000Y-124066988D01*
X155942993Y-124034075D01*
X155815826Y-124000000D01*
X155684174Y-124000000D01*
X155557007Y-124034075D01*
X155500000Y-124066988D01*
X155500000Y-123022768D01*
X155499999Y-123022768D01*
X155433875Y-123033241D01*
X155231784Y-123098903D01*
X155042442Y-123195379D01*
X154870541Y-123320271D01*
X154731668Y-123459144D01*
X154670345Y-123492628D01*
X154600653Y-123487644D01*
X154544720Y-123445772D01*
X154538448Y-123436558D01*
X154442712Y-123281344D01*
X154318657Y-123157289D01*
X154318656Y-123157288D01*
X154169334Y-123065186D01*
X154002797Y-123010001D01*
X154002795Y-123010000D01*
X153900010Y-122999500D01*
X152599998Y-122999500D01*
X152599981Y-122999501D01*
X152497203Y-123010000D01*
X152497200Y-123010001D01*
X152330668Y-123065185D01*
X152330663Y-123065187D01*
X152181342Y-123157289D01*
X152057289Y-123281342D01*
X151965187Y-123430663D01*
X151965185Y-123430668D01*
X151958060Y-123452171D01*
X151910001Y-123597203D01*
X151910001Y-123597204D01*
X151910000Y-123597204D01*
X151899500Y-123699983D01*
X148433939Y-123699983D01*
X148404620Y-123642442D01*
X148279727Y-123470540D01*
X148279723Y-123470535D01*
X148129464Y-123320276D01*
X148129459Y-123320272D01*
X147957557Y-123195379D01*
X147768215Y-123098903D01*
X147566124Y-123033241D01*
X147500000Y-123022768D01*
X147500000Y-124066988D01*
X147442993Y-124034075D01*
X147315826Y-124000000D01*
X147184174Y-124000000D01*
X147057007Y-124034075D01*
X147000000Y-124066988D01*
X147000000Y-123022768D01*
X146999999Y-123022768D01*
X146933875Y-123033241D01*
X146731784Y-123098903D01*
X146542442Y-123195379D01*
X146370541Y-123320271D01*
X146231668Y-123459144D01*
X146170345Y-123492628D01*
X146100653Y-123487644D01*
X146044720Y-123445772D01*
X146038448Y-123436558D01*
X145942712Y-123281344D01*
X145818657Y-123157289D01*
X145818656Y-123157288D01*
X145669334Y-123065186D01*
X145585495Y-123037404D01*
X145528051Y-122997632D01*
X145501228Y-122933116D01*
X145500500Y-122919699D01*
X145500500Y-118697541D01*
X145520185Y-118630502D01*
X145572989Y-118584747D01*
X145637103Y-118574183D01*
X145649991Y-118575500D01*
X146950008Y-118575499D01*
X147052797Y-118564999D01*
X147219334Y-118509814D01*
X147368656Y-118417712D01*
X147492712Y-118293656D01*
X147584814Y-118144334D01*
X147584814Y-118144331D01*
X147588178Y-118138879D01*
X147640126Y-118092154D01*
X147709088Y-118080931D01*
X147773170Y-118108774D01*
X147781398Y-118116294D01*
X147920213Y-118255109D01*
X148092179Y-118380048D01*
X148092181Y-118380049D01*
X148092184Y-118380051D01*
X148281588Y-118476557D01*
X148483757Y-118542246D01*
X148693713Y-118575500D01*
X148693714Y-118575500D01*
X148906286Y-118575500D01*
X148906287Y-118575500D01*
X149116243Y-118542246D01*
X149318412Y-118476557D01*
X149507816Y-118380051D01*
X149529789Y-118364086D01*
X149679786Y-118255109D01*
X149679788Y-118255106D01*
X149679792Y-118255104D01*
X149830104Y-118104792D01*
X149949991Y-117939779D01*
X150005320Y-117897115D01*
X150074933Y-117891136D01*
X150136729Y-117923741D01*
X150150627Y-117939781D01*
X150270272Y-118104459D01*
X150270276Y-118104464D01*
X150420535Y-118254723D01*
X150420540Y-118254727D01*
X150592442Y-118379620D01*
X150781782Y-118476095D01*
X150983871Y-118541757D01*
X151050000Y-118552231D01*
X151050000Y-117504145D01*
X151116657Y-117542630D01*
X151237465Y-117575000D01*
X151362535Y-117575000D01*
X151483343Y-117542630D01*
X151550000Y-117504145D01*
X151550000Y-118552230D01*
X151616126Y-118541757D01*
X151616129Y-118541757D01*
X151818217Y-118476095D01*
X152007557Y-118379620D01*
X152179459Y-118254727D01*
X152179464Y-118254723D01*
X152329721Y-118104466D01*
X152449371Y-117939781D01*
X152504701Y-117897115D01*
X152574314Y-117891136D01*
X152636110Y-117923741D01*
X152650008Y-117939781D01*
X152769890Y-118104785D01*
X152769894Y-118104790D01*
X152920213Y-118255109D01*
X153092179Y-118380048D01*
X153092181Y-118380049D01*
X153092184Y-118380051D01*
X153281588Y-118476557D01*
X153483757Y-118542246D01*
X153693713Y-118575500D01*
X153693714Y-118575500D01*
X153906286Y-118575500D01*
X153906287Y-118575500D01*
X154116243Y-118542246D01*
X154212005Y-118511130D01*
X154281840Y-118509135D01*
X154341673Y-118545215D01*
X154371933Y-118604860D01*
X154373535Y-118612913D01*
X154373536Y-118612917D01*
X154420685Y-118726746D01*
X154420687Y-118726749D01*
X154438705Y-118753714D01*
X154438706Y-118753716D01*
X154489141Y-118829197D01*
X154489144Y-118829201D01*
X154580586Y-118920643D01*
X154580608Y-118920663D01*
X158955551Y-123295606D01*
X158955580Y-123295637D01*
X159004277Y-123344334D01*
X159037762Y-123405657D01*
X159032778Y-123475349D01*
X159028978Y-123484419D01*
X158944071Y-123666502D01*
X158944067Y-123666513D01*
X158886864Y-123879999D01*
X158886864Y-123880000D01*
X159784488Y-123880000D01*
X159751575Y-123937007D01*
X159717500Y-124064174D01*
X159717500Y-124195826D01*
X159751575Y-124322993D01*
X159784488Y-124380000D01*
X158886864Y-124380000D01*
X158944067Y-124593486D01*
X158944070Y-124593492D01*
X159043899Y-124807578D01*
X159179394Y-125001082D01*
X159346417Y-125168105D01*
X159539921Y-125303600D01*
X159754007Y-125403429D01*
X159754016Y-125403433D01*
X159967500Y-125460634D01*
X159967500Y-124563012D01*
X160024507Y-124595925D01*
X160151674Y-124630000D01*
X160283326Y-124630000D01*
X160410493Y-124595925D01*
X160467500Y-124563012D01*
X160467500Y-125460633D01*
X160680983Y-125403433D01*
X160680992Y-125403429D01*
X160895078Y-125303600D01*
X161088582Y-125168105D01*
X161255605Y-125001082D01*
X161385619Y-124815405D01*
X161440196Y-124771781D01*
X161509695Y-124764588D01*
X161572049Y-124796110D01*
X161588769Y-124815405D01*
X161719005Y-125001401D01*
X161886099Y-125168495D01*
X161931087Y-125199996D01*
X162079665Y-125304032D01*
X162079667Y-125304033D01*
X162079670Y-125304035D01*
X162293837Y-125403903D01*
X162522092Y-125465063D01*
X162710418Y-125481539D01*
X162757499Y-125485659D01*
X162757500Y-125485659D01*
X162757501Y-125485659D01*
X162796734Y-125482226D01*
X162992908Y-125465063D01*
X163221163Y-125403903D01*
X163435330Y-125304035D01*
X163583913Y-125199996D01*
X165894435Y-125199996D01*
X165894435Y-125200003D01*
X165914630Y-125379249D01*
X165914631Y-125379254D01*
X165974211Y-125549524D01*
X166055493Y-125678881D01*
X166074500Y-125744854D01*
X166074500Y-126205145D01*
X166055494Y-126271117D01*
X165974211Y-126400476D01*
X165914631Y-126570745D01*
X165914630Y-126570750D01*
X165894435Y-126749996D01*
X165894435Y-126750003D01*
X165914630Y-126929249D01*
X165914631Y-126929254D01*
X165974211Y-127099523D01*
X166070184Y-127252262D01*
X166197738Y-127379816D01*
X166350478Y-127475789D01*
X166405240Y-127494951D01*
X166520745Y-127535368D01*
X166520750Y-127535369D01*
X166699996Y-127555565D01*
X166700000Y-127555565D01*
X166700004Y-127555565D01*
X166879249Y-127535369D01*
X166879252Y-127535368D01*
X166879255Y-127535368D01*
X167049522Y-127475789D01*
X167202262Y-127379816D01*
X167329816Y-127252262D01*
X167425789Y-127099522D01*
X167485368Y-126929255D01*
X167505565Y-126750000D01*
X167500812Y-126707820D01*
X167485369Y-126570750D01*
X167485368Y-126570745D01*
X167425789Y-126400478D01*
X167344505Y-126271116D01*
X167325500Y-126205145D01*
X167325500Y-125893713D01*
X170049500Y-125893713D01*
X170049500Y-126106286D01*
X170082753Y-126316239D01*
X170148444Y-126518414D01*
X170244951Y-126707820D01*
X170369890Y-126879786D01*
X170508705Y-127018601D01*
X170542190Y-127079924D01*
X170537206Y-127149616D01*
X170495334Y-127205549D01*
X170486121Y-127211821D01*
X170331342Y-127307289D01*
X170207289Y-127431342D01*
X170115187Y-127580663D01*
X170115185Y-127580668D01*
X170114858Y-127581655D01*
X170060001Y-127747203D01*
X170060001Y-127747204D01*
X170060000Y-127747204D01*
X170049500Y-127849983D01*
X170049500Y-129150001D01*
X170049501Y-129150018D01*
X170060000Y-129252796D01*
X170060001Y-129252799D01*
X170102081Y-129379786D01*
X170115186Y-129419334D01*
X170207288Y-129568656D01*
X170331344Y-129692712D01*
X170480666Y-129784814D01*
X170647203Y-129839999D01*
X170749991Y-129850500D01*
X172350008Y-129850499D01*
X172452797Y-129839999D01*
X172619334Y-129784814D01*
X172768656Y-129692712D01*
X172892712Y-129568656D01*
X172984814Y-129419334D01*
X173039999Y-129252797D01*
X173050500Y-129150009D01*
X173050499Y-127849992D01*
X173042349Y-127770213D01*
X173039999Y-127747203D01*
X173039998Y-127747200D01*
X172997919Y-127620215D01*
X172984814Y-127580666D01*
X172892712Y-127431344D01*
X172768656Y-127307288D01*
X172619334Y-127215186D01*
X172619333Y-127215185D01*
X172613878Y-127211821D01*
X172567154Y-127159873D01*
X172555931Y-127090910D01*
X172583775Y-127026828D01*
X172591272Y-127018623D01*
X172730104Y-126879792D01*
X172855051Y-126707816D01*
X172951557Y-126518412D01*
X173017246Y-126316243D01*
X173050500Y-126106287D01*
X173050500Y-125893713D01*
X173017246Y-125683757D01*
X172951557Y-125481588D01*
X172855051Y-125292184D01*
X172855049Y-125292181D01*
X172855048Y-125292179D01*
X172730109Y-125120213D01*
X172579786Y-124969890D01*
X172407820Y-124844951D01*
X172218414Y-124748444D01*
X172218413Y-124748443D01*
X172218412Y-124748443D01*
X172016243Y-124682754D01*
X172016241Y-124682753D01*
X172016240Y-124682753D01*
X171854957Y-124657208D01*
X171806287Y-124649500D01*
X171293713Y-124649500D01*
X171245042Y-124657208D01*
X171083760Y-124682753D01*
X170881585Y-124748444D01*
X170692179Y-124844951D01*
X170520213Y-124969890D01*
X170369890Y-125120213D01*
X170244951Y-125292179D01*
X170148444Y-125481585D01*
X170082753Y-125683760D01*
X170049500Y-125893713D01*
X167325500Y-125893713D01*
X167325500Y-125744854D01*
X167344507Y-125678881D01*
X167425788Y-125549524D01*
X167428821Y-125540856D01*
X167485368Y-125379255D01*
X167487813Y-125357557D01*
X167505565Y-125200003D01*
X167505565Y-125199996D01*
X167485369Y-125020750D01*
X167485368Y-125020745D01*
X167454085Y-124931344D01*
X167425789Y-124850478D01*
X167398991Y-124807830D01*
X167340779Y-124715186D01*
X167329816Y-124697738D01*
X167202262Y-124570184D01*
X167151330Y-124538181D01*
X167049523Y-124474211D01*
X166879254Y-124414631D01*
X166879249Y-124414630D01*
X166700004Y-124394435D01*
X166699996Y-124394435D01*
X166520750Y-124414630D01*
X166520745Y-124414631D01*
X166350476Y-124474211D01*
X166197737Y-124570184D01*
X166070184Y-124697737D01*
X165974211Y-124850476D01*
X165914631Y-125020745D01*
X165914630Y-125020750D01*
X165894435Y-125199996D01*
X163583913Y-125199996D01*
X163628901Y-125168495D01*
X163795995Y-125001401D01*
X163931535Y-124807830D01*
X164031403Y-124593663D01*
X164092563Y-124365408D01*
X164113159Y-124130000D01*
X164092563Y-123894592D01*
X164040421Y-123699992D01*
X164031405Y-123666344D01*
X164031404Y-123666343D01*
X164031403Y-123666337D01*
X163931535Y-123452171D01*
X163931534Y-123452169D01*
X163795996Y-123258599D01*
X163795663Y-123258203D01*
X163795571Y-123257993D01*
X163792890Y-123254164D01*
X163793659Y-123253625D01*
X163767651Y-123194195D01*
X163778690Y-123125203D01*
X163802969Y-123090820D01*
X165598729Y-121295061D01*
X165598733Y-121295059D01*
X165685858Y-121207934D01*
X165754311Y-121105487D01*
X165801463Y-120991653D01*
X165813481Y-120931230D01*
X165825500Y-120870808D01*
X165825500Y-120747595D01*
X165825500Y-117393713D01*
X170049500Y-117393713D01*
X170049500Y-117606286D01*
X170073959Y-117760718D01*
X170082754Y-117816243D01*
X170145975Y-118010817D01*
X170148444Y-118018414D01*
X170244951Y-118207820D01*
X170369890Y-118379786D01*
X170508705Y-118518601D01*
X170542190Y-118579924D01*
X170537206Y-118649616D01*
X170495334Y-118705549D01*
X170486121Y-118711821D01*
X170331342Y-118807289D01*
X170207289Y-118931342D01*
X170115187Y-119080663D01*
X170115185Y-119080668D01*
X170110045Y-119096181D01*
X170060001Y-119247203D01*
X170060001Y-119247204D01*
X170060000Y-119247204D01*
X170049500Y-119349983D01*
X170049500Y-120650001D01*
X170049501Y-120650018D01*
X170060000Y-120752796D01*
X170060001Y-120752799D01*
X170099106Y-120870807D01*
X170115186Y-120919334D01*
X170207288Y-121068656D01*
X170331344Y-121192712D01*
X170480666Y-121284814D01*
X170647203Y-121339999D01*
X170749991Y-121350500D01*
X172350008Y-121350499D01*
X172452797Y-121339999D01*
X172619334Y-121284814D01*
X172768656Y-121192712D01*
X172892712Y-121068656D01*
X172984814Y-120919334D01*
X173039999Y-120752797D01*
X173050500Y-120650009D01*
X173050499Y-119349992D01*
X173039999Y-119247203D01*
X172984814Y-119080666D01*
X172892712Y-118931344D01*
X172768656Y-118807288D01*
X172619334Y-118715186D01*
X172619333Y-118715185D01*
X172613878Y-118711821D01*
X172567154Y-118659873D01*
X172555931Y-118590910D01*
X172583775Y-118526828D01*
X172591272Y-118518623D01*
X172730104Y-118379792D01*
X172735643Y-118372169D01*
X172855048Y-118207820D01*
X172855047Y-118207820D01*
X172855051Y-118207816D01*
X172951557Y-118018412D01*
X173017246Y-117816243D01*
X173050500Y-117606287D01*
X173050500Y-117393713D01*
X173017246Y-117183757D01*
X172951557Y-116981588D01*
X172855051Y-116792184D01*
X172855049Y-116792181D01*
X172855048Y-116792179D01*
X172730109Y-116620213D01*
X172579786Y-116469890D01*
X172407820Y-116344951D01*
X172218414Y-116248444D01*
X172218413Y-116248443D01*
X172218412Y-116248443D01*
X172016243Y-116182754D01*
X172016241Y-116182753D01*
X172016240Y-116182753D01*
X171854957Y-116157208D01*
X171806287Y-116149500D01*
X171293713Y-116149500D01*
X171245042Y-116157208D01*
X171083760Y-116182753D01*
X170881585Y-116248444D01*
X170692179Y-116344951D01*
X170520213Y-116469890D01*
X170369890Y-116620213D01*
X170244951Y-116792179D01*
X170148444Y-116981585D01*
X170082753Y-117183760D01*
X170049500Y-117393713D01*
X165825500Y-117393713D01*
X165825500Y-115238394D01*
X165825500Y-108893713D01*
X170049500Y-108893713D01*
X170049500Y-109106286D01*
X170082498Y-109314632D01*
X170082754Y-109316243D01*
X170125969Y-109449245D01*
X170148444Y-109518414D01*
X170244951Y-109707820D01*
X170369890Y-109879786D01*
X170508705Y-110018601D01*
X170542190Y-110079924D01*
X170537206Y-110149616D01*
X170495334Y-110205549D01*
X170486121Y-110211821D01*
X170331342Y-110307289D01*
X170207289Y-110431342D01*
X170115187Y-110580663D01*
X170115185Y-110580668D01*
X170093916Y-110644854D01*
X170060001Y-110747203D01*
X170060001Y-110747204D01*
X170060000Y-110747204D01*
X170049500Y-110849983D01*
X170049500Y-112150001D01*
X170049501Y-112150018D01*
X170060000Y-112252796D01*
X170060001Y-112252799D01*
X170076107Y-112301402D01*
X170115186Y-112419334D01*
X170207288Y-112568656D01*
X170331344Y-112692712D01*
X170480666Y-112784814D01*
X170647203Y-112839999D01*
X170749991Y-112850500D01*
X172350008Y-112850499D01*
X172452797Y-112839999D01*
X172619334Y-112784814D01*
X172768656Y-112692712D01*
X172892712Y-112568656D01*
X172984814Y-112419334D01*
X173039999Y-112252797D01*
X173050500Y-112150009D01*
X173050499Y-110849992D01*
X173039999Y-110747203D01*
X172984814Y-110580666D01*
X172892712Y-110431344D01*
X172768656Y-110307288D01*
X172619334Y-110215186D01*
X172619333Y-110215185D01*
X172613878Y-110211821D01*
X172567154Y-110159873D01*
X172555931Y-110090910D01*
X172583775Y-110026828D01*
X172591272Y-110018623D01*
X172730104Y-109879792D01*
X172855051Y-109707816D01*
X172951557Y-109518412D01*
X173017246Y-109316243D01*
X173050500Y-109106287D01*
X173050500Y-108893713D01*
X173017246Y-108683757D01*
X172951557Y-108481588D01*
X172855051Y-108292184D01*
X172855049Y-108292181D01*
X172855048Y-108292179D01*
X172730109Y-108120213D01*
X172579786Y-107969890D01*
X172407820Y-107844951D01*
X172218414Y-107748444D01*
X172218413Y-107748443D01*
X172218412Y-107748443D01*
X172016243Y-107682754D01*
X172016241Y-107682753D01*
X172016240Y-107682753D01*
X171854957Y-107657208D01*
X171806287Y-107649500D01*
X171293713Y-107649500D01*
X171245042Y-107657208D01*
X171083760Y-107682753D01*
X170881585Y-107748444D01*
X170692179Y-107844951D01*
X170520213Y-107969890D01*
X170369890Y-108120213D01*
X170244951Y-108292179D01*
X170148444Y-108481585D01*
X170082753Y-108683760D01*
X170049500Y-108893713D01*
X165825500Y-108893713D01*
X165825500Y-108235452D01*
X165845185Y-108168413D01*
X165861819Y-108147771D01*
X167259491Y-106750099D01*
X168683380Y-105326209D01*
X168744701Y-105292726D01*
X168757158Y-105290674D01*
X168804255Y-105285368D01*
X168974522Y-105225789D01*
X169127262Y-105129816D01*
X169254816Y-105002262D01*
X169350789Y-104849522D01*
X169410368Y-104679255D01*
X169414434Y-104643171D01*
X169430565Y-104500003D01*
X169430565Y-104499996D01*
X169415173Y-104363383D01*
X169427228Y-104294561D01*
X169474577Y-104243182D01*
X169538393Y-104225500D01*
X172561608Y-104225500D01*
X172561608Y-104225499D01*
X172668274Y-104204283D01*
X172668275Y-104204283D01*
X172682447Y-104201464D01*
X172682447Y-104201463D01*
X172682452Y-104201463D01*
X172682457Y-104201460D01*
X172682460Y-104201460D01*
X172715787Y-104187654D01*
X172715786Y-104187654D01*
X172715792Y-104187652D01*
X172796286Y-104154312D01*
X172866270Y-104107549D01*
X172898733Y-104085858D01*
X172985858Y-103998733D01*
X172985858Y-103998731D01*
X172996066Y-103988524D01*
X172996067Y-103988521D01*
X174058380Y-102926209D01*
X174119701Y-102892726D01*
X174132158Y-102890674D01*
X174179255Y-102885368D01*
X174349522Y-102825789D01*
X174502262Y-102729816D01*
X174629816Y-102602262D01*
X174725789Y-102449522D01*
X174785368Y-102279255D01*
X174794119Y-102201586D01*
X174805565Y-102100003D01*
X174805565Y-102099996D01*
X174785369Y-101920750D01*
X174785368Y-101920745D01*
X174744417Y-101803715D01*
X174725789Y-101750478D01*
X174702418Y-101713284D01*
X174667420Y-101657585D01*
X174629816Y-101597738D01*
X174502262Y-101470184D01*
X174349523Y-101374211D01*
X174179254Y-101314631D01*
X174179249Y-101314630D01*
X174000004Y-101294435D01*
X173999996Y-101294435D01*
X173820750Y-101314630D01*
X173820745Y-101314631D01*
X173650476Y-101374211D01*
X173497737Y-101470184D01*
X173370184Y-101597737D01*
X173274210Y-101750478D01*
X173214630Y-101920750D01*
X173209326Y-101967825D01*
X173182258Y-102032238D01*
X173173787Y-102041620D01*
X172277229Y-102938181D01*
X172215906Y-102971666D01*
X172189548Y-102974500D01*
X169542341Y-102974500D01*
X169475302Y-102954815D01*
X169429547Y-102902011D01*
X169419121Y-102864383D01*
X169411388Y-102795750D01*
X169411387Y-102795748D01*
X169411387Y-102795745D01*
X169351808Y-102625478D01*
X169270524Y-102496116D01*
X169251519Y-102430145D01*
X169251519Y-96284432D01*
X169271204Y-96217393D01*
X169287833Y-96196755D01*
X169983175Y-95501414D01*
X170044493Y-95467932D01*
X170114184Y-95472916D01*
X170170118Y-95514787D01*
X170181336Y-95532803D01*
X170270379Y-95707557D01*
X170395272Y-95879459D01*
X170395276Y-95879464D01*
X170545535Y-96029723D01*
X170545540Y-96029727D01*
X170710218Y-96149372D01*
X170752884Y-96204701D01*
X170758863Y-96274315D01*
X170726258Y-96336110D01*
X170710218Y-96350008D01*
X170545214Y-96469890D01*
X170545209Y-96469894D01*
X170394890Y-96620213D01*
X170269951Y-96792179D01*
X170173444Y-96981585D01*
X170107753Y-97183760D01*
X170077441Y-97375145D01*
X170074500Y-97393713D01*
X170074500Y-97606287D01*
X170107754Y-97816243D01*
X170146325Y-97934953D01*
X170173444Y-98018414D01*
X170269951Y-98207820D01*
X170394890Y-98379786D01*
X170533705Y-98518601D01*
X170567190Y-98579924D01*
X170562206Y-98649616D01*
X170520334Y-98705549D01*
X170511121Y-98711821D01*
X170356342Y-98807289D01*
X170232289Y-98931342D01*
X170140187Y-99080663D01*
X170140185Y-99080668D01*
X170133779Y-99100000D01*
X170085001Y-99247203D01*
X170085001Y-99247204D01*
X170085000Y-99247204D01*
X170074500Y-99349983D01*
X170074500Y-100650001D01*
X170074501Y-100650018D01*
X170085000Y-100752796D01*
X170085001Y-100752799D01*
X170140185Y-100919331D01*
X170140187Y-100919336D01*
X170165577Y-100960500D01*
X170232288Y-101068656D01*
X170356344Y-101192712D01*
X170505666Y-101284814D01*
X170672203Y-101339999D01*
X170774991Y-101350500D01*
X172325008Y-101350499D01*
X172427797Y-101339999D01*
X172594334Y-101284814D01*
X172743656Y-101192712D01*
X172867712Y-101068656D01*
X172959814Y-100919334D01*
X173014999Y-100752797D01*
X173025500Y-100650009D01*
X173025499Y-99349992D01*
X173014999Y-99247203D01*
X172959814Y-99080666D01*
X172867712Y-98931344D01*
X172743656Y-98807288D01*
X172594334Y-98715186D01*
X172594333Y-98715185D01*
X172588878Y-98711821D01*
X172542154Y-98659873D01*
X172530931Y-98590910D01*
X172558775Y-98526828D01*
X172566272Y-98518623D01*
X172705104Y-98379792D01*
X172830051Y-98207816D01*
X172926557Y-98018412D01*
X172992246Y-97816243D01*
X173025500Y-97606287D01*
X173025500Y-97393713D01*
X172992246Y-97183757D01*
X172926557Y-96981588D01*
X172830051Y-96792184D01*
X172830049Y-96792181D01*
X172830048Y-96792179D01*
X172705109Y-96620213D01*
X172554790Y-96469894D01*
X172554785Y-96469890D01*
X172389781Y-96350008D01*
X172347115Y-96294678D01*
X172341136Y-96225065D01*
X172373741Y-96163270D01*
X172389781Y-96149371D01*
X172554466Y-96029721D01*
X172704723Y-95879464D01*
X172704727Y-95879459D01*
X172829620Y-95707557D01*
X172926095Y-95518217D01*
X172991757Y-95316129D01*
X172991757Y-95316126D01*
X173002231Y-95250000D01*
X171954146Y-95250000D01*
X171992630Y-95183343D01*
X172025000Y-95062535D01*
X172025000Y-94937465D01*
X171992630Y-94816657D01*
X171954146Y-94750000D01*
X173002231Y-94750000D01*
X172991757Y-94683873D01*
X172991757Y-94683870D01*
X172926095Y-94481782D01*
X172829620Y-94292442D01*
X172704727Y-94120540D01*
X172704723Y-94120535D01*
X172554464Y-93970276D01*
X172554459Y-93970272D01*
X172389781Y-93850627D01*
X172347115Y-93795297D01*
X172341136Y-93725684D01*
X172373741Y-93663889D01*
X172389776Y-93649994D01*
X172554792Y-93530104D01*
X172705104Y-93379792D01*
X172705106Y-93379788D01*
X172705109Y-93379786D01*
X172830048Y-93207820D01*
X172830047Y-93207820D01*
X172830051Y-93207816D01*
X172926557Y-93018412D01*
X172992246Y-92816243D01*
X173025500Y-92606287D01*
X173025500Y-92393713D01*
X172992246Y-92183757D01*
X172926557Y-91981588D01*
X172830051Y-91792184D01*
X172830049Y-91792181D01*
X172830048Y-91792179D01*
X172705109Y-91620213D01*
X172554786Y-91469890D01*
X172382820Y-91344951D01*
X172193414Y-91248444D01*
X172193413Y-91248443D01*
X172193412Y-91248443D01*
X171991243Y-91182754D01*
X171991241Y-91182753D01*
X171991240Y-91182753D01*
X171806005Y-91153415D01*
X171781287Y-91149500D01*
X171318713Y-91149500D01*
X171293995Y-91153415D01*
X171108760Y-91182753D01*
X170906585Y-91248444D01*
X170717179Y-91344951D01*
X170545213Y-91469890D01*
X170394890Y-91620213D01*
X170269951Y-91792179D01*
X170173444Y-91981585D01*
X170107753Y-92183760D01*
X170092808Y-92278119D01*
X170074500Y-92393713D01*
X170074500Y-92606287D01*
X170075327Y-92611506D01*
X170101791Y-92778599D01*
X170107754Y-92816243D01*
X170158418Y-92972171D01*
X170173444Y-93018414D01*
X170235018Y-93139260D01*
X170247914Y-93207929D01*
X170221638Y-93272670D01*
X170164531Y-93312927D01*
X170094726Y-93315919D01*
X170036852Y-93283236D01*
X166592041Y-89838427D01*
X166592038Y-89838423D01*
X166592038Y-89838424D01*
X166584971Y-89831357D01*
X166584971Y-89831356D01*
X166497846Y-89744231D01*
X166497845Y-89744230D01*
X166497844Y-89744229D01*
X166431650Y-89700000D01*
X166419509Y-89691887D01*
X166395400Y-89675777D01*
X166358016Y-89660292D01*
X166305144Y-89638393D01*
X166305142Y-89638391D01*
X166281568Y-89628627D01*
X166281566Y-89628626D01*
X166281565Y-89628626D01*
X166221142Y-89616607D01*
X166160723Y-89604589D01*
X166160720Y-89604589D01*
X166160719Y-89604589D01*
X164326202Y-89604589D01*
X164260230Y-89585583D01*
X164130868Y-89504299D01*
X163981038Y-89451872D01*
X163924262Y-89411150D01*
X163898514Y-89346198D01*
X163911970Y-89277636D01*
X163920416Y-89263708D01*
X163931535Y-89247830D01*
X164031403Y-89033663D01*
X164092563Y-88805408D01*
X164113159Y-88570000D01*
X164092563Y-88334592D01*
X164031403Y-88106337D01*
X163931535Y-87892171D01*
X163931534Y-87892169D01*
X163795996Y-87698599D01*
X163795663Y-87698203D01*
X163795571Y-87697993D01*
X163792890Y-87694164D01*
X163793659Y-87693625D01*
X163767651Y-87634195D01*
X163778690Y-87565203D01*
X163802969Y-87530820D01*
X164820122Y-86513668D01*
X164820126Y-86513666D01*
X164907251Y-86426541D01*
X164970418Y-86332005D01*
X164975705Y-86324093D01*
X164992396Y-86283797D01*
X165006188Y-86250501D01*
X165022854Y-86210264D01*
X165022856Y-86210260D01*
X165043883Y-86104548D01*
X165046893Y-86089415D01*
X165046893Y-85966201D01*
X165046893Y-81646101D01*
X165066578Y-81579062D01*
X165119382Y-81533307D01*
X165188540Y-81523363D01*
X165252096Y-81552388D01*
X165258574Y-81558420D01*
X166199469Y-82499314D01*
X167083107Y-83382952D01*
X167105429Y-83397867D01*
X167105432Y-83397870D01*
X167105433Y-83397869D01*
X167105434Y-83397870D01*
X167127176Y-83412398D01*
X167171981Y-83466009D01*
X167180689Y-83535334D01*
X167150535Y-83598362D01*
X167091092Y-83635082D01*
X167058286Y-83639500D01*
X166102129Y-83639500D01*
X166102123Y-83639501D01*
X166042516Y-83645908D01*
X165907671Y-83696202D01*
X165907664Y-83696206D01*
X165792455Y-83782452D01*
X165792452Y-83782455D01*
X165706206Y-83897664D01*
X165706202Y-83897671D01*
X165655908Y-84032517D01*
X165649501Y-84092116D01*
X165649501Y-84092123D01*
X165649500Y-84092135D01*
X165649500Y-85887870D01*
X165649501Y-85887876D01*
X165655908Y-85947483D01*
X165706202Y-86082328D01*
X165706206Y-86082335D01*
X165792452Y-86197544D01*
X165792455Y-86197547D01*
X165907664Y-86283793D01*
X165907671Y-86283797D01*
X166039081Y-86332810D01*
X166095015Y-86374681D01*
X166119432Y-86440145D01*
X166104580Y-86508418D01*
X166083430Y-86536673D01*
X165961503Y-86658600D01*
X165825965Y-86852169D01*
X165825964Y-86852171D01*
X165726098Y-87066335D01*
X165726094Y-87066344D01*
X165664938Y-87294586D01*
X165664936Y-87294596D01*
X165644341Y-87529999D01*
X165644341Y-87530000D01*
X165664936Y-87765403D01*
X165664938Y-87765413D01*
X165726094Y-87993655D01*
X165726096Y-87993659D01*
X165726097Y-87993663D01*
X165778637Y-88106335D01*
X165825965Y-88207830D01*
X165825967Y-88207834D01*
X165934281Y-88362521D01*
X165961505Y-88401401D01*
X166128599Y-88568495D01*
X166158786Y-88589632D01*
X166322165Y-88704032D01*
X166322167Y-88704033D01*
X166322170Y-88704035D01*
X166536337Y-88803903D01*
X166536343Y-88803904D01*
X166536344Y-88803905D01*
X166541972Y-88805413D01*
X166764592Y-88865063D01*
X166926804Y-88879255D01*
X166999999Y-88885659D01*
X167000000Y-88885659D01*
X167000001Y-88885659D01*
X167073196Y-88879255D01*
X167235408Y-88865063D01*
X167463663Y-88803903D01*
X167677830Y-88704035D01*
X167871401Y-88568495D01*
X168038495Y-88401401D01*
X168174035Y-88207830D01*
X168273903Y-87993663D01*
X168335063Y-87765408D01*
X168355659Y-87530000D01*
X168335063Y-87294592D01*
X168273903Y-87066337D01*
X168174035Y-86852171D01*
X168136802Y-86798997D01*
X168038496Y-86658600D01*
X168038495Y-86658599D01*
X167916567Y-86536671D01*
X167883084Y-86475351D01*
X167888068Y-86405659D01*
X167929939Y-86349725D01*
X167960915Y-86332810D01*
X168092331Y-86283796D01*
X168207546Y-86197546D01*
X168293796Y-86082331D01*
X168344091Y-85947483D01*
X168350500Y-85887873D01*
X168350499Y-84092128D01*
X168344091Y-84032517D01*
X168342290Y-84027689D01*
X168293797Y-83897671D01*
X168293793Y-83897664D01*
X168207547Y-83782455D01*
X168202053Y-83778342D01*
X168195939Y-83773765D01*
X168154070Y-83717832D01*
X168149086Y-83648140D01*
X168182572Y-83586818D01*
X168243895Y-83553333D01*
X168270252Y-83550500D01*
X170900028Y-83550500D01*
X170940983Y-83557458D01*
X171020745Y-83585368D01*
X171020750Y-83585369D01*
X171199996Y-83605565D01*
X171200000Y-83605565D01*
X171200004Y-83605565D01*
X171379249Y-83585369D01*
X171379252Y-83585368D01*
X171379255Y-83585368D01*
X171549522Y-83525789D01*
X171702262Y-83429816D01*
X171829816Y-83302262D01*
X171925789Y-83149522D01*
X171954692Y-83066922D01*
X171995414Y-83010146D01*
X172060366Y-82984398D01*
X172128928Y-82997854D01*
X172179331Y-83046241D01*
X172192900Y-83081518D01*
X172239921Y-83297673D01*
X172332426Y-83545690D01*
X172332428Y-83545694D01*
X172459280Y-83778005D01*
X172459285Y-83778013D01*
X172617906Y-83989907D01*
X172617922Y-83989925D01*
X172805074Y-84177077D01*
X172805092Y-84177093D01*
X173016986Y-84335714D01*
X173016994Y-84335719D01*
X173249305Y-84462571D01*
X173249309Y-84462573D01*
X173249311Y-84462574D01*
X173497322Y-84555077D01*
X173497325Y-84555077D01*
X173497326Y-84555078D01*
X173692552Y-84597546D01*
X173755974Y-84611343D01*
X173999660Y-84628772D01*
X174019999Y-84630227D01*
X174020000Y-84630227D01*
X174020001Y-84630227D01*
X174038885Y-84628876D01*
X174284026Y-84611343D01*
X174542678Y-84555077D01*
X174790689Y-84462574D01*
X175023011Y-84335716D01*
X175234915Y-84177087D01*
X175422087Y-83989915D01*
X175580716Y-83778011D01*
X175707574Y-83545689D01*
X175800077Y-83297678D01*
X175856343Y-83039026D01*
X175875227Y-82775000D01*
X175856343Y-82510974D01*
X175800077Y-82252322D01*
X175707574Y-82004311D01*
X175702181Y-81994435D01*
X175580719Y-81771994D01*
X175580714Y-81771986D01*
X175470693Y-81625014D01*
X176130000Y-81625014D01*
X176130000Y-82525000D01*
X177163520Y-82525000D01*
X177162665Y-82527064D01*
X177130000Y-82691282D01*
X177130000Y-82858718D01*
X177162665Y-83022936D01*
X177163520Y-83025000D01*
X176130000Y-83025000D01*
X176130000Y-83924985D01*
X176140493Y-84027689D01*
X176140494Y-84027696D01*
X176195641Y-84194118D01*
X176195643Y-84194123D01*
X176287684Y-84343344D01*
X176411655Y-84467315D01*
X176560876Y-84559356D01*
X176560881Y-84559358D01*
X176727303Y-84614505D01*
X176727310Y-84614506D01*
X176830014Y-84624999D01*
X176830027Y-84625000D01*
X177730000Y-84625000D01*
X177730000Y-83591480D01*
X177732064Y-83592335D01*
X177896282Y-83625000D01*
X178063718Y-83625000D01*
X178227936Y-83592335D01*
X178230000Y-83591480D01*
X178230000Y-84625000D01*
X179129973Y-84625000D01*
X179129985Y-84624999D01*
X179232689Y-84614506D01*
X179232696Y-84614505D01*
X179399118Y-84559358D01*
X179399123Y-84559356D01*
X179548344Y-84467315D01*
X179672315Y-84343344D01*
X179764356Y-84194123D01*
X179764358Y-84194118D01*
X179819505Y-84027696D01*
X179819506Y-84027689D01*
X179829999Y-83924985D01*
X179830000Y-83924972D01*
X179830000Y-83025000D01*
X178796480Y-83025000D01*
X178797335Y-83022936D01*
X178830000Y-82858718D01*
X178830000Y-82691282D01*
X178797335Y-82527064D01*
X178796480Y-82525000D01*
X179830000Y-82525000D01*
X179830000Y-81625027D01*
X179829999Y-81625014D01*
X179819506Y-81522310D01*
X179819505Y-81522303D01*
X179764358Y-81355881D01*
X179764356Y-81355876D01*
X179672315Y-81206655D01*
X179548344Y-81082684D01*
X179399123Y-80990643D01*
X179399118Y-80990641D01*
X179232696Y-80935494D01*
X179232689Y-80935493D01*
X179129985Y-80925000D01*
X178230000Y-80925000D01*
X178230000Y-81958519D01*
X178227936Y-81957665D01*
X178063718Y-81925000D01*
X177896282Y-81925000D01*
X177732064Y-81957665D01*
X177730000Y-81958519D01*
X177730000Y-80925000D01*
X176830014Y-80925000D01*
X176727310Y-80935493D01*
X176727303Y-80935494D01*
X176560881Y-80990641D01*
X176560876Y-80990643D01*
X176411655Y-81082684D01*
X176287684Y-81206655D01*
X176195643Y-81355876D01*
X176195641Y-81355881D01*
X176140494Y-81522303D01*
X176140493Y-81522310D01*
X176130000Y-81625014D01*
X175470693Y-81625014D01*
X175422093Y-81560092D01*
X175422077Y-81560074D01*
X175234925Y-81372922D01*
X175234907Y-81372906D01*
X175023013Y-81214285D01*
X175023005Y-81214280D01*
X174790694Y-81087428D01*
X174790690Y-81087426D01*
X174542673Y-80994921D01*
X174284034Y-80938658D01*
X174284027Y-80938657D01*
X174020001Y-80919773D01*
X174019999Y-80919773D01*
X173755972Y-80938657D01*
X173755965Y-80938658D01*
X173497326Y-80994921D01*
X173249309Y-81087426D01*
X173249305Y-81087428D01*
X173016994Y-81214280D01*
X173016986Y-81214285D01*
X172805092Y-81372906D01*
X172805074Y-81372922D01*
X172617922Y-81560074D01*
X172617906Y-81560092D01*
X172459285Y-81771986D01*
X172459280Y-81771994D01*
X172332428Y-82004305D01*
X172332426Y-82004309D01*
X172239922Y-82252325D01*
X172186192Y-82499314D01*
X172152707Y-82560637D01*
X172091384Y-82594121D01*
X172021692Y-82589137D01*
X171965759Y-82547265D01*
X171947984Y-82513908D01*
X171925790Y-82450479D01*
X171829815Y-82297737D01*
X171702262Y-82170184D01*
X171549523Y-82074211D01*
X171379254Y-82014631D01*
X171379249Y-82014630D01*
X171200004Y-81994435D01*
X171199996Y-81994435D01*
X171020750Y-82014630D01*
X171020745Y-82014631D01*
X170940983Y-82042542D01*
X170900028Y-82049500D01*
X167923751Y-82049500D01*
X167856712Y-82029815D01*
X167836070Y-82013181D01*
X167611477Y-81788588D01*
X167577992Y-81727265D01*
X167582976Y-81657573D01*
X167624848Y-81601640D01*
X167646741Y-81588531D01*
X167677830Y-81574035D01*
X167871401Y-81438495D01*
X168038495Y-81271401D01*
X168174035Y-81077830D01*
X168273903Y-80863663D01*
X168335063Y-80635408D01*
X168355659Y-80400000D01*
X168354272Y-80384152D01*
X168343068Y-80256091D01*
X168335063Y-80164592D01*
X168273903Y-79936337D01*
X168174035Y-79722171D01*
X168160262Y-79702500D01*
X168038494Y-79528597D01*
X167871402Y-79361506D01*
X167871396Y-79361501D01*
X167685842Y-79231575D01*
X167642217Y-79176998D01*
X167635023Y-79107500D01*
X167666546Y-79045145D01*
X167685842Y-79028425D01*
X167708026Y-79012891D01*
X167871401Y-78898495D01*
X168038495Y-78731401D01*
X168174035Y-78537830D01*
X168273903Y-78323663D01*
X168335063Y-78095408D01*
X168355659Y-77860000D01*
X168335063Y-77624592D01*
X168273903Y-77396337D01*
X168174035Y-77182171D01*
X168073384Y-77038425D01*
X168038494Y-76988597D01*
X167871402Y-76821506D01*
X167871396Y-76821501D01*
X167685842Y-76691575D01*
X167642217Y-76636998D01*
X167635023Y-76567500D01*
X167666546Y-76505145D01*
X167685842Y-76488425D01*
X167708026Y-76472891D01*
X167871401Y-76358495D01*
X168038495Y-76191401D01*
X168174035Y-75997830D01*
X168273903Y-75783663D01*
X168335063Y-75555408D01*
X168355659Y-75320000D01*
X168335063Y-75084592D01*
X168273903Y-74856337D01*
X168174035Y-74642171D01*
X168141775Y-74596098D01*
X168038494Y-74448597D01*
X167871402Y-74281506D01*
X167871396Y-74281501D01*
X167685842Y-74151575D01*
X167642217Y-74096998D01*
X167635023Y-74027500D01*
X167666546Y-73965145D01*
X167685842Y-73948425D01*
X167708026Y-73932891D01*
X167871401Y-73818495D01*
X168038495Y-73651401D01*
X168174035Y-73457830D01*
X168273903Y-73243663D01*
X168335063Y-73015408D01*
X168355659Y-72780000D01*
X168335063Y-72544592D01*
X168273903Y-72316337D01*
X168174035Y-72102171D01*
X168143764Y-72058940D01*
X168038496Y-71908600D01*
X167981843Y-71851947D01*
X167916567Y-71786671D01*
X167883084Y-71725351D01*
X167888068Y-71655659D01*
X167929939Y-71599725D01*
X167960915Y-71582810D01*
X168092331Y-71533796D01*
X168207546Y-71447546D01*
X168293796Y-71332331D01*
X168344091Y-71197483D01*
X168350500Y-71137873D01*
X168350499Y-69342128D01*
X168344091Y-69282517D01*
X168293796Y-69147669D01*
X168293795Y-69147668D01*
X168293793Y-69147664D01*
X168207547Y-69032455D01*
X168207544Y-69032452D01*
X168092335Y-68946206D01*
X168092328Y-68946202D01*
X167957482Y-68895908D01*
X167957483Y-68895908D01*
X167897883Y-68889501D01*
X167897881Y-68889500D01*
X167897873Y-68889500D01*
X167897864Y-68889500D01*
X166102129Y-68889500D01*
X166102123Y-68889501D01*
X166042516Y-68895908D01*
X165907671Y-68946202D01*
X165907664Y-68946206D01*
X165792455Y-69032452D01*
X165792452Y-69032455D01*
X165706206Y-69147664D01*
X165706202Y-69147671D01*
X165655909Y-69282516D01*
X165653323Y-69306563D01*
X165626583Y-69371113D01*
X165569190Y-69410960D01*
X165499364Y-69413451D01*
X165442353Y-69380985D01*
X163973549Y-67912181D01*
X163940064Y-67850858D01*
X163945048Y-67781166D01*
X163986920Y-67725233D01*
X164052384Y-67700816D01*
X164061230Y-67700500D01*
X180675500Y-67700500D01*
X180742539Y-67720185D01*
X180788294Y-67772989D01*
X180799500Y-67824500D01*
X180799500Y-133575500D01*
X180779815Y-133642539D01*
X180727011Y-133688294D01*
X180675500Y-133699500D01*
X119324500Y-133699500D01*
X119257461Y-133679815D01*
X119211706Y-133627011D01*
X119200500Y-133575500D01*
X119200500Y-125349983D01*
X126949500Y-125349983D01*
X126949500Y-126650001D01*
X126949501Y-126650018D01*
X126960000Y-126752796D01*
X126960001Y-126752799D01*
X127015185Y-126919331D01*
X127015187Y-126919336D01*
X127021305Y-126929255D01*
X127107288Y-127068656D01*
X127231344Y-127192712D01*
X127327890Y-127252262D01*
X127386120Y-127288178D01*
X127432845Y-127340126D01*
X127444068Y-127409088D01*
X127416224Y-127473171D01*
X127408706Y-127481398D01*
X127269889Y-127620215D01*
X127144951Y-127792179D01*
X127048444Y-127981585D01*
X126982753Y-128183760D01*
X126952301Y-128376027D01*
X126949500Y-128393713D01*
X126949500Y-128606287D01*
X126982754Y-128816243D01*
X127000893Y-128872070D01*
X127048444Y-129018414D01*
X127144951Y-129207820D01*
X127269890Y-129379786D01*
X127420213Y-129530109D01*
X127592179Y-129655048D01*
X127592181Y-129655049D01*
X127592184Y-129655051D01*
X127781588Y-129751557D01*
X127983757Y-129817246D01*
X128193713Y-129850500D01*
X128193714Y-129850500D01*
X128706286Y-129850500D01*
X128706287Y-129850500D01*
X128916243Y-129817246D01*
X129118412Y-129751557D01*
X129307816Y-129655051D01*
X129383625Y-129599973D01*
X129479786Y-129530109D01*
X129479788Y-129530106D01*
X129479792Y-129530104D01*
X129630104Y-129379792D01*
X129630106Y-129379788D01*
X129630109Y-129379786D01*
X129755048Y-129207820D01*
X129755047Y-129207820D01*
X129755051Y-129207816D01*
X129851557Y-129018412D01*
X129917246Y-128816243D01*
X129950500Y-128606287D01*
X129950500Y-128543713D01*
X134499500Y-128543713D01*
X134499500Y-129056286D01*
X134532703Y-129265925D01*
X134532754Y-129266243D01*
X134582497Y-129419336D01*
X134598444Y-129468414D01*
X134694951Y-129657820D01*
X134819890Y-129829786D01*
X134970213Y-129980109D01*
X135142179Y-130105048D01*
X135142181Y-130105049D01*
X135142184Y-130105051D01*
X135331588Y-130201557D01*
X135533757Y-130267246D01*
X135743713Y-130300500D01*
X135743714Y-130300500D01*
X135956286Y-130300500D01*
X135956287Y-130300500D01*
X136166243Y-130267246D01*
X136368412Y-130201557D01*
X136557816Y-130105051D01*
X136621290Y-130058935D01*
X136729784Y-129980110D01*
X136729784Y-129980109D01*
X136729792Y-129980104D01*
X136868967Y-129840928D01*
X136930286Y-129807446D01*
X136999978Y-129812430D01*
X137055912Y-129854301D01*
X137062184Y-129863515D01*
X137157684Y-130018345D01*
X137281654Y-130142315D01*
X137430875Y-130234356D01*
X137430880Y-130234358D01*
X137597302Y-130289505D01*
X137597309Y-130289506D01*
X137700019Y-130299999D01*
X138099999Y-130299999D01*
X138100000Y-130299998D01*
X138100000Y-129233012D01*
X138157007Y-129265925D01*
X138284174Y-129300000D01*
X138415826Y-129300000D01*
X138542993Y-129265925D01*
X138600000Y-129233012D01*
X138600000Y-130299999D01*
X138999972Y-130299999D01*
X138999986Y-130299998D01*
X139102697Y-130289505D01*
X139269119Y-130234358D01*
X139269124Y-130234356D01*
X139418345Y-130142315D01*
X139542315Y-130018345D01*
X139634356Y-129869124D01*
X139634358Y-129869119D01*
X139689505Y-129702697D01*
X139689506Y-129702690D01*
X139699999Y-129599986D01*
X139700000Y-129599973D01*
X139700000Y-129050000D01*
X138783012Y-129050000D01*
X138815925Y-128992993D01*
X138848327Y-128872070D01*
X159862000Y-128872070D01*
X159862000Y-129127930D01*
X159873431Y-129200099D01*
X159902026Y-129380640D01*
X159981088Y-129623972D01*
X159981089Y-129623975D01*
X160060033Y-129778910D01*
X160096510Y-129850499D01*
X160097250Y-129851950D01*
X160247632Y-130058935D01*
X160247636Y-130058940D01*
X160428559Y-130239863D01*
X160428564Y-130239867D01*
X160512019Y-130300500D01*
X160635553Y-130390252D01*
X160784580Y-130466185D01*
X160863524Y-130506410D01*
X160863527Y-130506411D01*
X160985193Y-130545942D01*
X161106861Y-130585474D01*
X161359570Y-130625500D01*
X161359571Y-130625500D01*
X161615429Y-130625500D01*
X161615430Y-130625500D01*
X161868139Y-130585474D01*
X162111475Y-130506410D01*
X162339447Y-130390252D01*
X162546442Y-130239862D01*
X162727362Y-130058942D01*
X162877752Y-129851947D01*
X162993910Y-129623975D01*
X163072974Y-129380639D01*
X163113000Y-129127930D01*
X163113000Y-128872070D01*
X163072974Y-128619361D01*
X162993910Y-128376025D01*
X162993910Y-128376024D01*
X162953685Y-128297080D01*
X162877752Y-128148053D01*
X162770206Y-128000028D01*
X162727367Y-127941064D01*
X162727363Y-127941059D01*
X162546440Y-127760136D01*
X162546435Y-127760132D01*
X162339450Y-127609750D01*
X162339449Y-127609749D01*
X162339447Y-127609748D01*
X162266410Y-127572533D01*
X162111475Y-127493589D01*
X162111472Y-127493588D01*
X161868140Y-127414526D01*
X161741784Y-127394513D01*
X161615430Y-127374500D01*
X161359570Y-127374500D01*
X161326007Y-127379816D01*
X161106859Y-127414526D01*
X160863527Y-127493588D01*
X160863524Y-127493589D01*
X160635549Y-127609750D01*
X160428564Y-127760132D01*
X160428559Y-127760136D01*
X160247636Y-127941059D01*
X160247632Y-127941064D01*
X160097250Y-128148049D01*
X159981089Y-128376024D01*
X159981088Y-128376027D01*
X159902026Y-128619359D01*
X159902026Y-128619361D01*
X159862000Y-128872070D01*
X138848327Y-128872070D01*
X138850000Y-128865826D01*
X138850000Y-128734174D01*
X138815925Y-128607007D01*
X138783012Y-128550000D01*
X139699999Y-128550000D01*
X139699999Y-128000028D01*
X139699998Y-128000013D01*
X139689505Y-127897302D01*
X139634358Y-127730880D01*
X139634356Y-127730875D01*
X139542315Y-127581654D01*
X139418345Y-127457684D01*
X139269124Y-127365643D01*
X139269119Y-127365641D01*
X139102697Y-127310494D01*
X139102690Y-127310493D01*
X138999986Y-127300000D01*
X138600000Y-127300000D01*
X138600000Y-128366988D01*
X138542993Y-128334075D01*
X138415826Y-128300000D01*
X138284174Y-128300000D01*
X138157007Y-128334075D01*
X138100000Y-128366988D01*
X138100000Y-127300000D01*
X137700028Y-127300000D01*
X137700012Y-127300001D01*
X137597302Y-127310494D01*
X137430880Y-127365641D01*
X137430875Y-127365643D01*
X137281654Y-127457684D01*
X137157683Y-127581655D01*
X137157680Y-127581659D01*
X137062183Y-127736484D01*
X137010235Y-127783209D01*
X136941273Y-127794430D01*
X136877191Y-127766587D01*
X136868964Y-127759068D01*
X136729786Y-127619890D01*
X136557820Y-127494951D01*
X136368414Y-127398444D01*
X136368413Y-127398443D01*
X136368412Y-127398443D01*
X136166243Y-127332754D01*
X136166241Y-127332753D01*
X136166240Y-127332753D01*
X136004957Y-127307208D01*
X135956287Y-127299500D01*
X135743713Y-127299500D01*
X135695042Y-127307208D01*
X135533760Y-127332753D01*
X135331585Y-127398444D01*
X135142179Y-127494951D01*
X134970213Y-127619890D01*
X134819890Y-127770213D01*
X134694951Y-127942179D01*
X134598444Y-128131585D01*
X134532753Y-128333760D01*
X134499500Y-128543713D01*
X129950500Y-128543713D01*
X129950500Y-128393713D01*
X129917246Y-128183757D01*
X129851557Y-127981588D01*
X129755051Y-127792184D01*
X129755049Y-127792181D01*
X129755048Y-127792179D01*
X129630109Y-127620213D01*
X129491294Y-127481398D01*
X129457809Y-127420075D01*
X129462793Y-127350383D01*
X129504665Y-127294450D01*
X129513879Y-127288178D01*
X129519331Y-127284814D01*
X129519334Y-127284814D01*
X129668656Y-127192712D01*
X129792712Y-127068656D01*
X129884814Y-126919334D01*
X129939999Y-126752797D01*
X129950500Y-126650009D01*
X129950499Y-125349992D01*
X129945804Y-125304035D01*
X129939999Y-125247203D01*
X129939998Y-125247200D01*
X129924356Y-125199996D01*
X129884814Y-125080666D01*
X129792712Y-124931344D01*
X129668656Y-124807288D01*
X129519334Y-124715186D01*
X129352797Y-124660001D01*
X129352795Y-124660000D01*
X129250010Y-124649500D01*
X127649998Y-124649500D01*
X127649981Y-124649501D01*
X127547203Y-124660000D01*
X127547200Y-124660001D01*
X127380668Y-124715185D01*
X127380663Y-124715187D01*
X127231342Y-124807289D01*
X127107289Y-124931342D01*
X127015187Y-125080663D01*
X127015186Y-125080666D01*
X126960001Y-125247203D01*
X126960001Y-125247204D01*
X126960000Y-125247204D01*
X126949500Y-125349983D01*
X119200500Y-125349983D01*
X119200500Y-116849983D01*
X126949500Y-116849983D01*
X126949500Y-118150001D01*
X126949501Y-118150018D01*
X126960000Y-118252796D01*
X126960001Y-118252799D01*
X126999557Y-118372169D01*
X127015186Y-118419334D01*
X127105032Y-118564999D01*
X127107289Y-118568657D01*
X127231344Y-118692712D01*
X127386120Y-118788178D01*
X127432845Y-118840126D01*
X127444068Y-118909088D01*
X127416224Y-118973171D01*
X127408706Y-118981398D01*
X127269889Y-119120215D01*
X127144951Y-119292179D01*
X127048444Y-119481585D01*
X126982753Y-119683760D01*
X126949500Y-119893713D01*
X126949500Y-120106286D01*
X126968149Y-120224035D01*
X126982754Y-120316243D01*
X126999245Y-120366998D01*
X127048444Y-120518414D01*
X127144951Y-120707820D01*
X127269890Y-120879786D01*
X127420213Y-121030109D01*
X127592179Y-121155048D01*
X127592181Y-121155049D01*
X127592184Y-121155051D01*
X127781588Y-121251557D01*
X127983757Y-121317246D01*
X128193713Y-121350500D01*
X128193714Y-121350500D01*
X128706286Y-121350500D01*
X128706287Y-121350500D01*
X128916243Y-121317246D01*
X129118412Y-121251557D01*
X129307816Y-121155051D01*
X129376027Y-121105493D01*
X129479786Y-121030109D01*
X129479788Y-121030106D01*
X129479792Y-121030104D01*
X129630104Y-120879792D01*
X129630106Y-120879788D01*
X129630109Y-120879786D01*
X129755048Y-120707820D01*
X129755047Y-120707820D01*
X129755051Y-120707816D01*
X129851557Y-120518412D01*
X129917246Y-120316243D01*
X129950500Y-120106287D01*
X129950500Y-119893713D01*
X129917246Y-119683757D01*
X129851557Y-119481588D01*
X129755051Y-119292184D01*
X129755049Y-119292181D01*
X129755048Y-119292179D01*
X129630109Y-119120213D01*
X129491294Y-118981398D01*
X129457809Y-118920075D01*
X129462793Y-118850383D01*
X129504665Y-118794450D01*
X129513879Y-118788178D01*
X129519331Y-118784814D01*
X129519334Y-118784814D01*
X129668656Y-118692712D01*
X129792712Y-118568656D01*
X129884814Y-118419334D01*
X129939999Y-118252797D01*
X129950500Y-118150009D01*
X129950499Y-116849992D01*
X129939999Y-116747203D01*
X129884814Y-116580666D01*
X129792712Y-116431344D01*
X129668656Y-116307288D01*
X129563958Y-116242710D01*
X129519336Y-116215187D01*
X129519331Y-116215185D01*
X129517862Y-116214698D01*
X129352797Y-116160001D01*
X129352795Y-116160000D01*
X129250010Y-116149500D01*
X127649998Y-116149500D01*
X127649981Y-116149501D01*
X127547203Y-116160000D01*
X127547200Y-116160001D01*
X127380668Y-116215185D01*
X127380663Y-116215187D01*
X127231342Y-116307289D01*
X127107289Y-116431342D01*
X127015187Y-116580663D01*
X127015186Y-116580666D01*
X126960001Y-116747203D01*
X126960001Y-116747204D01*
X126960000Y-116747204D01*
X126949500Y-116849983D01*
X119200500Y-116849983D01*
X119200500Y-108349983D01*
X126949500Y-108349983D01*
X126949500Y-109650001D01*
X126949501Y-109650018D01*
X126960000Y-109752796D01*
X126960001Y-109752799D01*
X127015185Y-109919331D01*
X127015187Y-109919336D01*
X127030667Y-109944433D01*
X127081488Y-110026828D01*
X127107289Y-110068657D01*
X127231344Y-110192712D01*
X127386120Y-110288178D01*
X127432845Y-110340126D01*
X127444068Y-110409088D01*
X127416224Y-110473171D01*
X127408706Y-110481398D01*
X127269889Y-110620215D01*
X127144951Y-110792179D01*
X127048444Y-110981585D01*
X126982753Y-111183760D01*
X126949500Y-111393713D01*
X126949500Y-111606286D01*
X126979513Y-111795785D01*
X126982754Y-111816243D01*
X127039749Y-111991656D01*
X127048444Y-112018414D01*
X127144951Y-112207820D01*
X127269890Y-112379786D01*
X127420213Y-112530109D01*
X127592179Y-112655048D01*
X127592181Y-112655049D01*
X127592184Y-112655051D01*
X127781588Y-112751557D01*
X127983757Y-112817246D01*
X128193713Y-112850500D01*
X128193714Y-112850500D01*
X128706286Y-112850500D01*
X128706287Y-112850500D01*
X128916243Y-112817246D01*
X129118412Y-112751557D01*
X129307816Y-112655051D01*
X129362742Y-112615145D01*
X129479786Y-112530109D01*
X129479788Y-112530106D01*
X129479792Y-112530104D01*
X129630104Y-112379792D01*
X129630106Y-112379788D01*
X129630109Y-112379786D01*
X129755048Y-112207820D01*
X129755047Y-112207820D01*
X129755051Y-112207816D01*
X129851557Y-112018412D01*
X129917246Y-111816243D01*
X129950500Y-111606287D01*
X129950500Y-111393713D01*
X129917246Y-111183757D01*
X129851557Y-110981588D01*
X129755051Y-110792184D01*
X129755049Y-110792181D01*
X129755048Y-110792179D01*
X129630109Y-110620213D01*
X129491294Y-110481398D01*
X129457809Y-110420075D01*
X129462793Y-110350383D01*
X129504665Y-110294450D01*
X129513879Y-110288178D01*
X129519331Y-110284814D01*
X129519334Y-110284814D01*
X129668656Y-110192712D01*
X129792712Y-110068656D01*
X129884814Y-109919334D01*
X129939999Y-109752797D01*
X129950500Y-109650009D01*
X129950499Y-108349992D01*
X129939999Y-108247203D01*
X129884814Y-108080666D01*
X129792712Y-107931344D01*
X129668656Y-107807288D01*
X129548447Y-107733143D01*
X129519336Y-107715187D01*
X129519331Y-107715185D01*
X129488157Y-107704855D01*
X129352797Y-107660001D01*
X129352795Y-107660000D01*
X129250010Y-107649500D01*
X127649998Y-107649500D01*
X127649981Y-107649501D01*
X127547203Y-107660000D01*
X127547200Y-107660001D01*
X127380668Y-107715185D01*
X127380663Y-107715187D01*
X127231342Y-107807289D01*
X127107289Y-107931342D01*
X127015187Y-108080663D01*
X127015185Y-108080668D01*
X126987349Y-108164670D01*
X126960001Y-108247203D01*
X126960001Y-108247204D01*
X126960000Y-108247204D01*
X126949500Y-108349983D01*
X119200500Y-108349983D01*
X119200500Y-91849983D01*
X126974500Y-91849983D01*
X126974500Y-93150001D01*
X126974501Y-93150018D01*
X126985000Y-93252796D01*
X126985001Y-93252799D01*
X127027081Y-93379786D01*
X127040186Y-93419334D01*
X127132288Y-93568656D01*
X127256344Y-93692712D01*
X127351747Y-93751557D01*
X127411120Y-93788178D01*
X127457845Y-93840126D01*
X127469068Y-93909088D01*
X127441224Y-93973171D01*
X127433706Y-93981398D01*
X127294889Y-94120215D01*
X127169951Y-94292179D01*
X127073444Y-94481585D01*
X127007753Y-94683760D01*
X126985536Y-94824035D01*
X126974500Y-94893713D01*
X126974500Y-95106287D01*
X127007754Y-95316243D01*
X127072265Y-95514787D01*
X127073444Y-95518414D01*
X127169951Y-95707820D01*
X127294890Y-95879786D01*
X127445209Y-96030105D01*
X127445214Y-96030109D01*
X127610218Y-96149991D01*
X127652884Y-96205320D01*
X127658863Y-96274934D01*
X127626258Y-96336729D01*
X127610218Y-96350627D01*
X127445540Y-96470272D01*
X127445535Y-96470276D01*
X127295276Y-96620535D01*
X127295272Y-96620540D01*
X127170379Y-96792442D01*
X127073904Y-96981782D01*
X127008242Y-97183870D01*
X127008242Y-97183873D01*
X126997769Y-97250000D01*
X128045854Y-97250000D01*
X128007370Y-97316657D01*
X127975000Y-97437465D01*
X127975000Y-97562535D01*
X128007370Y-97683343D01*
X128045854Y-97750000D01*
X126997769Y-97750000D01*
X127008242Y-97816126D01*
X127008242Y-97816129D01*
X127073904Y-98018217D01*
X127170379Y-98207557D01*
X127295272Y-98379459D01*
X127295276Y-98379464D01*
X127445535Y-98529723D01*
X127445540Y-98529727D01*
X127610218Y-98649372D01*
X127652884Y-98704701D01*
X127658863Y-98774315D01*
X127626258Y-98836110D01*
X127610218Y-98850008D01*
X127445214Y-98969890D01*
X127445209Y-98969894D01*
X127294890Y-99120213D01*
X127169951Y-99292179D01*
X127073444Y-99481585D01*
X127007753Y-99683760D01*
X126974500Y-99893713D01*
X126974500Y-100106286D01*
X127007729Y-100316089D01*
X127007754Y-100316243D01*
X127070872Y-100510500D01*
X127073444Y-100518414D01*
X127169951Y-100707820D01*
X127294890Y-100879786D01*
X127445213Y-101030109D01*
X127617179Y-101155048D01*
X127617181Y-101155049D01*
X127617184Y-101155051D01*
X127806588Y-101251557D01*
X128008757Y-101317246D01*
X128218713Y-101350500D01*
X128218714Y-101350500D01*
X128681286Y-101350500D01*
X128681287Y-101350500D01*
X128891243Y-101317246D01*
X129093412Y-101251557D01*
X129282816Y-101155051D01*
X129307792Y-101136905D01*
X129393004Y-101074996D01*
X133719435Y-101074996D01*
X133719435Y-101075003D01*
X133739630Y-101254249D01*
X133739631Y-101254254D01*
X133799211Y-101424523D01*
X133836901Y-101484506D01*
X133895184Y-101577262D01*
X134022738Y-101704816D01*
X134175478Y-101800789D01*
X134345745Y-101860368D01*
X134392823Y-101865672D01*
X134457236Y-101892737D01*
X134466621Y-101901211D01*
X137341263Y-104775855D01*
X137341267Y-104775858D01*
X137443710Y-104844309D01*
X137443711Y-104844309D01*
X137443715Y-104844312D01*
X137510396Y-104871931D01*
X137510398Y-104871933D01*
X137557543Y-104891461D01*
X137557548Y-104891463D01*
X137577597Y-104895451D01*
X137611196Y-104902134D01*
X137678392Y-104915501D01*
X137678394Y-104915501D01*
X137807721Y-104915501D01*
X137807741Y-104915500D01*
X144985812Y-104915500D01*
X145052851Y-104935185D01*
X145087387Y-104968377D01*
X145199954Y-105129141D01*
X145360858Y-105290045D01*
X145387161Y-105308462D01*
X145547266Y-105420568D01*
X145605275Y-105447618D01*
X145657714Y-105493791D01*
X145676866Y-105560984D01*
X145656650Y-105627865D01*
X145605275Y-105672382D01*
X145547267Y-105699431D01*
X145547265Y-105699432D01*
X145360858Y-105829954D01*
X145199954Y-105990858D01*
X145069432Y-106177265D01*
X145069431Y-106177267D01*
X144973261Y-106383502D01*
X144973258Y-106383511D01*
X144914366Y-106603302D01*
X144914364Y-106603313D01*
X144894532Y-106829998D01*
X144894532Y-106830001D01*
X144914364Y-107056686D01*
X144914366Y-107056697D01*
X144973258Y-107276488D01*
X144973261Y-107276497D01*
X145069431Y-107482732D01*
X145069432Y-107482734D01*
X145199954Y-107669141D01*
X145360858Y-107830045D01*
X145360861Y-107830047D01*
X145547266Y-107960568D01*
X145753504Y-108056739D01*
X145973308Y-108115635D01*
X146135146Y-108129794D01*
X146199998Y-108135468D01*
X146200000Y-108135468D01*
X146200001Y-108135468D01*
X146216629Y-108134013D01*
X146264850Y-108129794D01*
X146333350Y-108143560D01*
X146383533Y-108192175D01*
X146398878Y-108239439D01*
X146414630Y-108379249D01*
X146414631Y-108379254D01*
X146474211Y-108549523D01*
X146558558Y-108683760D01*
X146570184Y-108702262D01*
X146697738Y-108829816D01*
X146721655Y-108844844D01*
X146831553Y-108913898D01*
X146850478Y-108925789D01*
X147020745Y-108985368D01*
X147020750Y-108985369D01*
X147199996Y-109005565D01*
X147200000Y-109005565D01*
X147200004Y-109005565D01*
X147379249Y-108985369D01*
X147379252Y-108985368D01*
X147379255Y-108985368D01*
X147549522Y-108925789D01*
X147702262Y-108829816D01*
X147829816Y-108702262D01*
X147925789Y-108549522D01*
X147925792Y-108549510D01*
X147928810Y-108543248D01*
X147930650Y-108544134D01*
X147953305Y-108508061D01*
X148974548Y-107486819D01*
X149035871Y-107453334D01*
X149062229Y-107450500D01*
X150373920Y-107450500D01*
X150471462Y-107431096D01*
X150518913Y-107421658D01*
X150655495Y-107365084D01*
X150778416Y-107282951D01*
X150882951Y-107178416D01*
X150965084Y-107055495D01*
X151021658Y-106918913D01*
X151031096Y-106871462D01*
X151050500Y-106773920D01*
X151050500Y-104426079D01*
X151035686Y-104351608D01*
X151035686Y-104351607D01*
X151021659Y-104281088D01*
X150969146Y-104154312D01*
X150965084Y-104144505D01*
X150940062Y-104107057D01*
X150882954Y-104021588D01*
X150882953Y-104021587D01*
X150882951Y-104021584D01*
X150778416Y-103917049D01*
X149741499Y-102880132D01*
X148686819Y-101825451D01*
X148653334Y-101764128D01*
X148650500Y-101737770D01*
X148650500Y-92174659D01*
X148670185Y-92107620D01*
X148722989Y-92061865D01*
X148788383Y-92051439D01*
X148816276Y-92054582D01*
X148824999Y-92055565D01*
X148825000Y-92055565D01*
X148825003Y-92055565D01*
X149004249Y-92035369D01*
X149004252Y-92035368D01*
X149004255Y-92035368D01*
X149174522Y-91975789D01*
X149327262Y-91879816D01*
X149454816Y-91752262D01*
X149550789Y-91599522D01*
X149610368Y-91429255D01*
X149624110Y-91307289D01*
X149630565Y-91250003D01*
X149630565Y-91249996D01*
X149610369Y-91070750D01*
X149610368Y-91070745D01*
X149584646Y-90997236D01*
X149550789Y-90900478D01*
X149546666Y-90893917D01*
X149469506Y-90771117D01*
X149450500Y-90705145D01*
X149450500Y-89951142D01*
X149470185Y-89884103D01*
X149472865Y-89880365D01*
X149474812Y-89877265D01*
X149474816Y-89877262D01*
X149570789Y-89724522D01*
X149630368Y-89554255D01*
X149632730Y-89533294D01*
X149650565Y-89375003D01*
X149650565Y-89374996D01*
X149630369Y-89195750D01*
X149630368Y-89195745D01*
X149614194Y-89149522D01*
X149570789Y-89025478D01*
X149474816Y-88872738D01*
X149347262Y-88745184D01*
X149281774Y-88704035D01*
X149194523Y-88649211D01*
X149024254Y-88589631D01*
X149024249Y-88589630D01*
X148845004Y-88569435D01*
X148844996Y-88569435D01*
X148665750Y-88589630D01*
X148665745Y-88589631D01*
X148495476Y-88649211D01*
X148342739Y-88745183D01*
X148262325Y-88825597D01*
X148201001Y-88859081D01*
X148131310Y-88854097D01*
X148086963Y-88825596D01*
X147753308Y-88491940D01*
X147730643Y-88455870D01*
X147728812Y-88456753D01*
X147725792Y-88450483D01*
X147719822Y-88440982D01*
X147629816Y-88297738D01*
X147502262Y-88170184D01*
X147349523Y-88074211D01*
X147179254Y-88014631D01*
X147179249Y-88014630D01*
X147000004Y-87994435D01*
X146999996Y-87994435D01*
X146820750Y-88014630D01*
X146820745Y-88014631D01*
X146650476Y-88074211D01*
X146497737Y-88170184D01*
X146370184Y-88297737D01*
X146274211Y-88450476D01*
X146214631Y-88620745D01*
X146214630Y-88620750D01*
X146194435Y-88799996D01*
X146194435Y-88800003D01*
X146214630Y-88979249D01*
X146214631Y-88979254D01*
X146274211Y-89149523D01*
X146335981Y-89247829D01*
X146370184Y-89302262D01*
X146497738Y-89429816D01*
X146618292Y-89505565D01*
X146650483Y-89525792D01*
X146656753Y-89528812D01*
X146655870Y-89530643D01*
X146691940Y-89553308D01*
X147113181Y-89974548D01*
X147146666Y-90035871D01*
X147149500Y-90062229D01*
X147149500Y-95872523D01*
X147129815Y-95939562D01*
X147077011Y-95985317D01*
X147011620Y-95995744D01*
X147004024Y-95994888D01*
X147000000Y-95994435D01*
X146999999Y-95994435D01*
X146999996Y-95994435D01*
X146820750Y-96014630D01*
X146820745Y-96014631D01*
X146740983Y-96042542D01*
X146700028Y-96049500D01*
X140026080Y-96049500D01*
X139881092Y-96078340D01*
X139881082Y-96078343D01*
X139744511Y-96134912D01*
X139744498Y-96134919D01*
X139621584Y-96217048D01*
X139621580Y-96217051D01*
X137491937Y-98346693D01*
X137455873Y-98369370D01*
X137456750Y-98371191D01*
X137450475Y-98374212D01*
X137297737Y-98470184D01*
X137170184Y-98597737D01*
X137074211Y-98750476D01*
X137014631Y-98920745D01*
X137014630Y-98920750D01*
X136994435Y-99099996D01*
X136994435Y-99100003D01*
X137014630Y-99279249D01*
X137014631Y-99279254D01*
X137074211Y-99449523D01*
X137115122Y-99514632D01*
X137170184Y-99602262D01*
X137297738Y-99729816D01*
X137323000Y-99745689D01*
X137405833Y-99797737D01*
X137450478Y-99825789D01*
X137517223Y-99849144D01*
X137620745Y-99885368D01*
X137620750Y-99885369D01*
X137799996Y-99905565D01*
X137800000Y-99905565D01*
X137800004Y-99905565D01*
X137979249Y-99885369D01*
X137979252Y-99885368D01*
X137979255Y-99885368D01*
X138149522Y-99825789D01*
X138302262Y-99729816D01*
X138429816Y-99602262D01*
X138525789Y-99449522D01*
X138525792Y-99449510D01*
X138528810Y-99443248D01*
X138530650Y-99444134D01*
X138553305Y-99408061D01*
X140374548Y-97586819D01*
X140435871Y-97553334D01*
X140462229Y-97550500D01*
X144425547Y-97550500D01*
X144492586Y-97570185D01*
X144538341Y-97622989D01*
X144548285Y-97692147D01*
X144519260Y-97755703D01*
X144513228Y-97762181D01*
X143193555Y-99081853D01*
X143193549Y-99081861D01*
X143159325Y-99133078D01*
X143159326Y-99133079D01*
X143125099Y-99184302D01*
X143125098Y-99184304D01*
X143121222Y-99193663D01*
X143110005Y-99220745D01*
X143085771Y-99279254D01*
X143082727Y-99286602D01*
X143082724Y-99286608D01*
X143077949Y-99298133D01*
X143077948Y-99298136D01*
X143054965Y-99413687D01*
X143054963Y-99413693D01*
X143053911Y-99418980D01*
X143053911Y-99979350D01*
X143034905Y-100045322D01*
X142953622Y-100174681D01*
X142894042Y-100344950D01*
X142894041Y-100344955D01*
X142873846Y-100524201D01*
X142873846Y-100524208D01*
X142894041Y-100703454D01*
X142894042Y-100703459D01*
X142953622Y-100873728D01*
X142994015Y-100938012D01*
X143049595Y-101026467D01*
X143177149Y-101154021D01*
X143329889Y-101249994D01*
X143500156Y-101309573D01*
X143500161Y-101309574D01*
X143679407Y-101329770D01*
X143679411Y-101329770D01*
X143679415Y-101329770D01*
X143858660Y-101309574D01*
X143858663Y-101309573D01*
X143858666Y-101309573D01*
X144028933Y-101249994D01*
X144181673Y-101154021D01*
X144309227Y-101026467D01*
X144405200Y-100873727D01*
X144464779Y-100703460D01*
X144469462Y-100661896D01*
X144484976Y-100524208D01*
X144484976Y-100524201D01*
X144464780Y-100344955D01*
X144464779Y-100344950D01*
X144449050Y-100300000D01*
X144405200Y-100174683D01*
X144400888Y-100167821D01*
X144323917Y-100045322D01*
X144304911Y-99979350D01*
X144304911Y-99791041D01*
X144324596Y-99724002D01*
X144341230Y-99703360D01*
X144491183Y-99553407D01*
X144687821Y-99356768D01*
X144749142Y-99323285D01*
X144818833Y-99328269D01*
X144874767Y-99370140D01*
X144899184Y-99435605D01*
X144899500Y-99444451D01*
X144899500Y-100057870D01*
X144899501Y-100057876D01*
X144905908Y-100117483D01*
X144956202Y-100252328D01*
X144956206Y-100252335D01*
X145042452Y-100367544D01*
X145042455Y-100367547D01*
X145157664Y-100453793D01*
X145157671Y-100453797D01*
X145292513Y-100504090D01*
X145292514Y-100504090D01*
X145292517Y-100504091D01*
X145328353Y-100507944D01*
X145392901Y-100534679D01*
X145432751Y-100592070D01*
X145435246Y-100661896D01*
X145399595Y-100721985D01*
X145386223Y-100732805D01*
X145361182Y-100750339D01*
X145200342Y-100911179D01*
X145069865Y-101097517D01*
X144973734Y-101303673D01*
X144973730Y-101303682D01*
X144921127Y-101499999D01*
X144921128Y-101500000D01*
X145884314Y-101500000D01*
X145879920Y-101504394D01*
X145827259Y-101595606D01*
X145800000Y-101697339D01*
X145800000Y-101802661D01*
X145827259Y-101904394D01*
X145879920Y-101995606D01*
X145884314Y-102000000D01*
X144921128Y-102000000D01*
X144973730Y-102196317D01*
X144973733Y-102196325D01*
X144974556Y-102198089D01*
X144974685Y-102198940D01*
X144975583Y-102201406D01*
X144975087Y-102201586D01*
X144985052Y-102267166D01*
X144956536Y-102330951D01*
X144898061Y-102369194D01*
X144862177Y-102374500D01*
X137910453Y-102374500D01*
X137843414Y-102354815D01*
X137822772Y-102338181D01*
X135726211Y-100241621D01*
X135692726Y-100180298D01*
X135690673Y-100167838D01*
X135685368Y-100120745D01*
X135625789Y-99950478D01*
X135619573Y-99940586D01*
X135584878Y-99885368D01*
X135529816Y-99797738D01*
X135402262Y-99670184D01*
X135349468Y-99637011D01*
X135249523Y-99574211D01*
X135079254Y-99514631D01*
X135079249Y-99514630D01*
X134900004Y-99494435D01*
X134899996Y-99494435D01*
X134720750Y-99514630D01*
X134720745Y-99514631D01*
X134550476Y-99574211D01*
X134397737Y-99670184D01*
X134270184Y-99797737D01*
X134174211Y-99950476D01*
X134114631Y-100120745D01*
X134114630Y-100120750D01*
X134094435Y-100299995D01*
X134094435Y-100299997D01*
X134094435Y-100300000D01*
X134095331Y-100307949D01*
X134096248Y-100316089D01*
X134084192Y-100384911D01*
X134039003Y-100434962D01*
X134022743Y-100445179D01*
X134022739Y-100445182D01*
X133895184Y-100572737D01*
X133799211Y-100725476D01*
X133739631Y-100895745D01*
X133739630Y-100895750D01*
X133719435Y-101074996D01*
X129393004Y-101074996D01*
X129454786Y-101030109D01*
X129454788Y-101030106D01*
X129454792Y-101030104D01*
X129605104Y-100879792D01*
X129605106Y-100879788D01*
X129605109Y-100879786D01*
X129730048Y-100707820D01*
X129730047Y-100707820D01*
X129730051Y-100707816D01*
X129826557Y-100518412D01*
X129892246Y-100316243D01*
X129925500Y-100106287D01*
X129925500Y-99893713D01*
X129892246Y-99683757D01*
X129826557Y-99481588D01*
X129730051Y-99292184D01*
X129730049Y-99292181D01*
X129730048Y-99292179D01*
X129605109Y-99120213D01*
X129454790Y-98969894D01*
X129454785Y-98969890D01*
X129289781Y-98850008D01*
X129247115Y-98794678D01*
X129241136Y-98725065D01*
X129273741Y-98663270D01*
X129289781Y-98649371D01*
X129454466Y-98529721D01*
X129604723Y-98379464D01*
X129604727Y-98379459D01*
X129729620Y-98207557D01*
X129826095Y-98018217D01*
X129891757Y-97816129D01*
X129891757Y-97816126D01*
X129902231Y-97750000D01*
X128854146Y-97750000D01*
X128892630Y-97683343D01*
X128925000Y-97562535D01*
X128925000Y-97437465D01*
X128892630Y-97316657D01*
X128854146Y-97250000D01*
X129902231Y-97250000D01*
X129891757Y-97183873D01*
X129891757Y-97183870D01*
X129826095Y-96981782D01*
X129729620Y-96792442D01*
X129604727Y-96620540D01*
X129604723Y-96620535D01*
X129454464Y-96470276D01*
X129454459Y-96470272D01*
X129289781Y-96350627D01*
X129247115Y-96295297D01*
X129241136Y-96225684D01*
X129273741Y-96163889D01*
X129289776Y-96149994D01*
X129454792Y-96030104D01*
X129605104Y-95879792D01*
X129605106Y-95879788D01*
X129605109Y-95879786D01*
X129730048Y-95707820D01*
X129730047Y-95707820D01*
X129730051Y-95707816D01*
X129826557Y-95518412D01*
X129892246Y-95316243D01*
X129925500Y-95106287D01*
X129925500Y-94893713D01*
X129892246Y-94683757D01*
X129826557Y-94481588D01*
X129730051Y-94292184D01*
X129730049Y-94292181D01*
X129730048Y-94292179D01*
X129605109Y-94120213D01*
X129466294Y-93981398D01*
X129432809Y-93920075D01*
X129437793Y-93850383D01*
X129479665Y-93794450D01*
X129488879Y-93788178D01*
X129494331Y-93784814D01*
X129494334Y-93784814D01*
X129643656Y-93692712D01*
X129767712Y-93568656D01*
X129859814Y-93419334D01*
X129914999Y-93252797D01*
X129925500Y-93150009D01*
X129925499Y-91849992D01*
X129914999Y-91747203D01*
X129859814Y-91580666D01*
X129767712Y-91431344D01*
X129643656Y-91307288D01*
X129494334Y-91215186D01*
X129327797Y-91160001D01*
X129327795Y-91160000D01*
X129225010Y-91149500D01*
X127674998Y-91149500D01*
X127674981Y-91149501D01*
X127572203Y-91160000D01*
X127572200Y-91160001D01*
X127405668Y-91215185D01*
X127405663Y-91215187D01*
X127256342Y-91307289D01*
X127132289Y-91431342D01*
X127040187Y-91580663D01*
X127040185Y-91580668D01*
X127023899Y-91629816D01*
X126985001Y-91747203D01*
X126985001Y-91747204D01*
X126985000Y-91747204D01*
X126974500Y-91849983D01*
X119200500Y-91849983D01*
X119200500Y-82774998D01*
X120164773Y-82774998D01*
X120164773Y-82775001D01*
X120183657Y-83039027D01*
X120183658Y-83039034D01*
X120239921Y-83297673D01*
X120332426Y-83545690D01*
X120332428Y-83545694D01*
X120459280Y-83778005D01*
X120459285Y-83778013D01*
X120617906Y-83989907D01*
X120617922Y-83989925D01*
X120805074Y-84177077D01*
X120805092Y-84177093D01*
X121016986Y-84335714D01*
X121016994Y-84335719D01*
X121249305Y-84462571D01*
X121249309Y-84462573D01*
X121249311Y-84462574D01*
X121497322Y-84555077D01*
X121497325Y-84555077D01*
X121497326Y-84555078D01*
X121692552Y-84597546D01*
X121755974Y-84611343D01*
X121999660Y-84628772D01*
X122019999Y-84630227D01*
X122020000Y-84630227D01*
X122020001Y-84630227D01*
X122038885Y-84628876D01*
X122284026Y-84611343D01*
X122542678Y-84555077D01*
X122790689Y-84462574D01*
X123023011Y-84335716D01*
X123234915Y-84177087D01*
X123422087Y-83989915D01*
X123580716Y-83778011D01*
X123707574Y-83545689D01*
X123800077Y-83297678D01*
X123856343Y-83039026D01*
X123875227Y-82775000D01*
X123856343Y-82510974D01*
X123800077Y-82252322D01*
X123707574Y-82004311D01*
X123702181Y-81994435D01*
X123580719Y-81771994D01*
X123580714Y-81771986D01*
X123470693Y-81625014D01*
X124130000Y-81625014D01*
X124130000Y-82525000D01*
X125163520Y-82525000D01*
X125162665Y-82527064D01*
X125130000Y-82691282D01*
X125130000Y-82858718D01*
X125162665Y-83022936D01*
X125163520Y-83025000D01*
X124130000Y-83025000D01*
X124130000Y-83924985D01*
X124140493Y-84027689D01*
X124140494Y-84027696D01*
X124195641Y-84194118D01*
X124195643Y-84194123D01*
X124287684Y-84343344D01*
X124411655Y-84467315D01*
X124560876Y-84559356D01*
X124560881Y-84559358D01*
X124727303Y-84614505D01*
X124727310Y-84614506D01*
X124830014Y-84624999D01*
X124830027Y-84625000D01*
X125730000Y-84625000D01*
X125730000Y-83591480D01*
X125732064Y-83592335D01*
X125896282Y-83625000D01*
X126063718Y-83625000D01*
X126227936Y-83592335D01*
X126230000Y-83591480D01*
X126230000Y-84625000D01*
X127129973Y-84625000D01*
X127129985Y-84624999D01*
X127232689Y-84614506D01*
X127232696Y-84614505D01*
X127399118Y-84559358D01*
X127399123Y-84559356D01*
X127548344Y-84467315D01*
X127672315Y-84343344D01*
X127764356Y-84194123D01*
X127764358Y-84194118D01*
X127819505Y-84027696D01*
X127819506Y-84027689D01*
X127829999Y-83924985D01*
X127830000Y-83924972D01*
X127830000Y-83025000D01*
X126796480Y-83025000D01*
X126797335Y-83022936D01*
X126830000Y-82858718D01*
X126830000Y-82691282D01*
X126797335Y-82527064D01*
X126796480Y-82525000D01*
X127830000Y-82525000D01*
X127830000Y-81625027D01*
X127829999Y-81625014D01*
X127819506Y-81522310D01*
X127819505Y-81522303D01*
X127764358Y-81355881D01*
X127764356Y-81355876D01*
X127672315Y-81206655D01*
X127548344Y-81082684D01*
X127399123Y-80990643D01*
X127399118Y-80990641D01*
X127232696Y-80935494D01*
X127232689Y-80935493D01*
X127129985Y-80925000D01*
X126230000Y-80925000D01*
X126230000Y-81958519D01*
X126227936Y-81957665D01*
X126063718Y-81925000D01*
X125896282Y-81925000D01*
X125732064Y-81957665D01*
X125730000Y-81958519D01*
X125730000Y-80925000D01*
X124830014Y-80925000D01*
X124727310Y-80935493D01*
X124727303Y-80935494D01*
X124560881Y-80990641D01*
X124560876Y-80990643D01*
X124411655Y-81082684D01*
X124287684Y-81206655D01*
X124195643Y-81355876D01*
X124195641Y-81355881D01*
X124140494Y-81522303D01*
X124140493Y-81522310D01*
X124130000Y-81625014D01*
X123470693Y-81625014D01*
X123422093Y-81560092D01*
X123422077Y-81560074D01*
X123234925Y-81372922D01*
X123234907Y-81372906D01*
X123023013Y-81214285D01*
X123023005Y-81214280D01*
X122790694Y-81087428D01*
X122790690Y-81087426D01*
X122542673Y-80994921D01*
X122284034Y-80938658D01*
X122284027Y-80938657D01*
X122020001Y-80919773D01*
X122019999Y-80919773D01*
X121755972Y-80938657D01*
X121755965Y-80938658D01*
X121497326Y-80994921D01*
X121249309Y-81087426D01*
X121249305Y-81087428D01*
X121016994Y-81214280D01*
X121016986Y-81214285D01*
X120805092Y-81372906D01*
X120805074Y-81372922D01*
X120617922Y-81560074D01*
X120617906Y-81560092D01*
X120459285Y-81771986D01*
X120459280Y-81771994D01*
X120332428Y-82004305D01*
X120332426Y-82004309D01*
X120239921Y-82252326D01*
X120183658Y-82510965D01*
X120183657Y-82510972D01*
X120164773Y-82774998D01*
X119200500Y-82774998D01*
X119200500Y-70852070D01*
X136862000Y-70852070D01*
X136862000Y-71107929D01*
X136902026Y-71360640D01*
X136981088Y-71603972D01*
X136981089Y-71603975D01*
X137097250Y-71831950D01*
X137247632Y-72038935D01*
X137247636Y-72038940D01*
X137428559Y-72219863D01*
X137428564Y-72219867D01*
X137609107Y-72351038D01*
X137635553Y-72370252D01*
X137784580Y-72446185D01*
X137863524Y-72486410D01*
X137863527Y-72486411D01*
X137925079Y-72506410D01*
X138106861Y-72565474D01*
X138359570Y-72605500D01*
X138359571Y-72605500D01*
X138615429Y-72605500D01*
X138615430Y-72605500D01*
X138868139Y-72565474D01*
X139111475Y-72486410D01*
X139339447Y-72370252D01*
X139546442Y-72219862D01*
X139727362Y-72038942D01*
X139877752Y-71831947D01*
X139993910Y-71603975D01*
X140072974Y-71360639D01*
X140113000Y-71107930D01*
X140113000Y-70852070D01*
X140072974Y-70599361D01*
X140000409Y-70376027D01*
X139993911Y-70356027D01*
X139993910Y-70356024D01*
X139952396Y-70274549D01*
X139877752Y-70128053D01*
X139858538Y-70101607D01*
X139727367Y-69921064D01*
X139727363Y-69921059D01*
X139546440Y-69740136D01*
X139546435Y-69740132D01*
X139339449Y-69589749D01*
X139111475Y-69473589D01*
X139111472Y-69473588D01*
X138868140Y-69394526D01*
X138720318Y-69371113D01*
X138615430Y-69354500D01*
X138359570Y-69354500D01*
X138275333Y-69367842D01*
X138106859Y-69394526D01*
X137863527Y-69473588D01*
X137863524Y-69473589D01*
X137635551Y-69589749D01*
X137428564Y-69740132D01*
X137428559Y-69740136D01*
X137247636Y-69921059D01*
X137247632Y-69921064D01*
X137097250Y-70128049D01*
X136981089Y-70356024D01*
X136981088Y-70356027D01*
X136902026Y-70599359D01*
X136862000Y-70852070D01*
X119200500Y-70852070D01*
X119200500Y-67824500D01*
X119220185Y-67757461D01*
X119272989Y-67711706D01*
X119324500Y-67700500D01*
X158438770Y-67700500D01*
X158505809Y-67720185D01*
G37*
%TD.AperFunction*%
%TA.AperFunction,Conductor*%
G36*
X157886334Y-111800769D02*
G01*
X157942267Y-111842641D01*
X157966684Y-111908105D01*
X157967000Y-111916951D01*
X157967000Y-117363393D01*
X157967000Y-117486607D01*
X157974537Y-117524500D01*
X157974537Y-117524501D01*
X157974536Y-117524501D01*
X157991035Y-117607444D01*
X157991037Y-117607452D01*
X158004847Y-117640792D01*
X158004847Y-117640793D01*
X158038185Y-117721281D01*
X158038190Y-117721290D01*
X158064536Y-117760718D01*
X158064537Y-117760719D01*
X158106641Y-117823732D01*
X158106644Y-117823736D01*
X158198086Y-117915178D01*
X158198108Y-117915198D01*
X158877262Y-118594352D01*
X158910747Y-118655675D01*
X158909356Y-118714126D01*
X158882438Y-118814586D01*
X158882436Y-118814596D01*
X158861841Y-119049999D01*
X158861841Y-119050000D01*
X158882436Y-119285403D01*
X158882438Y-119285413D01*
X158924772Y-119443407D01*
X158923109Y-119513257D01*
X158883946Y-119571119D01*
X158819718Y-119598623D01*
X158804997Y-119599500D01*
X158619970Y-119599500D01*
X158559552Y-119611518D01*
X158516324Y-119620116D01*
X158499127Y-119623537D01*
X158385297Y-119670687D01*
X158385288Y-119670692D01*
X158282849Y-119739140D01*
X158239286Y-119782703D01*
X158195723Y-119826267D01*
X158195720Y-119826270D01*
X158128277Y-119893713D01*
X158109121Y-119912869D01*
X158047797Y-119946353D01*
X158035325Y-119948407D01*
X157988250Y-119953711D01*
X157817978Y-120013291D01*
X157671067Y-120105602D01*
X157603830Y-120124602D01*
X157536995Y-120104234D01*
X157517414Y-120088289D01*
X155636819Y-118207694D01*
X155603334Y-118146371D01*
X155600500Y-118120013D01*
X155600500Y-116556040D01*
X155600501Y-116556019D01*
X155600501Y-116426692D01*
X155600500Y-116426689D01*
X155595290Y-116400498D01*
X155584241Y-116344949D01*
X155579196Y-116319583D01*
X155579196Y-116319582D01*
X155577063Y-116308863D01*
X155576463Y-116305847D01*
X155564206Y-116276257D01*
X155552685Y-116248442D01*
X155534711Y-116205048D01*
X155529312Y-116192014D01*
X155529311Y-116192012D01*
X155529310Y-116192010D01*
X155460858Y-116089566D01*
X155460855Y-116089562D01*
X152933472Y-113562181D01*
X152899987Y-113500858D01*
X152904971Y-113431166D01*
X152946843Y-113375233D01*
X153012307Y-113350816D01*
X153021153Y-113350500D01*
X153900028Y-113350500D01*
X153940982Y-113357457D01*
X153991781Y-113375233D01*
X154020745Y-113385368D01*
X154020750Y-113385369D01*
X154199996Y-113405565D01*
X154200000Y-113405565D01*
X154200004Y-113405565D01*
X154379249Y-113385369D01*
X154379252Y-113385368D01*
X154379255Y-113385368D01*
X154549522Y-113325789D01*
X154702262Y-113229816D01*
X154829816Y-113102262D01*
X154925789Y-112949522D01*
X154985368Y-112779255D01*
X154988489Y-112751555D01*
X155005565Y-112600003D01*
X155005565Y-112599996D01*
X154985369Y-112420750D01*
X154985366Y-112420737D01*
X154974770Y-112390455D01*
X154971208Y-112320676D01*
X155005936Y-112260049D01*
X155067930Y-112227821D01*
X155091811Y-112225500D01*
X157161608Y-112225500D01*
X157161608Y-112225499D01*
X157250512Y-112207816D01*
X157250513Y-112207816D01*
X157261255Y-112205679D01*
X157282452Y-112201463D01*
X157282457Y-112201460D01*
X157282460Y-112201460D01*
X157315787Y-112187654D01*
X157315786Y-112187654D01*
X157315792Y-112187652D01*
X157396286Y-112154312D01*
X157447509Y-112120084D01*
X157454511Y-112115406D01*
X157483389Y-112096110D01*
X157498733Y-112085858D01*
X157585858Y-111998733D01*
X157585860Y-111998729D01*
X157755322Y-111829267D01*
X157816642Y-111795785D01*
X157886334Y-111800769D01*
G37*
%TD.AperFunction*%
%TA.AperFunction,Conductor*%
G36*
X150739450Y-113370185D02*
G01*
X150785205Y-113422989D01*
X150795631Y-113460617D01*
X150814630Y-113629249D01*
X150814631Y-113629254D01*
X150874211Y-113799523D01*
X150918626Y-113870208D01*
X150970184Y-113952262D01*
X151097738Y-114079816D01*
X151250478Y-114175789D01*
X151319678Y-114200003D01*
X151420745Y-114235368D01*
X151420750Y-114235369D01*
X151599996Y-114255565D01*
X151600000Y-114255565D01*
X151600003Y-114255565D01*
X151772243Y-114236158D01*
X151841065Y-114248212D01*
X151873807Y-114271696D01*
X153190031Y-115587921D01*
X153223515Y-115649242D01*
X153218531Y-115718934D01*
X153176659Y-115774867D01*
X153158645Y-115786084D01*
X153092182Y-115819949D01*
X152920213Y-115944890D01*
X152769894Y-116095209D01*
X152769890Y-116095214D01*
X152650008Y-116260218D01*
X152594678Y-116302884D01*
X152525065Y-116308863D01*
X152463270Y-116276257D01*
X152449372Y-116260218D01*
X152329727Y-116095540D01*
X152329723Y-116095535D01*
X152179464Y-115945276D01*
X152179459Y-115945272D01*
X152007557Y-115820379D01*
X151818215Y-115723903D01*
X151616124Y-115658241D01*
X151550000Y-115647768D01*
X151550000Y-116695854D01*
X151483343Y-116657370D01*
X151362535Y-116625000D01*
X151237465Y-116625000D01*
X151116657Y-116657370D01*
X151050000Y-116695854D01*
X151050000Y-115647768D01*
X151049999Y-115647768D01*
X150983875Y-115658241D01*
X150781784Y-115723903D01*
X150592442Y-115820379D01*
X150420540Y-115945272D01*
X150420535Y-115945276D01*
X150270276Y-116095535D01*
X150270272Y-116095540D01*
X150150627Y-116260218D01*
X150095297Y-116302884D01*
X150025684Y-116308863D01*
X149963889Y-116276257D01*
X149949991Y-116260218D01*
X149830109Y-116095214D01*
X149830105Y-116095209D01*
X149679786Y-115944890D01*
X149507820Y-115819951D01*
X149318414Y-115723444D01*
X149318413Y-115723443D01*
X149318412Y-115723443D01*
X149116243Y-115657754D01*
X149116241Y-115657753D01*
X149116240Y-115657753D01*
X148954957Y-115632208D01*
X148906287Y-115624500D01*
X148693713Y-115624500D01*
X148645042Y-115632208D01*
X148483760Y-115657753D01*
X148281585Y-115723444D01*
X148092179Y-115819951D01*
X147920215Y-115944889D01*
X147781398Y-116083706D01*
X147720075Y-116117190D01*
X147650383Y-116112206D01*
X147594450Y-116070334D01*
X147588178Y-116061120D01*
X147492712Y-115906344D01*
X147368657Y-115782289D01*
X147368656Y-115782288D01*
X147219334Y-115690186D01*
X147052797Y-115635001D01*
X147052795Y-115635000D01*
X146950016Y-115624500D01*
X146950009Y-115624500D01*
X146814351Y-115624500D01*
X146747312Y-115604815D01*
X146701557Y-115552011D01*
X146691613Y-115482853D01*
X146720638Y-115419297D01*
X146726670Y-115412819D01*
X146812003Y-115327486D01*
X146899917Y-115239571D01*
X146961238Y-115206088D01*
X147030929Y-115211072D01*
X147053566Y-115222259D01*
X147200478Y-115314570D01*
X147333082Y-115360970D01*
X147370745Y-115374149D01*
X147370750Y-115374150D01*
X147549996Y-115394346D01*
X147550000Y-115394346D01*
X147550004Y-115394346D01*
X147729249Y-115374150D01*
X147729252Y-115374149D01*
X147729255Y-115374149D01*
X147899522Y-115314570D01*
X148052262Y-115218597D01*
X148179816Y-115091043D01*
X148231664Y-115008526D01*
X148283997Y-114962237D01*
X148336657Y-114950500D01*
X149125028Y-114950500D01*
X149165982Y-114957457D01*
X149182418Y-114963209D01*
X149245745Y-114985368D01*
X149245750Y-114985369D01*
X149424996Y-115005565D01*
X149425000Y-115005565D01*
X149425004Y-115005565D01*
X149604249Y-114985369D01*
X149604252Y-114985368D01*
X149604255Y-114985368D01*
X149774522Y-114925789D01*
X149927262Y-114829816D01*
X150054816Y-114702262D01*
X150150789Y-114549522D01*
X150210368Y-114379255D01*
X150222487Y-114271697D01*
X150230565Y-114200003D01*
X150230565Y-114199996D01*
X150210369Y-114020750D01*
X150210368Y-114020745D01*
X150162987Y-113885339D01*
X150150789Y-113850478D01*
X150138338Y-113830663D01*
X150076160Y-113731707D01*
X150054816Y-113697738D01*
X149927262Y-113570184D01*
X149922338Y-113565260D01*
X149923609Y-113563988D01*
X149888705Y-113514260D01*
X149885855Y-113444448D01*
X149921200Y-113384178D01*
X149983518Y-113352584D01*
X150006158Y-113350500D01*
X150672411Y-113350500D01*
X150739450Y-113370185D01*
G37*
%TD.AperFunction*%
%TA.AperFunction,Conductor*%
G36*
X162654809Y-68720185D02*
G01*
X162675451Y-68736819D01*
X164913181Y-70974548D01*
X164946666Y-71035871D01*
X164949500Y-71062229D01*
X164949500Y-80296345D01*
X164929815Y-80363384D01*
X164877011Y-80409139D01*
X164807853Y-80419083D01*
X164744297Y-80390058D01*
X164737819Y-80384026D01*
X163802972Y-79449181D01*
X163769487Y-79387858D01*
X163774471Y-79318167D01*
X163793190Y-79286046D01*
X163792889Y-79285836D01*
X163795416Y-79282226D01*
X163795679Y-79281776D01*
X163795981Y-79281414D01*
X163795995Y-79281401D01*
X163931535Y-79087830D01*
X164031403Y-78873663D01*
X164092563Y-78645408D01*
X164113159Y-78410000D01*
X164092563Y-78174592D01*
X164031403Y-77946337D01*
X163931535Y-77732171D01*
X163920107Y-77715849D01*
X163795994Y-77538597D01*
X163628902Y-77371506D01*
X163628896Y-77371501D01*
X163443342Y-77241575D01*
X163399717Y-77186998D01*
X163392523Y-77117500D01*
X163424046Y-77055145D01*
X163443342Y-77038425D01*
X163514501Y-76988599D01*
X163628901Y-76908495D01*
X163795995Y-76741401D01*
X163931535Y-76547830D01*
X164031403Y-76333663D01*
X164092563Y-76105408D01*
X164113159Y-75870000D01*
X164092563Y-75634592D01*
X164031403Y-75406337D01*
X163931535Y-75192171D01*
X163856211Y-75084596D01*
X163795994Y-74998597D01*
X163628902Y-74831506D01*
X163628895Y-74831501D01*
X163435334Y-74695967D01*
X163435330Y-74695965D01*
X163435328Y-74695964D01*
X163221163Y-74596097D01*
X163221159Y-74596096D01*
X163221155Y-74596094D01*
X162992913Y-74534938D01*
X162992903Y-74534936D01*
X162757501Y-74514341D01*
X162757499Y-74514341D01*
X162522096Y-74534936D01*
X162522086Y-74534938D01*
X162293844Y-74596094D01*
X162293835Y-74596098D01*
X162079671Y-74695964D01*
X162079669Y-74695965D01*
X161886100Y-74831503D01*
X161764173Y-74953430D01*
X161702850Y-74986914D01*
X161633158Y-74981930D01*
X161577225Y-74940058D01*
X161560310Y-74909081D01*
X161511297Y-74777671D01*
X161511293Y-74777664D01*
X161425047Y-74662455D01*
X161425044Y-74662452D01*
X161309835Y-74576206D01*
X161309828Y-74576202D01*
X161174982Y-74525908D01*
X161174983Y-74525908D01*
X161115383Y-74519501D01*
X161115381Y-74519500D01*
X161115373Y-74519500D01*
X161115364Y-74519500D01*
X159319629Y-74519500D01*
X159319623Y-74519501D01*
X159260016Y-74525908D01*
X159125171Y-74576202D01*
X159125164Y-74576206D01*
X159009955Y-74662452D01*
X159009952Y-74662455D01*
X158923706Y-74777664D01*
X158923702Y-74777671D01*
X158873408Y-74912517D01*
X158867001Y-74972116D01*
X158867000Y-74972135D01*
X158867000Y-76107769D01*
X158847315Y-76174808D01*
X158830681Y-76195450D01*
X157812951Y-77213181D01*
X157751628Y-77246666D01*
X157725270Y-77249500D01*
X157589492Y-77249500D01*
X157554901Y-77244577D01*
X157409156Y-77202235D01*
X157409153Y-77202234D01*
X157409151Y-77202234D01*
X157378395Y-77199814D01*
X157374405Y-77199500D01*
X157374404Y-77199500D01*
X157025606Y-77199500D01*
X157025584Y-77199501D01*
X156990847Y-77202234D01*
X156990844Y-77202235D01*
X156842113Y-77245445D01*
X156842111Y-77245445D01*
X156842111Y-77245446D01*
X156708805Y-77324282D01*
X156708796Y-77324289D01*
X156599289Y-77433796D01*
X156599282Y-77433805D01*
X156520446Y-77567111D01*
X156477234Y-77715847D01*
X156477234Y-77715849D01*
X156474500Y-77750589D01*
X156474500Y-77788188D01*
X156472117Y-77812380D01*
X156449500Y-77926079D01*
X156449500Y-78073921D01*
X156472117Y-78187623D01*
X156474500Y-78211811D01*
X156474500Y-78249403D01*
X156477234Y-78284152D01*
X156477234Y-78284155D01*
X156477235Y-78284156D01*
X156520445Y-78432887D01*
X156520446Y-78432888D01*
X156599282Y-78566194D01*
X156599289Y-78566203D01*
X156708796Y-78675710D01*
X156708800Y-78675713D01*
X156708802Y-78675715D01*
X156842113Y-78754555D01*
X156990844Y-78797765D01*
X157025595Y-78800500D01*
X157374404Y-78800499D01*
X157409156Y-78797765D01*
X157554901Y-78755422D01*
X157589492Y-78750500D01*
X158161420Y-78750500D01*
X158258962Y-78731096D01*
X158306413Y-78721658D01*
X158442995Y-78665084D01*
X158492229Y-78632186D01*
X158565916Y-78582952D01*
X158663917Y-78484949D01*
X158725237Y-78451467D01*
X158794929Y-78456451D01*
X158850863Y-78498322D01*
X158875124Y-78561825D01*
X158882436Y-78645403D01*
X158882438Y-78645413D01*
X158943594Y-78873655D01*
X158943596Y-78873659D01*
X158943597Y-78873663D01*
X158955178Y-78898498D01*
X159043465Y-79087830D01*
X159043467Y-79087834D01*
X159098286Y-79166123D01*
X159179001Y-79281396D01*
X159179006Y-79281402D01*
X159346097Y-79448493D01*
X159346103Y-79448498D01*
X159531658Y-79578425D01*
X159575283Y-79633002D01*
X159582477Y-79702500D01*
X159550954Y-79764855D01*
X159531658Y-79781575D01*
X159346097Y-79911505D01*
X159179005Y-80078597D01*
X159043465Y-80272169D01*
X159043464Y-80272171D01*
X158943598Y-80486335D01*
X158943594Y-80486344D01*
X158882438Y-80714586D01*
X158882436Y-80714596D01*
X158861841Y-80949999D01*
X158861841Y-80950000D01*
X158882436Y-81185403D01*
X158882438Y-81185413D01*
X158943594Y-81413655D01*
X158943596Y-81413659D01*
X158943597Y-81413663D01*
X159011870Y-81560074D01*
X159043465Y-81627830D01*
X159043467Y-81627834D01*
X159179007Y-81821404D01*
X159179338Y-81821799D01*
X159179429Y-81822007D01*
X159182110Y-81825836D01*
X159181340Y-81826374D01*
X159207348Y-81885808D01*
X159196305Y-81954800D01*
X159172026Y-81989181D01*
X158410708Y-82750500D01*
X157701270Y-83459938D01*
X157701267Y-83459941D01*
X157678392Y-83482816D01*
X157614142Y-83547065D01*
X157586429Y-83588541D01*
X157586428Y-83588540D01*
X157545689Y-83649511D01*
X157545685Y-83649518D01*
X157517453Y-83717679D01*
X157517453Y-83717680D01*
X157498538Y-83763344D01*
X157498535Y-83763354D01*
X157474500Y-83884188D01*
X157474500Y-94853152D01*
X157454815Y-94920191D01*
X157438181Y-94940833D01*
X156119404Y-96259610D01*
X156058081Y-96293095D01*
X156031723Y-96295929D01*
X152478963Y-96295929D01*
X152411924Y-96276244D01*
X152366169Y-96223440D01*
X152356225Y-96154282D01*
X152385250Y-96090726D01*
X152391282Y-96084248D01*
X152767973Y-95707557D01*
X154228729Y-94246800D01*
X154228733Y-94246798D01*
X154315858Y-94159673D01*
X154384311Y-94057226D01*
X154384312Y-94057225D01*
X154419474Y-93972336D01*
X154431463Y-93943392D01*
X154455500Y-93822546D01*
X154455500Y-84444986D01*
X154474507Y-84379013D01*
X154485324Y-84361799D01*
X154516240Y-84312595D01*
X154555788Y-84249656D01*
X154581181Y-84177087D01*
X154615368Y-84079387D01*
X154615369Y-84079381D01*
X154635565Y-83900135D01*
X154635565Y-83900128D01*
X154615369Y-83720882D01*
X154615368Y-83720877D01*
X154606734Y-83696202D01*
X154555789Y-83550610D01*
X154546190Y-83535334D01*
X154459815Y-83397869D01*
X154332262Y-83270316D01*
X154179523Y-83174343D01*
X154009254Y-83114763D01*
X154009250Y-83114762D01*
X153940116Y-83106973D01*
X153875702Y-83079906D01*
X153855521Y-83050521D01*
X153830000Y-83025000D01*
X152796480Y-83025000D01*
X152797335Y-83022936D01*
X152830000Y-82858718D01*
X152830000Y-82691282D01*
X152797335Y-82527064D01*
X152796480Y-82525000D01*
X153830000Y-82525000D01*
X153830000Y-81625027D01*
X153829999Y-81625014D01*
X153819506Y-81522310D01*
X153819505Y-81522303D01*
X153764358Y-81355881D01*
X153764356Y-81355876D01*
X153672315Y-81206655D01*
X153548344Y-81082684D01*
X153544054Y-81080038D01*
X153497331Y-81028089D01*
X153486110Y-80959126D01*
X153513954Y-80895044D01*
X153572024Y-80856189D01*
X153609153Y-80850500D01*
X156810508Y-80850500D01*
X156845098Y-80855422D01*
X156990844Y-80897765D01*
X157025595Y-80900500D01*
X157374404Y-80900499D01*
X157409156Y-80897765D01*
X157557887Y-80854555D01*
X157691198Y-80775715D01*
X157800715Y-80666198D01*
X157879555Y-80532887D01*
X157922765Y-80384156D01*
X157925500Y-80349405D01*
X157925499Y-80311810D01*
X157927881Y-80287621D01*
X157950500Y-80173918D01*
X157950500Y-80026082D01*
X157950500Y-80026079D01*
X157927882Y-79912376D01*
X157925499Y-79888184D01*
X157925499Y-79850606D01*
X157925498Y-79850584D01*
X157922765Y-79815847D01*
X157922765Y-79815844D01*
X157879555Y-79667113D01*
X157800715Y-79533802D01*
X157800713Y-79533800D01*
X157800710Y-79533796D01*
X157691203Y-79424289D01*
X157691194Y-79424282D01*
X157610111Y-79376330D01*
X157557887Y-79345445D01*
X157409156Y-79302235D01*
X157409153Y-79302234D01*
X157409151Y-79302234D01*
X157378395Y-79299814D01*
X157374405Y-79299500D01*
X157374404Y-79299500D01*
X157025606Y-79299500D01*
X157025584Y-79299501D01*
X156990847Y-79302234D01*
X156990844Y-79302235D01*
X156845098Y-79344577D01*
X156810508Y-79349500D01*
X151999972Y-79349500D01*
X151959017Y-79342542D01*
X151879254Y-79314631D01*
X151879249Y-79314630D01*
X151700004Y-79294435D01*
X151699996Y-79294435D01*
X151520750Y-79314630D01*
X151520745Y-79314631D01*
X151440983Y-79342542D01*
X151400028Y-79349500D01*
X150571891Y-79349500D01*
X150504852Y-79329815D01*
X150459097Y-79277011D01*
X150449153Y-79207853D01*
X150478178Y-79144297D01*
X150484210Y-79137819D01*
X158082948Y-71539081D01*
X158082952Y-71539077D01*
X158145853Y-71444937D01*
X158165084Y-71416156D01*
X158221658Y-71279574D01*
X158250500Y-71134579D01*
X158250500Y-70872070D01*
X159862000Y-70872070D01*
X159862000Y-71127930D01*
X159873016Y-71197482D01*
X159902026Y-71380640D01*
X159981088Y-71623972D01*
X159981089Y-71623975D01*
X160032744Y-71725351D01*
X160087057Y-71831947D01*
X160097250Y-71851950D01*
X160247632Y-72058935D01*
X160247636Y-72058940D01*
X160428559Y-72239863D01*
X160428564Y-72239867D01*
X160533817Y-72316337D01*
X160635553Y-72390252D01*
X160784580Y-72466185D01*
X160863524Y-72506410D01*
X160863527Y-72506411D01*
X160981020Y-72544586D01*
X161106861Y-72585474D01*
X161359570Y-72625500D01*
X161359571Y-72625500D01*
X161615429Y-72625500D01*
X161615430Y-72625500D01*
X161868139Y-72585474D01*
X162111475Y-72506410D01*
X162339447Y-72390252D01*
X162546442Y-72239862D01*
X162727362Y-72058942D01*
X162877752Y-71851947D01*
X162993910Y-71623975D01*
X163072974Y-71380639D01*
X163113000Y-71127930D01*
X163113000Y-70872070D01*
X163072974Y-70619361D01*
X162993910Y-70376025D01*
X162993910Y-70376024D01*
X162942205Y-70274549D01*
X162877752Y-70148053D01*
X162858538Y-70121607D01*
X162727367Y-69941064D01*
X162727363Y-69941059D01*
X162546440Y-69760136D01*
X162546435Y-69760132D01*
X162339450Y-69609750D01*
X162339449Y-69609749D01*
X162339447Y-69609748D01*
X162266410Y-69572533D01*
X162111475Y-69493589D01*
X162111472Y-69493588D01*
X161868140Y-69414526D01*
X161741784Y-69394513D01*
X161615430Y-69374500D01*
X161359570Y-69374500D01*
X161275333Y-69387842D01*
X161106859Y-69414526D01*
X160863527Y-69493588D01*
X160863524Y-69493589D01*
X160635549Y-69609750D01*
X160428564Y-69760132D01*
X160428559Y-69760136D01*
X160247636Y-69941059D01*
X160247632Y-69941064D01*
X160097250Y-70148049D01*
X159981089Y-70376024D01*
X159981088Y-70376027D01*
X159902026Y-70619359D01*
X159902026Y-70619361D01*
X159862000Y-70872070D01*
X158250500Y-70872070D01*
X158250500Y-70362230D01*
X158270185Y-70295191D01*
X158286819Y-70274549D01*
X159824549Y-68736819D01*
X159885872Y-68703334D01*
X159912230Y-68700500D01*
X162587770Y-68700500D01*
X162654809Y-68720185D01*
G37*
%TD.AperFunction*%
%TA.AperFunction,Conductor*%
G36*
X165730100Y-90875274D02*
G01*
X165775855Y-90928078D01*
X165785799Y-90997236D01*
X165768054Y-91045561D01*
X165724211Y-91115334D01*
X165664630Y-91285610D01*
X165659326Y-91332685D01*
X165632258Y-91397099D01*
X165623787Y-91406481D01*
X164088152Y-92942116D01*
X164026829Y-92975601D01*
X163957137Y-92970617D01*
X163901204Y-92928745D01*
X163898896Y-92925558D01*
X163795995Y-92778599D01*
X163628901Y-92611505D01*
X163442905Y-92481269D01*
X163399281Y-92426692D01*
X163392088Y-92357193D01*
X163423610Y-92294839D01*
X163442905Y-92278119D01*
X163628582Y-92148105D01*
X163795605Y-91981082D01*
X163931100Y-91787578D01*
X164030929Y-91573492D01*
X164030932Y-91573486D01*
X164088136Y-91360000D01*
X163190512Y-91360000D01*
X163223425Y-91302993D01*
X163257500Y-91175826D01*
X163257500Y-91044174D01*
X163223425Y-90917007D01*
X163190512Y-90860000D01*
X163243512Y-90860000D01*
X163309484Y-90879006D01*
X163387581Y-90928078D01*
X163431825Y-90955878D01*
X163557927Y-91000003D01*
X163602092Y-91015457D01*
X163602097Y-91015458D01*
X163781343Y-91035654D01*
X163781347Y-91035654D01*
X163781351Y-91035654D01*
X163960596Y-91015458D01*
X163960599Y-91015457D01*
X163960602Y-91015457D01*
X164130869Y-90955878D01*
X164260230Y-90874594D01*
X164326202Y-90855589D01*
X165663061Y-90855589D01*
X165730100Y-90875274D01*
G37*
%TD.AperFunction*%
%TD*%
M02*
