%TF.GenerationSoftware,KiCad,Pcbnew,8.0.4-8.0.4-0~ubuntu22.04.1*%
%TF.CreationDate,2024-09-03T10:52:44+09:00*%
%TF.ProjectId,control_board,636f6e74-726f-46c5-9f62-6f6172642e6b,rev?*%
%TF.SameCoordinates,Original*%
%TF.FileFunction,Legend,Bot*%
%TF.FilePolarity,Positive*%
%FSLAX46Y46*%
G04 Gerber Fmt 4.6, Leading zero omitted, Abs format (unit mm)*
G04 Created by KiCad (PCBNEW 8.0.4-8.0.4-0~ubuntu22.04.1) date 2024-09-03 10:52:44*
%MOMM*%
%LPD*%
G01*
G04 APERTURE LIST*
%ADD10C,0.150000*%
%ADD11C,0.120000*%
G04 APERTURE END LIST*
D10*
X165942319Y-99666666D02*
X166656604Y-99666666D01*
X166656604Y-99666666D02*
X166799461Y-99619047D01*
X166799461Y-99619047D02*
X166894700Y-99523809D01*
X166894700Y-99523809D02*
X166942319Y-99380952D01*
X166942319Y-99380952D02*
X166942319Y-99285714D01*
X166942319Y-100666666D02*
X166942319Y-100095238D01*
X166942319Y-100380952D02*
X165942319Y-100380952D01*
X165942319Y-100380952D02*
X166085176Y-100285714D01*
X166085176Y-100285714D02*
X166180414Y-100190476D01*
X166180414Y-100190476D02*
X166228033Y-100095238D01*
X157754819Y-81261905D02*
X156754819Y-81261905D01*
X156754819Y-81261905D02*
X156754819Y-81500000D01*
X156754819Y-81500000D02*
X156802438Y-81642857D01*
X156802438Y-81642857D02*
X156897676Y-81738095D01*
X156897676Y-81738095D02*
X156992914Y-81785714D01*
X156992914Y-81785714D02*
X157183390Y-81833333D01*
X157183390Y-81833333D02*
X157326247Y-81833333D01*
X157326247Y-81833333D02*
X157516723Y-81785714D01*
X157516723Y-81785714D02*
X157611961Y-81738095D01*
X157611961Y-81738095D02*
X157707200Y-81642857D01*
X157707200Y-81642857D02*
X157754819Y-81500000D01*
X157754819Y-81500000D02*
X157754819Y-81261905D01*
X156754819Y-82738095D02*
X156754819Y-82261905D01*
X156754819Y-82261905D02*
X157231009Y-82214286D01*
X157231009Y-82214286D02*
X157183390Y-82261905D01*
X157183390Y-82261905D02*
X157135771Y-82357143D01*
X157135771Y-82357143D02*
X157135771Y-82595238D01*
X157135771Y-82595238D02*
X157183390Y-82690476D01*
X157183390Y-82690476D02*
X157231009Y-82738095D01*
X157231009Y-82738095D02*
X157326247Y-82785714D01*
X157326247Y-82785714D02*
X157564342Y-82785714D01*
X157564342Y-82785714D02*
X157659580Y-82738095D01*
X157659580Y-82738095D02*
X157707200Y-82690476D01*
X157707200Y-82690476D02*
X157754819Y-82595238D01*
X157754819Y-82595238D02*
X157754819Y-82357143D01*
X157754819Y-82357143D02*
X157707200Y-82261905D01*
X157707200Y-82261905D02*
X157659580Y-82214286D01*
D11*
%TO.C,J1*%
X165047500Y-70500000D02*
X165047500Y-129500000D01*
X164087500Y-125460000D02*
X164087500Y-74540000D01*
X161487500Y-74540000D02*
X164087500Y-74540000D01*
X158887500Y-125460000D02*
X164087500Y-125460000D01*
X137987500Y-67440000D02*
X161987500Y-67440000D01*
X161487500Y-77140000D02*
X161487500Y-74540000D01*
X158887500Y-77140000D02*
X161487500Y-77140000D01*
X158887500Y-74540000D02*
X160217500Y-74540000D01*
X158887500Y-75870000D02*
X158887500Y-74540000D01*
X158887500Y-125460000D02*
X158887500Y-77140000D01*
X161987500Y-132560000D02*
X158547500Y-132560000D01*
X158547500Y-133760000D02*
X158547500Y-132560000D01*
X141427500Y-133760000D02*
X158547500Y-133760000D01*
X137987500Y-132560000D02*
X141427500Y-132560000D01*
X141427500Y-132560000D02*
X141427500Y-133760000D01*
X134927500Y-70500000D02*
X134927500Y-74190000D01*
X134227500Y-85610000D02*
X134927500Y-85610000D01*
X134927500Y-85610000D02*
X134927500Y-104840000D01*
X133127500Y-112960000D02*
X134927500Y-112960000D01*
X134927500Y-112960000D02*
X134927500Y-117440000D01*
X133127500Y-125560000D02*
X134927500Y-125560000D01*
X134927500Y-125560000D02*
X134927500Y-129500000D01*
X134927500Y-74190000D02*
X134227500Y-74190000D01*
X134227500Y-74190000D02*
X134227500Y-85610000D01*
X134927500Y-104840000D02*
X133127500Y-104840000D01*
X133127500Y-104840000D02*
X133127500Y-112960000D01*
X134927500Y-117440000D02*
X133127500Y-117440000D01*
X133127500Y-117440000D02*
X133127500Y-125560000D01*
X161987500Y-67440000D02*
G75*
G02*
X165047500Y-70500000I1J-3059999D01*
G01*
X165047500Y-129500000D02*
G75*
G02*
X161987500Y-132560000I-3059999J-1D01*
G01*
X134927500Y-70500000D02*
G75*
G02*
X137987500Y-67440000I3060000J0D01*
G01*
X137987500Y-132560000D02*
G75*
G02*
X134927500Y-129500000I0J3060000D01*
G01*
%TO.C,D5*%
X156350000Y-80660000D02*
X158050000Y-80660000D01*
X158050000Y-78000000D02*
X158050000Y-80660000D01*
X156350000Y-78000000D02*
X156350000Y-80660000D01*
%TD*%
M02*
